<svg width="143" height="141" viewBox="0 0 143 141" fill="none" xmlns="http://www.w3.org/2000/svg">
<g clip-path="url(#clip0_245_4671)">
<path d="M70.7922 83.6558C68.852 83.86 66.8097 84.0302 64.7334 84.0983L72.392 134.952C72.6303 136.62 74.1961 137.743 75.8299 137.505C77.3276 137.266 78.4168 135.973 78.4168 134.475C78.4168 134.339 78.4168 134.169 78.3828 134.033L70.7922 83.6558Z" fill="white"/>
<path d="M71.0981 83.6217C71.0641 83.4515 70.928 83.3494 70.7578 83.3494C68.7495 83.5537 66.7072 83.7238 64.6989 83.7919C64.5968 83.7919 64.5287 83.826 64.4607 83.894C64.3926 83.9621 64.3926 84.0642 64.3926 84.1323L72.0853 134.986C72.3235 136.62 73.7531 137.845 75.421 137.845C75.5912 137.845 75.7614 137.845 75.9316 137.811C77.5995 137.539 78.7908 136.143 78.7908 134.475C78.7908 134.305 78.7908 134.135 78.7568 133.965L71.0981 83.6217ZM75.7954 137.198C74.2978 137.402 72.9022 136.347 72.698 134.918L65.0733 84.4387C66.8774 84.3365 68.7155 84.2004 70.5195 84.0302L78.076 134.101C78.1101 134.237 78.1101 134.373 78.1101 134.509C78.1101 135.803 77.1229 136.994 75.7954 137.198Z" fill="#1A1A1A"/>
<path d="M105.647 7.95437C101.529 6.32052 93.7679 5.77591 93.7679 5.77591V42.5374C93.6317 42.7757 85.4285 43.933 85.4285 43.933C85.4285 43.933 44.3441 44.001 43.8676 44.001C27.9716 44.001 24.4316 63.1647 24.4316 63.1647C24.4316 63.1647 24.4316 107.176 24.4316 107.449C24.8741 118.749 34.507 127.531 45.8078 127.531H65.6521C85.9731 127.531 99.8267 121.643 104.013 119.464C105.001 118.954 104.83 118.239 104.83 118.239V75.0441C107.69 73.9548 112.046 71.3339 112.931 65.241C113.068 64.2199 113.17 18.8126 113.17 18.8126C113.17 18.8126 110.174 9.7584 105.647 7.95437Z" fill="#1A1A1A"/>
<path d="M105.783 7.6821C101.665 6.04826 94.1421 5.50364 93.8017 5.4696C93.7337 5.4696 93.6315 5.50364 93.5635 5.53768C93.4954 5.60576 93.4613 5.67383 93.4613 5.77595V42.2992C92.5083 42.5374 88.1514 43.2182 85.4623 43.5926C85.4623 43.5926 44.412 43.6607 43.9014 43.6607C27.9374 43.6607 24.1932 62.8924 24.1592 63.1647C24.1592 64.9688 24.1592 107.21 24.1592 107.483C24.5676 118.715 34.3367 127.872 45.8757 127.872H65.7201C87.5046 127.872 101.597 121.132 104.217 119.771C105.409 119.158 105.205 118.273 105.205 118.273V75.2824C108.472 73.9889 112.455 71.1978 113.306 65.3091C113.442 64.2539 113.544 20.6848 113.544 18.8467C113.544 18.8127 113.544 18.7786 113.544 18.7446C113.374 18.3361 110.344 9.48614 105.783 7.6821ZM112.659 65.207C111.842 70.9255 107.928 73.5464 104.762 74.7718C104.626 74.8059 104.558 74.942 104.558 75.0782V118.341C104.558 118.375 104.66 118.818 103.911 119.226C101.324 120.553 87.3344 127.259 65.7201 127.259H45.8757C34.677 127.259 25.2144 118.375 24.8059 107.483C24.8059 107.04 24.8059 63.6413 24.7719 63.2668C24.8059 63.0626 28.448 44.3415 43.9014 44.3415C44.378 44.3415 85.4623 44.2734 85.4964 44.2734C93.8017 43.0821 93.9379 42.8778 94.04 42.7417C94.074 42.6736 94.1081 42.6396 94.1081 42.5715V6.15037C95.6398 6.28653 102.005 6.86518 105.545 8.29479C109.698 9.92864 112.659 18.2 112.897 18.9148C112.863 34.5725 112.795 64.3561 112.659 65.207Z" fill="#1A1A1A"/>
<path d="M90.9916 68.6095L90.1406 68.6127L90.1778 78.5519L91.0288 78.5487L90.9916 68.6095Z" fill="#3200FF"/>
<path d="M80.2871 59.4545L80.3211 69.4958H81.1721L81.1381 59.4545H80.2871Z" fill="#3200FF"/>
<path d="M75.6137 73.9196L74.7627 73.9226L74.7839 79.9133L75.6349 79.9103L75.6137 73.9196Z" fill="white"/>
<path d="M70.0707 75.2131L69.2197 75.2157L69.233 79.6747L70.084 79.6722L70.0707 75.2131Z" fill="white"/>
<path d="M86.0971 72.8304L85.2461 72.8334L85.2687 79.2326L86.1197 79.2296L86.0971 72.8304Z" fill="white"/>
<path d="M81.1586 70.1414L80.3076 70.1441L80.3382 79.9131L81.1891 79.9105L81.1586 70.1414Z" fill="white"/>
<path d="M75.5375 47.1998L74.6865 47.202L74.7251 62.1789L75.5761 62.1767L75.5375 47.1998Z" fill="white"/>
<path d="M75.5814 65.5125L74.7305 65.5147L74.7491 72.8329L75.6 72.8308L75.5814 65.5125Z" fill="white"/>
<path d="M86.1556 46.2465L85.3047 46.2487L85.3472 62.1107L86.1982 62.1084L86.1556 46.2465Z" fill="white"/>
<path d="M70.2084 70.4818L69.3574 70.4844L69.3681 73.9903L70.2191 73.9877L70.2084 70.4818Z" fill="white"/>
<path d="M86.0658 65.2403L85.2148 65.2425L85.2361 73.5139L86.0871 73.5117L86.0658 65.2403Z" fill="white"/>
<path d="M89.9551 45.3626L89.9891 54.9614H90.8401L90.806 45.3626H89.9551Z" fill="#01DB83"/>
<path d="M80.2549 47.2687L80.2889 56.8676H81.1399L81.1058 47.2687H80.2549Z" fill="#01DB83"/>
<path d="M100.399 64.117L99.5479 64.1191L99.5598 68.9186L100.411 68.9164L100.399 64.117Z" fill="white"/>
<path d="M96.2269 44.2044L95.376 44.2067L95.4265 63.5745L96.2774 63.5723L96.2269 44.2044Z" fill="white"/>
<path d="M99.6895 58.3312V61.8372H100.54V58.3312H99.6895Z" fill="white"/>
<path d="M98.9756 44.4776V47.8474H99.8265V44.4776H98.9756Z" fill="#01DB83"/>
<path d="M45.6039 49.0388H44.7529V53.8382H45.6039V49.0388Z" fill="white"/>
<path d="M40.5986 78.9925H41.4496L41.4836 60.9522H40.6327L40.5986 78.9925Z" fill="white"/>
<path d="M51.1166 69.2235H50.2656V83.1452H51.1166V69.2235Z" fill="white"/>
<path d="M51.1166 59.1822H50.2656V66.5004H51.1166V59.1822Z" fill="white"/>
<path d="M45.7387 56.1187H44.8877V59.6247H45.7387V56.1187Z" fill="white"/>
<path d="M46.9965 72.3891H46.1455V81.3412H46.9965V72.3891Z" fill="#01DB83"/>
<path d="M46.6928 66.2281H45.8418V69.5639H46.6928V66.2281Z" fill="#01DB83"/>
<path d="M94.9609 4.38034C94.178 4.34631 93.5313 4.99304 93.5313 5.77592C93.5313 6.52476 94.11 7.17149 94.8588 7.17149C101.156 7.34169 105.581 8.87341 108.032 11.6646C110.04 13.9792 110.755 17.3149 110.176 21.5357C108.474 33.4492 97.9223 42.4353 85.5663 42.4353H45.367C33.5897 42.4353 24.0249 52.2384 24.5014 64.1178C24.9439 75.4185 34.5768 84.2004 45.8776 84.2004H65.7219C86.0429 84.2004 99.8625 78.2097 104.083 76.1333C104.798 75.7589 105.07 74.8739 104.696 74.1591C104.321 73.5124 103.539 73.2741 102.858 73.5804C98.9434 75.4866 85.3281 81.3752 65.756 81.3752H45.401C35.1895 81.3752 26.9522 72.8656 27.3266 62.586C27.7011 52.817 36.0405 45.1924 45.8435 45.1924H85.6344C99.3519 45.1924 111.129 35.1851 113.001 21.8761C113.716 16.8044 112.763 12.7198 110.21 9.75841C107.215 6.42265 102.109 4.58457 94.9609 4.38034Z" fill="white"/>
<path d="M94.927 4.03998C93.974 4.03998 93.2251 4.82286 93.2251 5.77594C93.2251 6.69497 93.974 7.47786 94.893 7.5119C101.088 7.68209 105.445 9.17978 107.828 11.9029C109.768 14.1494 110.483 17.383 109.904 21.5357C108.236 33.313 97.7863 42.163 85.6345 42.163H45.3671C39.5466 42.163 34.1345 44.4776 30.0839 48.6643C26.0333 52.8511 23.957 58.3653 24.1612 64.1859C24.5697 75.4185 34.3387 84.5749 45.8777 84.5749H65.7221C86.2813 84.5749 100.373 78.3799 104.22 76.4737C104.662 76.2695 104.968 75.8951 105.105 75.4185C105.241 74.976 105.207 74.4655 104.968 74.057C104.526 73.2741 103.505 72.9678 102.722 73.3422C99.0116 75.1462 85.3282 81.1029 65.7561 81.1029H45.4012C40.5337 81.1029 36.0066 79.1628 32.6027 75.6568C29.1989 72.1508 27.4289 67.5557 27.5991 62.6882C27.9395 53.2595 36.1087 45.6009 45.8096 45.6009H85.6005C99.4882 45.6009 111.402 35.4574 113.308 22.0123C114.023 16.8384 113.069 12.6857 110.449 9.65632C107.385 6.15036 102.211 4.27825 94.927 4.03998ZM112.661 21.9101C110.789 35.049 99.1478 44.9542 85.6005 44.9542H45.8096C35.8023 44.9542 27.3608 52.8851 26.9864 62.6541C26.7822 67.6918 28.6202 72.4912 32.1262 76.1333C35.6321 79.7754 40.3294 81.7837 45.3671 81.7837H65.7221C85.4303 81.7837 99.2159 75.793 102.96 73.9549C103.471 73.7166 104.117 73.9208 104.39 74.3974C104.526 74.6697 104.56 74.976 104.492 75.2483C104.39 75.5206 104.22 75.7589 103.947 75.8951C100.135 77.7672 86.1792 83.9281 65.7221 83.9281H45.8777C34.6791 83.9281 25.2164 75.0441 24.8079 64.1518C24.6037 58.5014 26.646 53.1574 30.5604 49.1068C34.4748 45.0222 39.7508 42.8097 45.3671 42.8097H85.6005C98.0926 42.8097 108.815 33.7215 110.517 21.6378C111.129 17.315 110.38 13.9111 108.304 11.4944C105.819 8.63516 101.292 7.0694 94.893 6.86517C94.3143 6.86517 93.8718 6.35459 93.8718 5.77594C93.8718 5.16325 94.3484 4.68671 94.9611 4.68671C102.007 4.89094 107.045 6.69497 109.938 10.0648C112.457 12.958 113.376 16.9405 112.661 21.9101Z" fill="#1A1A1A"/>
<path d="M64.5601 42.4693L61.4966 22.1144L57.3099 10.9157C57.0376 10.0307 55.7441 10.2009 55.7101 11.1199L55.5059 22.9994L58.4332 42.4353L58.8416 45.2264L64.2878 81.2731C66.3981 81.171 68.4404 81.0349 70.3466 80.7966L64.9685 45.1924L64.5601 42.4693Z" fill="white"/>
<path d="M57.5826 10.8476C57.4124 10.3711 57.0039 10.0648 56.4934 10.0648C55.9488 10.0648 55.3701 10.4392 55.3361 11.154L55.1318 23.1015L63.9478 81.4093C63.9818 81.5795 64.118 81.6816 64.2541 81.6816C66.3305 81.5795 68.3728 81.4433 70.347 81.205C70.4151 81.205 70.5172 81.137 70.5512 81.0689C70.6193 81.0008 70.6193 80.8987 70.6193 80.8306L61.7693 22.0122L57.5826 10.8476ZM64.5605 81.0008L55.7786 23.0334L55.9828 11.154C55.9828 10.8136 56.2551 10.6774 56.4934 10.6774C56.5614 10.6774 56.8678 10.7115 56.9699 11.0519L61.1226 22.1824L69.9726 80.5924C68.2026 80.7966 66.3985 80.9327 64.5605 81.0008Z" fill="#1A1A1A"/>
<path d="M61.292 61.769L63.4364 75.7929L69.4272 74.9079L67.3168 60.884L61.292 61.769Z" fill="url(#paint0_radial_245_4671)"/>
<path d="M67.2839 60.5437L61.2932 61.4627C61.123 61.4968 60.9868 61.6669 61.0209 61.8371L63.1313 75.861C63.1313 75.929 63.1993 76.0312 63.2674 76.0652C63.3355 76.0992 63.4036 76.1333 63.4716 76.1333H63.5057L69.5305 75.2142C69.7007 75.1802 69.8368 75.01 69.8028 74.8398L67.6924 60.816C67.5903 60.6458 67.4201 60.5096 67.2839 60.5437ZM63.7099 75.4525L61.6676 62.0414L67.0457 61.2244L69.088 74.6356L63.7099 75.4525Z" fill="#1A1A1A"/>
<path d="M65.0376 45.8051C64.9355 45.1584 64.3569 44.7159 63.7101 44.818L60.034 45.3626C59.3873 45.4647 58.9448 46.0434 59.0469 46.6901L60.068 53.4297C60.1701 54.0764 60.7488 54.5189 61.3955 54.4168L65.0717 53.8722C65.7184 53.7701 66.1609 53.1914 66.0588 52.5447L65.0376 45.8051Z" fill="#4452FF"/>
<path d="M65.3441 45.737C65.208 44.9541 64.4591 44.3755 63.6422 44.4776L59.966 45.0222C59.1491 45.1583 58.6045 45.9072 58.7066 46.7241L59.7278 53.4637C59.8299 54.1785 60.4766 54.7231 61.1914 54.7231C61.2595 54.7231 61.3276 54.7231 61.4297 54.7231L65.1058 54.1785C65.5143 54.1104 65.8547 53.9062 66.0929 53.5999C66.3312 53.2935 66.4333 52.8851 66.3653 52.4766L65.3441 45.737ZM65.5824 53.2255C65.4462 53.3956 65.242 53.5318 65.0378 53.5658L61.3616 54.1105C60.8851 54.1785 60.4426 53.8381 60.3745 53.3956L59.3534 46.656C59.2853 46.1795 59.5916 45.771 60.0682 45.6689L63.7443 45.1243C63.7783 45.1243 63.8464 45.1243 63.8805 45.1243C64.2889 45.1243 64.6633 45.4307 64.7314 45.8391L65.7526 52.5787C65.7866 52.817 65.7185 53.0553 65.5824 53.2255Z" fill="#1A1A1A"/>
<path d="M82.4437 108.673L81.5928 108.676L81.638 122.393L82.4889 122.39L82.4437 108.673Z" fill="#3200FF"/>
<path d="M72.6166 98.9723L71.7656 98.9746L71.7923 109.016L72.6432 109.014L72.6166 98.9723Z" fill="#3200FF"/>
<path d="M67.0687 115.991L66.2178 115.994L66.243 124.265L67.094 124.263L67.0687 115.991Z" fill="white"/>
<path d="M61.5267 115.821L60.6758 115.824L60.6877 120.623L61.5387 120.621L61.5267 115.821Z" fill="white"/>
<path d="M57.3558 86.5142L56.5049 86.5165L56.5554 105.884L57.4063 105.882L57.3558 86.5142Z" fill="white"/>
<path d="M57.4408 119.293L56.5898 119.296L56.6058 124.299L57.4568 124.297L57.4408 119.293Z" fill="#3200FF"/>
<path d="M77.5853 114.528L76.7344 114.53L76.7623 123.346L77.6132 123.344L77.5853 114.528Z" fill="white"/>
<path d="M72.6439 110.817L71.793 110.82L71.8315 124.299L72.6825 124.297L72.6439 110.817Z" fill="white"/>
<path d="M66.9935 86.7525L66.1426 86.7548L66.1825 101.732L67.0335 101.729L66.9935 86.7525Z" fill="white"/>
<path d="M67.0375 105.031L66.1865 105.033L66.2051 112.352L67.0561 112.349L67.0375 105.031Z" fill="white"/>
<path d="M77.6459 85.7651L76.7949 85.7674L76.8375 101.629L77.6884 101.627L77.6459 85.7651Z" fill="white"/>
<path d="M61.6635 110.035L60.8125 110.037L60.8218 113.543L61.6728 113.541L61.6635 110.035Z" fill="white"/>
<path d="M77.5541 104.759L76.7031 104.761L76.7257 113.032L77.5767 113.03L77.5541 104.759Z" fill="white"/>
<path d="M82.2836 84.8801L81.4326 84.8825L81.4592 94.4813L82.3102 94.479L82.2836 84.8801Z" fill="#01DB83"/>
<path d="M72.5844 86.7866L71.7334 86.7887L71.7573 96.3875L72.6083 96.3854L72.5844 86.7866Z" fill="#01DB83"/>
<path d="M62.8812 86.8204L62.0303 86.8227L62.0568 96.4215L62.9078 96.4192L62.8812 86.8204Z" fill="#01DB83"/>
<path d="M60.9506 86.8203L60.0996 86.8227L60.1089 90.1584L60.9598 90.1561L60.9506 86.8203Z" fill="#01DB83"/>
<path d="M96.5586 111.329L96.5926 119.6H97.4436L97.4096 111.329H96.5586Z" fill="white"/>
<path d="M91.8881 112.996L91.0371 112.998L91.0504 117.798L91.9014 117.795L91.8881 112.996Z" fill="white"/>
<path d="M87.683 83.7231L86.832 83.7253L86.8825 103.093L87.7335 103.091L87.683 83.7231Z" fill="white"/>
<path d="M87.7689 116.468L86.918 116.471L86.9339 121.474L87.7849 121.472L87.7689 116.468Z" fill="#3200FF"/>
<path d="M97.3226 82.0553L96.4717 82.0574L96.5103 97.0344L97.3612 97.0322L97.3226 82.0553Z" fill="white"/>
<path d="M97.3646 100.368L96.5137 100.37L96.5336 107.688L97.3846 107.686L97.3646 100.368Z" fill="white"/>
<path d="M92.0267 107.209L91.1758 107.212L91.1865 110.718L92.0374 110.715L92.0267 107.209Z" fill="white"/>
<path d="M92.3721 83.9961L92.4061 93.595H93.2571L93.223 83.9961H92.3721Z" fill="#01DB83"/>
<path d="M91.2787 83.9955L90.4277 83.9975L90.4357 87.3333L91.2867 87.3313L91.2787 83.9955Z" fill="#01DB83"/>
<path d="M41.7756 86.7692L41.7627 95.0405L42.6137 95.0419L42.6266 86.7705L41.7756 86.7692Z" fill="white"/>
<path d="M37.0599 88.5913H36.209V93.3907H37.0599V88.5913Z" fill="white"/>
<path d="M32.9398 100.471H32.0889V119.839H32.9398V100.471Z" fill="white"/>
<path d="M32.1133 83.9459L32.1055 88.9495L32.9564 88.9508L32.9643 83.9472L32.1133 83.9459Z" fill="#3200FF"/>
<path d="M42.5736 109.355H41.7227V124.332H42.5736V109.355Z" fill="white"/>
<path d="M42.6078 98.7007H41.7568V106.019H42.6078V98.7007Z" fill="white"/>
<path d="M37.2299 95.6714H36.3789V99.1773H37.2299V95.6714Z" fill="white"/>
<path d="M38.4555 112.759H37.6045V122.357H38.4555V112.759Z" fill="#01DB83"/>
<path d="M37.3158 105.772L37.3105 109.108L38.1615 109.11L38.1667 105.774L37.3158 105.772Z" fill="#01DB83"/>
<path d="M103.127 13.5027L85.6314 1.79351C82.9424 -0.0105289 79.3003 0.704278 77.4963 3.42735L66.7742 19.4935C64.9701 22.1825 65.6849 25.8246 68.408 27.6287L85.9037 39.3379C88.5928 41.1419 92.2349 40.4271 94.0389 37.704L104.761 21.6379C106.565 18.9489 105.85 15.3068 103.127 13.5027Z" fill="url(#paint1_linear_245_4671)"/>
<path d="M103.331 13.2304L85.8012 1.55525C84.7801 0.874484 83.5887 0.500061 82.3633 0.500061C80.287 0.500061 78.3809 1.52121 77.2235 3.25717L66.5015 19.3233C65.5824 20.6848 65.242 22.3527 65.5824 23.9525C65.8888 25.5864 66.8418 26.9819 68.2034 27.901L85.6991 39.6102C86.7203 40.291 87.9116 40.6654 89.137 40.6654C91.2133 40.6654 93.1195 39.6442 94.2768 37.9083L104.999 21.8421C106.905 18.9829 106.156 15.1366 103.331 13.2304ZM104.488 21.4677L93.7662 37.5339C92.7451 39.0656 91.0091 39.9846 89.137 39.9846C88.0478 39.9846 86.9926 39.6783 86.0735 39.0656L68.5778 27.3564C67.3524 26.5394 66.5015 25.28 66.2291 23.8164C65.9568 22.3527 66.2291 20.8891 67.0461 19.6637L77.7682 3.59756C78.7893 2.06583 80.5253 1.14679 82.3974 1.14679C83.4866 1.14679 84.5418 1.48718 85.4608 2.06583L102.957 13.775C105.509 15.477 106.19 18.9148 104.488 21.4677Z" fill="#1A1A1A"/>
<path d="M1.25 43.4225L11.3254 73.2742L54.8945 65.7857L44.8191 35.968L1.25 43.4225Z" fill="url(#paint2_linear_245_4671)"/>
<path d="M45.1258 35.8659C45.0917 35.7298 44.9215 35.6276 44.7854 35.6617L1.21624 43.1501C1.11412 43.1501 1.04604 43.2182 1.012 43.2863C0.977966 43.3544 0.943928 43.4565 0.977966 43.5586L11.0533 73.4103C11.0874 73.5464 11.2235 73.6145 11.3597 73.6145C11.3937 73.6145 11.3937 73.6145 11.4278 73.6145L54.9969 66.1261C55.099 66.1261 55.1671 66.058 55.2011 65.9899C55.2352 65.9218 55.2692 65.8197 55.2352 65.7176L45.1258 35.8659ZM11.5299 72.8997L1.69277 43.6948L44.6152 36.3425L54.4863 65.5815L11.5299 72.8997Z" fill="#1A1A1A"/>
<path d="M41.5868 34.3342L39.5105 40.1207L10.9863 45.0222L11.9054 73.172L55.4405 65.7176L54.3853 32.1557L41.5868 34.3342Z" fill="url(#paint3_linear_245_4671)"/>
<path d="M54.5892 31.8834C54.5211 31.8153 54.419 31.8153 54.3169 31.8153L41.5185 34.0278C41.4164 34.0618 41.3142 34.1299 41.2802 34.232L39.2719 39.8143L10.952 44.6818C10.7818 44.7159 10.6797 44.852 10.6797 44.9882L11.5647 73.172C11.5647 73.2741 11.5987 73.3422 11.6668 73.4103C11.7349 73.4443 11.803 73.4783 11.871 73.4783C11.9051 73.4783 11.9051 73.4783 11.9391 73.4783L55.5083 65.9899C55.6784 65.9558 55.7806 65.8197 55.7806 65.6835L54.7254 32.1217C54.6913 32.0536 54.6573 31.9515 54.5892 31.8834ZM12.2114 72.7976L11.3264 45.2605L39.5783 40.427C39.6804 40.393 39.7825 40.3249 39.8166 40.2228L41.8248 34.6405L54.0786 32.5301L55.1338 65.4453L12.2114 72.7976Z" fill="#1A1A1A"/>
<path d="M37.8076 59.1141L38.3522 62.1095L55.2353 59.2162L55.1332 56.1187L37.8076 59.1141Z" fill="#1A1A1A"/>
<path d="M55.3371 55.8805C55.269 55.8124 55.1669 55.8124 55.0988 55.8124L37.7733 58.7737C37.7052 58.7737 37.6031 58.8418 37.5691 58.9099C37.535 58.978 37.501 59.0801 37.501 59.1481L38.0116 62.1776C38.0456 62.3478 38.1817 62.4499 38.3179 62.4499C38.3179 62.4499 38.3519 62.4499 38.386 62.4499L55.3031 59.5566C55.4732 59.5226 55.5754 59.3864 55.5754 59.2503L55.4732 56.1528C55.4732 56.0166 55.4052 55.9485 55.3371 55.8805ZM38.5902 61.7351L38.1817 59.3524L54.8265 56.4931L54.8946 58.9439L38.5902 61.7351Z" fill="#1A1A1A"/>
<path d="M140.162 44.3074C135.431 42.7416 129.406 35.1511 129.406 35.1511C129.406 35.1511 121.611 38.1124 115.756 36.1382C113.918 35.5255 112.455 37.772 111.365 41.0737C108.234 50.4003 110.106 60.6799 116.097 68.5087L118.343 71.436L121.747 70.2787C129.61 67.5556 136.077 61.7691 139.413 54.1445C141.455 49.5153 142.613 45.1243 140.162 44.3074Z" fill="#1A1A1A"/>
<path d="M140.264 44.0011C135.703 42.4693 129.746 35.0149 129.678 34.9468C129.576 34.8447 129.44 34.8107 129.303 34.8447C129.269 34.8788 124.912 36.4786 120.351 36.4786C118.683 36.4786 117.152 36.2403 115.858 35.8318C115.62 35.7638 115.382 35.7297 115.143 35.7297C113.578 35.7297 112.216 37.4317 111.059 40.9716C107.927 50.3322 109.697 60.6799 115.824 68.713L118.071 71.6403C118.139 71.7083 118.241 71.7764 118.309 71.7764C118.343 71.7764 118.377 71.7764 118.411 71.7424L121.815 70.5851C129.814 67.862 136.315 61.9053 139.651 54.3147C141.591 49.8897 142.238 46.8263 141.523 45.2264C141.319 44.6138 140.876 44.2053 140.264 44.0011ZM139.106 54.0424C135.839 61.4628 129.474 67.2833 121.645 69.9724L118.445 71.0616L116.335 68.3045C110.344 60.4757 108.608 50.3322 111.671 41.1759C112.727 38.0103 113.952 36.3424 115.177 36.3424C115.348 36.3424 115.518 36.3765 115.688 36.4445C117.05 36.887 118.615 37.1253 120.385 37.1253C124.47 37.1253 128.384 35.8659 129.337 35.5255C130.291 36.7168 135.669 43.1501 140.094 44.6138C140.536 44.7499 140.842 45.0563 141.013 45.4647C141.421 46.4178 141.455 48.7324 139.106 54.0424Z" fill="#1A1A1A"/>
<path d="M140.536 42.6395C135.805 41.0737 129.78 33.4832 129.78 33.4832C129.78 33.4832 121.985 36.4445 116.13 34.4703C114.292 33.8576 112.829 36.1041 111.739 39.4058C108.608 48.7324 110.48 59.012 116.471 66.8408L118.717 69.7681L122.121 68.6108C129.984 65.9218 136.451 60.1352 139.787 52.5106C141.829 47.8474 142.953 43.4564 140.536 42.6395Z" fill="white"/>
<path d="M140.638 42.3332C136.077 40.8015 130.12 33.3471 130.052 33.279C129.95 33.1769 129.814 33.1428 129.677 33.1769C129.643 33.2109 125.286 34.8107 120.725 34.8107C119.057 34.8107 117.526 34.5724 116.232 34.164C115.994 34.0959 115.756 34.0619 115.517 34.0619C113.952 34.0619 112.624 35.7638 111.433 39.3038C108.301 48.6643 110.071 59.012 116.198 67.0451L118.445 69.9724C118.513 70.0405 118.615 70.1085 118.683 70.1085C118.717 70.1085 118.751 70.1085 118.785 70.0745L122.189 68.9172C130.188 66.1601 136.689 60.2374 140.025 52.6468C141.965 48.2218 142.612 45.1584 141.897 43.5586C141.659 42.9459 141.25 42.5374 140.638 42.3332ZM139.48 52.3745C136.213 59.7949 129.848 65.6155 122.019 68.3045L118.819 69.3937L116.709 66.6366C110.718 58.8078 108.982 48.6643 112.046 39.508C113.101 36.3424 114.292 34.6745 115.551 34.6745C115.722 34.6745 115.892 34.7086 116.062 34.7767C117.424 35.2192 118.989 35.4574 120.759 35.4574C124.844 35.4574 128.758 34.198 129.711 33.8576C130.665 35.049 136.043 41.4822 140.468 42.9459C140.91 43.082 141.216 43.3543 141.387 43.7968C141.795 44.784 141.829 47.0645 139.48 52.3745Z" fill="#1A1A1A"/>
<path d="M128.349 38.3847C125.421 39.1335 120.826 39.9164 116.469 38.9974C116.265 39.4059 116.027 39.9845 115.754 40.8014C113.099 48.7324 114.631 57.5143 119.805 64.322L120.179 64.8326L120.69 64.6624C127.498 62.3477 133.012 57.3101 135.837 50.8768C136.926 48.426 137.335 46.9283 137.505 46.0774C133.999 44.2393 130.493 40.7334 128.349 38.3847Z" fill="#3200FF"/>
<path d="M128.587 38.1465C128.519 38.0443 128.383 38.0103 128.281 38.0444C126.477 38.5209 123.72 39.0655 120.758 39.0655C119.261 39.0655 117.831 38.9293 116.538 38.657C116.401 38.623 116.231 38.6911 116.197 38.8272C115.959 39.3378 115.721 39.9505 115.482 40.6653C112.793 48.6984 114.325 57.5824 119.601 64.4582L119.975 64.9687C120.044 65.0368 120.146 65.1049 120.214 65.1049C120.248 65.1049 120.282 65.1049 120.316 65.0709L120.826 64.9007C127.702 62.552 133.284 57.4462 136.144 50.9449C137.233 48.4261 137.675 46.8943 137.846 46.0774C137.88 45.9413 137.812 45.8051 137.675 45.737C134.238 44.0011 130.834 40.6653 128.587 38.1465ZM135.599 50.6726C132.808 57.0378 127.362 61.9734 120.656 64.288L120.35 64.3901L120.112 64.0497C114.972 57.3441 113.474 48.6643 116.095 40.8355C116.299 40.2568 116.504 39.7463 116.674 39.3038C117.967 39.5761 119.329 39.6782 120.792 39.6782C123.72 39.6782 126.443 39.1336 128.281 38.6911C130.527 41.1759 133.829 44.3755 137.233 46.1455C136.995 47.0305 136.586 48.4601 135.599 50.6726Z" fill="#1A1A1A"/>
<path d="M56.3749 113.351L42.0212 105.259C38.3225 103.159 33.6058 104.48 31.5359 108.171L24.6136 120.428C22.5097 124.119 23.8331 128.826 27.5318 130.891L41.8855 138.984C45.5842 141.084 50.3009 139.763 52.3708 136.072L59.2932 123.814C61.397 120.157 60.1076 115.451 56.3749 113.351Z" fill="#01DB83"/>
<path d="M56.5332 113.001L42.1349 104.866C40.9436 104.185 39.548 103.81 38.1865 103.81C35.2932 103.81 32.6042 105.376 31.1746 107.895L24.2307 120.217C22.0523 124.063 23.4138 128.999 27.2942 131.177L41.6924 139.312C42.8838 139.993 44.2793 140.368 45.6409 140.368C48.5341 140.368 51.2232 138.802 52.6528 136.283L59.5966 123.961C61.7751 120.115 60.3795 115.179 56.5332 113.001ZM59.018 123.655L52.0741 135.977C50.7466 138.291 48.2959 139.755 45.6068 139.755C44.3474 139.755 43.088 139.415 41.9647 138.802L27.5665 130.667C24.0265 128.658 22.733 124.131 24.7753 120.557L31.7192 108.235C33.0467 105.921 35.4974 104.457 38.1865 104.457C39.4459 104.457 40.7053 104.797 41.8286 105.41L56.2268 113.545C59.7668 115.588 61.0262 120.115 59.018 123.655Z" fill="#1A1A1A"/>
<path d="M125.217 106.087L123.209 101.39C122.63 100.028 121.609 99.0752 120.146 98.5306C120.792 97.101 120.792 95.7054 120.214 94.3439L118.205 89.6466C117.593 88.217 118.035 87.0937 119.567 86.2768L118.58 83.9281C115.618 85.6301 114.699 87.8766 115.891 90.6337L117.899 95.331C118.58 96.8968 118.171 97.986 116.742 98.5987L116.537 98.7008L117.525 101.049L117.729 100.947C119.158 100.335 120.214 100.811 120.894 102.377L122.903 107.074C124.094 109.865 126.306 110.75 129.608 109.797L128.621 107.449C126.953 107.993 125.83 107.551 125.217 106.087Z" fill="#1A1A1A"/>
<path d="M128.451 107.142C126.987 107.619 126.034 107.279 125.49 105.951L123.481 101.254C122.903 99.9262 121.916 98.9391 120.52 98.3604C121.065 96.9649 121.031 95.5693 120.486 94.2078L118.478 89.5105C117.933 88.217 118.307 87.298 119.703 86.5491L119.975 86.413L118.716 83.4516L118.41 83.6218C115.278 85.3918 114.325 87.8085 115.584 90.7358L117.593 95.4331C117.899 96.1479 117.967 96.7266 117.797 97.2031C117.627 97.6797 117.252 98.0201 116.606 98.2924L116.095 98.4966L117.32 101.424L117.831 101.22C119.09 100.675 119.975 101.084 120.554 102.513L122.562 107.21C123.481 109.389 125.047 110.512 127.225 110.512C127.974 110.512 128.791 110.376 129.642 110.138L129.983 110.036L128.723 107.074L128.451 107.142ZM123.141 106.972L121.167 102.275C120.622 101.015 119.839 100.369 118.818 100.369C118.478 100.369 118.069 100.437 117.661 100.607L116.912 98.837C117.661 98.4966 118.137 98.0201 118.376 97.4074C118.58 96.7947 118.512 96.0458 118.171 95.1949L116.163 90.4976C115.074 87.9787 115.823 85.9705 118.41 84.3707L119.158 86.1407C117.695 87.0257 117.286 88.251 117.899 89.7487L119.907 94.446C120.452 95.7395 120.418 97.0329 119.839 98.3945L119.703 98.7008L120.009 98.8029C121.405 99.3135 122.358 100.199 122.903 101.492L124.911 106.189C125.558 107.721 126.749 108.266 128.383 107.823L129.132 109.593C126.204 110.342 124.23 109.491 123.141 106.972Z" fill="#1A1A1A"/>
<path d="M137.097 95.5012C136.416 93.9354 136.825 92.8462 138.254 92.2335L138.459 92.1314L137.471 89.7827L137.267 89.8849C135.838 90.4975 134.782 90.021 134.136 88.4552L132.127 83.7579C130.936 80.9668 128.724 80.0818 125.422 81.0349L126.409 83.3835C128.043 82.8389 129.166 83.2814 129.779 84.7451L131.787 89.4424C132.366 90.8039 133.387 91.757 134.851 92.3016C134.204 93.7312 134.204 95.1268 134.782 96.4883L136.791 101.186C137.403 102.615 136.961 103.738 135.429 104.555L136.416 106.904C139.378 105.202 140.297 102.956 139.105 100.198L137.097 95.5012Z" fill="#1A1A1A"/>
<path d="M137.37 95.3651C136.758 93.9695 137.098 93.0504 138.358 92.5058L138.868 92.3016L137.643 89.3743L137.132 89.5785C136.758 89.7147 136.451 89.8168 136.145 89.8168C135.396 89.8168 134.818 89.3403 134.409 88.3191L132.401 83.6218C131.141 80.6945 128.759 79.7074 125.321 80.7285L124.98 80.8306L126.24 83.792L126.512 83.6899C127.976 83.2133 128.929 83.5537 129.474 84.8812L131.482 89.5785C132.06 90.906 133.048 91.8931 134.443 92.4718C133.899 93.8674 133.933 95.2629 134.477 96.6245L136.485 101.322C137.03 102.615 136.656 103.534 135.26 104.283L134.988 104.419L136.247 107.381L136.554 107.21C139.685 105.44 140.638 103.024 139.379 100.096L137.37 95.3651ZM136.519 106.462L135.771 104.692C137.234 103.807 137.643 102.581 137.03 101.084L135.022 96.3862C134.477 95.0927 134.511 93.7993 135.09 92.4377L135.226 92.1314L134.92 92.0293C133.524 91.5187 132.571 90.6337 132.026 89.3403L130.018 84.6429C129.371 83.1112 128.18 82.5666 126.546 83.0091L125.797 81.2391C128.725 80.4903 130.699 81.3412 131.754 83.8941L133.762 88.5914C134.307 89.8508 135.09 90.4976 136.111 90.4976C136.485 90.4976 136.86 90.4295 137.268 90.2593L138.017 92.0293C136.928 92.5058 135.873 93.527 136.792 95.6714L138.8 100.369C139.855 102.853 139.106 104.862 136.519 106.462Z" fill="#1A1A1A"/>
</g>
<mask id="mask0_245_4671" style="mask-type:luminance" maskUnits="userSpaceOnUse" x="74" y="8" width="25" height="26">
<path d="M93.225 10.6038C87.7318 6.97171 80.1555 8.66093 76.4134 14.3206C73.4416 18.8151 73.74 24.5147 76.8546 28.4879C77.2439 28.9846 77.6305 28.7617 77.8506 28.4288C77.9607 28.2624 78.511 27.43 79.0614 26.5977C75.7913 25.3925 76.5025 23.2313 76.5025 23.2313C76.7736 21.7359 76.3279 20.9626 76.3279 20.9626C75.9358 19.7465 76.7682 20.2968 76.7682 20.2968C77.7669 20.9571 77.6059 22.2862 77.6059 22.2862C77.4476 24.3346 79.1659 24.9923 79.8854 24.9895C80.3257 24.3237 80.9888 24.0445 81.4318 24.0981C79.3778 22.5008 77.7078 19.9612 80.2392 16.1326C81.0097 14.9674 81.8929 14.3552 83.1091 13.9631C83.1627 13.5201 83.4902 12.3012 85.0366 11.4097C85.0366 11.4097 86.089 11.6272 87.206 14.2796C88.1484 14.6635 89.0908 15.0473 89.9231 15.5976C90.7554 16.148 91.4776 16.8648 92.1998 17.5815C94.9114 17.4605 95.6901 18.4538 95.6901 18.4538C95.309 20.1157 94.2056 21.0608 94.0955 21.2273C94.3211 22.3334 93.9936 23.5523 93.2232 24.7175C90.5817 28.7126 87.7009 28.004 85.4268 26.7396C85.5396 27.2927 85.4323 28.1786 84.882 29.0109C84.0015 30.3426 83.231 31.5079 83.0109 31.8408C82.7908 32.1737 82.7371 32.6167 83.3466 32.7804C88.2222 34.0902 93.5834 32.1327 96.5552 27.6383C100.131 21.8685 98.7182 14.2359 93.225 10.6038Z" fill="white"/>
</mask>
<g mask="url(#mask0_245_4671)">
<mask id="mask1_245_4671" style="mask-type:luminance" maskUnits="userSpaceOnUse" x="-52" y="-1494" width="3765" height="3427">
<path d="M3712.83 267.509L1049.45 -1493.51L-51.1846 171.105L2612.19 1932.12L3712.83 267.509Z" fill="white"/>
</mask>
<g mask="url(#mask1_245_4671)">
<path d="M105.972 16.644L82.667 1.23508L67.2581 24.5396L90.5627 39.9485L105.972 16.644Z" fill="#1A1A1A"/>
</g>
</g>
<path fill-rule="evenodd" clip-rule="evenodd" d="M41.3883 113.214C46.3962 112.229 51.4154 115.206 52.8876 120.206C54.4447 125.493 51.4105 131.059 46.1109 132.62C40.9992 134.126 35.6295 131.346 33.8642 126.365L37.8765 125.183C38.9788 127.956 42.0207 129.477 44.9334 128.62C48.021 127.71 49.7968 124.471 48.8872 121.383C48.0667 118.596 45.3649 116.892 42.5734 117.24L41.3883 113.214Z" fill="#1A1A1A"/>
<path d="M41.0739 118.245L39.8855 113.814L35.5797 114.949L36.7675 119.381L32.3315 120.55L33.4855 124.851L37.9216 123.681L42.2273 122.547L41.0739 118.245Z" fill="#1A1A1A"/>
<defs>
<radialGradient id="paint0_radial_245_4671" cx="0" cy="0" r="1" gradientUnits="userSpaceOnUse" gradientTransform="translate(65.3715 68.338) scale(6.01373 6.01374)">
<stop stop-color="#B7FF9E"/>
<stop offset="0.1303" stop-color="#B4FAA1"/>
<stop offset="0.2843" stop-color="#ABECA9"/>
<stop offset="0.4502" stop-color="#9CD4B6"/>
<stop offset="0.6247" stop-color="#87B3C9"/>
<stop offset="0.8059" stop-color="#6B88E1"/>
<stop offset="0.9901" stop-color="#4B54FE"/>
<stop offset="0.9944" stop-color="#4A53FF"/>
</radialGradient>
<linearGradient id="paint1_linear_245_4671" x1="85.7695" y1="2.56468" x2="85.7695" y2="39.2815" gradientUnits="userSpaceOnUse">
<stop stop-color="#B7FF9E"/>
<stop offset="0.114" stop-color="#B1F5A4"/>
<stop offset="0.3072" stop-color="#A0DAB3"/>
<stop offset="0.556" stop-color="#84AFCB"/>
<stop offset="0.8478" stop-color="#5F74ED"/>
<stop offset="0.9944" stop-color="#4A53FF"/>
</linearGradient>
<linearGradient id="paint2_linear_245_4671" x1="28.0726" y1="37.4169" x2="28.0726" y2="55.8013" gradientUnits="userSpaceOnUse">
<stop stop-color="#B7FF9E"/>
<stop offset="0.0346731" stop-color="#B1F6A3"/>
<stop offset="0.2821" stop-color="#8DBDC3"/>
<stop offset="0.5105" stop-color="#708FDD"/>
<stop offset="0.7126" stop-color="#5B6EF0"/>
<stop offset="0.8808" stop-color="#4F5AFB"/>
<stop offset="0.9944" stop-color="#4A53FF"/>
</linearGradient>
<linearGradient id="paint3_linear_245_4671" x1="30.6406" y1="40.4474" x2="35.8425" y2="65.8791" gradientUnits="userSpaceOnUse">
<stop stop-color="#B7FF9E"/>
<stop offset="0.1237" stop-color="#AFF2A5"/>
<stop offset="0.3544" stop-color="#98CFB9"/>
<stop offset="0.667" stop-color="#7496D9"/>
<stop offset="0.9944" stop-color="#4A53FF"/>
</linearGradient>
<clipPath id="clip0_245_4671">
<rect width="141.259" height="140" fill="white" transform="translate(0.945312 0.5)"/>
</clipPath>
</defs>
</svg>
