<svg width="140" height="141" viewBox="0 0 140 141" fill="none" xmlns="http://www.w3.org/2000/svg">
<path d="M134.762 12.5749H94.0487C91.4567 12.5749 89.3389 14.6927 89.3389 17.2848V112.683C89.3389 115.275 91.4567 117.393 94.0487 117.393H134.762C137.354 117.393 139.472 115.275 139.472 112.683V17.2848C139.472 14.6611 137.386 12.5749 134.762 12.5749Z" fill="#1A1A1A"/>
<path d="M134.762 12.2588H94.0481C91.298 12.2588 89.0537 14.5031 89.0537 17.2531V112.652C89.0537 115.402 91.298 117.646 94.0481 117.646H134.762C137.512 117.646 139.756 115.402 139.756 112.652V17.2848C139.788 14.5031 137.543 12.2588 134.762 12.2588ZM139.187 112.683C139.187 115.117 137.196 117.109 134.762 117.109H94.0481C91.6141 117.109 89.6227 115.117 89.6227 112.683V17.2848C89.6227 14.8508 91.6141 12.8594 94.0481 12.8594H134.762C137.196 12.8594 139.187 14.8508 139.187 17.2848V112.683Z" fill="#1A1A1A"/>
<path d="M134.004 12.5749H94.8073C91.8044 12.5749 89.3389 15.0088 89.3389 18.0434V18.1382H139.472V18.0434C139.472 15.0088 137.038 12.5749 134.004 12.5749Z" fill="#3200FF"/>
<path d="M134.003 12.2588H94.8067C91.6457 12.2588 89.0537 14.8508 89.0537 18.0118V18.1066C89.0537 18.2647 89.1802 18.3911 89.3382 18.3911H139.471C139.629 18.3911 139.756 18.2647 139.756 18.1066V18.0118C139.788 14.8508 137.195 12.2588 134.003 12.2588ZM89.6543 17.8537C89.7492 15.1037 92.025 12.8594 94.8067 12.8594H134.003C136.785 12.8594 139.06 15.0721 139.155 17.8537H89.6543Z" fill="#1A1A1A"/>
<path d="M110.896 30.1815L114.374 25.6929H107.388L110.896 30.1815Z" fill="#01DB83"/>
<path d="M114.374 25.4084H107.388C107.261 25.4084 107.167 25.4717 107.135 25.5665C107.072 25.6613 107.103 25.7878 107.167 25.8826L110.644 30.3712C110.707 30.4344 110.802 30.4976 110.865 30.4976C110.928 30.4976 111.055 30.466 111.086 30.3712L114.563 25.8826C114.627 25.7878 114.658 25.6613 114.595 25.5665C114.532 25.4717 114.5 25.4084 114.374 25.4084ZM110.897 29.7074L108.02 26.009H113.805L110.897 29.7074Z" fill="#1A1A1A"/>
<path d="M118.611 30.1815L122.088 25.6929H115.103L118.611 30.1815Z" fill="#01DB83"/>
<path d="M122.088 25.4085H115.102C114.975 25.4085 114.881 25.4717 114.849 25.5665C114.817 25.6614 114.817 25.7878 114.88 25.8826L118.358 30.3712C118.421 30.4344 118.484 30.4977 118.579 30.4977C118.674 30.4977 118.769 30.4661 118.8 30.3712L122.277 25.8826C122.34 25.7878 122.372 25.6614 122.309 25.5665C122.246 25.4717 122.214 25.4085 122.088 25.4085ZM118.61 29.7074L115.734 26.0091H121.519L118.61 29.7074Z" fill="#1A1A1A"/>
<path d="M123.478 25.6297C123.415 25.4717 123.225 25.4401 123.099 25.5033C122.941 25.5665 122.877 25.7562 122.972 25.9142L125.153 30.308C125.217 30.4028 125.311 30.4661 125.406 30.4661C125.438 30.4661 125.501 30.4661 125.533 30.4344C125.691 30.3712 125.722 30.1816 125.659 30.0235L123.478 25.6297Z" fill="white"/>
<path d="M126.354 25.6298C126.291 25.4717 126.101 25.4401 125.975 25.5033C125.817 25.5666 125.753 25.7562 125.848 25.9143L128.029 30.308C128.093 30.4029 128.187 30.4661 128.282 30.4661C128.314 30.4661 128.377 30.4661 128.409 30.4345C128.567 30.3713 128.63 30.1816 128.535 30.0235L126.354 25.6298Z" fill="white"/>
<path d="M130.558 26.262H129.831V26.989H130.558V26.262Z" fill="white"/>
<path d="M130.558 28.1269H129.831V28.8539H130.558V28.1269Z" fill="white"/>
<path d="M133.403 27.3999H131.854V28.0005H133.403V27.3999Z" fill="white"/>
<path d="M135.174 26.8309C134.732 26.8309 134.353 27.2103 134.353 27.6528C134.353 28.0953 134.732 28.4746 135.174 28.4746C135.617 28.4746 135.996 28.0953 135.996 27.6528C135.996 27.2103 135.649 26.8309 135.174 26.8309Z" fill="white"/>
<path d="M135.174 26.5464C134.542 26.5464 134.067 27.0522 134.067 27.6528C134.067 28.2534 134.573 28.7591 135.174 28.7591C135.774 28.7591 136.28 28.2534 136.28 27.6528C136.312 27.0522 135.806 26.5464 135.174 26.5464ZM135.174 28.1902C134.889 28.1902 134.636 27.9689 134.636 27.6528C134.636 27.3683 134.889 27.1154 135.174 27.1154C135.458 27.1154 135.711 27.3367 135.711 27.6528C135.711 27.9373 135.458 28.1902 135.174 28.1902Z" fill="white"/>
<path d="M129.009 82.0218H135.995L132.517 77.5332L129.009 82.0218Z" fill="#01DB83"/>
<path d="M132.739 77.3751C132.613 77.217 132.391 77.217 132.265 77.3751L128.788 81.8637C128.724 81.9585 128.693 82.085 128.756 82.1798C128.819 82.2746 128.914 82.3378 129.009 82.3378H135.995C136.153 82.3378 136.279 82.2114 136.279 82.0534C136.279 81.9585 136.248 81.8637 136.153 81.8005L132.739 77.3751ZM129.641 81.7373L132.518 78.0389L135.394 81.7373H129.641Z" fill="#1A1A1A"/>
<path d="M121.327 82.0217H128.281L124.804 77.5331L121.327 82.0217Z" fill="#01DB83"/>
<path d="M125.026 77.3751C124.9 77.217 124.678 77.217 124.552 77.3751L121.075 81.8637C121.012 81.9585 120.98 82.085 121.043 82.1798C121.106 82.2746 121.201 82.3378 121.296 82.3378H128.282C128.44 82.3378 128.566 82.2114 128.566 82.0534C128.566 81.9585 128.535 81.8637 128.44 81.8005L125.026 77.3751ZM121.928 81.7373L124.805 78.0389L127.681 81.7373H121.928Z" fill="#1A1A1A"/>
<path d="M118.294 77.4699C118.231 77.3119 118.042 77.2486 117.884 77.3435C117.725 77.4067 117.694 77.5964 117.757 77.7544L119.938 82.1482C120.001 82.243 120.096 82.3062 120.191 82.3062C120.223 82.3062 120.286 82.3062 120.318 82.2746C120.476 82.2114 120.539 82.0217 120.444 81.8637L118.294 77.4699Z" fill="white"/>
<path d="M115.418 77.4699C115.354 77.3119 115.165 77.2486 115.038 77.3435C114.88 77.4067 114.817 77.5964 114.912 77.7544L117.093 82.1482C117.156 82.243 117.251 82.3062 117.346 82.3062C117.377 82.3062 117.441 82.3062 117.472 82.2746C117.63 82.2114 117.693 82.0217 117.599 81.8637L115.418 77.4699Z" fill="white"/>
<path d="M113.583 80.7573H112.856V81.4844H113.583V80.7573Z" fill="white"/>
<path d="M113.583 78.8607H112.856V79.5878H113.583V78.8607Z" fill="white"/>
<path d="M111.56 79.7458H107.799V80.3464H111.56V79.7458Z" fill="white"/>
<path d="M103.373 24.2389H93.0996V25.0291H103.373V24.2389Z" fill="white"/>
<path d="M103.373 27.9688H93.0996V28.7591H103.373V27.9688Z" fill="white"/>
<path d="M103.373 31.7303H93.0996V32.5206H103.373V31.7303Z" fill="white"/>
<path d="M112.952 94.2548C112.888 94.0967 112.699 94.0651 112.541 94.1283C112.383 94.1916 112.351 94.3812 112.414 94.5393L114.595 98.933C114.659 99.0279 114.753 99.0911 114.848 99.0911C114.88 99.0911 114.943 99.0911 114.975 99.0595C115.133 98.9962 115.196 98.8066 115.101 98.6485L112.952 94.2548Z" fill="white"/>
<path d="M115.859 94.2547C115.796 94.0967 115.606 94.0651 115.448 94.1283C115.29 94.1915 115.227 94.3812 115.322 94.5392L117.503 98.933C117.566 99.0278 117.661 99.091 117.756 99.091C117.787 99.091 117.851 99.091 117.882 99.0594C118.04 98.9962 118.104 98.8066 118.009 98.6485L115.859 94.2547Z" fill="white"/>
<path d="M120.064 94.887H119.337V95.614H120.064V94.887Z" fill="white"/>
<path d="M120.064 96.7519H119.337V97.4789H120.064V96.7519Z" fill="white"/>
<path d="M126.637 96.0249H121.358V96.6255H126.637V96.0249Z" fill="white"/>
<path d="M129.833 95.4559C129.39 95.4559 129.011 95.8353 129.011 96.2778C129.011 96.7203 129.39 97.0996 129.833 97.0996C130.275 97.0996 130.654 96.7203 130.654 96.2778C130.654 95.8353 130.275 95.4559 129.833 95.4559Z" fill="white"/>
<path d="M129.832 95.1714C129.231 95.1714 128.726 95.6772 128.726 96.2778C128.726 96.8784 129.231 97.3841 129.832 97.3841C130.433 97.3841 130.938 96.8784 130.938 96.2778C130.938 95.6772 130.433 95.1714 129.832 95.1714ZM129.832 96.8152C129.547 96.8152 129.295 96.5939 129.295 96.2778C129.295 95.9933 129.516 95.7404 129.832 95.7404C130.116 95.7404 130.369 95.9617 130.369 96.2778C130.338 96.5623 130.116 96.8152 129.832 96.8152Z" fill="white"/>
<path d="M103.373 92.8638H93.0996V93.6541H103.373V92.8638Z" fill="white"/>
<path d="M103.373 96.5938H93.0996V97.384H103.373V96.5938Z" fill="white"/>
<path d="M103.373 100.355H93.0996V101.146H103.373V100.355Z" fill="white"/>
<path d="M103.373 40.4547H93.0996V41.2449H103.373V40.4547Z" fill="white"/>
<path d="M103.373 44.1847H93.0996V44.9749H103.373V44.1847Z" fill="white"/>
<path d="M103.373 47.9146H93.0996V48.7049H103.373V47.9146Z" fill="white"/>
<path d="M112.509 40.4548H106.345V41.245H112.509V40.4548Z" fill="#01DB83"/>
<path d="M112.509 44.1848H106.345V44.975H112.509V44.1848Z" fill="#01DB83"/>
<path d="M103.373 58.4091H93.0996V59.1993H103.373V58.4091Z" fill="#3200FF"/>
<path d="M103.373 62.1707H93.0996V62.9609H103.373V62.1707Z" fill="#3200FF"/>
<path d="M103.373 65.9006H93.0996V66.6909H103.373V65.9006Z" fill="#3200FF"/>
<path d="M103.373 75.6997H93.0996V76.4899H103.373V75.6997Z" fill="#01DB83"/>
<path d="M103.373 79.4297H93.0996V80.2199H103.373V79.4297Z" fill="#01DB83"/>
<path d="M103.373 83.1596H93.0996V83.9499H103.373V83.1596Z" fill="#01DB83"/>
<path d="M112.509 58.4092H106.345V59.1994H112.509V58.4092Z" fill="#01DB83"/>
<path d="M112.509 62.1707H106.345V62.961H112.509V62.1707Z" fill="#01DB83"/>
<path d="M129.199 109.775H96.7041V110.376H129.199V109.775Z" fill="white"/>
<path d="M78.8454 0.784363H5.51062C2.91861 0.784363 0.800781 2.90222 0.800781 5.49423V35.6816C0.800781 38.2737 2.91861 40.3915 5.51062 40.3915H78.8454C81.4374 40.3915 83.5554 38.2737 83.5554 35.6816V5.49423C83.5554 2.90222 81.4691 0.784363 78.8454 0.784363Z" fill="#1A1A1A"/>
<path d="M78.8447 0.5H5.50992C2.75986 0.5 0.515625 2.7443 0.515625 5.49436V35.6818C0.515625 38.4318 2.75986 40.6761 5.50992 40.6761H78.8447C81.5948 40.6761 83.8391 38.4318 83.8391 35.6818V5.49436C83.8707 2.7443 81.6264 0.5 78.8447 0.5ZM83.2701 35.6818C83.2701 38.1157 81.2787 40.1071 78.8447 40.1071H5.50992C3.07596 40.1071 1.08454 38.1157 1.08454 35.6818V5.49436C1.08454 3.0604 3.07596 1.06898 5.50992 1.06898H78.8447C81.2787 1.06898 83.2701 3.0604 83.2701 5.49436V35.6818Z" fill="#1A1A1A"/>
<path d="M11.3252 6.00003H10.7246V32.0466H11.3252V6.00003Z" fill="white"/>
<path d="M25.0134 7.2959H16.2891V8.08614H25.0134V7.2959Z" fill="#3200FF"/>
<path d="M25.0134 10.4568H16.2891V11.2471H25.0134V10.4568Z" fill="#3200FF"/>
<path d="M25.0134 13.6179H16.2891V14.4081H25.0134V13.6179Z" fill="#3200FF"/>
<path d="M32.7273 7.29599H27.5117V8.08624H32.7273V7.29599Z" fill="#01DB83"/>
<path d="M32.7273 10.457H27.5117V11.2472H32.7273V10.457Z" fill="#01DB83"/>
<path d="M25.0134 20.7301H16.2891V21.3307H25.0134V20.7301Z" fill="white"/>
<path d="M25.0134 23.8911H16.2891V24.4916H25.0134V23.8911Z" fill="white"/>
<path d="M25.0134 27.052H16.2891V27.6526H25.0134V27.052Z" fill="white"/>
<path d="M32.7273 20.7302H27.5117V21.3308H32.7273V20.7302Z" fill="white"/>
<path d="M32.7273 23.8912H27.5117V24.4918H32.7273V23.8912Z" fill="white"/>
<path d="M71.3848 11.2156H77.2958L74.3561 7.42242L71.3848 11.2156Z" fill="#01DB83"/>
<path d="M74.5779 7.23273C74.4515 7.07468 74.2302 7.07468 74.1038 7.23273L71.1325 11.0259C71.0693 11.1207 71.0376 11.2472 71.1009 11.342C71.1641 11.4368 71.2589 11.5001 71.3538 11.5001H77.2648C77.4228 11.5001 77.5493 11.3736 77.5493 11.2156C77.5493 11.1207 77.5177 11.0259 77.4228 10.9627L74.5779 7.23273ZM71.9859 10.9311L74.3251 7.89654L76.6642 10.9311H71.9859Z" fill="#1A1A1A"/>
<path d="M64.8418 11.2156H70.7844L67.8131 7.42242L64.8418 11.2156Z" fill="#01DB83"/>
<path d="M68.035 7.23276C67.9085 7.07471 67.6873 7.07471 67.5608 7.23276L64.5895 11.0259C64.5263 11.1208 64.4947 11.2472 64.5579 11.342C64.6211 11.4369 64.716 11.5001 64.8108 11.5001H70.7218C70.8799 11.5001 71.0063 11.3737 71.0063 11.2156C71.0063 11.1208 70.9431 11.0259 70.8799 10.9627L68.035 7.23276ZM65.4746 10.9311L67.8137 7.89657L70.1528 10.9311H65.4746Z" fill="#1A1A1A"/>
<path d="M62.3439 7.32758C62.2806 7.16953 62.091 7.10631 61.9646 7.20114C61.8065 7.26436 61.7749 7.45402 61.8382 7.61207L63.6715 11.342C63.7347 11.4369 63.8295 11.5001 63.9244 11.5001C63.956 11.5001 64.0192 11.5001 64.0508 11.4685C64.2089 11.4053 64.2721 11.2156 64.1772 11.0575L62.3439 7.32758Z" fill="white"/>
<path d="M59.9097 7.32767C59.8465 7.16962 59.6568 7.1064 59.5304 7.20123C59.3724 7.26445 59.3091 7.45411 59.4039 7.61216L61.2373 11.3421C61.3005 11.437 61.3954 11.5002 61.4902 11.5002C61.5218 11.5002 61.585 11.5002 61.6166 11.4686C61.7747 11.4053 61.8063 11.2157 61.7431 11.0576L59.9097 7.32767Z" fill="white"/>
<path d="M58.2666 10.1409H57.666V10.7415H58.2666V10.1409Z" fill="white"/>
<path d="M58.2666 8.52875H57.666V9.12933H58.2666V8.52875Z" fill="white"/>
<path d="M56.5593 9.22418H49.8896V9.82477H56.5593V9.22418Z" fill="white"/>
<path d="M47.299 8.46561C46.73 8.46561 46.2559 8.93975 46.2559 9.50873C46.2559 10.0777 46.73 10.5519 47.299 10.5519C47.868 10.5519 48.3421 10.0777 48.3421 9.50873C48.3421 8.93975 47.868 8.46561 47.299 8.46561Z" fill="white"/>
<path d="M49.194 18.7071L52.1337 14.9139H46.2227L49.194 18.7071Z" fill="#01DB83"/>
<path d="M52.1339 14.5978H46.2229C46.0965 14.5978 46.0016 14.6611 45.97 14.7559C45.9068 14.8507 45.9384 14.9772 46.0016 15.072L48.9729 18.8652C49.0362 18.9284 49.131 18.9916 49.1943 18.9916C49.2575 18.9916 49.3839 18.96 49.4155 18.8652L52.3868 15.072C52.45 14.9772 52.4817 14.8507 52.4184 14.7559C52.3552 14.6611 52.2604 14.5978 52.1339 14.5978ZM49.1943 18.233L46.8551 15.1984H51.565L49.1943 18.233Z" fill="#1A1A1A"/>
<path d="M55.7073 18.7071L58.6787 14.9139H52.7676L55.7073 18.7071Z" fill="#01DB83"/>
<path d="M58.6789 14.5978H52.7678C52.6413 14.5978 52.5466 14.6611 52.5149 14.7559C52.4517 14.8507 52.4833 14.9772 52.5465 15.072L55.5179 18.8652C55.5811 18.9284 55.6443 18.9916 55.7391 18.9916C55.834 18.9916 55.9288 18.96 55.9604 18.8652L58.9317 15.072C58.9949 14.9772 59.0265 14.8507 58.9633 14.7559C58.9001 14.6611 58.8053 14.5978 58.6789 14.5978ZM55.7075 18.233L53.3684 15.1984H58.0782L55.7075 18.233Z" fill="#1A1A1A"/>
<path d="M59.8784 14.8191C59.8152 14.661 59.6255 14.6294 59.4991 14.6926C59.341 14.7559 59.2779 14.9455 59.3727 15.1036L61.2061 18.8335C61.2693 18.9284 61.3641 18.9916 61.4589 18.9916C61.4905 18.9916 61.5538 18.9916 61.5854 18.96C61.7434 18.8967 61.8066 18.7071 61.7118 18.549L59.8784 14.8191Z" fill="white"/>
<path d="M62.314 14.8191C62.2508 14.6611 62.0611 14.6294 61.9346 14.6927C61.7766 14.7559 61.7134 14.9455 61.8082 15.1036L63.6416 18.8336C63.7048 18.9284 63.7997 18.9916 63.8945 18.9916C63.9261 18.9916 63.9893 18.9916 64.0209 18.96C64.179 18.8968 64.2422 18.7071 64.1473 18.5491L62.314 14.8191Z" fill="white"/>
<path d="M65.8526 15.3566H65.252V15.9572H65.8526V15.3566Z" fill="white"/>
<path d="M65.8526 16.9687H65.252V17.5692H65.8526V16.9687Z" fill="white"/>
<path d="M73.6286 16.3048H66.959V16.9054H73.6286V16.3048Z" fill="white"/>
<path d="M76.2531 15.5462C75.6841 15.5462 75.21 16.0203 75.21 16.5893C75.21 17.1583 75.6841 17.6324 76.2531 17.6324C76.8221 17.6324 77.2962 17.1583 77.2962 16.5893C77.2962 16.0203 76.8221 15.5462 76.2531 15.5462Z" fill="white"/>
<path d="M77.0439 29.2016H49.9859C49.5434 29.2016 49.1641 29.5809 49.1641 30.0235V33.6902C49.1641 34.1327 49.5434 34.5121 49.9859 34.5121H77.0439C77.4865 34.5121 77.8658 34.1327 77.8658 33.6902V30.0235C77.8974 29.5493 77.5181 29.2016 77.0439 29.2016Z" fill="#3200FF"/>
<path d="M77.0432 28.8855H49.9853C49.3531 28.8855 48.8789 29.3913 48.8789 29.9919V33.6902C48.8789 34.3224 49.3847 34.8282 49.9853 34.8282H77.0432C77.6754 34.8282 78.1812 34.3224 78.1812 33.6902V30.0235C78.1812 29.3913 77.6754 28.8855 77.0432 28.8855ZM77.5806 33.6902C77.5806 33.9747 77.3277 34.2276 77.0432 34.2276H49.9853C49.7008 34.2276 49.4478 33.9747 49.4478 33.6902V30.0235C49.4478 29.739 49.7008 29.4861 49.9853 29.4861H77.0432C77.3277 29.4861 77.5806 29.739 77.5806 30.0235V33.6902Z" fill="#1A1A1A"/>
<path d="M68.2873 31.5723H53.4307V32.1729H68.2873V31.5723Z" fill="white"/>
<path d="M73.0915 33.058L74.9249 30.6556H71.2266L73.0915 33.058Z" fill="white"/>
<path d="M78.5285 52.6246H18.8807C16.2887 52.6246 14.1709 54.7425 14.1709 57.3345V110.218C14.1709 112.81 16.2887 114.928 18.8807 114.928H78.5285C81.1205 114.928 83.2384 112.81 83.2384 110.218V57.3345C83.2384 54.7425 81.1205 52.6246 78.5285 52.6246Z" fill="#3200FF"/>
<path d="M78.5279 52.3401H18.8801C16.1301 52.3401 13.8857 54.5844 13.8857 57.3344V110.218C13.8857 112.968 16.1301 115.212 18.8801 115.212H78.5279C81.2779 115.212 83.5222 112.968 83.5222 110.218V57.3344C83.5538 54.5844 81.2779 52.3401 78.5279 52.3401ZM82.9532 110.218C82.9532 112.652 80.9618 114.643 78.5279 114.643H18.8801C16.4462 114.643 14.4547 112.652 14.4547 110.218V57.3344C14.4547 54.9005 16.4462 52.909 18.8801 52.909H78.5279C80.9618 52.909 82.9532 54.9005 82.9532 57.3344V110.218Z" fill="#1A1A1A"/>
<path d="M78.5285 52.6246H18.8807C16.2887 52.6246 14.1709 54.7425 14.1709 57.3345V110.218C14.1709 112.81 16.2887 114.928 18.8807 114.928H78.5285C81.1205 114.928 83.2384 112.81 83.2384 110.218V57.3345C83.2384 54.7425 81.1205 52.6246 78.5285 52.6246Z" fill="#3200FF"/>
<path d="M78.5279 52.3401H18.8801C16.1301 52.3401 13.8857 54.5844 13.8857 57.3344V110.218C13.8857 112.968 16.1301 115.212 18.8801 115.212H78.5279C81.2779 115.212 83.5222 112.968 83.5222 110.218V57.3344C83.5538 54.5844 81.2779 52.3401 78.5279 52.3401ZM82.9532 110.218C82.9532 112.652 80.9618 114.643 78.5279 114.643H18.8801C16.4462 114.643 14.4547 112.652 14.4547 110.218V57.3344C14.4547 54.9005 16.4462 52.909 18.8801 52.909H78.5279C80.9618 52.909 82.9532 54.9005 82.9532 57.3344V110.218Z" fill="#1A1A1A"/>
<path d="M41.0378 57.9982H32.3135V58.5988H41.0378V57.9982Z" fill="white"/>
<path d="M64.4923 76.0791H32.3135V76.6797H64.4923V76.0791Z" fill="white"/>
<path d="M44.6413 81.6108H32.3135V82.2114H44.6413V81.6108Z" fill="white"/>
<path d="M55.5478 81.6108H50.1426V82.2114H55.5478V81.6108Z" fill="white"/>
<path d="M44.6413 99.4388H32.3135V100.039H44.6413V99.4388Z" fill="white"/>
<path d="M50.4259 104.465H32.3135V105.065H50.4259V104.465Z" fill="white"/>
<path d="M62.8491 104.465H54.6621V105.065H62.8491V104.465Z" fill="white"/>
<path d="M35.4745 62.55H32.3135V63.1506H35.4745V62.55Z" fill="white"/>
<path d="M23.1156 56.3545H18.9115C18.7534 56.3545 18.627 56.481 18.627 56.639V59.4523C18.627 59.6103 18.7534 59.7368 18.9115 59.7368H23.1156C23.2737 59.7368 23.4001 59.6103 23.4001 59.4523V56.639C23.4001 56.5126 23.2737 56.3545 23.1156 56.3545ZM22.7995 59.1678H19.1959V56.9551H22.7995V59.1678Z" fill="white"/>
<path d="M23.1156 61.096H18.9115C18.7534 61.096 18.627 61.2225 18.627 61.3805V64.1938C18.627 64.3518 18.7534 64.4783 18.9115 64.4783H23.1156C23.2737 64.4783 23.4001 64.3518 23.4001 64.1938V61.3805C23.4001 61.2225 23.2737 61.096 23.1156 61.096ZM22.7995 63.9093H19.1959V61.6966H22.7995V63.9093Z" fill="white"/>
<path d="M23.1156 65.8058H18.9115C18.7534 65.8058 18.627 65.9323 18.627 66.0903V68.9036C18.627 69.0617 18.7534 69.1881 18.9115 69.1881H23.1156C23.2737 69.1881 23.4001 69.0617 23.4001 68.9036V66.0903C23.4001 65.9323 23.2737 65.8058 23.1156 65.8058ZM22.7995 68.6191H19.1959V66.4064H22.7995V68.6191Z" fill="white"/>
<path d="M23.1156 70.5157H18.9115C18.7534 70.5157 18.627 70.6421 18.627 70.8002V73.6135C18.627 73.7715 18.7534 73.8979 18.9115 73.8979H23.1156C23.2737 73.8979 23.4001 73.7715 23.4001 73.6135V70.8002C23.4001 70.6737 23.2737 70.5157 23.1156 70.5157ZM22.7995 73.329H19.1959V71.1163H22.7995V73.329Z" fill="white"/>
<path d="M23.1156 75.2572H18.9115C18.7534 75.2572 18.627 75.3836 18.627 75.5417V78.3549C18.627 78.513 18.7534 78.6394 18.9115 78.6394H23.1156C23.2737 78.6394 23.4001 78.513 23.4001 78.3549V75.5417C23.4001 75.3836 23.2737 75.2572 23.1156 75.2572ZM22.7995 78.0704H19.1959V75.8578H22.7995V78.0704Z" fill="white"/>
<path d="M23.1156 79.967H18.9115C18.7534 79.967 18.627 80.0935 18.627 80.2515V83.0648C18.627 83.2229 18.7534 83.3493 18.9115 83.3493H23.1156C23.2737 83.3493 23.4001 83.2229 23.4001 83.0648V80.2515C23.4001 80.0935 23.2737 79.967 23.1156 79.967ZM22.7995 82.7803H19.1959V80.5676H22.7995V82.7803Z" fill="white"/>
<path d="M23.1156 84.7085H18.9115C18.7534 84.7085 18.627 84.8349 18.627 84.993V87.8063C18.627 87.9643 18.7534 88.0908 18.9115 88.0908H23.1156C23.2737 88.0908 23.4001 87.9643 23.4001 87.8063V84.993C23.4001 84.8349 23.2737 84.7085 23.1156 84.7085ZM22.7995 87.5218H19.1959V85.3091H22.7995V87.5218Z" fill="white"/>
<path d="M23.1156 89.4184H18.9115C18.7534 89.4184 18.627 89.5448 18.627 89.7029V92.5162C18.627 92.6742 18.7534 92.8007 18.9115 92.8007H23.1156C23.2737 92.8007 23.4001 92.6742 23.4001 92.5162V89.7029C23.4001 89.5448 23.2737 89.4184 23.1156 89.4184ZM22.7995 92.2317H19.1959V90.019H22.7995V92.2317Z" fill="white"/>
<path d="M23.1156 94.1282H18.9115C18.7534 94.1282 18.627 94.2547 18.627 94.4127V97.226C18.627 97.384 18.7534 97.5105 18.9115 97.5105H23.1156C23.2737 97.5105 23.4001 97.384 23.4001 97.226V94.4127C23.4001 94.2863 23.2737 94.1282 23.1156 94.1282ZM22.7995 96.9415H19.1959V94.7288H22.7995V96.9415Z" fill="white"/>
<path d="M23.1156 98.8698H18.9115C18.7534 98.8698 18.627 98.9962 18.627 99.1542V101.968C18.627 102.126 18.7534 102.252 18.9115 102.252H23.1156C23.2737 102.252 23.4001 102.126 23.4001 101.968V99.1542C23.4001 98.9962 23.2737 98.8698 23.1156 98.8698ZM22.7995 101.683H19.1959V99.4703H22.7995V101.683Z" fill="white"/>
<path d="M23.1156 103.58H18.9115C18.7534 103.58 18.627 103.706 18.627 103.864V106.677C18.627 106.835 18.7534 106.962 18.9115 106.962H23.1156C23.2737 106.962 23.4001 106.835 23.4001 106.677V103.864C23.4001 103.706 23.2737 103.58 23.1156 103.58ZM22.7995 106.393H19.1959V104.18H22.7995V106.393Z" fill="white"/>
<path d="M23.1156 108.29H18.9115C18.7534 108.29 18.627 108.416 18.627 108.574V111.387C18.627 111.545 18.7534 111.672 18.9115 111.672H23.1156C23.2737 111.672 23.4001 111.545 23.4001 111.387V108.606C23.4001 108.448 23.2737 108.29 23.1156 108.29ZM22.7995 111.103H19.1959V108.89H22.7995V111.103Z" fill="white"/>
<path d="M131.887 136.391H9.93658C9.39921 136.391 8.98828 136.802 8.98828 137.339C8.98828 138.888 10.2527 140.184 11.8332 140.184H130.022C131.571 140.184 132.867 138.919 132.867 137.339C132.836 136.802 132.393 136.391 131.887 136.391Z" fill="white"/>
<path d="M131.888 136.106H9.93685C9.24144 136.106 8.7041 136.675 8.7041 137.339C8.7041 139.077 10.0949 140.468 11.8334 140.468H130.023C131.761 140.468 133.152 139.077 133.152 137.339C133.12 136.643 132.551 136.106 131.888 136.106ZM129.991 139.868H11.8019C10.411 139.868 9.27309 138.73 9.27309 137.339C9.27309 136.991 9.55754 136.675 9.93685 136.675H131.888C132.235 136.675 132.551 136.96 132.551 137.339C132.52 138.73 131.382 139.868 129.991 139.868Z" fill="#1A1A1A"/>
<path d="M122.088 134.494L121.203 136.327H127.936L127.083 134.494H122.088Z" fill="#1A1A1A"/>
<path d="M127.335 134.368C127.272 134.273 127.177 134.21 127.082 134.21H122.088C121.962 134.21 121.867 134.273 121.835 134.368L120.982 136.233C120.95 136.327 120.95 136.422 121.013 136.517C121.077 136.612 121.171 136.643 121.266 136.643H127.967C128.062 136.643 128.157 136.58 128.22 136.517C128.284 136.422 128.284 136.327 128.252 136.233L127.335 134.368ZM121.677 136.043L122.278 134.778H126.893L127.493 136.043H121.677Z" fill="#1A1A1A"/>
<path d="M123.667 134.494L122.813 136.327H129.515L128.661 134.494H123.667Z" fill="white"/>
<path d="M128.946 134.368C128.883 134.273 128.788 134.21 128.662 134.21H123.667C123.541 134.21 123.446 134.273 123.414 134.368L122.561 136.233C122.529 136.327 122.529 136.422 122.592 136.517C122.656 136.612 122.75 136.643 122.845 136.643H129.547C129.641 136.643 129.736 136.58 129.799 136.517C129.863 136.422 129.863 136.327 129.831 136.233L128.946 134.368ZM123.256 136.043L123.857 134.778H128.472L129.072 136.043H123.256Z" fill="#1A1A1A"/>
<path d="M113.838 134.494L112.984 136.327H119.686L118.832 134.494H113.838Z" fill="#1A1A1A"/>
<path d="M119.117 134.368C119.053 134.273 118.958 134.21 118.864 134.21H113.869C113.743 134.21 113.648 134.273 113.616 134.368L112.763 136.233C112.731 136.327 112.731 136.422 112.795 136.517C112.858 136.612 112.953 136.643 113.047 136.643H119.749C119.844 136.643 119.938 136.58 120.002 136.517C120.065 136.422 120.065 136.327 120.033 136.233L119.117 134.368ZM113.458 136.043L114.059 134.778H118.674L119.275 136.043H113.458Z" fill="#1A1A1A"/>
<path d="M115.449 134.494L114.563 136.327H121.296L120.411 134.494H115.449Z" fill="white"/>
<path d="M120.697 134.368C120.633 134.273 120.539 134.21 120.444 134.21H115.449C115.323 134.21 115.228 134.273 115.196 134.368L114.343 136.233C114.311 136.327 114.311 136.422 114.375 136.517C114.438 136.612 114.533 136.643 114.628 136.643H121.329C121.424 136.643 121.518 136.58 121.582 136.517C121.645 136.422 121.645 136.327 121.613 136.233L120.697 134.368ZM115.038 136.043L115.639 134.778H120.254L120.855 136.043H115.038Z" fill="#1A1A1A"/>
<path d="M105.619 134.494L104.734 136.327H111.467L110.614 134.494H105.619Z" fill="#1A1A1A"/>
<path d="M110.866 134.367C110.803 134.273 110.708 134.209 110.614 134.209H105.619C105.493 134.209 105.398 134.273 105.366 134.367L104.513 136.232C104.481 136.327 104.481 136.422 104.545 136.517C104.608 136.612 104.703 136.643 104.797 136.643H111.499C111.594 136.643 111.688 136.58 111.752 136.517C111.815 136.422 111.815 136.327 111.783 136.232L110.866 134.367ZM105.208 136.043L105.809 134.778H110.424L111.025 136.043H105.208Z" fill="#1A1A1A"/>
<path d="M107.198 134.494L106.345 136.327H113.046L112.193 134.494H107.198Z" fill="white"/>
<path d="M112.446 134.368C112.414 134.273 112.288 134.21 112.193 134.21H107.199C107.072 134.21 106.977 134.273 106.914 134.368L106.061 136.233C106.029 136.327 106.029 136.422 106.092 136.517C106.156 136.612 106.25 136.644 106.345 136.644H113.047C113.141 136.644 113.236 136.58 113.299 136.517C113.363 136.422 113.363 136.327 113.331 136.233L112.446 134.368ZM106.819 136.043L107.42 134.779H112.035L112.636 136.043H106.819Z" fill="#1A1A1A"/>
<path d="M37.7197 134.494L36.8662 136.327H43.5675L42.714 134.494H37.7197Z" fill="#1A1A1A"/>
<path d="M42.9671 134.368C42.9039 134.273 42.8091 134.21 42.7143 134.21H37.7199C37.5935 134.21 37.4986 134.273 37.467 134.368L36.6136 136.233C36.5819 136.327 36.5819 136.422 36.6451 136.517C36.7083 136.612 36.8032 136.643 36.898 136.643H43.5993C43.6941 136.643 43.789 136.58 43.8522 136.517C43.9154 136.422 43.9154 136.327 43.8838 136.233L42.9671 134.368ZM37.309 136.043L37.9095 134.778H42.5246L43.1251 136.043H37.309Z" fill="#1A1A1A"/>
<path d="M39.3007 134.494L38.4473 136.327H45.1485L44.2951 134.494H39.3007Z" fill="white"/>
<path d="M44.5798 134.368C44.5482 134.273 44.4217 134.21 44.3269 134.21H39.3325C39.2061 134.21 39.1113 134.273 39.0481 134.368L38.1946 136.233C38.163 136.327 38.163 136.422 38.2262 136.517C38.2894 136.612 38.3842 136.643 38.4791 136.643H45.1803C45.2752 136.643 45.37 136.58 45.4332 136.517C45.4965 136.422 45.4965 136.327 45.4649 136.233L44.5798 134.368ZM38.9217 136.043L39.5222 134.778H44.1373L44.7378 136.043H38.9217Z" fill="#1A1A1A"/>
<path d="M29.4706 134.494L28.6172 136.327H35.3501L34.465 134.494H29.4706Z" fill="#1A1A1A"/>
<path d="M34.7493 134.368C34.6861 134.273 34.5913 134.21 34.4965 134.21H29.5021C29.3757 134.21 29.2808 134.273 29.2492 134.368L28.3958 136.233C28.3642 136.327 28.3641 136.422 28.4273 136.517C28.4906 136.612 28.5854 136.644 28.6802 136.644H35.3815C35.4763 136.644 35.5712 136.58 35.6344 136.517C35.6976 136.422 35.6977 136.327 35.666 136.233L34.7493 134.368ZM29.0912 136.043L29.6917 134.779H34.3068L34.9074 136.043H29.0912Z" fill="#1A1A1A"/>
<path d="M31.082 134.494L30.2285 136.327H36.9298L36.0763 134.494H31.082Z" fill="white"/>
<path d="M36.3294 134.368C36.2662 134.273 36.1714 134.21 36.0766 134.21H31.0822C30.9558 134.21 30.8609 134.273 30.8293 134.368L29.9759 136.233C29.9442 136.327 29.9442 136.422 30.0074 136.517C30.0706 136.612 30.1655 136.643 30.2603 136.643H36.9616C37.0564 136.643 37.1513 136.58 37.2145 136.517C37.2777 136.422 37.2777 136.327 37.2461 136.233L36.3294 134.368ZM30.6713 136.043L31.2718 134.778H35.8869L36.4874 136.043H30.6713Z" fill="#1A1A1A"/>
<path d="M21.2519 134.494L20.3984 136.327H27.0997L26.2463 134.494H21.2519Z" fill="#1A1A1A"/>
<path d="M26.4994 134.368C26.4361 134.273 26.3413 134.21 26.2465 134.21H21.2521C21.1257 134.21 21.0308 134.273 20.9992 134.368L20.1458 136.233C20.1141 136.327 20.1142 136.422 20.1774 136.517C20.2406 136.612 20.3355 136.643 20.4303 136.643H27.1316C27.2264 136.643 27.3212 136.58 27.3845 136.517C27.4477 136.422 27.4476 136.327 27.416 136.233L26.4994 134.368ZM20.8412 136.043L21.4418 134.778H26.0568L26.6574 136.043H20.8412Z" fill="#1A1A1A"/>
<path d="M22.8329 134.494L21.9795 136.327H28.6808L27.8273 134.494H22.8329Z" fill="white"/>
<path d="M28.1116 134.368C28.0484 134.273 27.9536 134.21 27.8588 134.21H22.8644C22.738 134.21 22.6431 134.273 22.6115 134.368L21.7581 136.233C21.7265 136.327 21.7264 136.422 21.7896 136.517C21.8529 136.612 21.9477 136.643 22.0425 136.643H28.7438C28.8386 136.643 28.9335 136.58 28.9967 136.517C29.0599 136.422 29.06 136.327 29.0283 136.233L28.1116 134.368ZM22.4535 136.043L23.054 134.778H27.6691L28.2697 136.043H22.4535Z" fill="#1A1A1A"/>
<path d="M12.9716 134.494L12.1182 136.327H18.8194L17.966 134.494H12.9716Z" fill="#1A1A1A"/>
<path d="M18.2181 134.368C18.1865 134.273 18.06 134.21 17.9652 134.21H12.9708C12.8444 134.21 12.7496 134.273 12.718 134.368L11.8645 136.233C11.8329 136.327 11.8329 136.422 11.8961 136.517C11.9594 136.612 12.0541 136.644 12.149 136.644H18.8503C18.9451 136.644 19.0399 136.58 19.1031 136.517C19.1663 136.422 19.1664 136.327 19.1348 136.233L18.2181 134.368ZM12.5599 136.043L13.1605 134.779H17.7755L18.3762 136.043H12.5599Z" fill="#1A1A1A"/>
<path d="M14.5507 134.494L13.6973 136.327H20.3985L19.5451 134.494H14.5507Z" fill="white"/>
<path d="M19.8294 134.368C19.7662 134.273 19.6713 134.21 19.5765 134.21H14.5822C14.4558 134.21 14.3609 134.273 14.3293 134.368L13.4759 136.233C13.4442 136.327 13.4442 136.422 13.5074 136.517C13.5706 136.612 13.6655 136.644 13.7603 136.644H20.4616C20.5564 136.644 20.6513 136.58 20.7145 136.517C20.7777 136.422 20.7777 136.327 20.7461 136.233L19.8294 134.368ZM14.1713 136.043L14.7718 134.779H19.3869L19.9874 136.043H14.1713Z" fill="#1A1A1A"/>
<path d="M96.3263 134.494L95.6309 136.327H100.973L100.277 134.494H96.3263Z" fill="#1A1A1A"/>
<path d="M100.562 134.368C100.53 134.241 100.404 134.178 100.277 134.178H96.2946C96.1682 134.178 96.0733 134.241 96.0101 134.368L95.3147 136.233C95.2831 136.327 95.2831 136.422 95.3463 136.517C95.4096 136.58 95.5043 136.643 95.5992 136.643H100.941C101.036 136.643 101.131 136.612 101.194 136.517C101.257 136.422 101.257 136.327 101.226 136.233L100.562 134.368ZM96.0417 136.043L96.5159 134.778H100.088L100.562 136.043H96.0417Z" fill="#1A1A1A"/>
<path d="M97.589 134.494L96.8936 136.327H102.236L101.54 134.494H97.589Z" fill="white"/>
<path d="M101.825 134.368C101.793 134.241 101.667 134.178 101.54 134.178H97.5573C97.4309 134.178 97.336 134.241 97.2728 134.368L96.5774 136.233C96.5458 136.327 96.5458 136.422 96.609 136.517C96.6723 136.58 96.767 136.643 96.8618 136.643H102.204C102.299 136.643 102.394 136.612 102.457 136.517C102.52 136.422 102.52 136.327 102.488 136.233L101.825 134.368ZM97.3044 136.043L97.7786 134.778H101.351L101.825 136.043H97.3044Z" fill="#1A1A1A"/>
<path d="M89.7501 134.494L89.0547 136.327H94.3968L93.733 134.494H89.7501Z" fill="#1A1A1A"/>
<path d="M94.018 134.368C93.9864 134.241 93.8599 134.178 93.7335 134.178H89.7506C89.6242 134.178 89.5294 134.241 89.4662 134.368L88.7708 136.233C88.7392 136.327 88.7391 136.422 88.8023 136.517C88.8656 136.58 88.9604 136.644 89.0552 136.644H94.3973C94.4922 136.644 94.5869 136.612 94.6502 136.517C94.7134 136.422 94.7134 136.327 94.6818 136.233L94.018 134.368ZM89.4978 136.043L89.972 134.779H93.5438L94.018 136.043H89.4978Z" fill="#1A1A1A"/>
<path d="M91.0153 134.494L90.3516 136.327H95.6936L94.9982 134.494H91.0153Z" fill="white"/>
<path d="M95.2826 134.368C95.251 134.241 95.1246 134.178 94.9982 134.178H91.0153C90.8888 134.178 90.794 134.241 90.7308 134.368L90.0354 136.233C90.0038 136.327 90.0038 136.422 90.067 136.517C90.1302 136.58 90.2251 136.644 90.3199 136.644H95.662C95.7568 136.644 95.8516 136.612 95.9148 136.517C95.978 136.422 95.9781 136.327 95.9465 136.233L95.2826 134.368ZM90.7625 136.043L91.2366 134.779H94.8085L95.2826 136.043H90.7625Z" fill="#1A1A1A"/>
<path d="M48.8468 134.494L48.1514 136.327H85.0084L84.313 134.494H48.8468Z" fill="#1A1A1A"/>
<path d="M84.5981 134.367C84.5665 134.241 84.44 134.178 84.3136 134.178H48.8474C48.7209 134.178 48.6261 134.241 48.5629 134.367L47.8674 136.232C47.8358 136.327 47.8359 136.422 47.8991 136.517C47.9623 136.58 48.0571 136.643 48.152 136.643H85.009C85.1038 136.643 85.1987 136.612 85.2619 136.517C85.3251 136.422 85.3251 136.327 85.2935 136.232L84.5981 134.367ZM48.5945 136.043L49.0686 134.778H84.124L84.5981 136.043H48.5945Z" fill="#1A1A1A"/>
<path d="M50.1131 134.494L49.4492 136.327H86.2747L85.5793 134.494H50.1131Z" fill="white"/>
<path d="M85.8638 134.367C85.8321 134.241 85.7057 134.178 85.5792 134.178H50.113C49.9866 134.178 49.8918 134.241 49.8285 134.367L49.1331 136.232C49.1014 136.327 49.1015 136.422 49.1647 136.517C49.2279 136.58 49.3228 136.643 49.4176 136.643H86.2746C86.3694 136.643 86.4643 136.612 86.5275 136.517C86.5907 136.422 86.5908 136.327 86.5592 136.232L85.8638 134.367ZM49.8601 136.043L50.3342 134.778H85.3896L85.8638 136.043H49.8601Z" fill="#1A1A1A"/>
<path d="M52.9258 118.405C56.2448 116.761 58.0466 115.402 58.0466 115.402C58.0466 115.402 59.6903 122.925 64.3053 122.925C67.6244 122.925 64.1157 116.129 62.5668 111.198C60.6386 105.097 55.4546 108.005 55.4546 108.005C55.4546 108.005 53.6213 100.893 47.2045 105.698C47.2045 105.698 45.7188 100.766 36.4571 108.384C36.4571 108.384 37.1209 106.425 36.4255 105.476C36.4255 105.476 39.0175 105.287 40.6928 102.947C41.9572 101.209 41.5463 99.0595 39.871 98.4905C38.7963 98.1112 37.026 100.324 34.434 101.588C29.5661 103.896 31.0202 107.152 28.7127 112.114C25.7098 118.594 25.2356 133.419 20.4941 140.152H41.2618C41.2618 140.152 42.3049 137.782 46.9199 138.003C51.5666 138.224 56.4661 131.365 62.5668 132.155C67.814 132.85 65.3169 127.382 59.7535 126.339C56.15 125.675 51.8195 128.014 51.4086 127.319C50.6183 125.991 49.5119 120.112 52.9258 118.405Z" fill="white"/>
<path d="M53.0529 118.689C55.5501 117.456 57.1621 116.382 57.8576 115.908C58.3001 117.551 60.1018 123.241 64.3059 123.241C64.9065 123.241 65.3807 123.02 65.6336 122.64C66.5503 121.313 65.3491 118.089 64.0847 114.706C63.6421 113.505 63.168 112.272 62.8203 111.166C61.7455 107.784 59.6909 107.057 58.142 107.057C57.0357 107.057 56.0874 107.404 55.6132 107.626C55.2655 106.614 54.0328 103.769 51.2195 103.769C50.0499 103.769 48.7223 104.275 47.2999 105.287C47.0154 104.781 46.2567 103.864 44.6446 103.864C42.7164 103.864 40.1245 105.129 36.9319 107.626C37.0267 107.057 37.0899 106.33 36.8687 105.729C37.7221 105.571 39.587 105.002 40.9146 103.137C41.6417 102.126 41.8946 100.924 41.5785 99.9129C41.3256 99.1227 40.7566 98.5221 39.9664 98.2376C39.2393 97.9847 38.3543 98.6169 37.1848 99.4704C36.3629 100.103 35.4146 100.798 34.3082 101.335C30.9576 102.947 30.4834 105.002 29.8512 107.594C29.5351 108.89 29.1874 110.344 28.4288 111.988C27.1644 114.706 26.3426 118.879 25.4891 123.273C24.3195 129.278 22.9603 136.075 20.2418 139.963C20.1786 140.057 20.1786 140.184 20.2102 140.279C20.2418 140.374 20.3683 140.437 20.4631 140.437H41.2307C41.3572 140.437 41.4521 140.374 41.5153 140.247C41.5469 140.152 42.5268 138.066 46.889 138.256C49.0384 138.35 51.2511 136.991 53.5902 135.537C56.0874 133.957 58.711 132.345 61.5559 132.345C61.872 132.345 62.1881 132.376 62.5042 132.408C62.8203 132.439 63.1048 132.471 63.3893 132.471C65.3807 132.471 65.6652 131.396 65.7284 130.954C65.8864 129.184 63.3893 126.686 59.7858 125.991C59.3432 125.896 58.8374 125.865 58.3001 125.865C56.5615 125.865 54.7598 126.37 53.4638 126.718C52.7052 126.939 52.073 127.097 51.7253 127.097C51.6621 127.097 51.6304 127.097 51.5988 127.097C51.093 126.212 50.4608 123.304 51.1246 121.06C51.504 119.954 52.1362 119.132 53.0529 118.689ZM51.1563 127.477C51.4092 127.919 52.2626 127.73 53.6534 127.35C54.9178 127.003 56.6564 126.528 58.3317 126.528C58.8059 126.528 59.28 126.56 59.6909 126.655C63.168 127.319 65.2859 129.689 65.1595 130.954C65.0962 131.807 64.0215 131.934 63.4209 131.934C63.168 131.934 62.9152 131.902 62.6307 131.87C62.283 131.839 61.9352 131.807 61.5875 131.807C58.553 131.807 55.8662 133.483 53.3058 135.095C51.0615 136.486 48.9436 137.813 46.9522 137.718C42.8745 137.529 41.452 139.299 41.1043 139.868H21.0321C23.6241 135.853 24.8569 129.531 26.058 123.399C26.9115 119.037 27.7334 114.896 28.9662 112.241C29.7564 110.534 30.1041 109.048 30.4202 107.721C31.0208 105.16 31.4633 103.327 34.5295 101.873C35.699 101.304 36.6474 100.608 37.5008 99.9445C38.4491 99.2175 39.3026 98.6169 39.7451 98.775C40.3457 98.9962 40.7883 99.4388 40.9779 100.071C41.2308 100.924 41.0411 101.936 40.4089 102.789C38.8601 104.97 36.3945 105.192 36.3629 105.192C36.268 105.192 36.1732 105.255 36.11 105.35C36.0784 105.445 36.0784 105.571 36.1416 105.634C36.6474 106.298 36.2996 107.752 36.11 108.258C36.0784 108.384 36.11 108.511 36.2365 108.606C36.3313 108.669 36.4893 108.669 36.5841 108.606C40.7882 105.129 43.2854 104.402 44.6131 104.402C46.4148 104.402 46.8573 105.698 46.8573 105.761C46.8889 105.856 46.9522 105.919 47.047 105.95C47.1418 105.982 47.2366 105.95 47.3315 105.919C48.7539 104.844 50.0499 104.307 51.1878 104.307C54.1276 104.307 55.1075 108.005 55.1391 108.037C55.1707 108.131 55.2339 108.195 55.2971 108.226C55.3603 108.258 55.4868 108.258 55.55 108.226C55.55 108.226 56.7196 107.594 58.1104 107.594C60.0703 107.594 61.4611 108.827 62.2197 111.261C62.5674 112.399 63.0416 113.632 63.4841 114.833C64.5905 117.804 65.8548 121.186 65.0962 122.229C64.9381 122.482 64.6537 122.577 64.2427 122.577C59.9122 122.577 58.3001 115.37 58.2685 115.307C58.2369 115.212 58.1736 115.117 58.0788 115.086C57.984 115.054 57.8892 115.054 57.7943 115.117C57.7627 115.117 55.9609 116.476 52.7051 118.089C51.662 118.626 50.9034 119.543 50.5241 120.87C49.8919 123.399 50.5873 126.497 51.1563 127.477Z" fill="#1A1A1A"/>
<path d="M41.7676 111.198L42.2417 111.545C44.6441 108.005 47.2993 106.014 47.3309 105.982L46.9832 105.508C46.8884 105.571 44.2648 107.563 41.7676 111.198Z" fill="#1A1A1A"/>
<path d="M34.2764 111.134L34.7822 111.419C36.2046 108.922 36.9316 108.384 36.9316 108.384L36.5839 107.91C36.5207 107.942 35.7936 108.511 34.2764 111.134Z" fill="#1A1A1A"/>
<path d="M47.9297 112.367L48.309 112.81C52.1654 109.649 55.8321 108.195 55.8637 108.163L55.6425 107.626C55.6108 107.626 51.8493 109.143 47.9297 112.367Z" fill="#1A1A1A"/>
<path d="M99.7085 109.269C96.832 109.649 97.8119 111.166 97.8119 111.166C88.8663 105.476 88.1077 110.629 88.1077 110.629C80.869 107.183 80.4581 114.485 80.4581 114.485C80.4581 114.485 75.2425 112.304 74.5471 118.658C73.9781 123.778 68.8573 130.638 72.1764 130.638C77.1075 130.638 79.3518 122.293 79.3518 122.293C79.3518 122.293 81.3748 123.241 84.9467 124.221C88.5818 125.232 88.6767 128.046 88.1393 129.5C87.8548 130.258 83.1766 128.804 79.7627 130.163C74.4839 132.281 73.1247 138.098 78.119 136.422C83.9352 134.462 87.1594 138.224 91.7745 138.003C96.4211 137.781 97.4326 140.152 97.4326 140.152H118.2C113.49 133.419 111.499 119.669 107.326 113.916C104.134 109.522 101.984 108.985 99.7085 109.269Z" fill="white"/>
<path d="M112.763 126.275C111.182 121.313 109.665 116.634 107.579 113.758C105.113 110.344 103.027 108.922 100.624 108.922C100.308 108.922 99.9922 108.953 99.6445 108.985C98.4433 109.143 97.7163 109.522 97.4318 110.091C97.3686 110.249 97.337 110.407 97.3054 110.534C94.745 108.985 92.5955 108.195 90.9834 108.195C88.8339 108.195 88.1069 109.554 87.8856 110.218C86.6845 109.68 85.5781 109.396 84.6298 109.396C81.1527 109.396 80.3309 112.905 80.1729 114.074C79.7935 113.948 79.1929 113.821 78.4975 113.821C77.1067 113.821 74.7043 114.453 74.2302 118.594C74.0089 120.649 73.029 122.988 72.1755 125.074C71.164 127.54 70.3422 129.468 70.9744 130.385C71.1956 130.732 71.6065 130.891 72.1439 130.891C76.7273 130.891 79.0033 124.252 79.509 122.64C80.2044 122.956 82.0694 123.683 84.851 124.474C86.2419 124.853 87.1902 125.517 87.6959 126.497C88.3597 127.761 87.9805 129.026 87.8856 129.373C87.8856 129.373 87.7908 129.436 87.3166 129.436C86.9689 129.436 86.5264 129.405 85.989 129.373C85.262 129.31 84.4717 129.247 83.5867 129.247C82.0062 129.247 80.7102 129.468 79.6671 129.879C76.3796 131.207 74.4198 134.02 74.7675 135.727C74.9256 136.549 75.5894 137.023 76.5693 137.023C77.0434 137.023 77.6124 136.928 78.2446 136.707C79.351 136.327 80.4257 136.138 81.4688 136.138C83.3338 136.138 84.9775 136.707 86.5264 137.244C88.1701 137.813 89.877 138.382 91.8052 138.319C96.1674 138.129 97.1473 140.215 97.1789 140.31C97.2105 140.405 97.337 140.5 97.4634 140.5H118.231C118.358 140.5 118.452 140.437 118.484 140.342C118.516 140.247 118.516 140.121 118.452 140.026C116.082 136.612 114.406 131.333 112.763 126.275ZM97.653 139.868C97.3053 139.299 95.8829 137.529 91.8052 137.718C90.0035 137.813 88.423 137.244 86.7476 136.675C85.1355 136.106 83.4602 135.537 81.4688 135.537C80.3309 135.537 79.1929 135.727 78.0549 136.106C77.486 136.296 76.9802 136.391 76.5693 136.391C75.8739 136.391 75.4314 136.106 75.3365 135.569C75.0837 134.273 76.6957 131.681 79.8883 130.385C80.8682 129.974 82.101 129.784 83.5867 129.784C84.4401 129.784 85.2304 129.847 85.9574 129.911C86.4948 129.942 86.9373 129.974 87.3166 129.974C87.8224 129.974 88.2965 129.911 88.423 129.531C88.581 129.12 88.992 127.635 88.2334 126.149C87.6644 125.043 86.5896 124.284 85.0407 123.842C81.532 122.893 79.509 121.913 79.4774 121.913C79.4142 121.882 79.3194 121.882 79.2246 121.913C79.1613 121.945 79.0981 122.008 79.0665 122.103C79.0349 122.198 76.8538 130.258 72.1755 130.258C71.6698 130.258 71.5118 130.069 71.4801 130.005C71.0376 129.342 71.8595 127.35 72.7445 125.232C73.6296 123.115 74.6095 120.744 74.8307 118.594C75.1468 115.813 76.4113 114.327 78.4975 114.327C79.509 114.327 80.3309 114.675 80.3309 114.675C80.4257 114.706 80.5205 114.706 80.6154 114.643C80.7102 114.58 80.7418 114.517 80.7418 114.422C80.7418 114.232 81.0579 109.902 84.6614 109.902C85.6097 109.902 86.7477 110.218 87.9805 110.787C88.0753 110.818 88.1701 110.818 88.2334 110.787C88.3282 110.755 88.3598 110.66 88.3914 110.565C88.3914 110.502 88.6758 108.669 91.015 108.669C92.6587 108.669 94.8714 109.554 97.6215 111.292C97.7479 111.356 97.8743 111.356 98.0008 111.261C98.1272 111.166 98.1272 111.008 98.0324 110.881C98.0324 110.881 97.8427 110.534 97.9691 110.218C98.0956 109.965 98.5065 109.617 99.7077 109.459C100.024 109.427 100.34 109.396 100.624 109.396C102.173 109.396 104.133 109.933 107.073 114.011C109.096 116.793 110.582 121.439 112.162 126.339C113.742 131.238 115.355 136.296 117.631 139.773H97.653V139.868Z" fill="#1A1A1A"/>
<path d="M87.9805 110.881C88.0121 110.881 90.9834 112.336 94.0495 115.338L94.4605 114.928C91.3311 111.861 88.3598 110.407 88.2334 110.344L87.9805 110.881Z" fill="#1A1A1A"/>
<path d="M97.6211 110.692L97.3682 111.229C97.3682 111.229 98.1901 111.64 100.087 113.79L100.529 113.41C98.5377 111.134 97.6843 110.723 97.6211 110.692Z" fill="#1A1A1A"/>
<path d="M80.0781 114.706C80.1097 114.706 83.9978 115.465 88.3915 117.804L88.676 117.298C84.1874 114.928 80.2362 114.169 80.173 114.169L80.0781 114.706Z" fill="#1A1A1A"/>
</svg>
