<svg width="165" height="141" viewBox="0 0 165 141" fill="none" xmlns="http://www.w3.org/2000/svg">
<path d="M100.813 0.784332H11.1877C5.24634 0.784332 0.411133 5.61955 0.411133 11.5609V129.407C0.411133 135.38 5.24634 140.184 11.1877 140.184H100.813C106.754 140.184 111.589 135.349 111.589 129.407V11.5609C111.589 5.61955 106.754 0.784332 100.813 0.784332Z" fill="#4452FF"/>
<path d="M100.813 0.5H11.1879C5.08858 0.5 0.126953 5.46163 0.126953 11.5609V129.407C0.126953 135.507 5.08858 140.468 11.1879 140.468H100.813C106.912 140.468 111.874 135.507 111.874 129.407V11.5609C111.874 5.46163 106.912 0.5 100.813 0.5ZM111.305 129.407C111.305 135.191 106.596 139.9 100.813 139.9H11.1879C5.4046 139.9 0.695801 135.191 0.695801 129.407V11.5609C0.727404 5.77765 5.4046 1.10045 11.1879 1.10045H100.813C106.596 1.10045 111.305 5.80925 111.305 11.5926V129.407Z" fill="#1A1A1A"/>
<path d="M10.3001 8.59015H9.9209V139.931H10.3001V8.59015Z" fill="white"/>
<path d="M20.3812 8.59021H20.002V139.931H20.3812V8.59021Z" fill="white"/>
<path d="M30.4622 8.59018H30.083V139.931H30.4622V8.59018Z" fill="white"/>
<path d="M40.5765 8.59021H40.1973V139.931H40.5765V8.59021Z" fill="white"/>
<path d="M50.6576 8.59024H50.2783V139.931H50.6576V8.59024Z" fill="white"/>
<path d="M60.7386 8.59024H60.3594V139.931H60.7386V8.59024Z" fill="white"/>
<path d="M70.8187 8.59021H70.4395V139.931H70.8187V8.59021Z" fill="white"/>
<path d="M80.9007 8.59018H80.5215V139.931H80.9007V8.59018Z" fill="white"/>
<path d="M90.9828 8.59015H90.6035V139.931H90.9828V8.59015Z" fill="white"/>
<path d="M101.063 8.59024H100.684V139.931H101.063V8.59024Z" fill="white"/>
<path d="M111.303 28.4999H0.756836V28.8791H111.303V28.4999Z" fill="white"/>
<path d="M111.303 38.6127H0.756836V38.992H111.303V38.6127Z" fill="white"/>
<path d="M111.303 48.7256H0.756836V49.1048H111.303V48.7256Z" fill="white"/>
<path d="M111.303 18.071H0.756836V18.4502H111.303V18.071Z" fill="white"/>
<path d="M111.303 58.8385H0.756836V59.2177H111.303V58.8385Z" fill="white"/>
<path d="M111.303 68.9513H0.756836V69.3306H111.303V68.9513Z" fill="white"/>
<path d="M111.303 79.0642H0.756836V79.4434H111.303V79.0642Z" fill="white"/>
<path d="M111.303 89.1771H0.756836V89.5563H111.303V89.1771Z" fill="white"/>
<path d="M111.303 99.3215H0.756836V99.7008H111.303V99.3215Z" fill="white"/>
<path d="M111.303 109.434H0.756836V109.814H111.303V109.434Z" fill="white"/>
<path d="M111.303 119.547H0.756836V119.926H111.303V119.547Z" fill="white"/>
<path d="M111.303 129.66H0.756836V130.039H111.303V129.66Z" fill="white"/>
<path d="M100.813 0.784332H11.1877C5.24634 0.784332 0.411133 5.61955 0.411133 11.5609H111.589C111.589 5.61955 106.754 0.784332 100.813 0.784332Z" fill="white"/>
<path d="M100.813 0.5H11.1879C5.08858 0.5 0.126953 5.46163 0.126953 11.5609C0.126953 11.7506 0.253364 11.877 0.411377 11.877H111.59C111.748 11.877 111.874 11.7506 111.874 11.5926C111.874 5.46162 106.912 0.5 100.813 0.5ZM0.727404 11.2765C0.885418 5.61964 5.53101 1.10045 11.1879 1.10045H100.813C106.502 1.10045 111.147 5.65124 111.274 11.2765H0.727404Z" fill="#231D24"/>
<path d="M7.79659 6.10856L7.37207 6.53326L10.1885 9.3485L10.613 8.9238L7.79659 6.10856Z" fill="#231D24"/>
<path d="M10.1642 6.10751L7.35254 8.92712L7.77772 9.3511L10.5894 6.53149L10.1642 6.10751Z" fill="#231D24"/>
<path d="M14.6325 5.84076C13.5896 5.84076 12.7363 6.69403 12.7363 7.73692C12.7363 8.77981 13.5896 9.63308 14.6325 9.63308C15.6754 9.63308 16.5287 8.77981 16.5287 7.73692C16.5287 6.69403 15.6754 5.84076 14.6325 5.84076ZM14.6325 9.06424C13.9056 9.06424 13.3052 8.46378 13.3052 7.73692C13.3052 7.01006 13.9056 6.40961 14.6325 6.40961C15.3594 6.40961 15.9598 7.01006 15.9598 7.73692C15.9282 8.46378 15.3594 9.06424 14.6325 9.06424Z" fill="#231D24"/>
<path d="M20.6063 9.06421H17.7305V9.66466H20.6063V9.06421Z" fill="#231D24"/>
<path d="M95.8186 116.166H15.4846C11.8187 116.166 8.81641 119.136 8.81641 122.834C8.81641 126.5 11.7871 129.502 15.4846 129.502H95.787C99.4529 129.502 102.455 126.531 102.455 122.834C102.487 119.136 99.4845 116.166 95.8186 116.166Z" fill="#1A1A1A"/>
<path d="M96.1665 115.913H15.8325C12.0085 115.913 8.87988 119.042 8.87988 122.866C8.87988 126.69 12.0085 129.818 15.8325 129.818H96.1349C99.9588 129.818 103.088 126.69 103.088 122.866C103.119 119.042 99.9904 115.913 96.1665 115.913ZM96.1665 129.249H15.8325C12.3246 129.249 9.48033 126.405 9.48033 122.897C9.48033 119.389 12.3246 116.545 15.8325 116.545H96.1349C99.6428 116.545 102.487 119.389 102.487 122.897C102.519 126.405 99.6744 129.249 96.1665 129.249Z" fill="#1A1A1A"/>
<path d="M95.8186 90.5676H15.4846C11.8187 90.5676 8.81641 93.5383 8.81641 97.2358C8.81641 100.933 11.7871 103.904 15.4846 103.904H95.787C99.4529 103.904 102.455 100.933 102.455 97.2358C102.455 93.5383 99.4845 90.5676 95.8186 90.5676Z" fill="#1A1A1A"/>
<path d="M96.1665 90.2516H15.8325C12.0085 90.2516 8.87988 93.3803 8.87988 97.2042C8.87988 101.028 12.0085 104.157 15.8325 104.157H96.1349C99.9588 104.157 103.088 101.028 103.088 97.2042C103.119 93.3803 99.9904 90.2516 96.1665 90.2516ZM96.1665 103.588H15.8325C12.3246 103.588 9.48033 100.744 9.48033 97.2358C9.48033 93.7279 12.3246 90.8836 15.8325 90.8836H96.1349C99.6428 90.8836 102.487 93.7279 102.487 97.2358C102.519 100.712 99.6744 103.588 96.1665 103.588Z" fill="#1A1A1A"/>
<path d="M96.1673 64.9062H15.8332C12.1673 64.9062 9.16504 67.8769 9.16504 71.5744C9.16504 75.2403 12.1357 78.2426 15.8332 78.2426H96.1356C99.8016 78.2426 102.804 75.2719 102.804 71.5744C102.835 67.8769 99.8332 64.9062 96.1673 64.9062Z" fill="#1A1A1A"/>
<path d="M96.1665 64.5902H15.8325C12.0085 64.5902 8.87988 67.7189 8.87988 71.5428C8.87988 75.3667 12.0085 78.4954 15.8325 78.4954H96.1349C99.9588 78.4954 103.088 75.3667 103.088 71.5428C103.119 67.7189 99.9904 64.5902 96.1665 64.5902ZM96.1665 77.9266H15.8325C12.3246 77.9266 9.48033 75.0823 9.48033 71.5744C9.48033 68.0665 12.3246 65.2223 15.8325 65.2223H96.1349C99.6428 65.2223 102.487 68.0665 102.487 71.5744C102.519 75.0507 99.6744 77.9266 96.1665 77.9266Z" fill="#1A1A1A"/>
<path d="M96.1665 17.9446H15.8325C12.0085 17.9446 8.87988 21.0732 8.87988 24.8972C8.87988 28.7211 12.0085 31.8498 15.8325 31.8498H96.1349C99.9588 31.8498 103.088 28.7211 103.088 24.8972C103.088 21.0732 99.9904 17.9446 96.1665 17.9446ZM96.1665 31.2493H15.8325C12.3246 31.2493 9.48033 28.4051 9.48033 24.8972C9.48033 21.3893 12.3246 18.545 15.8325 18.545H96.1349C99.6428 18.545 102.487 21.3893 102.487 24.8972C102.519 28.4051 99.6744 31.2493 96.1665 31.2493Z" fill="#1A1A1A"/>
<path d="M94.9041 32.8611L15.4549 44.7121C11.8206 45.2493 9.29238 48.6308 9.86123 52.2651C10.3985 55.8994 13.78 58.4276 17.4143 57.8588L96.8634 46.0394C100.498 45.5021 103.026 42.1206 102.457 38.4863C101.951 34.852 98.5384 32.3238 94.9041 32.8611Z" fill="#1A1A1A"/>
<path d="M95.7546 32.5134C95.407 32.5134 95.0593 32.545 94.7117 32.5766L15.2941 44.396C11.5018 44.9649 8.8788 48.5044 9.44765 52.2967C9.95329 55.6782 12.8923 58.238 16.3054 58.238C16.6531 58.238 17.0007 58.2064 17.3483 58.1748L96.7975 46.3238C100.59 45.755 103.213 42.2155 102.644 38.4231C102.138 35.0416 99.1993 32.5134 95.7546 32.5134ZM96.7027 45.755L17.2535 57.5744C16.9375 57.606 16.6215 57.6376 16.3054 57.6376C13.1768 57.6376 10.4905 55.299 10.0165 52.2019C9.51085 48.7256 11.9127 45.5021 15.389 44.9649L94.8381 33.1455C95.1541 33.1139 95.4702 33.0823 95.7862 33.0823C98.9149 33.0823 101.601 35.4209 102.075 38.5179C102.581 41.9942 100.179 45.2493 96.7027 45.755Z" fill="#1A1A1A"/>
<path d="M53.407 74.4502V72.8069C53.407 72.3329 53.2174 71.922 52.8382 71.5744C53.2174 71.2268 53.407 70.8159 53.407 70.3419V68.6985C53.407 68.1929 53.6914 67.9085 54.2287 67.8769V67.0552C53.1226 67.1816 52.5853 67.7505 52.5853 68.7301V70.3735C52.5853 70.9423 52.3325 71.1952 51.8269 71.1952H51.7637V72.0168H51.8269C52.3325 72.0168 52.5853 72.3013 52.5853 72.8385V74.4818C52.5853 75.4615 53.1542 75.9988 54.2287 76.1252V75.3035C53.6914 75.2403 53.407 74.9559 53.407 74.4502Z" fill="white"/>
<path d="M60.1704 71.132C59.6647 71.132 59.4119 70.8475 59.4119 70.3103V68.667C59.4119 67.6873 58.843 67.15 57.7686 67.0236V67.8453C58.3374 67.8769 58.5902 68.1613 58.5902 68.667V70.3103C58.5902 70.7843 58.7798 71.1952 59.1591 71.5428C58.7798 71.8904 58.5902 72.3013 58.5902 72.7753V74.4187C58.5902 74.9243 58.3058 75.2087 57.7686 75.2403V76.062C58.8746 75.9356 59.4119 75.3667 59.4119 74.3871V72.7437C59.4119 72.1749 59.6647 71.922 60.1704 71.922H60.2336V71.1004H60.1704V71.132Z" fill="white"/>
<path d="M120.565 79.4118C113.328 79.4118 107.545 122.802 107.545 140.184H133.617C133.649 138.446 133.68 136.708 133.68 134.938C133.649 104.283 127.802 79.4118 120.565 79.4118Z" fill="white"/>
<path d="M120.564 79.1274C113.011 79.1274 107.26 122.486 107.26 140.184C107.26 140.342 107.386 140.468 107.544 140.468H133.616C133.774 140.468 133.901 140.342 133.901 140.184C133.932 138.414 133.964 136.644 133.964 134.938C133.964 103.651 128.086 79.1274 120.564 79.1274ZM133.3 139.899H107.829C107.892 120.875 114.023 79.7278 120.564 79.7278C127.612 79.7278 133.364 104.504 133.364 134.969C133.364 136.55 133.332 138.224 133.3 139.899Z" fill="#1A1A1A"/>
<path d="M141.991 62.0304L126.411 64.0213C126.411 64.0213 126.759 68.4457 125.811 72.5541C125.811 72.5541 138.673 69.7414 142.592 69.7414C142.592 69.7414 141.77 64.527 141.991 62.0304Z" fill="white"/>
<path d="M142.276 62.062C142.276 61.9672 142.244 61.8724 142.181 61.8092C142.118 61.746 142.023 61.7144 141.928 61.7144L126.348 63.7053C126.19 63.7369 126.064 63.8633 126.095 64.0214C126.095 64.053 126.443 68.4457 125.495 72.4593C125.463 72.5541 125.495 72.6489 125.558 72.7437C125.621 72.8069 125.684 72.8385 125.779 72.8385C125.811 72.8385 125.811 72.8385 125.842 72.8385C125.969 72.8069 138.736 70.0575 142.56 70.0575C142.655 70.0575 142.718 70.0259 142.781 69.9627C142.845 69.8995 142.876 69.8046 142.845 69.7098C142.876 69.6466 142.055 64.4638 142.276 62.062ZM142.244 69.457C138.42 69.5834 128.465 71.6692 126.19 72.1749C126.885 68.7934 126.759 65.2855 126.696 64.3058L141.644 62.4096C141.549 64.5902 142.086 68.3193 142.244 69.457Z" fill="#1A1A1A"/>
<path d="M142.495 68.7933C142.495 68.7933 122.681 71.3531 117.434 73.7865C112.188 76.2199 113.263 100.459 113.547 113.543C113.832 126.658 113.263 140.152 113.263 140.152H163.732C163.732 140.152 161.425 104.094 157.633 93.159C153.872 82.3825 142.495 68.7933 142.495 68.7933Z" fill="#01DB83"/>
<path d="M142.716 68.6037C142.653 68.5405 142.558 68.4773 142.464 68.5089C141.642 68.6037 122.522 71.1003 117.308 73.5337C112.315 75.8407 112.82 96.4773 113.168 110.13C113.2 111.331 113.231 112.5 113.263 113.574C113.547 126.531 112.978 140.026 112.978 140.184C112.978 140.279 113.01 140.342 113.073 140.405C113.136 140.468 113.2 140.5 113.294 140.5H163.764C163.859 140.5 163.922 140.468 163.985 140.405C164.048 140.342 164.08 140.279 164.048 140.184C164.017 139.836 161.678 103.967 157.917 93.0958C154.188 82.3509 142.843 68.7301 142.716 68.6037ZM113.547 139.899C113.642 137.814 114.084 125.457 113.832 113.574C113.8 112.5 113.768 111.331 113.737 110.13C113.421 97.457 112.883 76.22 117.529 74.071C122.427 71.7956 140.441 69.3622 142.369 69.1093C143.506 70.4999 153.841 83.2042 157.348 93.2854C160.888 103.525 163.163 136.328 163.416 139.899H113.547Z" fill="#1A1A1A"/>
<path opacity="0.55" d="M113.358 107.38L126.663 100.491L113.231 96.6985L113.358 107.38Z" fill="#05935A"/>
<path opacity="0.35" d="M150.776 80.0755V112.184C150.839 113.574 150.713 114.933 150.428 116.229C149.196 129.281 136.713 139.868 123.756 139.868C120.027 139.868 116.519 139.109 113.358 137.719C113.295 139.267 113.264 140.152 113.264 140.152H163.733C163.733 140.152 161.426 104.094 157.634 93.159C156.149 88.9243 153.462 84.2155 150.776 80.0755Z" fill="#00A260"/>
<path d="M138.64 35.7369C138.64 35.7369 137.914 29.7324 127.485 32.1658C119.932 33.9355 118.573 33.3351 118.573 33.3351C118.573 33.3351 119.426 36.0529 122.555 36.7798C122.555 36.7798 117.119 36.0845 117.403 41.6466C117.719 47.2087 121.132 47.9988 121.164 50.5586C121.227 53.1184 116.55 55.8994 121.417 59.5337C126.284 63.1365 137.187 69.6782 144.392 58.9965C151.376 48.6624 145.119 31.0597 138.64 35.7369Z" fill="#1A1A1A"/>
<path d="M138.829 35.2313C138.482 34.1252 137.123 31.2809 131.972 31.2809C130.613 31.2809 129.096 31.4706 127.421 31.8814C122.996 32.9243 120.721 33.1139 119.583 33.1139C118.92 33.1139 118.699 33.0507 118.699 33.0507C118.604 33.0191 118.477 33.0191 118.382 33.1139C118.288 33.1771 118.256 33.3035 118.288 33.4299C118.319 33.5247 118.951 35.4525 121.037 36.5586C120.152 36.685 119.078 37.0326 118.288 37.8859C117.434 38.7708 117.055 40.0665 117.15 41.7098C117.34 45.0913 118.635 46.7347 119.678 48.062C120.373 48.9469 120.911 49.6421 120.942 50.5902C120.942 51.3171 120.531 52.1071 120.057 52.9604C119.046 54.825 117.782 57.1636 121.322 59.7866C126.125 63.3577 130.55 65.159 134.5 65.159C138.608 65.159 142.053 63.1681 144.708 59.1861C148.879 52.992 148.468 43.8272 145.656 38.518C143.759 35.0733 141.168 33.8408 138.829 35.2313ZM144.139 58.8385C141.579 62.6308 138.324 64.527 134.405 64.527C130.644 64.527 126.22 62.7256 121.606 59.2809C118.477 56.9423 119.457 55.141 120.531 53.2132C121.037 52.2967 121.511 51.4435 121.48 50.5586C121.448 49.4209 120.816 48.5992 120.089 47.6511C119.109 46.387 117.877 44.8069 117.687 41.615C117.592 40.1613 117.94 39.0236 118.667 38.2335C119.647 37.1907 121.164 37.0326 121.985 37.0326C122.301 37.0326 122.491 37.0642 122.491 37.0642C122.649 37.0958 122.775 36.9694 122.807 36.8114C122.838 36.6534 122.744 36.4954 122.586 36.4638C120.405 35.9581 119.394 34.4412 119.015 33.6827C119.963 33.746 122.238 33.6827 127.516 32.4502C129.159 32.071 130.644 31.8814 131.94 31.8814C137.755 31.8814 138.292 35.6105 138.324 35.7685C138.324 35.8633 138.387 35.9581 138.513 35.9897C138.608 36.0214 138.735 36.0213 138.798 35.9581C140.978 34.4096 143.317 35.5157 145.055 38.7708C147.805 43.922 148.215 52.834 144.139 58.8385Z" fill="#1A1A1A"/>
<path d="M140.663 51.8227H140.631C140.695 49.5473 140.631 47.3035 140.473 46.1342C140.189 43.8904 134.09 40.4141 127.516 42.089C127.516 42.089 122.966 39.4344 121.543 46.0394C120.943 48.8836 120.058 54.6353 119.868 57.606C119.647 60.5766 118.984 64.8746 120.817 67.0236C123.282 69.8994 126.631 70.8791 130.392 71.0687C131.435 68.2877 134.722 70.1206 136.333 68.6669C138.862 66.3915 139.399 62.536 139.841 59.5653C140.094 59.6285 140.379 59.6601 140.663 59.6601C142.844 59.6601 144.582 57.8904 144.582 55.7414C144.582 53.5608 142.844 51.8227 140.663 51.8227Z" fill="white"/>
<path d="M140.947 51.5383C140.979 49.3261 140.916 47.2087 140.789 46.1026C140.505 43.9536 136.144 41.3622 131.119 41.3622C129.918 41.3622 128.749 41.5202 127.611 41.8046C127.326 41.6466 126.505 41.299 125.525 41.299C124.071 41.299 122.144 42.1206 121.29 46.0078C120.69 48.7572 119.805 54.5405 119.584 57.606C119.552 57.9852 119.521 58.396 119.489 58.8069C119.236 61.6827 118.92 65.2854 120.595 67.2132C122.839 69.8362 125.936 71.1635 130.392 71.3532C130.518 71.3532 130.645 71.2899 130.676 71.1635C131.214 69.7098 132.383 69.6782 133.773 69.615C134.785 69.5834 135.796 69.5518 136.554 68.8565C139.051 66.5811 139.652 62.9152 140.094 59.8814C140.284 59.913 140.473 59.913 140.663 59.913C143.001 59.913 144.898 58.0168 144.898 55.7098C144.898 53.4976 143.159 51.6963 140.947 51.5383ZM140.663 59.3757C140.41 59.3757 140.157 59.3441 139.904 59.2809C139.841 59.2493 139.746 59.3125 139.683 59.3441C139.62 59.3757 139.557 59.4705 139.557 59.5653C139.114 62.536 138.577 66.2651 136.144 68.4773C135.543 69.0146 134.658 69.0462 133.742 69.0778C132.415 69.141 130.929 69.1726 130.202 70.7843C126.031 70.5631 123.123 69.299 121.038 66.8656C119.521 65.0958 119.837 61.6511 120.058 58.8701C120.089 58.4592 120.121 58.0484 120.153 57.6692C120.374 54.6037 121.259 48.852 121.828 46.1342C122.428 43.3532 123.692 41.8678 125.494 41.8678C126.536 41.8678 127.358 42.3419 127.39 42.3735C127.453 42.4051 127.548 42.4367 127.611 42.4051C128.749 42.1207 129.918 41.9626 131.087 41.9626C135.954 41.9626 139.968 44.5225 140.189 46.1974C140.347 47.3035 140.378 49.5157 140.347 51.8227C140.347 51.9175 140.41 51.9807 140.442 52.0439C140.505 52.1071 140.6 52.1387 140.663 52.1387C142.654 52.1387 144.297 53.7504 144.297 55.773C144.297 57.7324 142.685 59.3757 140.663 59.3757Z" fill="#1A1A1A"/>
<path d="M131.846 57.2268C130.74 56.4367 129.065 55.9627 127.327 56.2471C126.031 56.4367 125.083 57.1636 123.408 57.1636C122.049 57.1636 120.911 56.816 119.995 56.2471C119.932 56.7844 119.868 57.2584 119.868 57.6376C119.647 60.6083 118.984 64.9063 120.817 67.0553C123.282 69.9311 126.631 70.9108 130.392 71.1004C131.435 68.3194 134.722 70.1523 136.333 68.6986C139.178 66.1072 139.525 61.5564 139.999 58.4909C139.115 58.9966 138.072 59.281 136.808 59.281C134.564 59.281 133.268 58.2381 131.846 57.2268ZM126.726 61.5564C125.115 60.9243 124.293 59.6286 124.103 58.9334C123.882 58.1433 124.64 58.1117 125.241 58.3645C128.559 59.6602 131.056 58.4593 131.403 59.2178C132.004 60.6083 129.539 62.6309 126.726 61.5564Z" fill="#1A1A1A"/>
<path d="M130.582 58.6489C130.392 58.6489 130.139 58.6489 129.887 58.6805C129.571 58.7121 129.191 58.7121 128.781 58.7121C127.516 58.7121 126.41 58.5225 125.336 58.0801C125.146 58.0169 124.893 57.9221 124.609 57.9221C124.23 57.9221 124.009 58.0801 123.914 58.2065C123.756 58.3961 123.724 58.6805 123.819 58.9966C124.009 59.6602 124.799 61.1139 126.6 61.8092C127.169 62.0304 127.738 62.1252 128.307 62.1252C129.634 62.1252 130.866 61.5248 131.435 60.6083C131.783 60.071 131.846 59.5338 131.625 59.0282C131.467 58.7121 131.024 58.6489 130.582 58.6489ZM130.961 60.3239C130.55 60.9243 129.602 61.5564 128.307 61.5564C127.801 61.5564 127.295 61.4616 126.79 61.2719C125.336 60.7031 124.546 59.5338 124.356 58.8701C124.325 58.7121 124.325 58.6173 124.356 58.5857C124.388 58.5541 124.451 58.5225 124.577 58.5225C124.735 58.5225 124.925 58.5541 125.083 58.6489C126.252 59.0914 127.39 59.3126 128.749 59.3126C129.16 59.3126 129.539 59.281 129.887 59.281C130.139 59.281 130.361 59.2494 130.55 59.2494C130.993 59.2494 131.056 59.3126 131.056 59.3442C131.246 59.6286 131.182 59.9762 130.961 60.3239Z" fill="#1A1A1A"/>
<path d="M139.873 58.2065C138.988 58.7121 137.977 58.9649 136.839 58.9649C134.785 58.9649 133.552 58.0801 132.257 57.132L132.035 56.974C130.803 56.0891 128.97 55.6783 127.295 55.9311C126.758 56.0259 126.284 56.1839 125.81 56.3419C125.114 56.5947 124.387 56.8476 123.408 56.8476C122.175 56.8476 121.101 56.5631 120.153 55.9627C120.058 55.8995 119.963 55.8995 119.868 55.9311C119.773 55.9627 119.71 56.0575 119.71 56.1523C119.647 56.6896 119.584 57.1636 119.584 57.5744C119.552 57.9537 119.521 58.3645 119.489 58.7753C119.236 61.6512 118.92 65.2539 120.595 67.1817C122.839 69.8047 125.936 71.132 130.392 71.3216C130.518 71.3216 130.645 71.2584 130.676 71.132C131.214 69.6783 132.383 69.6467 133.773 69.5835C134.785 69.5519 135.796 69.5202 136.554 68.825C139.146 66.4864 139.715 62.6625 140.157 59.5654C140.22 59.1862 140.284 58.8069 140.315 58.4277C140.347 58.3013 140.284 58.2065 140.189 58.1433C140.094 58.1749 139.968 58.1749 139.873 58.2065ZM139.557 59.5654C139.114 62.5361 138.577 66.2652 136.144 68.4774C135.543 69.0146 134.658 69.0462 133.742 69.0778C132.415 69.141 130.929 69.1726 130.202 70.7844C126.031 70.5631 123.123 69.299 121.038 66.8656C119.521 65.0959 119.837 61.6512 120.058 58.8701C120.089 58.4593 120.121 58.0485 120.153 57.6692C120.184 57.3848 120.216 57.0688 120.247 56.7212C121.164 57.2268 122.238 57.448 123.408 57.448C124.482 57.448 125.241 57.1636 125.999 56.9108C126.473 56.7528 126.916 56.5947 127.39 56.5315C128.907 56.2787 130.55 56.6579 131.688 57.448L131.909 57.606C133.299 58.6173 134.595 59.5338 136.839 59.5338C137.85 59.5338 138.798 59.3442 139.652 58.9649C139.62 59.1862 139.588 59.3758 139.557 59.5654Z" fill="#1A1A1A"/>
<path d="M135.227 49.5789L129.601 48.9153C128.938 48.8521 128.4 49.3893 128.4 50.0846V51.6331C128.4 52.834 129.19 53.8453 130.265 53.9717L133.394 54.3509C133.457 54.3509 133.52 54.3509 133.615 54.3509C134.626 54.3509 135.511 53.5925 135.764 52.4864L136.111 50.9694C136.175 50.6218 136.111 50.2742 135.922 49.9898C135.764 49.7685 135.511 49.6105 135.227 49.5789ZM135.543 50.843L135.195 52.36C135.005 53.2132 134.247 53.8453 133.457 53.7505L130.328 53.3713C129.538 53.2764 128.969 52.518 128.969 51.6331L129.001 50.0846C129.001 49.7685 129.222 49.5157 129.538 49.5157L135.163 50.1794C135.29 50.1794 135.385 50.2742 135.479 50.369C135.543 50.4954 135.574 50.6534 135.543 50.843Z" fill="#1A1A1A"/>
<path d="M126.314 48.5361L120.689 47.8724C120.057 47.8092 119.488 48.3464 119.488 49.0417V50.5902C119.488 51.7911 120.278 52.8024 121.353 52.9288L124.482 53.3081C124.545 53.3081 124.64 53.3081 124.703 53.3081C125.714 53.3081 126.599 52.5496 126.852 51.4435L127.199 49.9266C127.263 49.5789 127.199 49.2313 127.01 48.9469C126.883 48.6941 126.63 48.5677 126.314 48.5361ZM126.662 49.8002L126.314 51.3171C126.125 52.1704 125.366 52.8024 124.576 52.7076L121.448 52.3284C120.658 52.2336 120.089 51.4751 120.089 50.5902L120.12 49.0417C120.12 48.7257 120.342 48.4729 120.658 48.4729L126.283 49.1365C126.409 49.1365 126.504 49.2313 126.599 49.3261C126.662 49.4209 126.694 49.6105 126.662 49.8002Z" fill="#1A1A1A"/>
<path d="M126.756 49.6421C126.629 49.7369 126.598 49.9266 126.724 50.053C126.819 50.1794 127.008 50.211 127.135 50.0846C127.83 49.5157 128.431 50.1794 128.494 50.2426C128.557 50.3058 128.62 50.3374 128.715 50.3374C128.778 50.3374 128.841 50.3058 128.905 50.2742C129.031 50.1794 129.063 49.9898 128.936 49.8634C128.589 49.4841 127.704 48.8837 126.756 49.6421Z" fill="#1A1A1A"/>
<path d="M125.651 46.7662C125.587 46.7346 124.007 46.1658 121.289 47.0823C121.131 47.1455 121.037 47.3035 121.1 47.4615C121.131 47.5879 121.258 47.6511 121.384 47.6511C121.416 47.6511 121.448 47.6511 121.479 47.6511C124.007 46.7978 125.429 47.3351 125.461 47.3351C125.619 47.3983 125.777 47.3035 125.84 47.1455C125.872 46.9875 125.809 46.8294 125.651 46.7662Z" fill="#1A1A1A"/>
<path d="M135.416 47.5247C132.951 46.0077 131.308 46.229 131.213 46.229C131.055 46.2606 130.928 46.387 130.96 46.545C130.992 46.703 131.118 46.8294 131.276 46.7978C131.276 46.7978 132.825 46.6398 135.068 47.9987C135.132 48.0303 135.163 48.0303 135.226 48.0303C135.321 48.0303 135.416 47.9671 135.479 47.9039C135.606 47.7775 135.574 47.5879 135.416 47.5247Z" fill="#1A1A1A"/>
<path d="M133.487 50.8746C133.139 50.8746 132.854 51.159 132.854 51.5066C132.854 51.8543 133.139 52.1387 133.487 52.1387C133.834 52.1387 134.119 51.8543 134.119 51.5066C134.119 51.159 133.834 50.8746 133.487 50.8746Z" fill="#1A1A1A"/>
<path d="M133.487 50.5901C132.982 50.5901 132.539 51.001 132.539 51.5382C132.539 52.0439 132.95 52.4863 133.487 52.4863C133.993 52.4863 134.435 52.0755 134.435 51.5382C134.435 51.001 133.993 50.5901 133.487 50.5901ZM133.487 51.8859C133.298 51.8859 133.14 51.7278 133.14 51.5382C133.14 51.3486 133.298 51.1906 133.487 51.1906C133.677 51.1906 133.835 51.3486 133.835 51.5382C133.835 51.7278 133.677 51.8859 133.487 51.8859Z" fill="#1A1A1A"/>
<path d="M124.039 49.8001C123.692 49.8001 123.407 50.0845 123.407 50.4321C123.407 50.7798 123.692 51.0642 124.039 51.0642C124.387 51.0642 124.671 50.7798 124.671 50.4321C124.671 50.0845 124.387 49.8001 124.039 49.8001Z" fill="#1A1A1A"/>
<path d="M124.04 49.5157C123.534 49.5157 123.092 49.9265 123.092 50.4637C123.092 51.001 123.503 51.4118 124.04 51.4118C124.546 51.4118 124.988 51.001 124.988 50.4637C124.988 49.9265 124.546 49.5157 124.04 49.5157ZM124.04 50.7798C123.85 50.7798 123.692 50.6217 123.692 50.4321C123.692 50.2425 123.85 50.0845 124.04 50.0845C124.229 50.0845 124.388 50.2425 124.388 50.4321C124.388 50.6217 124.229 50.7798 124.04 50.7798Z" fill="#1A1A1A"/>
<path d="M128.147 53.1817C127.642 53.3081 127.357 53.5293 127.231 53.8769C127.041 54.4458 127.515 54.983 127.579 55.0462C127.642 55.1094 127.705 55.141 127.8 55.141C127.863 55.141 127.926 55.1094 127.989 55.0778C128.116 54.983 128.116 54.7934 128.021 54.667C127.926 54.5406 127.737 54.2562 127.8 54.0666C127.863 53.9085 128.116 53.8137 128.274 53.7821C128.432 53.7505 128.527 53.5925 128.495 53.4345C128.464 53.2449 128.305 53.1501 128.147 53.1817Z" fill="#1A1A1A"/>
<path d="M142.149 53.4029C141.169 52.992 140 53.1816 139.336 53.8769L139.778 54.2877C140.284 53.7821 141.169 53.6241 141.927 53.9401C142.623 54.2245 143.033 54.8566 143.002 55.6151C142.939 57.4796 140.821 57.7324 140.726 57.7324L140.79 58.3329C141.738 58.2381 143.539 57.5428 143.602 55.6467C143.602 54.667 143.065 53.8137 142.149 53.4029Z" fill="#1A1A1A"/>
<path d="M141.484 53.7504C141.674 54.1929 141.706 54.5721 141.579 54.8881C141.358 55.3306 140.789 55.4886 140.789 55.4886L140.915 56.0574C140.947 56.0574 141.769 55.8362 142.116 55.141C142.338 54.6669 142.306 54.1297 142.053 53.4976L141.484 53.7504Z" fill="#1A1A1A"/>
<path d="M83.7136 32.4502C83.6188 29.9536 75.3705 26.6669 74.4224 28.1206C73.9168 28.9107 74.0748 30.1432 74.0748 30.1432C74.0748 30.1432 71.515 28.563 70.5037 30.2064C70.5037 30.2064 67.6594 30.238 67.059 32.4502C66.9958 32.6398 61.0545 34.7256 62.8242 37.5382L65.8897 37.001C66.4585 36.8114 66.9642 35.9897 66.9642 36.3373C66.8378 45.4705 69.0184 48.9784 71.4834 49.9581C75.0229 58.8384 78.3728 65.4118 78.3728 65.4118L90.4134 56.1206C90.4134 56.1206 80.9958 44.3644 80.9958 42.9739C81.059 41.615 83.8084 34.9468 83.7136 32.4502Z" fill="white"/>
<path d="M81.3443 43.0055C81.3443 42.4683 81.8184 40.9829 82.3556 39.3712C83.1773 36.843 84.0938 33.9671 84.0306 32.4186C83.9358 30.0484 77.9629 27.457 75.4978 27.457C74.8658 27.457 74.4233 27.615 74.2021 27.931C73.8545 28.4683 73.7913 29.1319 73.7913 29.606C73.3489 29.3847 72.6536 29.1319 71.9583 29.1319C71.2947 29.1319 70.7258 29.3847 70.3782 29.8904C69.7462 29.922 67.4708 30.2064 66.8387 32.2606C66.7755 32.2922 66.6491 32.3554 66.4911 32.4186C65.385 32.9558 62.7936 34.1883 62.3195 35.8949C62.1299 36.4953 62.2563 37.0958 62.6039 37.6962C62.6672 37.7911 62.7936 37.8543 62.8884 37.8227L66.017 37.2854C66.2699 37.1906 66.4911 37.0326 66.6807 36.8746C66.6491 44.396 68.1976 48.8836 71.2631 50.2109C74.771 58.9649 78.0893 65.5066 78.1209 65.6014C78.1525 65.6646 78.2473 65.7279 78.3105 65.7595C78.3421 65.7595 78.3421 65.7595 78.3737 65.7595C78.4369 65.7595 78.5001 65.7279 78.5633 65.6963L90.6039 56.4051C90.6671 56.3418 90.6987 56.2786 90.7303 56.2154C90.7303 56.1522 90.7303 56.0574 90.6671 55.9942C86.1479 50.3057 81.3443 43.8588 81.3443 43.0055ZM78.5001 64.9694C77.8048 63.5473 74.8342 57.5428 71.7687 49.8317C71.7371 49.7685 71.6739 49.7053 71.6107 49.6737C69.5565 48.852 67.1547 45.8813 67.2811 36.3373C67.2811 36.2109 67.2495 36.1161 67.1863 36.0529C67.1231 35.9897 67.0283 35.9581 66.9651 35.9581C66.8071 35.9581 66.6807 36.0529 66.4911 36.2425C66.3015 36.4005 66.0802 36.6534 65.8906 36.7166L63.0148 37.2222C62.8252 36.843 62.762 36.4637 62.8884 36.0845C63.2992 34.6308 65.7326 33.4615 66.7439 32.9874C67.2495 32.7346 67.3444 32.703 67.376 32.545C67.9132 30.554 70.5046 30.5224 70.5362 30.5224C70.631 30.5224 70.7258 30.4592 70.789 30.396C71.0419 29.9852 71.4211 29.7956 71.9583 29.7956C72.9064 29.7956 73.9493 30.4276 73.9493 30.4276C74.0441 30.4908 74.1705 30.4908 74.2653 30.4276C74.3601 30.3644 74.4234 30.238 74.3917 30.1432C74.3917 30.1432 74.2337 29.0371 74.6762 28.3418C74.771 28.2154 75.0554 28.1206 75.4662 28.1206C77.8364 28.1206 83.3353 30.6804 83.3985 32.5134C83.4617 33.9355 82.5136 36.8746 81.7552 39.2448C81.1863 41.0145 80.7439 42.4367 80.7439 43.0371C80.7123 44.4276 88.0757 53.7188 90.0351 56.1206L78.5001 64.9694Z" fill="#1A1A1A"/>
<path d="M77.5823 32.8926L78.5304 31.4705L73.8848 29.9852C73.8848 29.9852 75.6861 30.8068 77.5823 32.8926Z" fill="white"/>
<path d="M78.689 31.2493C78.5626 31.1545 78.373 31.1861 78.2782 31.3441L77.5514 32.4186C75.7184 30.5224 74.0751 29.764 74.0119 29.7324C73.8538 29.6692 73.6958 29.7324 73.6326 29.8904C73.5694 30.0484 73.6326 30.2064 73.7906 30.2696C73.8222 30.2696 75.5604 31.0913 77.3933 33.1139C77.4565 33.1771 77.5197 33.2087 77.6146 33.2087C77.6146 33.2087 77.6146 33.2087 77.6462 33.2087C77.741 33.2087 77.8042 33.1455 77.8674 33.0823L78.8155 31.6601C78.8471 31.5021 78.8155 31.3125 78.689 31.2493Z" fill="#1A1A1A"/>
<path d="M96.8612 66.3283C96.8612 66.3283 90.4459 54.3825 85.421 46.7979C85.421 46.7979 70.947 54.1929 67.4707 63.1997C67.4707 63.1997 84.8522 87.9446 86.9064 88.8611C88.9605 89.7459 126.947 100.586 126.947 100.586L124.924 72.7437C111.683 74.0078 96.8612 66.3283 96.8612 66.3283Z" fill="#01DB83"/>
<path d="M127.042 100.27C126.663 100.175 89.0242 89.4299 87.0333 88.5766C85.6111 87.9446 74.803 73.0913 67.8188 63.1681C71.0739 55.0462 83.4938 48.1884 85.3583 47.1771C90.2883 54.6985 96.5457 66.3599 96.6089 66.4863C96.6405 66.5495 96.6721 66.5811 96.7353 66.6127C96.8933 66.676 111.778 74.2922 124.956 73.0281C125.115 72.9965 125.241 72.8701 125.209 72.7121C125.209 72.5541 125.051 72.4276 124.893 72.4592C112.379 73.6602 98.2522 66.7392 97.0829 66.1387C96.5141 65.0642 90.4148 53.8453 85.6744 46.6398C85.5795 46.5134 85.4215 46.4818 85.2951 46.545C84.6947 46.8611 70.6631 54.0665 67.1868 63.1049C67.1552 63.1997 67.1552 63.2945 67.2184 63.3893C68.9881 65.9175 84.6947 88.229 86.7488 89.1455C88.7714 90.0304 125.273 100.428 126.821 100.87C126.853 100.87 126.884 100.87 126.916 100.87C127.042 100.87 127.169 100.775 127.2 100.649C127.295 100.491 127.2 100.333 127.042 100.27Z" fill="#1A1A1A"/>
<path d="M126.569 78.4005C120.533 78.4005 95.8825 72.7121 94.8396 71.5112C94.334 70.5631 82.1353 50.4637 81.6297 49.6105L81.124 49.9265C81.2504 50.1477 93.8283 70.8791 94.334 71.7956C95.0924 73.2809 120.722 79.001 126.569 79.001C132.763 79.001 148.659 78.3057 148.817 78.3057L148.785 77.7053C148.627 77.7369 132.731 78.4005 126.569 78.4005Z" fill="white"/>
<g opacity="0.4">
<path d="M125.02 83.2358C117.594 83.8678 95.2505 78.0213 93.1331 76.2516C91.711 75.0823 82.2618 60.2922 77.4265 52.6127L76.9209 52.9288C77.4897 53.8452 90.9209 75.2087 92.7538 76.694C95.1557 78.685 115.539 83.8362 123.851 83.8362C124.293 83.8362 124.704 83.8362 125.083 83.8046C130.424 83.3622 150.966 83.0461 151.187 83.0461V82.4457C150.966 82.4773 130.393 82.7933 125.02 83.2358Z" fill="#01BB70"/>
</g>
<path d="M33.2362 119.343H34.1051V120.212H33.2362V119.343ZM34.2017 119.343H35.0706V120.212H34.2017V119.343ZM35.1672 119.343H36.0362V120.212H35.1672V119.343ZM32.2706 120.308H33.1396V121.177H32.2706V120.308ZM36.1327 120.308H37.0017V121.177H36.1327V120.308ZM32.2706 121.274H33.1396V122.143H32.2706V121.274ZM33.2362 122.239H34.1051V123.108H33.2362V122.239ZM34.2017 122.239H35.0706V123.108H34.2017V122.239ZM35.1672 123.205H36.0362V124.074H35.1672V123.205ZM36.1327 124.17H37.0017V125.039H36.1327V124.17ZM32.2706 125.136H33.1396V126.005H32.2706V125.136ZM36.1327 125.136H37.0017V126.005H36.1327V125.136ZM33.2362 126.101H34.1051V126.97H33.2362V126.101ZM34.2017 126.101H35.0706V126.97H34.2017V126.101ZM35.1672 126.101H36.0362V126.97H35.1672V126.101ZM39.8789 122.239H40.7479V123.108H39.8789V122.239ZM40.8444 122.239H41.7134V123.108H40.8444V122.239ZM38.9134 123.205H39.7824V124.074H38.9134V123.205ZM41.81 123.205H42.6789V124.074H41.81V123.205ZM38.9134 124.17H39.7824V125.039H38.9134V124.17ZM41.81 124.17H42.6789V125.039H41.81V124.17ZM38.9134 125.136H39.7824V126.005H38.9134V125.136ZM41.81 125.136H42.6789V126.005H41.81V125.136ZM39.8789 126.101H40.7479V126.97H39.8789V126.101ZM40.8444 126.101H41.7134V126.97H40.8444V126.101ZM43.6251 119.343H44.4941V120.212H43.6251V119.343ZM44.5906 119.343H45.4596V120.212H44.5906V119.343ZM45.5562 119.343H46.4251V120.212H45.5562V119.343ZM45.5562 120.308H46.4251V121.177H45.5562V120.308ZM45.5562 121.274H46.4251V122.143H45.5562V121.274ZM45.5562 122.239H46.4251V123.108H45.5562V122.239ZM45.5562 123.205H46.4251V124.074H45.5562V123.205ZM45.5562 124.17H46.4251V125.039H45.5562V124.17ZM45.5562 125.136H46.4251V126.005H45.5562V125.136ZM43.6251 126.101H44.4941V126.97H43.6251V126.101ZM44.5906 126.101H45.4596V126.97H44.5906V126.101ZM45.5562 126.101H46.4251V126.97H45.5562V126.101ZM46.5217 126.101H47.3906V126.97H46.5217V126.101ZM47.4872 126.101H48.3562V126.97H47.4872V126.101ZM51.2334 119.343H52.1024V120.212H51.2334V119.343ZM50.2679 122.239H51.1368V123.108H50.2679V122.239ZM51.2334 122.239H52.1024V123.108H51.2334V122.239ZM51.2334 123.205H52.1024V124.074H51.2334V123.205ZM51.2334 124.17H52.1024V125.039H51.2334V124.17ZM51.2334 125.136H52.1024V126.005H51.2334V125.136ZM50.2679 126.101H51.1368V126.97H50.2679V126.101ZM51.2334 126.101H52.1024V126.97H51.2334V126.101ZM52.1989 126.101H53.0679V126.97H52.1989V126.101ZM57.8762 119.343H58.7451V120.212H57.8762V119.343ZM58.8417 119.343H59.7106V120.212H58.8417V119.343ZM58.8417 120.308H59.7106V121.177H58.8417V120.308ZM58.8417 121.274H59.7106V122.143H58.8417V121.274ZM56.9106 122.239H57.7796V123.108H56.9106V122.239ZM57.8762 122.239H58.7451V123.108H57.8762V122.239ZM58.8417 122.239H59.7106V123.108H58.8417V122.239ZM55.9451 123.205H56.8141V124.074H55.9451V123.205ZM58.8417 123.205H59.7106V124.074H58.8417V123.205ZM55.9451 124.17H56.8141V125.039H55.9451V124.17ZM58.8417 124.17H59.7106V125.039H58.8417V124.17ZM55.9451 125.136H56.8141V126.005H55.9451V125.136ZM58.8417 125.136H59.7106V126.005H58.8417V125.136ZM56.9106 126.101H57.7796V126.97H56.9106V126.101ZM57.8762 126.101H58.7451V126.97H57.8762V126.101ZM59.8072 126.101H60.6762V126.97H59.8072V126.101ZM62.5879 119.343H63.4568V120.212H62.5879V119.343ZM61.6224 122.239H62.4913V123.108H61.6224V122.239ZM62.5879 122.239H63.4568V123.108H62.5879V122.239ZM62.5879 123.205H63.4568V124.074H62.5879V123.205ZM62.5879 124.17H63.4568V125.039H62.5879V124.17ZM62.5879 125.136H63.4568V126.005H62.5879V125.136ZM61.6224 126.101H62.4913V126.97H61.6224V126.101ZM62.5879 126.101H63.4568V126.97H62.5879V126.101ZM63.5534 126.101H64.4224V126.97H63.5534V126.101ZM68.2651 120.308H69.1341V121.177H68.2651V120.308ZM68.2651 121.274H69.1341V122.143H68.2651V121.274ZM67.2996 122.239H68.1686V123.108H67.2996V122.239ZM68.2651 122.239H69.1341V123.108H68.2651V122.239ZM69.2306 122.239H70.0996V123.108H69.2306V122.239ZM68.2651 123.205H69.1341V124.074H68.2651V123.205ZM68.2651 124.17H69.1341V125.039H68.2651V124.17ZM68.2651 125.136H69.1341V126.005H68.2651V125.136ZM69.2306 126.101H70.0996V126.97H69.2306V126.101ZM70.1962 126.101H71.0651V126.97H70.1962V126.101ZM72.0113 122.239H72.8803V123.108H72.0113V122.239ZM72.9768 122.239H73.8458V123.108H72.9768V122.239ZM73.9424 122.239H74.8113V123.108H73.9424V122.239ZM75.8734 122.239H76.7424V123.108H75.8734V122.239ZM76.8389 122.239H77.7079V123.108H76.8389V122.239ZM72.9768 123.205H73.8458V124.074H72.9768V123.205ZM75.8734 123.205H76.7424V124.074H75.8734V123.205ZM72.9768 124.17H73.8458V125.039H72.9768V124.17ZM74.9079 124.17H75.7768V125.039H74.9079V124.17ZM73.9424 125.136H74.8113V126.005H73.9424V125.136ZM74.9079 125.136H75.7768V126.005H74.9079V125.136ZM73.9424 126.101H74.8113V126.97H73.9424V126.101ZM73.9424 127.067H74.8113V127.936H73.9424V127.067ZM72.0113 128.032H72.8803V128.901H72.0113V128.032ZM72.9768 128.032H73.8458V128.901H72.9768V128.032Z" fill="white"/>
<path d="M42.9073 93.2738H43.7763V94.1428H42.9073V93.2738ZM43.8728 93.2738H44.7418V94.1428H43.8728V93.2738ZM44.8383 93.2738H45.7073V94.1428H44.8383V93.2738ZM41.9418 94.2393H42.8107V95.1083H41.9418V94.2393ZM45.8038 94.2393H46.6728V95.1083H45.8038V94.2393ZM41.9418 95.2048H42.8107V96.0738H41.9418V95.2048ZM41.9418 96.1703H42.8107V97.0393H41.9418V96.1703ZM41.9418 97.1359H42.8107V98.0048H41.9418V97.1359ZM41.9418 98.1014H42.8107V98.9703H41.9418V98.1014ZM41.9418 99.0669H42.8107V99.9359H41.9418V99.0669ZM45.8038 99.0669H46.6728V99.9359H45.8038V99.0669ZM42.9073 100.032H43.7763V100.901H42.9073V100.032ZM43.8728 100.032H44.7418V100.901H43.8728V100.032ZM44.8383 100.032H45.7073V100.901H44.8383V100.032ZM49.55 96.1703H50.419V97.0393H49.55V96.1703ZM50.5156 96.1703H51.3845V97.0393H50.5156V96.1703ZM48.5845 97.1359H49.4535V98.0048H48.5845V97.1359ZM51.4811 97.1359H52.35V98.0048H51.4811V97.1359ZM49.55 98.1014H50.419V98.9703H49.55V98.1014ZM50.5156 98.1014H51.3845V98.9703H50.5156V98.1014ZM51.4811 98.1014H52.35V98.9703H51.4811V98.1014ZM48.5845 99.0669H49.4535V99.9359H48.5845V99.0669ZM51.4811 99.0669H52.35V99.9359H51.4811V99.0669ZM49.55 100.032H50.419V100.901H49.55V100.032ZM50.5156 100.032H51.3845V100.901H50.5156V100.032ZM52.4466 100.032H53.3156V100.901H52.4466V100.032ZM55.2273 93.2738H56.0963V94.1428H55.2273V93.2738ZM54.2618 96.1703H55.1307V97.0393H54.2618V96.1703ZM55.2273 96.1703H56.0963V97.0393H55.2273V96.1703ZM55.2273 97.1359H56.0963V98.0048H55.2273V97.1359ZM55.2273 98.1014H56.0963V98.9703H55.2273V98.1014ZM55.2273 99.0669H56.0963V99.9359H55.2273V99.0669ZM54.2618 100.032H55.1307V100.901H54.2618V100.032ZM55.2273 100.032H56.0963V100.901H55.2273V100.032ZM56.1928 100.032H57.0618V100.901H56.1928V100.032ZM58.9735 96.1703H59.8425V97.0393H58.9735V96.1703ZM59.939 96.1703H60.808V97.0393H59.939V96.1703ZM61.87 96.1703H62.739V97.0393H61.87V96.1703ZM62.8356 96.1703H63.7045V97.0393H62.8356V96.1703ZM59.939 97.1359H60.808V98.0048H59.939V97.1359ZM60.9045 97.1359H61.7735V98.0048H60.9045V97.1359ZM59.939 98.1014H60.808V98.9703H59.939V98.1014ZM59.939 99.0669H60.808V99.9359H59.939V99.0669ZM58.9735 100.032H59.8425V100.901H58.9735V100.032ZM59.939 100.032H60.808V100.901H59.939V100.032ZM60.9045 100.032H61.7735V100.901H60.9045V100.032ZM66.5818 96.1703H67.4507V97.0393H66.5818V96.1703ZM67.5473 96.1703H68.4163V97.0393H67.5473V96.1703ZM65.6163 97.1359H66.4852V98.0048H65.6163V97.1359ZM68.5128 97.1359H69.3818V98.0048H68.5128V97.1359ZM65.6163 98.1014H66.4852V98.9703H65.6163V98.1014ZM68.5128 98.1014H69.3818V98.9703H68.5128V98.1014ZM65.6163 99.0669H66.4852V99.9359H65.6163V99.0669ZM68.5128 99.0669H69.3818V99.9359H68.5128V99.0669ZM66.5818 100.032H67.4507V100.901H66.5818V100.032ZM67.5473 100.032H68.4163V100.901H67.5473V100.032Z" fill="white"/>
<path d="M44.0445 43.4919L44.9013 43.3473L45.0459 44.2041L44.1891 44.3487L44.0445 43.4919ZM44.9965 43.3312L45.8534 43.1866L45.998 44.0435L45.1411 44.1881L44.9965 43.3312ZM45.9486 43.1706L46.8054 43.026L46.95 43.8828L46.0932 44.0274L45.9486 43.1706ZM46.9007 43.0099L47.7575 42.8653L47.9021 43.7222L47.0452 43.8668L46.9007 43.0099ZM45.1572 44.2833L46.014 44.1387L46.1586 44.9955L45.3018 45.1401L45.1572 44.2833ZM48.0134 43.8013L48.8702 43.6567L49.0148 44.5136L48.158 44.6582L48.0134 43.8013ZM45.3179 45.2353L46.1747 45.0907L46.3193 45.9476L45.4624 46.0922L45.3179 45.2353ZM48.174 44.7534L49.0309 44.6088L49.1755 45.4656L48.3186 45.6102L48.174 44.7534ZM45.4785 46.1874L46.3354 46.0428L46.4799 46.8997L45.6231 47.0442L45.4785 46.1874ZM46.4306 46.0267L47.2874 45.8821L47.432 46.739L46.5752 46.8836L46.4306 46.0267ZM47.3826 45.8661L48.2395 45.7215L48.3841 46.5783L47.5272 46.7229L47.3826 45.8661ZM45.6392 47.1394L46.496 46.9949L46.6406 47.8517L45.7838 47.9963L45.6392 47.1394ZM47.5433 46.8181L48.4001 46.6735L48.5447 47.5304L47.6879 47.675L47.5433 46.8181ZM45.7998 48.0915L46.6567 47.9469L46.8013 48.8038L45.9444 48.9484L45.7998 48.0915ZM48.656 47.6095L49.5128 47.4649L49.6574 48.3218L48.8006 48.4664L48.656 47.6095ZM45.9605 49.0436L46.8173 48.899L46.9619 49.7558L46.1051 49.9004L45.9605 49.0436ZM48.8166 48.5616L49.6735 48.417L49.8181 49.2739L48.9612 49.4184L48.8166 48.5616ZM45.1691 50.1563L46.0259 50.0117L46.1705 50.8685L45.3137 51.0131L45.1691 50.1563ZM46.1211 49.9956L46.978 49.851L47.1226 50.7079L46.2657 50.8525L46.1211 49.9956ZM47.0732 49.835L47.93 49.6904L48.0746 50.5472L47.2178 50.6918L47.0732 49.835ZM48.9773 49.5136L49.8342 49.3691L49.9787 50.2259L49.1219 50.3705L48.9773 49.5136ZM49.9294 49.353L50.7862 49.2084L50.9308 50.0653L50.074 50.2098L49.9294 49.353ZM50.1245 45.4034L50.9814 45.2588L51.126 46.1156L50.2691 46.2602L50.1245 45.4034ZM51.0766 45.2427L51.9335 45.0981L52.078 45.955L51.2212 46.0996L51.0766 45.2427ZM52.9807 44.9214L53.8376 44.7768L53.9822 45.6337L53.1253 45.7783L52.9807 44.9214ZM53.9328 44.7608L54.7896 44.6162L54.9342 45.473L54.0774 45.6176L53.9328 44.7608ZM51.2373 46.1948L52.0941 46.0502L52.2387 46.907L51.3819 47.0516L51.2373 46.1948ZM54.0934 45.7128L54.9503 45.5682L55.0949 46.4251L54.238 46.5697L54.0934 45.7128ZM51.3979 47.1468L52.2548 47.0023L52.3994 47.8591L51.5425 48.0037L51.3979 47.1468ZM54.2541 46.6649L55.1109 46.5203L55.2555 47.3771L54.3987 47.5217L54.2541 46.6649ZM51.5586 48.0989L52.4154 47.9543L52.56 48.8112L51.7032 48.9558L51.5586 48.0989ZM54.4147 47.6169L55.2716 47.4723L55.4162 48.3292L54.5593 48.4738L54.4147 47.6169ZM52.6713 48.8903L53.5281 48.7457L53.6727 49.6026L52.8159 49.7472L52.6713 48.8903ZM53.6233 48.7296L54.4802 48.5851L54.6248 49.4419L53.7679 49.5865L53.6233 48.7296ZM55.5275 48.4083L56.3843 48.2637L56.5289 49.1206L55.672 49.2652L55.5275 48.4083ZM57.6268 44.1374L58.4836 43.9928L58.6282 44.8497L57.7713 44.9943L57.6268 44.1374ZM58.5788 43.9768L59.4357 43.8322L59.5803 44.689L58.7234 44.8336L58.5788 43.9768ZM59.5309 43.8161L60.3877 43.6715L60.5323 44.5284L59.6755 44.6729L59.5309 43.8161ZM56.8354 45.2501L57.6922 45.1055L57.8368 45.9624L56.9799 46.107L56.8354 45.2501ZM57.9481 46.0415L58.8049 45.8969L58.9495 46.7538L58.0927 46.8984L57.9481 46.0415ZM58.9001 45.8809L59.757 45.7363L59.9016 46.5931L59.0447 46.7377L58.9001 45.8809ZM60.0128 46.6723L60.8697 46.5277L61.0143 47.3845L60.1574 47.5291L60.0128 46.6723ZM57.3173 48.1063L58.1742 47.9617L58.3188 48.8186L57.4619 48.9631L57.3173 48.1063ZM58.2694 47.9456L59.1262 47.801L59.2708 48.6579L58.414 48.8025L58.2694 47.9456ZM59.2214 47.785L60.0783 47.6404L60.2229 48.4972L59.366 48.6418L59.2214 47.785ZM62.9035 41.2886L63.7604 41.144L63.905 42.0009L63.0481 42.1455L62.9035 41.2886ZM63.0642 42.2407L63.921 42.0961L64.0656 42.9529L63.2088 43.0975L63.0642 42.2407ZM62.2728 43.3534L63.1296 43.2088L63.2742 44.0657L62.4174 44.2103L62.2728 43.3534ZM63.2248 43.1927L64.0817 43.0482L64.2263 43.905L63.3694 44.0496L63.2248 43.1927ZM64.1769 43.0321L65.0338 42.8875L65.1783 43.7443L64.3215 43.8889L64.1769 43.0321ZM63.3855 44.1448L64.2424 44.0002L64.3869 44.8571L63.5301 45.0017L63.3855 44.1448ZM63.5462 45.0969L64.403 44.9523L64.5476 45.8091L63.6908 45.9537L63.5462 45.0969ZM63.7068 46.0489L64.5637 45.9043L64.7083 46.7612L63.8514 46.9058L63.7068 46.0489ZM64.8195 46.8403L65.6764 46.6957L65.821 47.5526L64.9641 47.6972L64.8195 46.8403ZM65.7716 46.6797L66.6284 46.5351L66.773 47.3919L65.9162 47.5365L65.7716 46.6797Z" fill="white"/>
</svg>
