<svg width="70" height="62" viewBox="0 0 70 62" fill="none" xmlns="http://www.w3.org/2000/svg">
<g clip-path="url(#clip0_1494_13049)">
<path d="M69.0195 38.1051L69.3179 38.2842C69.2583 38.1947 69.1986 38.1051 69.1389 38.0156L69.0195 38.1051Z" fill="#A9A9A9"/>
<path d="M69.0195 40.3737L69.676 40.7616L69.9446 40.6124C69.9446 40.4632 69.9446 40.314 69.9446 40.1648L69.676 40.0156L69.0195 40.3737Z" fill="#A9A9A9"/>
<path d="M69.2019 42.7281C69.2616 42.6386 69.3511 42.5192 69.4108 42.4297L69.0527 42.6386L69.2019 42.7281Z" fill="#A9A9A9"/>
<path d="M69.3774 39.2409L68.7209 38.8828L68.0645 39.2409L68.7209 38.8828L69.3774 39.2409Z" fill="#A9A9A9"/>
<path d="M67.7698 37.75L67.1133 38.1081L67.7698 38.496L68.4263 38.1081L67.7698 37.75Z" fill="#A9A9A9"/>
<path d="M68.1836 37.0284C68.1538 36.9986 68.124 36.9986 68.0643 36.9688L68.1836 37.0284Z" fill="#A9A9A9"/>
<path d="M67.7698 40.0156L67.1133 40.3737L67.7698 40.7616L68.4263 40.3737L67.7698 40.0156Z" fill="#A9A9A9"/>
<path d="M68.7209 38.8828L68.0645 39.2409L68.7209 39.6288L69.3774 39.2409L68.7209 38.8828Z" fill="#A9A9A9"/>
<path d="M67.1131 42.6393L67.7696 43.0273L68.4261 42.6393L67.7696 42.2812L67.1131 42.6393Z" fill="#A9A9A9"/>
<path d="M66.8147 43.4141L66.1582 43.7721L66.576 43.5334L66.8147 43.4141Z" fill="#A9A9A9"/>
<path d="M68.7209 41.1484L68.0645 41.5065L68.7209 41.8944L69.3774 41.5065L68.7209 41.1484Z" fill="#A9A9A9"/>
<path d="M66.8147 38.8828L67.4712 39.2409L66.8147 38.8828L66.1582 39.2409L66.8147 38.8828Z" fill="#A9A9A9"/>
<path d="M65.2012 38.1081L65.8577 38.496L66.5141 38.1081L65.8577 37.75L65.2012 38.1081Z" fill="#A9A9A9"/>
<path d="M66.8147 36.6094L66.1582 36.9675L66.8147 37.3554L67.4712 36.9675L66.8147 36.6094Z" fill="#A9A9A9"/>
<path d="M65.2012 40.3737L65.8577 40.7616L66.5141 40.3737L65.8577 40.0156L65.2012 40.3737Z" fill="#A9A9A9"/>
<path d="M66.8147 38.8828L66.1582 39.2409L66.8147 39.6288L67.4712 39.2409L66.8147 38.8828Z" fill="#A9A9A9"/>
<path d="M66.5141 42.6393L65.8577 42.2812L65.2012 42.6393L65.8577 43.0273L66.5141 42.6393Z" fill="#A9A9A9"/>
<path d="M66.8147 41.1484L66.1582 41.5065L66.8147 41.8944L67.4712 41.5065L66.8147 41.1484Z" fill="#A9A9A9"/>
<path d="M65.2012 44.905L65.6189 45.1437L66.2754 44.7558L65.8577 44.5469L65.2012 44.905Z" fill="#A9A9A9"/>
<path d="M66.1582 43.7721L66.8147 44.1601L67.4712 43.7721L66.8147 43.4141L66.1582 43.7721Z" fill="#A9A9A9"/>
<path d="M63.9455 36.2239L64.2141 36.0747C63.9157 36.015 63.5875 35.9255 63.2891 35.8359L63.9455 36.2239Z" fill="#A9A9A9"/>
<path d="M64.2461 39.2409L64.9026 38.8828L65.5591 39.2409L64.9026 38.8828L64.2461 39.2409Z" fill="#A9A9A9"/>
<path d="M63.2891 38.1081L63.9455 38.496L64.602 38.1081L63.9455 37.75L63.2891 38.1081Z" fill="#A9A9A9"/>
<path d="M65.5591 36.9675L64.9026 36.6094L64.2461 36.9675L64.9026 37.3554L65.5591 36.9675Z" fill="#A9A9A9"/>
<path d="M63.2891 40.3737L63.9455 40.7616L64.602 40.3737L63.9455 40.0156L63.2891 40.3737Z" fill="#A9A9A9"/>
<path d="M64.2461 39.2409L64.9026 39.6288L65.5591 39.2409L64.9026 38.8828L64.2461 39.2409Z" fill="#A9A9A9"/>
<path d="M63.2891 42.6393L63.9455 43.0273L64.602 42.6393L63.9455 42.2812L63.2891 42.6393Z" fill="#A9A9A9"/>
<path d="M64.2461 41.5065L64.9026 41.8944L65.5591 41.5065L64.9026 41.1484L64.2461 41.5065Z" fill="#A9A9A9"/>
<path d="M63.2891 44.905L63.9455 45.2929L64.602 44.905L63.9455 44.5469L63.2891 44.905Z" fill="#A9A9A9"/>
<path d="M64.9026 44.1601L65.5591 43.7721L64.9026 43.4141L64.2461 43.7721L64.9026 44.1601Z" fill="#A9A9A9"/>
<path d="M61.3828 35.841L62.0393 36.229L62.6958 35.841L62.099 35.483C62.0691 35.483 62.0691 35.483 62.0393 35.4531L61.3828 35.841Z" fill="#A9A9A9"/>
<path d="M62.3379 39.2409L62.9944 38.8828L63.6509 39.2409L62.9944 38.8828L62.3379 39.2409Z" fill="#A9A9A9"/>
<path d="M61.3828 38.1081L62.0393 38.496L62.6958 38.1081L62.0393 37.75L61.3828 38.1081Z" fill="#A9A9A9"/>
<path d="M62.3379 36.9675L62.9944 37.3554L63.6509 36.9675L62.9944 36.6094L62.3379 36.9675Z" fill="#A9A9A9"/>
<path d="M61.3828 40.3737L62.0393 40.7616L62.6958 40.3737L62.0393 40.0156L61.3828 40.3737Z" fill="#A9A9A9"/>
<path d="M62.3379 39.2409L62.9944 39.6288L63.6509 39.2409L62.9944 38.8828L62.3379 39.2409Z" fill="#A9A9A9"/>
<path d="M61.3829 42.6393L62.0394 43.0273L62.6958 42.6393L62.0394 42.2812L61.3829 42.6393Z" fill="#A9A9A9"/>
<path d="M62.3379 41.5065L62.9944 41.8944L63.6509 41.5065L62.9944 41.1484L62.3379 41.5065Z" fill="#A9A9A9"/>
<path d="M61.3828 44.905L62.0393 45.2929L62.6958 44.905L62.0393 44.5469L61.3828 44.905Z" fill="#A9A9A9"/>
<path d="M62.9944 44.1601L63.6509 43.7721L62.9944 43.4141L62.3379 43.7721L62.9944 44.1601Z" fill="#A9A9A9"/>
<path d="M61.3828 47.1784L61.6812 47.3574L62.3675 46.9695L62.0393 46.8203L61.3828 47.1784Z" fill="#A9A9A9"/>
<path d="M62.9944 45.6875L62.3379 46.0456L62.9944 46.4335L63.6509 46.0456L62.9944 45.6875Z" fill="#A9A9A9"/>
<path d="M60.1272 35.4844L59.4707 35.8425L60.1272 36.2304L60.7837 35.8425L60.1272 35.4844Z" fill="#A9A9A9"/>
<path d="M60.4277 39.2409L61.0842 38.8828L61.7407 39.2409L61.0842 38.8828L60.4277 39.2409Z" fill="#A9A9A9"/>
<path d="M59.4707 38.1081L60.1272 38.496L60.7837 38.1081L60.1272 37.75L59.4707 38.1081Z" fill="#A9A9A9"/>
<path d="M60.4277 36.9675L61.0842 37.3554L61.7407 36.9675L61.0842 36.6094L60.4277 36.9675Z" fill="#A9A9A9"/>
<path d="M59.4707 40.3737L60.1272 40.7616L60.7837 40.3737L60.1272 40.0156L59.4707 40.3737Z" fill="#A9A9A9"/>
<path d="M60.4277 39.2409L61.0842 39.6288L61.7407 39.2409L61.0842 38.8828L60.4277 39.2409Z" fill="#A9A9A9"/>
<path d="M59.4707 42.6393L60.1272 43.0273L60.7837 42.6393L60.1272 42.2812L59.4707 42.6393Z" fill="#A9A9A9"/>
<path d="M60.4277 41.5065L61.0842 41.8944L61.7407 41.5065L61.0842 41.1484L60.4277 41.5065Z" fill="#A9A9A9"/>
<path d="M59.4707 44.905L60.1272 45.2929L60.7837 44.905L60.1272 44.5469L59.4707 44.905Z" fill="#A9A9A9"/>
<path d="M60.4277 43.7721L61.0842 44.1601L61.7407 43.7721L61.0842 43.4141L60.4277 43.7721Z" fill="#A9A9A9"/>
<path d="M60.7837 47.1784L60.1272 46.8203L59.4707 47.1784L60.1272 47.5663L60.7837 47.1784Z" fill="#A9A9A9"/>
<path d="M61.0842 45.6875L60.4277 46.0456L61.0842 46.4335L61.7407 46.0456L61.0842 45.6875Z" fill="#A9A9A9"/>
<path d="M59.8286 34.7018L59.1721 34.3438L58.5156 34.7018L59.1721 34.3438L59.8286 34.7018Z" fill="#A9A9A9"/>
<path d="M57.5645 33.569L58.2209 33.9569L58.8476 33.5989C58.6387 33.4497 58.4298 33.3303 58.2209 33.2109L57.5645 33.569Z" fill="#A9A9A9"/>
<path d="M57.5642 35.8346L58.2207 36.2226L58.8772 35.8346L58.2207 35.4766L57.5642 35.8346Z" fill="#A9A9A9"/>
<path d="M59.1721 34.3438L58.5156 34.7018L59.1721 35.0898L59.8286 34.7018L59.1721 34.3438Z" fill="#A9A9A9"/>
<path d="M58.5156 39.2409L59.1721 38.8828L59.8286 39.2409L59.1721 38.8828L58.5156 39.2409Z" fill="#A9A9A9"/>
<path d="M58.2209 37.75L57.5645 38.1081L58.2209 38.496L58.8774 38.1081L58.2209 37.75Z" fill="#A9A9A9"/>
<path d="M59.1719 36.6172L58.5154 36.9753L59.1719 37.3632L59.8284 36.9753L59.1719 36.6172Z" fill="#A9A9A9"/>
<path d="M57.5645 40.3737L58.2209 40.7616L58.8774 40.3737L58.2209 40.0156L57.5645 40.3737Z" fill="#A9A9A9"/>
<path d="M58.5156 39.2409L59.1721 39.6288L59.8286 39.2409L59.1721 38.8828L58.5156 39.2409Z" fill="#A9A9A9"/>
<path d="M57.5642 42.6393L58.2207 43.0273L58.8772 42.6393L58.2207 42.2812L57.5642 42.6393Z" fill="#A9A9A9"/>
<path d="M58.5156 41.5065L59.1721 41.8944L59.8286 41.5065L59.1721 41.1484L58.5156 41.5065Z" fill="#A9A9A9"/>
<path d="M57.5645 44.905L58.2209 45.2929L58.8774 44.905L58.2209 44.5469L57.5645 44.905Z" fill="#A9A9A9"/>
<path d="M58.5154 43.7721L59.1719 44.1601L59.8284 43.7721L59.1719 43.4141L58.5154 43.7721Z" fill="#A9A9A9"/>
<path d="M58.8774 47.1784L58.2209 46.8203L57.5645 47.1784L58.2209 47.5663L58.8774 47.1784Z" fill="#A9A9A9"/>
<path d="M58.5156 46.0456L59.1721 46.4335L59.8286 46.0456L59.1721 45.6875L58.5156 46.0456Z" fill="#A9A9A9"/>
<path d="M57.5642 49.444L57.7731 49.5634L58.4594 49.2053L58.2207 49.0859L57.5642 49.444Z" fill="#A9A9A9"/>
<path d="M59.1721 48.6991L59.8286 48.3112L59.1721 47.9531L58.5156 48.3112L59.1721 48.6991Z" fill="#A9A9A9"/>
<path d="M56.6094 34.7018L57.2659 34.3438L57.9223 34.7018L57.2659 34.3438L56.6094 34.7018Z" fill="#A9A9A9"/>
<path d="M56.3088 33.2109L55.6523 33.569L56.3088 33.9569L56.9653 33.569L56.3088 33.2109Z" fill="#A9A9A9"/>
<path d="M55.3538 34.3438L54.6973 34.7018L54.936 34.5825L55.3538 34.3438Z" fill="#A9A9A9"/>
<path d="M56.7262 32.375L56.6367 32.4347L57.2932 32.8226L57.4424 32.7331C57.1738 32.6137 56.965 32.4944 56.7262 32.375Z" fill="#A9A9A9"/>
<path d="M55.3538 32.0781L54.6973 32.4362L55.3538 32.8241L54.6973 32.4362L55.3538 32.0781Z" fill="#A9A9A9"/>
<path d="M55.6523 35.8425L56.3088 36.2304L56.9653 35.8425L56.3088 35.4844L55.6523 35.8425Z" fill="#A9A9A9"/>
<path d="M56.6094 34.7018L57.2659 35.0898L57.9223 34.7018L57.2659 34.3438L56.6094 34.7018Z" fill="#A9A9A9"/>
<path d="M54.936 34.5859L54.6973 34.7053L55.3538 35.0932L54.6973 34.7053L54.936 34.5859Z" fill="#A9A9A9"/>
<path d="M57.9223 39.2409L57.2659 38.8828L56.6094 39.2409L57.2659 38.8828L57.9223 39.2409Z" fill="#A9A9A9"/>
<path d="M55.6523 38.1081L56.3088 38.496L56.9653 38.1081L56.3088 37.75L55.6523 38.1081Z" fill="#A9A9A9"/>
<path d="M55.3538 38.8828L54.6973 39.2409L54.936 39.1215L55.3538 38.8828Z" fill="#A9A9A9"/>
<path d="M56.6094 36.9675L57.2659 37.3554L57.9223 36.9675L57.2659 36.6094L56.6094 36.9675Z" fill="#A9A9A9"/>
<path d="M55.3538 36.6094L54.6973 36.9675L55.3538 37.3554L54.6973 36.9675L55.3538 36.6094Z" fill="#A9A9A9"/>
<path d="M56.3088 40.0156L55.6523 40.3737L56.3088 40.7616L56.9653 40.3737L56.3088 40.0156Z" fill="#A9A9A9"/>
<path d="M57.2659 38.8828L56.6094 39.2409L57.2659 39.6288L57.9223 39.2409L57.2659 38.8828Z" fill="#A9A9A9"/>
<path d="M54.936 39.1172L54.6973 39.2365L55.3538 39.6245L54.6973 39.2365L54.936 39.1172Z" fill="#A9A9A9"/>
<path d="M55.6523 42.6393L56.3088 43.0273L56.9653 42.6393L56.3088 42.2812L55.6523 42.6393Z" fill="#A9A9A9"/>
<path d="M56.6094 41.5065L57.2659 41.8944L57.9223 41.5065L57.2659 41.1484L56.6094 41.5065Z" fill="#A9A9A9"/>
<path d="M55.3538 41.1484L54.6973 41.5065L55.3538 41.8944L54.6973 41.5065L55.3538 41.1484Z" fill="#A9A9A9"/>
<path d="M55.6523 44.905L56.3088 45.2929L56.9653 44.905L56.3088 44.5469L55.6523 44.905Z" fill="#A9A9A9"/>
<path d="M56.6094 43.7721L57.2659 44.1601L57.9223 43.7721L57.2659 43.4141L56.6094 43.7721Z" fill="#A9A9A9"/>
<path d="M56.3088 46.8203L55.6523 47.1784L56.3088 47.5663L56.9653 47.1784L56.3088 46.8203Z" fill="#A9A9A9"/>
<path d="M57.9223 46.0456L57.2659 45.6875L56.6094 46.0456L57.2659 46.4335L57.9223 46.0456Z" fill="#A9A9A9"/>
<path d="M54.6973 46.0456L55.3538 45.6875L54.6973 46.0456L55.3538 46.4335L54.6973 46.0456Z" fill="#A9A9A9"/>
<path d="M56.9653 49.444L56.3088 49.0859L55.6523 49.444L56.3088 49.8319L56.9653 49.444Z" fill="#A9A9A9"/>
<path d="M55.3538 50.2188L54.6973 50.5768L54.936 50.4575L55.3538 50.2188Z" fill="#A9A9A9"/>
<path d="M57.2659 47.9531L56.6094 48.3112L57.2659 48.6991L57.9223 48.3112L57.2659 47.9531Z" fill="#A9A9A9"/>
<path d="M54.936 50.4609L54.6973 50.5803L55.3538 50.9682L54.6973 50.5803L54.936 50.4609Z" fill="#A9A9A9"/>
<path d="M53.8613 31.3594L54.4283 31.6876L54.6073 31.5683C54.3985 31.5086 54.1896 31.4489 53.9807 31.3892C53.921 31.3892 53.8912 31.3892 53.8613 31.3594Z" fill="#A9A9A9"/>
<path d="M54.6973 34.7018L55.3538 34.3438L56.0102 34.7018L55.3538 34.3438L54.6973 34.7018Z" fill="#A9A9A9"/>
<path d="M53.7402 33.569L54.3967 33.9569L55.0532 33.569L54.3967 33.2109L53.7402 33.569Z" fill="#A9A9A9"/>
<path d="M55.3538 32.0781L54.6973 32.4362L55.3538 32.8241L56.0102 32.4362L55.3538 32.0781Z" fill="#A9A9A9"/>
<path d="M54.3967 35.4844L53.7402 35.8425L54.3967 36.2304L55.0532 35.8425L54.3967 35.4844Z" fill="#A9A9A9"/>
<path d="M55.3538 34.3438L54.6973 34.7018L55.3538 35.0898L56.0102 34.7018L55.3538 34.3438Z" fill="#A9A9A9"/>
<path d="M54.936 39.1215L54.6973 39.2409L55.3538 38.8828L56.0102 39.2409L55.3538 38.8828L54.936 39.1215Z" fill="#A9A9A9"/>
<path d="M53.7402 38.1081L54.3967 38.496L55.0532 38.1081L54.3967 37.75L53.7402 38.1081Z" fill="#A9A9A9"/>
<path d="M54.6973 36.9675L55.3538 37.3554L56.0102 36.9675L55.3538 36.6094L54.6973 36.9675Z" fill="#A9A9A9"/>
<path d="M53.7402 40.3737L54.3967 40.7616L55.0532 40.3737L54.3967 40.0156L53.7402 40.3737Z" fill="#A9A9A9"/>
<path d="M54.6973 39.2409L55.3538 39.6288L56.0102 39.2409L55.3538 38.8828L54.6973 39.2409Z" fill="#A9A9A9"/>
<path d="M54.3967 42.2812L53.7402 42.6393L54.3967 43.0273L55.0532 42.6393L54.3967 42.2812Z" fill="#A9A9A9"/>
<path d="M55.3538 41.1484L54.6973 41.5065L55.3538 41.8944L56.0102 41.5065L55.3538 41.1484Z" fill="#A9A9A9"/>
<path d="M53.7402 44.905L54.3967 45.2929L55.0532 44.905L54.3967 44.5469L53.7402 44.905Z" fill="#A9A9A9"/>
<path d="M54.6973 43.7721L55.3538 44.1601L56.0102 43.7721L55.3538 43.4141L54.6973 43.7721Z" fill="#A9A9A9"/>
<path d="M55.0532 47.1784L54.3967 46.8203L53.7402 47.1784L54.3967 47.5663L55.0532 47.1784Z" fill="#A9A9A9"/>
<path d="M55.3538 46.4335L56.0102 46.0456L55.3538 45.6875L54.6973 46.0456L55.3538 46.4335Z" fill="#A9A9A9"/>
<path d="M54.936 50.4575L54.6973 50.5768L55.3538 50.2188L56.0102 50.5768L55.3538 50.2188L54.936 50.4575Z" fill="#A9A9A9"/>
<path d="M54.3967 49.0859L53.7402 49.444L54.3967 49.8319L55.0532 49.444L54.3967 49.0859Z" fill="#A9A9A9"/>
<path d="M54.6973 48.3112L55.3538 48.6991L56.0102 48.3112L55.3538 47.9531L54.6973 48.3112Z" fill="#A9A9A9"/>
<path d="M53.7402 51.7096L53.8596 51.7693L54.5161 51.4112L54.3967 51.3516L53.7402 51.7096Z" fill="#A9A9A9"/>
<path d="M54.6973 50.5768L55.3538 50.9648L56.0102 50.5768L55.3538 50.2188L54.6973 50.5768Z" fill="#A9A9A9"/>
<path d="M51.9219 31.3615L52.4888 31.6898L53.1453 31.3019L53.0558 31.2422C52.6977 31.2422 52.3098 31.272 51.9219 31.3615Z" fill="#A9A9A9"/>
<path d="M52.7891 34.7018L53.4456 34.3438L54.102 34.7018L53.4456 34.3438L52.7891 34.7018Z" fill="#A9A9A9"/>
<path d="M51.834 33.569L52.4905 33.9569L53.147 33.569L52.4905 33.2109L51.834 33.569Z" fill="#A9A9A9"/>
<path d="M52.7891 32.4362L53.4456 32.8241L54.102 32.4362L53.4456 32.0781L52.7891 32.4362Z" fill="#A9A9A9"/>
<path d="M51.834 35.8346L52.4905 36.2226L53.147 35.8346L52.4905 35.4766L51.834 35.8346Z" fill="#A9A9A9"/>
<path d="M52.7891 34.7018L53.4456 35.0898L54.102 34.7018L53.4456 34.3438L52.7891 34.7018Z" fill="#A9A9A9"/>
<path d="M52.7891 39.2409L53.4456 38.8828L54.102 39.2409L53.4456 38.8828L52.7891 39.2409Z" fill="#A9A9A9"/>
<path d="M52.4905 37.75L51.834 38.1081L52.4905 38.496L53.147 38.1081L52.4905 37.75Z" fill="#A9A9A9"/>
<path d="M53.4456 36.6094L52.7891 36.9675L53.4456 37.3554L54.102 36.9675L53.4456 36.6094Z" fill="#A9A9A9"/>
<path d="M52.459 40.7331L52.4888 40.7629L53.1453 40.375H53.1155L52.459 40.7331Z" fill="#A9A9A9"/>
<path d="M52.7891 39.2409L53.4456 39.6288L54.102 39.2409L53.4456 38.8828L52.7891 39.2409Z" fill="#A9A9A9"/>
<path d="M51.834 42.6393L52.4905 43.0273L53.147 42.6393L52.4905 42.2812L51.834 42.6393Z" fill="#A9A9A9"/>
<path d="M52.7891 41.5065L53.4456 41.8944L54.102 41.5065L53.4456 41.1484L52.7891 41.5065Z" fill="#A9A9A9"/>
<path d="M53.147 44.905L52.4905 44.5469L51.834 44.905L52.4905 45.2929L53.147 44.905Z" fill="#A9A9A9"/>
<path d="M53.4456 43.4141L52.7891 43.7721L53.4456 44.1601L54.102 43.7721L53.4456 43.4141Z" fill="#A9A9A9"/>
<path d="M52.4905 46.8203L51.834 47.1784L52.4905 47.5663L53.147 47.1784L52.4905 46.8203Z" fill="#A9A9A9"/>
<path d="M54.102 46.0456L53.4456 45.6875L52.7891 46.0456L53.4456 46.4335L54.102 46.0456Z" fill="#A9A9A9"/>
<path d="M54.102 50.5768L53.4456 50.2188L52.7891 50.5768L53.4456 50.2188L54.102 50.5768Z" fill="#A9A9A9"/>
<path d="M52.4905 49.0859L51.834 49.444L52.4905 49.8319L53.147 49.444L52.4905 49.0859Z" fill="#A9A9A9"/>
<path d="M53.4456 47.9531L52.7891 48.3112L53.4456 48.6991L54.102 48.3112L53.4456 47.9531Z" fill="#A9A9A9"/>
<path d="M53.147 51.7096L52.4905 51.3516L51.834 51.7096L52.4905 52.0976L53.147 51.7096Z" fill="#A9A9A9"/>
<path d="M53.4456 50.2188L52.7891 50.5768L53.4456 50.9648L54.102 50.5768L53.4456 50.2188Z" fill="#A9A9A9"/>
<path d="M50.8789 34.7018L51.5354 34.3438L52.1919 34.7018L51.5354 34.3438L50.8789 34.7018Z" fill="#A9A9A9"/>
<path d="M49.9219 33.569L50.5784 33.9569L51.2348 33.569L50.5784 33.2109L49.9219 33.569Z" fill="#A9A9A9"/>
<path d="M50.8789 32.4362L51.5354 32.8241L52.1919 32.4362L51.5354 32.0781L50.8789 32.4362Z" fill="#A9A9A9"/>
<path d="M49.9219 35.8425L50.5784 36.2304L51.2348 35.8425L50.5784 35.4844L49.9219 35.8425Z" fill="#A9A9A9"/>
<path d="M50.8789 34.7018L51.5354 35.0898L52.1919 34.7018L51.5354 34.3438L50.8789 34.7018Z" fill="#A9A9A9"/>
<path d="M50.8789 39.2409L51.5354 38.8828L52.1919 39.2409L51.5354 38.8828L50.8789 39.2409Z" fill="#A9A9A9"/>
<path d="M49.9219 38.1081L50.5784 38.496L51.2348 38.1081L50.5784 37.75L49.9219 38.1081Z" fill="#A9A9A9"/>
<path d="M50.8789 36.9675L51.5354 37.3554L52.1919 36.9675L51.5354 36.6094L50.8789 36.9675Z" fill="#A9A9A9"/>
<path d="M50.8789 39.2409L51.5354 39.6288L52.1919 39.2409L51.5354 38.8828L50.8789 39.2409Z" fill="#A9A9A9"/>
<path d="M49.9219 42.6393L50.5784 43.0273L51.2348 42.6393L50.5784 42.2812L49.9219 42.6393Z" fill="#A9A9A9"/>
<path d="M51.5371 41.8973L52.1936 41.5093L51.6565 41.2109L51 41.5989L51.5371 41.8973Z" fill="#A9A9A9"/>
<path d="M50.5784 44.5469L49.9219 44.905L50.5784 45.2929L51.2348 44.905L50.5784 44.5469Z" fill="#A9A9A9"/>
<path d="M50.8789 43.7721L51.5354 44.1601L52.1919 43.7721L51.5354 43.4141L50.8789 43.7721Z" fill="#A9A9A9"/>
<path d="M51.2348 47.1784L50.5784 46.8203L49.9219 47.1784L50.5784 47.5663L51.2348 47.1784Z" fill="#A9A9A9"/>
<path d="M51.5354 45.6875L50.8789 46.0456L51.5354 46.4335L52.1919 46.0456L51.5354 45.6875Z" fill="#A9A9A9"/>
<path d="M52.1919 50.5768L51.5354 50.2188L50.8789 50.5768L51.5354 50.2188L52.1919 50.5768Z" fill="#A9A9A9"/>
<path d="M51.2348 49.444L50.5784 49.0859L49.9219 49.444L50.5784 49.8319L51.2348 49.444Z" fill="#A9A9A9"/>
<path d="M52.1919 48.3112L51.5354 47.9531L50.8789 48.3112L51.5354 48.6991L52.1919 48.3112Z" fill="#A9A9A9"/>
<path d="M52.1021 52.7906L51.5352 52.4922L52.1021 52.7906Z" fill="#A9A9A9"/>
<path d="M50.5784 51.3516L49.9219 51.7096L50.5784 52.0976L51.2348 51.7096L50.5784 51.3516Z" fill="#A9A9A9"/>
<path d="M52.1919 50.5768L51.5354 50.2188L50.8789 50.5768L51.5354 50.9648L52.1919 50.5768Z" fill="#A9A9A9"/>
<path d="M49.9219 53.9831L49.9517 54.0129L50.6082 53.625H50.5784L49.9219 53.9831Z" fill="#A9A9A9"/>
<path d="M50.8789 52.8503L51.4459 53.1785L52.1024 52.7906L51.5354 52.4922L50.8789 52.8503Z" fill="#A9A9A9"/>
<path d="M48.9668 34.7018L49.6233 34.3438L50.2798 34.7018L49.6233 34.3438L48.9668 34.7018Z" fill="#A9A9A9"/>
<path d="M49.3279 33.5725L49.0892 33.4531C49.0295 33.5725 48.9698 33.6918 48.9102 33.8112L49.3279 33.5725Z" fill="#A9A9A9"/>
<path d="M49.5625 32.7963L49.6222 32.8262L50.2787 32.4383L50.0399 32.2891C49.8609 32.4383 49.7117 32.6173 49.5625 32.7963Z" fill="#A9A9A9"/>
<path d="M48.5801 35.5426C48.5801 35.7515 48.5801 35.9902 48.6099 36.1991L48.6696 36.229L49.3261 35.841L48.6696 35.4531L48.5801 35.5426Z" fill="#A9A9A9"/>
<path d="M49.6233 34.3438L48.9668 34.7018L49.6233 35.0898L50.2798 34.7018L49.6233 34.3438Z" fill="#A9A9A9"/>
<path d="M48.9668 36.9675L49.6233 37.3554L50.2798 36.9675L49.6233 36.6094L48.9668 36.9675Z" fill="#A9A9A9"/>
<path d="M48.671 43.0271L49.3275 42.6392L49.2678 42.6094L48.6113 42.9675L48.671 43.0271Z" fill="#A9A9A9"/>
<path d="M48.0156 44.905L48.6721 45.2929L49.3286 44.905L48.6721 44.5469L48.0156 44.905Z" fill="#A9A9A9"/>
<path d="M49.6233 44.1601L50.2798 43.7721L49.6233 43.4141L48.9668 43.7721L49.6233 44.1601Z" fill="#A9A9A9"/>
<path d="M48.0156 47.1784L48.6721 47.5663L49.3286 47.1784L48.6721 46.8203L48.0156 47.1784Z" fill="#A9A9A9"/>
<path d="M50.2798 46.0456L49.6233 45.6875L48.9668 46.0456L49.6233 46.4335L50.2798 46.0456Z" fill="#A9A9A9"/>
<path d="M50.2798 50.5768L49.6233 50.2188L48.9668 50.5768L49.6233 50.2188L50.2798 50.5768Z" fill="#A9A9A9"/>
<path d="M48.6721 49.0859L48.0156 49.444L48.6721 49.8319L49.3286 49.444L48.6721 49.0859Z" fill="#A9A9A9"/>
<path d="M50.2798 48.3112L49.6233 47.9531L48.9668 48.3112L49.6233 48.6991L50.2798 48.3112Z" fill="#A9A9A9"/>
<path d="M48.6721 51.3516L48.0156 51.7096L48.6721 52.0976L49.3286 51.7096L48.6721 51.3516Z" fill="#A9A9A9"/>
<path d="M49.6233 50.2188L48.9668 50.5768L49.6233 50.9648L50.2798 50.5768L49.6233 50.2188Z" fill="#A9A9A9"/>
<path d="M49.3286 53.9831L48.6721 53.625L48.0156 53.9831L48.6721 54.371L49.3286 53.9831Z" fill="#A9A9A9"/>
<path d="M49.6233 52.4922L48.9668 52.8503L49.6233 53.2382L50.2798 52.8503L49.6233 52.4922Z" fill="#A9A9A9"/>
<path d="M46.1035 44.905L46.76 45.2929L47.4165 44.905L46.76 44.5469L46.1035 44.905Z" fill="#A9A9A9"/>
<path d="M48.3719 43.7736L47.8049 43.4453L47.1484 43.8332L47.7154 44.1615L48.3719 43.7736Z" fill="#A9A9A9"/>
<path d="M46.76 47.5663L47.4165 47.1784L46.76 46.8203L46.1035 47.1784L46.76 47.5663Z" fill="#A9A9A9"/>
<path d="M47.0586 46.0456L47.7151 46.4335L48.3716 46.0456L47.7151 45.6875L47.0586 46.0456Z" fill="#A9A9A9"/>
<path d="M48.3716 50.5768L47.7151 50.2188L47.0586 50.5768L47.7151 50.2188L48.3716 50.5768Z" fill="#A9A9A9"/>
<path d="M46.7602 49.8319L47.4167 49.444L46.7602 49.0859L46.1037 49.444L46.7602 49.8319Z" fill="#A9A9A9"/>
<path d="M47.7151 47.9531L47.0586 48.3112L47.7151 48.6991L48.3716 48.3112L47.7151 47.9531Z" fill="#A9A9A9"/>
<path d="M47.4165 51.7096L46.76 51.3516L46.1035 51.7096L46.76 52.0976L47.4165 51.7096Z" fill="#A9A9A9"/>
<path d="M48.3716 50.5768L47.7151 50.2188L47.0586 50.5768L47.7151 50.9648L48.3716 50.5768Z" fill="#A9A9A9"/>
<path d="M47.0586 55.1159L47.7151 54.7578L48.1925 54.9965L47.7151 54.7578L47.0586 55.1159Z" fill="#A9A9A9"/>
<path d="M46.76 53.625L46.1035 53.9831L46.76 54.371L47.4165 53.9831L46.76 53.625Z" fill="#A9A9A9"/>
<path d="M48.3716 52.8503L47.7151 52.4922L47.0586 52.8503L47.7151 53.2382L48.3716 52.8503Z" fill="#A9A9A9"/>
<path d="M47.0586 55.1159L47.536 55.3845L48.1925 54.9965L47.7151 54.7578L47.0586 55.1159Z" fill="#A9A9A9"/>
<path d="M45.5077 44.9112L45.4182 44.8516L44.7617 45.2395L44.8512 45.2992L45.5077 44.9112Z" fill="#A9A9A9"/>
<path d="M44.8479 47.5663L45.5044 47.1784L44.8479 46.8203L44.1914 47.1784L44.8479 47.5663Z" fill="#A9A9A9"/>
<path d="M45.8049 46.4335L46.4614 46.0456L45.8049 45.6875L45.1484 46.0456L45.8049 46.4335Z" fill="#A9A9A9"/>
<path d="M45.1484 50.5768L45.8049 50.2188L46.4614 50.5768L45.8049 50.2188L45.1484 50.5768Z" fill="#A9A9A9"/>
<path d="M44.1914 49.444L44.8479 49.8319L45.5044 49.444L44.8479 49.0859L44.1914 49.444Z" fill="#A9A9A9"/>
<path d="M45.8049 48.6991L46.4614 48.3112L45.8049 47.9531L45.1484 48.3112L45.8049 48.6991Z" fill="#A9A9A9"/>
<path d="M44.1914 51.7096L44.8479 52.0976L45.5044 51.7096L44.8479 51.3516L44.1914 51.7096Z" fill="#A9A9A9"/>
<path d="M45.1484 50.5768L45.8049 50.9648L46.4614 50.5768L45.8049 50.2188L45.1484 50.5768Z" fill="#A9A9A9"/>
<path d="M45.8049 54.7578L46.4614 55.1159L45.8049 54.7578L45.1484 55.1159L45.8049 54.7578Z" fill="#A9A9A9"/>
<path d="M44.8479 54.371L45.5044 53.9831L44.8479 53.625L44.1914 53.9831L44.8479 54.371Z" fill="#A9A9A9"/>
<path d="M45.1484 52.8503L45.8049 53.2382L46.4614 52.8503L45.8049 52.4922L45.1484 52.8503Z" fill="#A9A9A9"/>
<path d="M45.5044 56.2487L44.8479 55.8906L44.1914 56.2487L44.8479 56.6366L45.5044 56.2487Z" fill="#A9A9A9"/>
<path d="M45.1484 55.1159L45.8049 55.5038L46.4614 55.1159L45.8049 54.7578L45.1484 55.1159Z" fill="#A9A9A9"/>
<path d="M42.2852 47.1784L42.9416 47.5663L43.5981 47.1784L42.9416 46.8203L42.2852 47.1784Z" fill="#A9A9A9"/>
<path d="M44.5502 46.0456L43.9534 45.6875L43.2969 46.0754L43.8937 46.4335L44.5502 46.0456Z" fill="#A9A9A9"/>
<path d="M43.2402 50.5768L43.8967 50.2188L44.5532 50.5768L43.8967 50.2188L43.2402 50.5768Z" fill="#A9A9A9"/>
<path d="M42.9416 49.8319L43.5981 49.444L42.9416 49.0859L42.2851 49.444L42.9416 49.8319Z" fill="#A9A9A9"/>
<path d="M43.2402 48.3112L43.8967 48.6991L44.5532 48.3112L43.8967 47.9531L43.2402 48.3112Z" fill="#A9A9A9"/>
<path d="M42.9416 52.0976L43.5981 51.7096L42.9416 51.3516L42.2852 51.7096L42.9416 52.0976Z" fill="#A9A9A9"/>
<path d="M43.2402 50.5768L43.8967 50.9648L44.5532 50.5768L43.8967 50.2188L43.2402 50.5768Z" fill="#A9A9A9"/>
<path d="M44.5532 55.1159L43.8967 54.7578L43.2402 55.1159L43.8967 54.7578L44.5532 55.1159Z" fill="#A9A9A9"/>
<path d="M42.2852 53.9831L42.9416 54.371L43.5981 53.9831L42.9416 53.625L42.2852 53.9831Z" fill="#A9A9A9"/>
<path d="M43.8967 53.2382L44.5532 52.8503L43.8967 52.4922L43.2402 52.8503L43.8967 53.2382Z" fill="#A9A9A9"/>
<path d="M42.2851 56.2487L42.9416 56.6366L43.5981 56.2487L42.9416 55.8906L42.2851 56.2487Z" fill="#A9A9A9"/>
<path d="M44.5532 55.1159L43.8967 54.7578L43.2402 55.1159L43.8967 55.5038L44.5532 55.1159Z" fill="#A9A9A9"/>
<path d="M44.2846 57.2323L43.8967 57.0234L43.2402 57.3815L43.5983 57.5904L44.2846 57.2323Z" fill="#A9A9A9"/>
<path d="M41.686 47.1755L41.5666 47.0859L40.9102 47.4739L41.0295 47.5634L41.686 47.1755Z" fill="#A9A9A9"/>
<path d="M41.9866 50.2188L42.643 50.5768L41.9866 50.2188L41.3301 50.5768L41.9866 50.2188Z" fill="#A9A9A9"/>
<path d="M41.0295 49.8319L41.686 49.444L41.0295 49.0859L40.373 49.444L41.0295 49.8319Z" fill="#A9A9A9"/>
<path d="M41.9866 48.6991L42.643 48.3112L41.9866 47.9531L41.3301 48.3112L41.9866 48.6991Z" fill="#A9A9A9"/>
<path d="M40.373 51.7096L41.0295 52.0976L41.686 51.7096L41.0295 51.3516L40.373 51.7096Z" fill="#A9A9A9"/>
<path d="M41.3301 50.5768L41.9866 50.9648L42.643 50.5768L41.9866 50.2188L41.3301 50.5768Z" fill="#A9A9A9"/>
<path d="M41.3301 55.1159L41.9866 54.7578L42.643 55.1159L41.9866 54.7578L41.3301 55.1159Z" fill="#A9A9A9"/>
<path d="M40.373 53.9831L41.0295 54.371L41.686 53.9831L41.0295 53.625L40.373 53.9831Z" fill="#A9A9A9"/>
<path d="M41.9866 53.2382L42.643 52.8503L41.9866 52.4922L41.3301 52.8503L41.9866 53.2382Z" fill="#A9A9A9"/>
<path d="M40.373 56.2487L41.0295 56.6366L41.686 56.2487L41.0295 55.8906L40.373 56.2487Z" fill="#A9A9A9"/>
<path d="M41.3301 55.1159L41.9866 55.5038L42.643 55.1159L41.9866 54.7578L41.3301 55.1159Z" fill="#A9A9A9"/>
<path d="M41.686 58.5143L41.0295 58.1562L40.373 58.5143L41.0295 58.9023L41.686 58.5143Z" fill="#A9A9A9"/>
<path d="M41.9866 57.7694L42.643 57.3815L41.9866 57.0234L41.3301 57.3815L41.9866 57.7694Z" fill="#A9A9A9"/>
<path d="M39.418 50.5768L40.0745 50.2188L40.7309 50.5768L40.0745 50.2188L39.418 50.5768Z" fill="#A9A9A9"/>
<path d="M38.4668 49.444L39.1233 49.8319L39.7798 49.444L39.1233 49.0859L38.4668 49.444Z" fill="#A9A9A9"/>
<path d="M40.7343 48.3112L40.1077 47.9531L39.4512 48.341L40.0778 48.6991L40.7343 48.3112Z" fill="#A9A9A9"/>
<path d="M39.1233 52.0976L39.7798 51.7096L39.1233 51.3516L38.4668 51.7096L39.1233 52.0976Z" fill="#A9A9A9"/>
<path d="M38.1663 52.4922L37.5098 52.8503L37.9275 52.6116L38.1663 52.4922Z" fill="#A9A9A9"/>
<path d="M39.418 50.5768L40.0745 50.9648L40.7309 50.5768L40.0745 50.2188L39.418 50.5768Z" fill="#A9A9A9"/>
<path d="M39.418 55.1159L40.0745 54.7578L40.7309 55.1159L40.0745 54.7578L39.418 55.1159Z" fill="#A9A9A9"/>
<path d="M38.4668 53.9831L39.1233 54.371L39.7798 53.9831L39.1233 53.625L38.4668 53.9831Z" fill="#A9A9A9"/>
<path d="M40.0745 53.2382L40.7309 52.8503L40.0745 52.4922L39.418 52.8503L40.0745 53.2382Z" fill="#A9A9A9"/>
<path d="M38.4668 56.2487L39.1233 56.6366L39.7798 56.2487L39.1233 55.8906L38.4668 56.2487Z" fill="#A9A9A9"/>
<path d="M38.1663 57.0234L37.5098 57.3815L37.9275 57.1428L38.1663 57.0234Z" fill="#A9A9A9"/>
<path d="M39.418 55.1159L40.0745 55.5038L40.7309 55.1159L40.0745 54.7578L39.418 55.1159Z" fill="#A9A9A9"/>
<path d="M40.343 59.4162L40.0745 59.2969L39.418 59.655L40.0745 59.2969L40.343 59.4162Z" fill="#A9A9A9"/>
<path d="M39.7798 58.5143L39.1233 58.1562L38.4668 58.5143L39.1233 58.9023L39.7798 58.5143Z" fill="#A9A9A9"/>
<path d="M40.7309 57.3815L40.0745 57.0234L39.418 57.3815L40.0745 57.7694L40.7309 57.3815Z" fill="#A9A9A9"/>
<path d="M40.0745 59.2969L39.418 59.6848L39.6567 59.8042C39.8954 59.6848 40.1043 59.5654 40.343 59.4461L40.0745 59.2969Z" fill="#A9A9A9"/>
<path d="M38.1663 50.2188L38.8227 50.5768L38.1663 50.2188L37.5098 50.5768L38.1663 50.2188Z" fill="#A9A9A9"/>
<path d="M37.8682 49.4489L37.719 49.3594L37.0625 49.7473L37.2117 49.8368L37.8682 49.4489Z" fill="#A9A9A9"/>
<path d="M36.5547 51.7096L37.2112 52.0976L37.8677 51.7096L37.2112 51.3516L36.5547 51.7096Z" fill="#A9A9A9"/>
<path d="M37.5098 50.5768L38.1663 50.9648L38.8227 50.5768L38.1663 50.2188L37.5098 50.5768Z" fill="#A9A9A9"/>
<path d="M38.1663 54.7578L37.5098 55.1159L38.1663 54.7578L38.8227 55.1159L38.1663 54.7578Z" fill="#A9A9A9"/>
<path d="M36.5547 53.9831L37.2112 54.371L37.8677 53.9831L37.2112 53.625L36.5547 53.9831Z" fill="#A9A9A9"/>
<path d="M37.5098 52.8503L38.1663 53.2382L38.8227 52.8503L38.1663 52.4922L37.5098 52.8503Z" fill="#A9A9A9"/>
<path d="M36.5548 56.2487L37.2113 56.6366L37.8678 56.2487L37.2113 55.8906L36.5548 56.2487Z" fill="#A9A9A9"/>
<path d="M37.5098 55.1159L38.1663 55.5038L38.8227 55.1159L38.1663 54.7578L37.5098 55.1159Z" fill="#A9A9A9"/>
<path d="M38.1663 59.2969L38.8227 59.655L38.1663 59.2969L37.5098 59.655L38.1663 59.2969Z" fill="#A9A9A9"/>
<path d="M37.8677 58.5143L37.2112 58.1562L36.5547 58.5143L37.2112 58.9023L37.8677 58.5143Z" fill="#A9A9A9"/>
<path d="M37.5098 57.3815L38.1663 57.7694L38.8227 57.3815L38.1663 57.0234L37.5098 57.3815Z" fill="#A9A9A9"/>
<path d="M37.2112 60.4219L36.5547 60.8098L36.9128 61.0187C37.1813 60.9292 37.4499 60.8396 37.7185 60.7203L37.2112 60.4219Z" fill="#A9A9A9"/>
<path d="M38.1663 60.0429L38.8227 59.655L38.1663 59.2969L37.5098 59.655L38.1663 60.0429Z" fill="#A9A9A9"/>
<path d="M35.5996 50.5768L36.2561 50.2188L36.9126 50.5768L36.2561 50.2188L35.5996 50.5768Z" fill="#A9A9A9"/>
<path d="M34.6426 51.7096L35.2991 52.0976L35.9556 51.7096L35.2991 51.3516L34.6426 51.7096Z" fill="#A9A9A9"/>
<path d="M35.5996 50.5768L36.2561 50.9648L36.9126 50.5768L36.2561 50.2188L35.5996 50.5768Z" fill="#A9A9A9"/>
<path d="M36.2561 54.7578L36.9126 55.1159L36.2561 54.7578L35.5996 55.1159L36.2561 54.7578Z" fill="#A9A9A9"/>
<path d="M35.2991 54.371L35.9556 53.9831L35.2991 53.625L34.6426 53.9831L35.2991 54.371Z" fill="#A9A9A9"/>
<path d="M36.2561 53.2382L36.9126 52.8503L36.2561 52.4922L35.5996 52.8503L36.2561 53.2382Z" fill="#A9A9A9"/>
<path d="M34.6426 56.2487L35.2991 56.6366L35.9556 56.2487L35.2991 55.8906L34.6426 56.2487Z" fill="#A9A9A9"/>
<path d="M35.5996 55.1159L36.2561 55.5038L36.9126 55.1159L36.2561 54.7578L35.5996 55.1159Z" fill="#A9A9A9"/>
<path d="M36.9126 59.655L36.2561 59.2969L35.5996 59.655L36.2561 59.2969L36.9126 59.655Z" fill="#A9A9A9"/>
<path d="M35.9556 58.5143L35.2991 58.1562L34.6426 58.5143L35.2991 58.9023L35.9556 58.5143Z" fill="#A9A9A9"/>
<path d="M36.2561 57.7694L36.9126 57.3815L36.2561 57.0234L35.5996 57.3815L36.2561 57.7694Z" fill="#A9A9A9"/>
<path d="M35.9556 60.78L35.2991 60.4219L34.6426 60.78L35.2991 61.1679L35.9556 60.78Z" fill="#A9A9A9"/>
<path d="M36.9126 59.655L36.2561 59.2969L35.5996 59.655L36.2561 60.0429L36.9126 59.655Z" fill="#A9A9A9"/>
<path d="M34.049 51.7131L33.8401 51.5938C33.6312 51.7131 33.2134 51.9518 33.1836 51.9817L33.3626 52.101L34.049 51.7131Z" fill="#A9A9A9"/>
<path d="M33.6914 55.1159L34.3479 54.7578L35.0044 55.1159L34.3479 54.7578L33.6914 55.1159Z" fill="#A9A9A9"/>
<path d="M32.7363 53.9831L33.3928 54.371L34.0493 53.9831L33.3928 53.625L32.7363 53.9831Z" fill="#A9A9A9"/>
<path d="M34.3479 53.2382L35.0044 52.8503L34.3479 52.4922L33.6914 52.8503L34.3479 53.2382Z" fill="#A9A9A9"/>
<path d="M32.7362 56.2487L33.3927 56.6366L34.0492 56.2487L33.3927 55.8906L32.7362 56.2487Z" fill="#A9A9A9"/>
<path d="M33.6914 55.1159L34.3479 55.5038L35.0044 55.1159L34.3479 54.7578L33.6914 55.1159Z" fill="#A9A9A9"/>
<path d="M35.0044 59.655L34.3479 59.2969L33.6914 59.655L34.3479 59.2969L35.0044 59.655Z" fill="#A9A9A9"/>
<path d="M34.0493 58.5143L33.3928 58.1562L32.7363 58.5143L33.3928 58.9023L34.0493 58.5143Z" fill="#A9A9A9"/>
<path d="M34.3479 57.7694L35.0044 57.3815L34.3479 57.0234L33.6914 57.3815L34.3479 57.7694Z" fill="#A9A9A9"/>
<path d="M34.0493 60.78L33.3928 60.4219L32.7363 60.78L33.3928 61.1679L34.0493 60.78Z" fill="#A9A9A9"/>
<path d="M35.0044 59.655L34.3479 59.2969L33.6914 59.655L34.3479 60.0429L35.0044 59.655Z" fill="#A9A9A9"/>
<path d="M31.7812 55.1159L32.4377 54.7578L33.0942 55.1159L32.4377 54.7578L31.7812 55.1159Z" fill="#A9A9A9"/>
<path d="M30.8242 53.9831L31.4807 54.371L32.1372 53.9831L31.4807 53.625L30.8242 53.9831Z" fill="#A9A9A9"/>
<path d="M32.4377 53.2382L33.0942 52.8503L32.4377 52.4922L31.7812 52.8503L32.4377 53.2382Z" fill="#A9A9A9"/>
<path d="M31.4807 56.6366L32.1372 56.2487L31.4807 55.8906L30.8242 56.2487L31.4807 56.6366Z" fill="#A9A9A9"/>
<path d="M31.7812 55.1159L32.4377 55.5038L33.0942 55.1159L32.4377 54.7578L31.7812 55.1159Z" fill="#A9A9A9"/>
<path d="M33.0942 59.655L32.4377 59.2969L31.7812 59.655L32.4377 59.2969L33.0942 59.655Z" fill="#A9A9A9"/>
<path d="M30.8242 58.5143L31.4807 58.9023L32.1372 58.5143L31.4807 58.1562L30.8242 58.5143Z" fill="#A9A9A9"/>
<path d="M33.0942 57.3815L32.4377 57.0234L31.7812 57.3815L32.4377 57.7694L33.0942 57.3815Z" fill="#A9A9A9"/>
<path d="M32.6464 61.652L32.4375 61.5625L32.6464 61.652Z" fill="#A9A9A9"/>
<path d="M32.435 61.5625L32.256 61.652L32.435 61.5625Z" fill="#A9A9A9"/>
<path d="M32.1372 60.78L31.4807 60.4219L30.8242 60.78L31.4807 61.1679L32.1372 60.78Z" fill="#A9A9A9"/>
<path d="M33.0942 59.655L32.4377 59.2969L31.7812 59.655L32.4377 60.0429L33.0942 59.655Z" fill="#A9A9A9"/>
<path d="M32.6438 61.6506L32.4349 61.5312L32.2559 61.6506C32.3752 61.6506 32.5244 61.6506 32.6438 61.6506Z" fill="#A9A9A9"/>
<path d="M30.5256 54.7578L31.1821 55.1159L30.5256 54.7578L29.8691 55.1159L30.5256 54.7578Z" fill="#A9A9A9"/>
<path d="M30.2268 53.9809L29.809 53.7422C29.5703 53.8615 29.3018 53.9511 29.0332 54.0704L29.5703 54.3688L30.2268 53.9809Z" fill="#A9A9A9"/>
<path d="M28.918 56.2487L29.5745 56.6366L30.2309 56.2487L29.5745 55.8906L28.918 56.2487Z" fill="#A9A9A9"/>
<path d="M29.8691 55.1159L30.5256 55.5038L31.1821 55.1159L30.5256 54.7578L29.8691 55.1159Z" fill="#A9A9A9"/>
<path d="M31.1821 59.655L30.5256 59.2969L29.8691 59.655L30.5256 59.2969L31.1821 59.655Z" fill="#A9A9A9"/>
<path d="M28.918 58.5143L29.5745 58.9023L30.2309 58.5143L29.5745 58.1562L28.918 58.5143Z" fill="#A9A9A9"/>
<path d="M30.5256 57.7694L31.1821 57.3815L30.5256 57.0234L29.8691 57.3815L30.5256 57.7694Z" fill="#A9A9A9"/>
<path d="M29.5745 61.1679L30.2309 60.78L29.5745 60.4219L28.918 60.78L29.5745 61.1679Z" fill="#A9A9A9"/>
<path d="M31.1821 59.655L30.5256 59.2969L29.8691 59.655L30.5256 60.0429L31.1821 59.655Z" fill="#A9A9A9"/>
<path d="M27.9609 55.1159L28.6174 54.7578L29.2739 55.1159L28.6174 54.7578L27.9609 55.1159Z" fill="#A9A9A9"/>
<path d="M27.6624 56.6366L28.3189 56.2487L27.6624 55.8906L27.0059 56.2487L27.6624 56.6366Z" fill="#A9A9A9"/>
<path d="M27.9609 55.1159L28.6174 55.5038L29.2739 55.1159L28.6174 54.7578L27.9609 55.1159Z" fill="#A9A9A9"/>
<path d="M26.0508 55.1194L26.2895 55L26.0508 55.1194L26.7073 55.5073L26.0508 55.1194Z" fill="#A9A9A9"/>
<path d="M28.6174 59.2969L29.2739 59.655L28.6174 59.2969L27.9609 59.655L28.6174 59.2969Z" fill="#A9A9A9"/>
<path d="M27.6623 58.9023L28.3188 58.5143L27.6623 58.1562L27.0059 58.5143L27.6623 58.9023Z" fill="#A9A9A9"/>
<path d="M26.2895 59.5356L26.7073 59.2969L26.0508 59.655L26.2895 59.5356Z" fill="#A9A9A9"/>
<path d="M28.6174 57.7694L29.2739 57.3815L28.6174 57.0234L27.9609 57.3815L28.6174 57.7694Z" fill="#A9A9A9"/>
<path d="M28.1991 60.8695L28.3185 60.8098L27.662 60.4219L27.4531 60.5412C27.6918 60.6606 27.9604 60.7501 28.1991 60.8695Z" fill="#A9A9A9"/>
<path d="M27.9609 59.655L28.6174 60.0429L29.2739 59.655L28.6174 59.2969L27.9609 59.655Z" fill="#A9A9A9"/>
<path d="M26.2895 59.5312L26.0508 59.6506L26.7073 60.0385L26.0508 59.6506L26.2895 59.5312Z" fill="#A9A9A9"/>
<path d="M26.0508 55.1123L26.5581 54.8438L26.0508 55.1123Z" fill="#A9A9A9"/>
<path d="M26.4067 56.2487L25.7502 55.8906L25.0938 56.2487L25.7502 56.6366L26.4067 56.2487Z" fill="#A9A9A9"/>
<path d="M26.7078 55.4974L27.3643 55.1095L26.7675 54.7812C26.678 54.8111 26.6183 54.8111 26.5288 54.8409L26.0215 55.1393L26.7078 55.4974Z" fill="#A9A9A9"/>
<path d="M26.0508 59.655L26.7073 59.2969L27.3638 59.655L26.7073 59.2969L26.0508 59.655Z" fill="#A9A9A9"/>
<path d="M25.7502 58.9023L26.4067 58.5143L25.7502 58.1562L25.0938 58.5143L25.7502 58.9023Z" fill="#A9A9A9"/>
<path d="M26.0508 57.3815L26.7073 57.7694L27.3638 57.3815L26.7073 57.0234L26.0508 57.3815Z" fill="#A9A9A9"/>
<path d="M26.0508 59.655L26.7073 60.0429L27.3638 59.655L26.7073 59.2969L26.0508 59.655Z" fill="#A9A9A9"/>
<path d="M24.3203 57.292L24.7978 57.0234L24.3203 57.292Z" fill="#A9A9A9"/>
<path d="M24.5011 56.2486L24.4712 56.2188C24.4712 56.2486 24.4712 56.2486 24.4414 56.2784L24.5011 56.2486Z" fill="#A9A9A9"/>
<path d="M25.3649 55.1719C25.3351 55.2017 25.3052 55.2017 25.2754 55.2316L25.3649 55.1719Z" fill="#A9A9A9"/>
<path d="M24.7978 57.768L25.4542 57.3801L24.7978 56.9922L24.3203 57.2607C24.3203 57.3204 24.3203 57.41 24.3502 57.4696L24.7978 57.768Z" fill="#A9A9A9"/>
<path d="M54.9638 26.4375V40.9697L24.3477 58.665V51.384L32.315 46.7886V39.5075L54.9638 26.4375Z" fill="#1A1A1A"/>
<path d="M54.9668 26.439L32.3181 39.5091L8.41602 25.7229L21.4861 18.2031L20.2626 25.8422L27.3944 25.6334L34.5561 34.0483L41.9565 29.9304L40.5838 19.9935L42.2549 19.0685L54.9668 26.439Z" fill="white"/>
<path d="M46.3401 16.7969L42.252 19.0647V19.0349L46.3401 16.7969Z" fill="white"/>
<path d="M46.3429 16.7976L40.5837 19.9607V19.9905L38.9425 20.9155L30.9453 14.9773L38.3457 10.8594L46.3429 16.7976Z" fill="white"/>
<path d="M42.2531 19.0611L40.582 19.9861V19.9563L42.2531 19.0312V19.0611Z" fill="white"/>
<path d="M41.6847 28.0192L41.9533 29.929L34.5529 34.047L33.1504 24.0803L40.5806 19.9922L41.6847 28.0192Z" fill="white"/>
<path d="M34.7338 0.445312L38.3445 10.8596L30.9441 14.9775L27.3633 4.56327L34.7338 0.445312Z" fill="white"/>
<path d="M32.3181 39.505V46.786L8.41602 32.9699V25.7188L32.3181 39.505Z" fill="#A9A9A9"/>
<path d="M32.3167 46.7848L24.3493 51.3802L0.447266 37.594L8.41462 32.9688L32.3167 46.7848Z" fill="white"/>
<path d="M27.3648 4.5625L27.6035 5.27867L27.0664 5.06978L27.3648 4.5625Z" fill="white"/>
<path d="M27.0667 5.07372L23.7843 10.8627L15.7871 7.61014L23.1875 3.49219L27.0667 5.07372Z" fill="white"/>
<path d="M24.3493 51.38V58.661L0.447266 44.8449V37.5938L24.3493 51.38Z" fill="#A9A9A9"/>
<path d="M24.3499 51.83C24.2603 51.83 24.2007 51.8002 24.141 51.7704L0.238916 37.9842C0.0300341 37.8648 -0.0594868 37.5962 0.0897146 37.3874C0.209076 37.1785 0.477638 37.089 0.68652 37.2382L24.5886 51.0244C24.7975 51.1437 24.887 51.4123 24.7378 51.6212C24.6483 51.7405 24.4991 51.83 24.3499 51.83Z" fill="#1A1A1A"/>
<path d="M32.3186 47.2363C32.2291 47.2363 32.1694 47.2065 32.1097 47.1766L8.20767 33.3904C7.99878 33.271 7.90926 33.0025 8.05846 32.7936C8.17783 32.5847 8.44639 32.4952 8.65527 32.6444L32.5573 46.4306C32.7662 46.55 32.8557 46.8185 32.7065 47.0274C32.617 47.1468 32.4678 47.2363 32.3186 47.2363Z" fill="#1A1A1A"/>
<path d="M32.3186 39.9503C32.229 39.9503 32.1694 39.9205 32.1097 39.8906L8.23747 26.1044C8.08826 26.0149 7.9689 25.8358 7.99874 25.6568C8.02858 25.4181 8.23747 25.239 8.47619 25.2689C8.53587 25.2689 8.59555 25.2987 8.65523 25.3286L32.5573 39.1148C32.7662 39.2341 32.8557 39.5027 32.7065 39.7116C32.617 39.8608 32.4678 39.9503 32.3186 39.9503Z" fill="#1A1A1A"/>
<path d="M24.3516 59.1123C24.2621 59.1123 24.2024 59.0825 24.1427 59.0526L0.240675 45.2366C0.0914739 45.1471 0.00195312 44.9979 0.00195312 44.8487V37.5975C0.00195312 37.4483 0.0914739 37.2991 0.240675 37.2095L7.99915 32.7335V25.721C7.99915 25.4823 8.20803 25.2734 8.44675 25.2734C8.68547 25.2734 8.89435 25.4823 8.89435 25.721V33.0021C8.89435 33.1513 8.80483 33.3005 8.65563 33.39L0.897161 37.866V44.6099L24.5605 58.2768C24.7694 58.3961 24.8589 58.6647 24.7097 58.8736C24.65 59.0228 24.5008 59.1123 24.3516 59.1123Z" fill="#1A1A1A"/>
<path d="M34.5564 34.4946C34.4371 34.4946 34.2879 34.4349 34.2282 34.3454L27.1859 26.0796L20.2629 26.2885C20.1137 26.2885 19.9944 26.2288 19.9049 26.1393C19.8153 26.0498 19.7855 25.9006 19.7855 25.7812L21.0985 17.5453L15.399 7.84722C15.3095 7.66818 15.3095 7.4593 15.4587 7.33994C15.578 7.19074 15.7869 7.13105 15.966 7.22058L23.6051 10.324L26.977 4.35591C27.0665 4.20671 27.2456 4.11719 27.3948 4.11719C27.5738 4.14703 27.723 4.23655 27.7827 4.41559L31.3337 14.7105L39.2115 20.5592C39.3309 20.6487 39.3906 20.7979 39.3906 20.9471C39.3906 21.0963 39.301 21.2455 39.1518 21.3052L33.6612 24.3489L35.004 34.0171C35.0339 34.226 34.9145 34.4051 34.7355 34.4946C34.6758 34.4946 34.6161 34.4946 34.5564 34.4946ZM27.3948 25.1844C27.5141 25.1844 27.6633 25.2441 27.723 25.3336L33.9 32.6146L32.7362 24.1698C32.7063 23.9908 32.7959 23.8118 32.9749 23.7222L38.1373 20.8874L30.707 15.367C30.6474 15.3073 30.5877 15.2476 30.5578 15.1581L27.2754 5.69872L24.172 11.0998C24.0527 11.3087 23.8139 11.3684 23.6051 11.3087L16.8313 8.56339L21.9638 17.2469C22.0235 17.3364 22.0235 17.4558 22.0235 17.5453L20.7702 25.3635L27.3948 25.1844Z" fill="#1A1A1A"/>
<path d="M15.7871 8.05761C15.6379 8.05761 15.4887 7.96809 15.3992 7.81889C15.2798 7.61001 15.3693 7.34145 15.5782 7.22209L22.9786 3.10413C23.098 3.04445 23.2472 3.04445 23.3665 3.07429L27.7829 4.8647C28.0216 4.95423 28.1111 5.22279 28.0216 5.46151C27.9321 5.70023 27.6635 5.78975 27.4248 5.70023L23.2173 3.99934L16.0258 7.99793C15.9363 8.05761 15.8766 8.05761 15.7871 8.05761Z" fill="#1A1A1A"/>
<path d="M38.9414 21.3663C38.7922 21.3663 38.643 21.2768 38.5535 21.1276C38.4341 20.9187 38.5236 20.6502 38.7325 20.5308L46.1329 16.4128C46.3418 16.2935 46.6103 16.383 46.7297 16.5919C46.8491 16.8008 46.7595 17.0693 46.5507 17.1887L39.1503 21.3066C39.0906 21.3365 39.0011 21.3663 38.9414 21.3663Z" fill="#1A1A1A"/>
<path d="M30.9453 15.4288C30.7961 15.4288 30.6469 15.3393 30.5574 15.1901C30.438 14.9812 30.5275 14.7127 30.7364 14.5933L38.1368 10.4753C38.3457 10.356 38.6142 10.4455 38.7336 10.6544C38.853 10.8633 38.7634 11.1318 38.5546 11.2512L31.1542 15.3691C31.0945 15.399 31.005 15.4288 30.9453 15.4288Z" fill="#1A1A1A"/>
<path d="M34.5567 34.4929C34.4075 34.4929 34.2583 34.4034 34.1688 34.2542C34.0494 34.0453 34.139 33.7768 34.3478 33.6574L41.4797 29.6886L40.1368 20.0204C40.107 19.8414 40.1965 19.6623 40.3756 19.5728L45.5379 16.738L38.1077 11.2175C38.048 11.1578 37.9883 11.0982 37.9585 11.0086L34.497 1.10166L27.5741 4.95106C27.3652 5.07042 27.0967 4.9809 26.9773 4.77202C26.8579 4.56313 26.9474 4.29457 27.1563 4.17521L34.5567 0.0572535C34.6761 -0.00242706 34.8253 -0.00242706 34.9446 0.0274132C35.064 0.0870937 35.1535 0.176615 35.2132 0.295976L38.7642 10.561L46.642 16.4097C46.7614 16.4992 46.8211 16.6484 46.8211 16.7976C46.8211 16.9468 46.7316 17.096 46.5823 17.1557L41.0917 20.1994L42.4345 29.8677C42.4644 30.0467 42.3749 30.2258 42.1958 30.3153L34.7954 34.4332C34.7059 34.4929 34.6462 34.4929 34.5567 34.4929Z" fill="#1A1A1A"/>
<path d="M24.3497 59.1106C24.2602 59.1106 24.2005 59.0808 24.1409 59.0509C23.9917 58.9614 23.9021 58.8122 23.9021 58.663V51.382C23.9021 51.2328 23.9917 51.0836 24.111 50.9941L31.8695 46.518V39.5056C31.8695 39.3564 31.959 39.2072 32.1082 39.1176L54.1005 26.4355L42.045 19.4529C41.8361 19.3335 41.7466 19.065 41.8958 18.8561C42.0152 18.6472 42.2838 18.5577 42.4926 18.7069L55.2046 26.0774C55.2344 26.0774 55.2643 26.1073 55.2643 26.1371C55.2941 26.167 55.2941 26.167 55.3239 26.1968C55.3836 26.2863 55.4433 26.3759 55.4433 26.4952V41.0573C55.4433 41.2065 55.3538 41.3557 55.2046 41.4452L24.5586 59.0509C24.499 59.0808 24.4094 59.1106 24.3497 59.1106ZM24.7974 51.6506V57.8872L54.5183 40.729V27.2114L32.7647 39.7741V46.7866C32.7647 46.9358 32.6752 47.085 32.5558 47.1745L24.7974 51.6506Z" fill="#1A1A1A"/>
<path d="M8.41587 26.165C8.38603 26.165 8.38603 26.165 8.35619 26.165C8.17715 26.1351 7.99811 25.9859 7.96826 25.8069C7.93842 25.6278 7.9981 25.4189 8.17715 25.3294L21.2472 17.8097C21.4561 17.6903 21.7246 17.75 21.844 17.9887C21.9634 18.1976 21.9037 18.4662 21.6649 18.5855L8.71427 26.0754C8.62475 26.1351 8.53523 26.165 8.41587 26.165Z" fill="#1A1A1A"/>
</g>
<defs>
<clipPath id="clip0_1494_13049">
<rect width="69.9456" height="61.65" fill="white"/>
</clipPath>
</defs>
</svg>
