<svg width="62" height="60" viewBox="0 0 62 60" fill="none" xmlns="http://www.w3.org/2000/svg">
<g clip-path="url(#clip0_1494_13849)">
<path d="M60.5488 49.6653L60.6731 49.7647L61.2196 49.4417L61.0954 49.3672L60.5488 49.6653Z" fill="#A9A9A9"/>
<path d="M58.9609 49.6653L59.5075 49.9883L60.0541 49.6653L59.5075 49.3672L58.9609 49.6653Z" fill="#A9A9A9"/>
<path d="M60.7954 48.6988L60.1495 48.5L59.752 48.7236L60.2985 49.0466L60.8451 48.7236L60.7954 48.6988Z" fill="#A9A9A9"/>
<path d="M57.3691 47.7713L57.9157 48.0942L58.2636 47.8955L57.5431 47.6719L57.3691 47.7713Z" fill="#A9A9A9"/>
<path d="M58.4623 49.6653L57.9157 49.3672L57.3691 49.6653L57.9157 49.9883L58.4623 49.6653Z" fill="#A9A9A9"/>
<path d="M59.2572 48.72L58.7106 48.4219L58.1641 48.72L58.7106 49.043L59.2572 48.72Z" fill="#A9A9A9"/>
<path d="M57.3691 51.5481L57.4685 51.6227L58.0151 51.2997L57.9157 51.25L57.3691 51.5481Z" fill="#A9A9A9"/>
<path d="M58.1641 50.6106L58.6858 50.9088L59.2324 50.6106L58.7106 50.3125L58.1641 50.6106Z" fill="#A9A9A9"/>
<path d="M56.8704 47.7747L56.3239 47.4766L55.7773 47.7747L56.3239 48.0977L56.8704 47.7747Z" fill="#A9A9A9"/>
<path d="M56.8704 49.6653L56.3239 49.3672L55.7773 49.6653L56.3239 49.9883L56.8704 49.6653Z" fill="#A9A9A9"/>
<path d="M57.6654 48.72L57.1188 48.4219L56.5723 48.72L57.1188 49.043L57.6654 48.72Z" fill="#A9A9A9"/>
<path d="M55.7773 51.5481L56.3239 51.8711L56.8704 51.5481L56.3239 51.25L55.7773 51.5481Z" fill="#A9A9A9"/>
<path d="M57.6654 50.6106L57.1188 50.3125L56.5723 50.6106L57.1188 50.9336L57.6654 50.6106Z" fill="#A9A9A9"/>
<path d="M55.2825 47.7747L54.7359 47.4766L54.1893 47.7747L54.7359 48.0977L55.2825 47.7747Z" fill="#A9A9A9"/>
<path d="M55.6549 47.0816L55.0586 46.8828L55.5306 47.1561L55.6549 47.0816Z" fill="#A9A9A9"/>
<path d="M55.2825 49.6653L54.7359 49.3672L54.1893 49.6653L54.7359 49.9883L55.2825 49.6653Z" fill="#A9A9A9"/>
<path d="M56.0775 48.72L55.531 48.4219L54.9844 48.72L55.531 49.043L56.0775 48.72Z" fill="#A9A9A9"/>
<path d="M54.9844 52.5013L55.4564 52.7994L56.003 52.4764L55.531 52.2031L54.9844 52.5013Z" fill="#A9A9A9"/>
<path d="M55.2825 51.5481L54.7359 51.25L54.1893 51.5481L54.7359 51.8711L55.2825 51.5481Z" fill="#A9A9A9"/>
<path d="M56.0775 50.6106L55.531 50.3125L54.9844 50.6106L55.531 50.9336L56.0775 50.6106Z" fill="#A9A9A9"/>
<path d="M54.1893 53.4388L54.2639 53.4885L54.8104 53.1655L54.7359 53.1406L54.1893 53.4388Z" fill="#A9A9A9"/>
<path d="M53.6909 47.7747L53.1443 47.4766L52.5977 47.7747L53.1443 48.0977L53.6909 47.7747Z" fill="#A9A9A9"/>
<path d="M54.4857 46.8294L53.964 46.5312H53.9392L53.3926 46.8294L53.9392 47.1524L54.4857 46.8294Z" fill="#A9A9A9"/>
<path d="M53.6909 49.6653L53.1443 49.3672L52.5977 49.6653L53.1443 49.9883L53.6909 49.6653Z" fill="#A9A9A9"/>
<path d="M54.4857 48.72L53.9392 48.4219L53.3926 48.72L53.9392 49.043L54.4857 48.72Z" fill="#A9A9A9"/>
<path d="M53.9392 52.2031L53.3926 52.5013L53.9392 52.8242L54.4857 52.5013L53.9392 52.2031Z" fill="#A9A9A9"/>
<path d="M53.6909 51.5481L53.1443 51.25L52.5977 51.5481L53.1443 51.8711L53.6909 51.5481Z" fill="#A9A9A9"/>
<path d="M54.4857 50.6106L53.9392 50.3125L53.3926 50.6106L53.9392 50.9336L54.4857 50.6106Z" fill="#A9A9A9"/>
<path d="M52.5977 53.4388L53.1443 53.7617L53.6909 53.4388L53.1443 53.1406L52.5977 53.4388Z" fill="#A9A9A9"/>
<path d="M52.0284 45.9424L51.3327 45.7188L51.0098 45.8927L51.5563 46.2156L52.0284 45.9424Z" fill="#A9A9A9"/>
<path d="M52.1032 47.7747L51.5566 47.4766L51.01 47.7747L51.5566 48.0977L52.1032 47.7747Z" fill="#A9A9A9"/>
<path d="M52.8959 46.8294L52.3493 46.5312L51.8027 46.8294L52.3493 47.1524L52.8959 46.8294Z" fill="#A9A9A9"/>
<path d="M52.1032 49.6653L51.5566 49.3672L51.01 49.6653L51.5566 49.9883L52.1032 49.6653Z" fill="#A9A9A9"/>
<path d="M52.8959 48.72L52.3493 48.4219L51.8027 48.72L52.3493 49.043L52.8959 48.72Z" fill="#A9A9A9"/>
<path d="M52.1032 51.5481L51.5566 51.25L51.01 51.5481L51.5566 51.8711L52.1032 51.5481Z" fill="#A9A9A9"/>
<path d="M52.8959 50.6106L52.3493 50.3125L51.8027 50.6106L52.3493 50.9336L52.8959 50.6106Z" fill="#A9A9A9"/>
<path d="M52.1032 53.4388L51.5566 53.1406L51.01 53.4388L51.5566 53.7617L52.1032 53.4388Z" fill="#A9A9A9"/>
<path d="M52.8959 52.5013L52.3493 52.2031L51.8027 52.5013L52.3493 52.8242L52.8959 52.5013Z" fill="#A9A9A9"/>
<path d="M51.01 55.3294L51.0349 55.3542L51.5814 55.0312H51.5566L51.01 55.3294Z" fill="#A9A9A9"/>
<path d="M51.8027 54.3841L52.2499 54.6574L52.7965 54.3344L52.3493 54.0859L51.8027 54.3841Z" fill="#A9A9A9"/>
<path d="M50.5111 45.8919L49.9646 45.5938L49.418 45.8919L49.9646 46.2149L50.5111 45.8919Z" fill="#A9A9A9"/>
<path d="M50.5111 47.7747L49.9646 47.4766L49.418 47.7747L49.9646 48.0977L50.5111 47.7747Z" fill="#A9A9A9"/>
<path d="M51.308 46.8294L50.7614 46.5312L50.2148 46.8294L50.7614 47.1524L51.308 46.8294Z" fill="#A9A9A9"/>
<path d="M50.5111 49.6653L49.9646 49.3672L49.418 49.6653L49.9646 49.9883L50.5111 49.6653Z" fill="#A9A9A9"/>
<path d="M51.308 48.72L50.7614 48.4219L50.2148 48.72L50.7614 49.043L51.308 48.72Z" fill="#A9A9A9"/>
<path d="M50.5111 51.5481L49.9646 51.25L49.418 51.5481L49.9646 51.8711L50.5111 51.5481Z" fill="#A9A9A9"/>
<path d="M51.308 50.6106L50.7614 50.3125L50.2148 50.6106L50.7614 50.9336L51.308 50.6106Z" fill="#A9A9A9"/>
<path d="M50.5111 53.4388L49.9646 53.1406L49.418 53.4388L49.9646 53.7617L50.5111 53.4388Z" fill="#A9A9A9"/>
<path d="M51.308 52.5013L50.7614 52.2031L50.2148 52.5013L50.7614 52.8242L51.308 52.5013Z" fill="#A9A9A9"/>
<path d="M49.418 55.3294L49.9646 55.6524L50.5111 55.3294L49.9646 55.0312L49.418 55.3294Z" fill="#A9A9A9"/>
<path d="M48.623 56.2747L49.0454 56.5231L49.592 56.2002L49.1696 55.9766L48.623 56.2747Z" fill="#A9A9A9"/>
<path d="M51.308 54.3841L50.7614 54.0859L50.2148 54.3841L50.7614 54.7071L51.308 54.3841Z" fill="#A9A9A9"/>
<path d="M48.9193 45.8919L48.3728 45.5938L47.8262 45.8919L48.3728 46.2149L48.9193 45.8919Z" fill="#A9A9A9"/>
<path d="M49.4429 45.1142L48.7224 44.8906L48.623 44.9403L49.1696 45.2633L49.4429 45.1142Z" fill="#A9A9A9"/>
<path d="M48.9193 47.7747L48.3728 47.4766L47.8262 47.7747L48.3728 48.0977L48.9193 47.7747Z" fill="#A9A9A9"/>
<path d="M49.7162 46.8294L49.1696 46.5312L48.623 46.8294L49.1696 47.1524L49.7162 46.8294Z" fill="#A9A9A9"/>
<path d="M48.9193 49.6653L48.3728 49.3672L47.8262 49.6653L48.3728 49.9883L48.9193 49.6653Z" fill="#A9A9A9"/>
<path d="M49.7162 48.72L49.1696 48.4219L48.623 48.72L49.1696 49.043L49.7162 48.72Z" fill="#A9A9A9"/>
<path d="M48.9193 51.5481L48.3728 51.25L47.8262 51.5481L48.3728 51.8711L48.9193 51.5481Z" fill="#A9A9A9"/>
<path d="M49.7162 50.6106L49.1696 50.3125L48.623 50.6106L49.1696 50.9336L49.7162 50.6106Z" fill="#A9A9A9"/>
<path d="M48.9193 53.4388L48.3728 53.1406L47.8262 53.4388L48.3728 53.7617L48.9193 53.4388Z" fill="#A9A9A9"/>
<path d="M49.7162 52.5013L49.1696 52.2031L48.623 52.5013L49.1696 52.8242L49.7162 52.5013Z" fill="#A9A9A9"/>
<path d="M48.9193 55.3294L48.3728 55.0312L47.8262 55.3294L48.3728 55.6524L48.9193 55.3294Z" fill="#A9A9A9"/>
<path d="M49.7162 54.3841L49.1696 54.0859L48.623 54.3841L49.1696 54.7071L49.7162 54.3841Z" fill="#A9A9A9"/>
<path d="M47.8262 57.22L48.3728 56.9219L47.8262 57.22Z" fill="#A9A9A9"/>
<path d="M46.7842 44.3273L46.8338 44.3025L46.5605 44.2031L46.7842 44.3273Z" fill="#A9A9A9"/>
<path d="M47.3314 45.8919L46.7849 45.5938L46.2383 45.8919L46.7849 46.2149L47.3314 45.8919Z" fill="#A9A9A9"/>
<path d="M48.1283 44.9466L47.5817 44.6484L47.0352 44.9466L47.5817 45.2696L48.1283 44.9466Z" fill="#A9A9A9"/>
<path d="M47.3314 47.7747L46.7849 47.4766L46.2383 47.7747L46.7849 48.0977L47.3314 47.7747Z" fill="#A9A9A9"/>
<path d="M48.1283 46.8294L47.5817 46.5312L47.0352 46.8294L47.5817 47.1524L48.1283 46.8294Z" fill="#A9A9A9"/>
<path d="M47.3314 49.6653L46.7849 49.3672L46.2383 49.6653L46.7849 49.9883L47.3314 49.6653Z" fill="#A9A9A9"/>
<path d="M48.1283 48.72L47.5817 48.4219L47.0352 48.72L47.5817 49.043L48.1283 48.72Z" fill="#A9A9A9"/>
<path d="M47.3314 51.5481L46.7849 51.25L46.2383 51.5481L46.7849 51.8711L47.3314 51.5481Z" fill="#A9A9A9"/>
<path d="M48.1283 50.6106L47.5817 50.3125L47.0352 50.6106L47.5817 50.9336L48.1283 50.6106Z" fill="#A9A9A9"/>
<path d="M47.3314 53.4388L46.7849 53.1406L46.2383 53.4388L46.7849 53.7617L47.3314 53.4388Z" fill="#A9A9A9"/>
<path d="M48.1283 52.5013L47.5817 52.2031L47.0352 52.5013L47.5817 52.8242L48.1283 52.5013Z" fill="#A9A9A9"/>
<path d="M47.5817 55.9766L47.0352 56.2747L47.5817 56.5977L48.1283 56.2747L47.5817 55.9766Z" fill="#A9A9A9"/>
<path d="M47.3314 55.3294L46.7849 55.0312L46.2383 55.3294L46.7849 55.6524L47.3314 55.3294Z" fill="#A9A9A9"/>
<path d="M48.1283 54.3841L47.5817 54.0859L47.0352 54.3841L47.5817 54.7071L48.1283 54.3841Z" fill="#A9A9A9"/>
<path d="M46.2383 57.22L46.7849 57.543L47.3314 57.22L46.7849 56.9219L46.2383 57.22Z" fill="#A9A9A9"/>
<path d="M45.7397 44.0013L45.1931 43.7031L44.6465 44.0013L45.1931 44.3242L45.7397 44.0013Z" fill="#A9A9A9"/>
<path d="M45.7397 45.8919L45.1931 45.5938L44.6465 45.8919L45.1931 46.2149L45.7397 45.8919Z" fill="#A9A9A9"/>
<path d="M46.5365 44.9466L45.9899 44.6484L45.4434 44.9466L45.9899 45.2696L46.5365 44.9466Z" fill="#A9A9A9"/>
<path d="M45.7397 47.7747L45.1931 47.4766L44.6465 47.7747L45.1931 48.0977L45.7397 47.7747Z" fill="#A9A9A9"/>
<path d="M46.5364 46.8294L45.9898 46.5312L45.4432 46.8294L45.9898 47.1524L46.5364 46.8294Z" fill="#A9A9A9"/>
<path d="M45.7397 49.6653L45.1931 49.3672L44.6465 49.6653L45.1931 49.9883L45.7397 49.6653Z" fill="#A9A9A9"/>
<path d="M46.5364 48.72L45.9898 48.4219L45.4432 48.72L45.9898 49.043L46.5364 48.72Z" fill="#A9A9A9"/>
<path d="M45.7397 51.5481L45.1931 51.25L44.6465 51.5481L45.1931 51.8711L45.7397 51.5481Z" fill="#A9A9A9"/>
<path d="M46.5364 50.6106L45.9898 50.3125L45.4432 50.6106L45.9898 50.9336L46.5364 50.6106Z" fill="#A9A9A9"/>
<path d="M45.7397 53.4388L45.1931 53.1406L44.6465 53.4388L45.1931 53.7617L45.7397 53.4388Z" fill="#A9A9A9"/>
<path d="M46.5364 52.4934L45.9898 52.1953L45.4432 52.4934L45.9898 52.8164L46.5364 52.4934Z" fill="#A9A9A9"/>
<path d="M45.7397 55.3294L45.1931 55.0312L44.6465 55.3294L45.1931 55.6524L45.7397 55.3294Z" fill="#A9A9A9"/>
<path d="M46.5364 54.3841L45.9898 54.0859L45.4432 54.3841L45.9898 54.7071L46.5364 54.3841Z" fill="#A9A9A9"/>
<path d="M45.1931 56.9219L44.6465 57.22L45.1931 57.543L45.7397 57.22L45.1931 56.9219Z" fill="#A9A9A9"/>
<path d="M46.5364 56.2747L45.9898 55.9766L45.4432 56.2747L45.9898 56.5977L46.5364 56.2747Z" fill="#A9A9A9"/>
<path d="M45.4434 58.1575L45.816 58.3811L46.3626 58.083L45.9899 57.8594L45.4434 58.1575Z" fill="#A9A9A9"/>
<path d="M44.0792 42.1603L43.8556 41.9616L43.6071 41.8125L43.0605 42.1106L43.6071 42.4336L44.0792 42.1603Z" fill="#A9A9A9"/>
<path d="M44.1537 44.0013L43.6071 43.7031L43.0605 44.0013L43.6071 44.3242L44.1537 44.0013Z" fill="#A9A9A9"/>
<path d="M44.9447 43.0559L44.3981 42.7578L43.8516 43.0559L44.3981 43.3789L44.9447 43.0559Z" fill="#A9A9A9"/>
<path d="M44.1537 45.8919L43.6071 45.5938L43.0605 45.8919L43.6071 46.2149L44.1537 45.8919Z" fill="#A9A9A9"/>
<path d="M44.9447 44.9466L44.3981 44.6484L43.8516 44.9466L44.3981 45.2696L44.9447 44.9466Z" fill="#A9A9A9"/>
<path d="M44.1537 47.7747L43.6071 47.4766L43.0605 47.7747L43.6071 48.0977L44.1537 47.7747Z" fill="#A9A9A9"/>
<path d="M44.9447 46.8294L44.3981 46.5312L43.8516 46.8294L44.3981 47.1524L44.9447 46.8294Z" fill="#A9A9A9"/>
<path d="M44.1537 49.6653L43.6071 49.3672L43.0605 49.6653L43.6071 49.9883L44.1537 49.6653Z" fill="#A9A9A9"/>
<path d="M44.9447 48.72L44.3981 48.4219L43.8516 48.72L44.3981 49.043L44.9447 48.72Z" fill="#A9A9A9"/>
<path d="M44.1537 51.5481L43.6071 51.25L43.0605 51.5481L43.6071 51.8711L44.1537 51.5481Z" fill="#A9A9A9"/>
<path d="M44.9447 50.6106L44.3981 50.3125L43.8516 50.6106L44.3981 50.9336L44.9447 50.6106Z" fill="#A9A9A9"/>
<path d="M44.1537 53.4388L43.6071 53.1406L43.0605 53.4388L43.6071 53.7617L44.1537 53.4388Z" fill="#A9A9A9"/>
<path d="M44.9447 52.5013L44.3981 52.2031L43.8516 52.5013L44.3981 52.8242L44.9447 52.5013Z" fill="#A9A9A9"/>
<path d="M44.1537 55.3294L43.6071 55.0312L43.0605 55.3294L43.6071 55.6524L44.1537 55.3294Z" fill="#A9A9A9"/>
<path d="M44.9447 54.3841L44.3981 54.0859L43.8516 54.3841L44.3981 54.7071L44.9447 54.3841Z" fill="#A9A9A9"/>
<path d="M44.1537 57.22L43.6071 56.9219L43.0605 57.22L43.6071 57.543L44.1537 57.22Z" fill="#A9A9A9"/>
<path d="M44.9447 56.2747L44.3981 55.9766L43.8516 56.2747L44.3981 56.5977L44.9447 56.2747Z" fill="#A9A9A9"/>
<path d="M43.0605 59.1106L43.6071 59.4336L44.1537 59.1106L43.6071 58.8125L43.0605 59.1106Z" fill="#A9A9A9"/>
<path d="M43.8516 58.1575L44.3981 58.4805L44.9447 58.1575L44.3981 57.8594L43.8516 58.1575Z" fill="#A9A9A9"/>
<path d="M42.1644 40.4756L41.7172 40.0781L41.4688 40.2272L42.0153 40.5502L42.1644 40.4756Z" fill="#A9A9A9"/>
<path d="M42.5619 42.1106L42.0153 41.8125L41.4688 42.1106L42.0153 42.4336L42.5619 42.1106Z" fill="#A9A9A9"/>
<path d="M42.2639 41.1703L42.8104 41.4933L43.1334 41.3194L42.6862 40.9219L42.2639 41.1703Z" fill="#A9A9A9"/>
<path d="M42.5619 44.0013L42.0153 43.7031L41.4688 44.0013L42.0153 44.3242L42.5619 44.0013Z" fill="#A9A9A9"/>
<path d="M43.3568 43.0559L42.8103 42.7578L42.2637 43.0559L42.8103 43.3789L43.3568 43.0559Z" fill="#A9A9A9"/>
<path d="M42.5619 45.8919L42.0153 45.5938L41.4688 45.8919L42.0153 46.2149L42.5619 45.8919Z" fill="#A9A9A9"/>
<path d="M43.3568 44.9466L42.8103 44.6484L42.2637 44.9466L42.8103 45.2696L43.3568 44.9466Z" fill="#A9A9A9"/>
<path d="M42.5619 47.7747L42.0153 47.4766L41.4688 47.7747L42.0153 48.0977L42.5619 47.7747Z" fill="#A9A9A9"/>
<path d="M43.357 46.8294L42.8104 46.5312L42.2639 46.8294L42.8104 47.1524L43.357 46.8294Z" fill="#A9A9A9"/>
<path d="M42.8104 50.3125L42.2639 50.6106L42.8104 50.9336L43.357 50.6106L42.8104 50.3125Z" fill="#A9A9A9"/>
<path d="M42.5619 49.6653L42.0153 49.3672L41.4688 49.6653L42.0153 49.9883L42.5619 49.6653Z" fill="#A9A9A9"/>
<path d="M43.357 48.72L42.8104 48.4219L42.2639 48.72L42.8104 49.043L43.357 48.72Z" fill="#A9A9A9"/>
<path d="M42.5619 51.5481L42.0153 51.25L41.4688 51.5481L42.0153 51.8711L42.5619 51.5481Z" fill="#A9A9A9"/>
<path d="M42.8104 54.0859L42.2639 54.3841L42.8104 54.7071L43.357 54.3841L42.8104 54.0859Z" fill="#A9A9A9"/>
<path d="M42.5619 53.4388L42.0153 53.1406L41.4688 53.4388L42.0153 53.7617L42.5619 53.4388Z" fill="#A9A9A9"/>
<path d="M43.357 52.4934L42.8104 52.1953L42.2639 52.4934L42.8104 52.8164L43.357 52.4934Z" fill="#A9A9A9"/>
<path d="M42.5619 55.3294L42.0153 55.0312L41.4688 55.3294L42.0153 55.6524L42.5619 55.3294Z" fill="#A9A9A9"/>
<path d="M42.8103 57.8594L42.2637 58.1575L42.8103 58.4805L43.3568 58.1575L42.8103 57.8594Z" fill="#A9A9A9"/>
<path d="M42.5619 57.22L42.0153 56.9219L41.4688 57.22L42.0153 57.543L42.5619 57.22Z" fill="#A9A9A9"/>
<path d="M43.357 56.2747L42.8104 55.9766L42.2639 56.2747L42.8104 56.5977L43.357 56.2747Z" fill="#A9A9A9"/>
<path d="M42.5859 59.8742L43.058 59.9984L43.1574 59.9488L42.8095 59.75L42.5859 59.8742Z" fill="#A9A9A9"/>
<path d="M41.4688 59.1106L42.0153 59.4336L42.5619 59.1106L42.0153 58.8125L41.4688 59.1106Z" fill="#A9A9A9"/>
<path d="M40.9701 40.22L40.4235 39.9219L39.877 40.22L40.4235 40.543L40.9701 40.22Z" fill="#A9A9A9"/>
<path d="M40.7464 39.25L40.6719 39.2748L41.0694 39.4984L40.7464 39.25Z" fill="#A9A9A9"/>
<path d="M40.9701 42.1106L40.4235 41.8125L39.877 42.1106L40.4235 42.4336L40.9701 42.1106Z" fill="#A9A9A9"/>
<path d="M41.765 41.1653L41.2185 40.8672L40.6719 41.1653L41.2185 41.4883L41.765 41.1653Z" fill="#A9A9A9"/>
<path d="M40.9701 44.0013L40.4235 43.7031L39.877 44.0013L40.4235 44.3242L40.9701 44.0013Z" fill="#A9A9A9"/>
<path d="M41.765 43.0559L41.2185 42.7578L40.6719 43.0559L41.2185 43.3789L41.765 43.0559Z" fill="#A9A9A9"/>
<path d="M40.9701 45.8919L40.4235 45.5938L39.877 45.8919L40.4235 46.2149L40.9701 45.8919Z" fill="#A9A9A9"/>
<path d="M41.765 44.9466L41.2185 44.6484L40.6719 44.9466L41.2185 45.2696L41.765 44.9466Z" fill="#A9A9A9"/>
<path d="M40.9701 47.7747L40.4235 47.4766L39.877 47.7747L40.4235 48.0977L40.9701 47.7747Z" fill="#A9A9A9"/>
<path d="M41.765 46.8294L41.2185 46.5312L40.6719 46.8294L41.2185 47.1524L41.765 46.8294Z" fill="#A9A9A9"/>
<path d="M40.9701 49.6653L40.4235 49.3672L39.877 49.6653L40.4235 49.9883L40.9701 49.6653Z" fill="#A9A9A9"/>
<path d="M41.765 48.72L41.2185 48.4219L40.6719 48.72L41.2185 49.043L41.765 48.72Z" fill="#A9A9A9"/>
<path d="M40.9701 51.5481L40.4235 51.25L39.877 51.5481L40.4235 51.8711L40.9701 51.5481Z" fill="#A9A9A9"/>
<path d="M41.765 50.6106L41.2185 50.3125L40.6719 50.6106L41.2185 50.9336L41.765 50.6106Z" fill="#A9A9A9"/>
<path d="M40.9701 53.4388L40.4235 53.1406L39.877 53.4388L40.4235 53.7617L40.9701 53.4388Z" fill="#A9A9A9"/>
<path d="M41.765 52.5013L41.2185 52.2031L40.6719 52.5013L41.2185 52.8242L41.765 52.5013Z" fill="#A9A9A9"/>
<path d="M40.9701 55.3294L40.4235 55.0312L39.877 55.3294L40.4235 55.6524L40.9701 55.3294Z" fill="#A9A9A9"/>
<path d="M41.765 54.3841L41.2185 54.0859L40.6719 54.3841L41.2185 54.7071L41.765 54.3841Z" fill="#A9A9A9"/>
<path d="M40.9701 57.22L40.4235 56.9219L39.877 57.22L40.4235 57.543L40.9701 57.22Z" fill="#A9A9A9"/>
<path d="M41.765 56.2747L41.2185 55.9766L40.6719 56.2747L41.2185 56.5977L41.765 56.2747Z" fill="#A9A9A9"/>
<path d="M39.9531 59.0609L40.6736 59.2846L40.9718 59.1106L40.4252 58.8125L39.9531 59.0609Z" fill="#A9A9A9"/>
<path d="M41.765 58.1575L41.2185 57.8594L40.6719 58.1575L41.2185 58.4805L41.765 58.1575Z" fill="#A9A9A9"/>
<path d="M39.3822 38.3372L38.8356 38.0391L38.2891 38.3372L38.8356 38.6602L39.3822 38.3372Z" fill="#A9A9A9"/>
<path d="M39.3822 40.22L38.8356 39.9219L38.2891 40.22L38.8356 40.543L39.3822 40.22Z" fill="#A9A9A9"/>
<path d="M40.1772 39.2825L39.6306 38.9844L39.084 39.2825L39.6306 39.6055L40.1772 39.2825Z" fill="#A9A9A9"/>
<path d="M39.3822 42.1106L38.8356 41.8125L38.2891 42.1106L38.8356 42.4336L39.3822 42.1106Z" fill="#A9A9A9"/>
<path d="M40.1772 41.1653L39.6306 40.8672L39.084 41.1653L39.6306 41.4883L40.1772 41.1653Z" fill="#A9A9A9"/>
<path d="M39.3822 44.0013L38.8356 43.7031L38.2891 44.0013L38.8356 44.3242L39.3822 44.0013Z" fill="#A9A9A9"/>
<path d="M40.1772 43.0559L39.6306 42.7578L39.084 43.0559L39.6306 43.3789L40.1772 43.0559Z" fill="#A9A9A9"/>
<path d="M39.3822 45.8919L38.8356 45.5938L38.2891 45.8919L38.8356 46.2149L39.3822 45.8919Z" fill="#A9A9A9"/>
<path d="M40.1772 44.9466L39.6306 44.6484L39.084 44.9466L39.6306 45.2696L40.1772 44.9466Z" fill="#A9A9A9"/>
<path d="M39.3822 47.7747L38.8356 47.4766L38.2891 47.7747L38.8356 48.0977L39.3822 47.7747Z" fill="#A9A9A9"/>
<path d="M40.1772 46.8294L39.6306 46.5312L39.084 46.8294L39.6306 47.1524L40.1772 46.8294Z" fill="#A9A9A9"/>
<path d="M39.3822 49.6653L38.8356 49.3672L38.2891 49.6653L38.8356 49.9883L39.3822 49.6653Z" fill="#A9A9A9"/>
<path d="M40.1772 48.72L39.6306 48.4219L39.084 48.72L39.6306 49.043L40.1772 48.72Z" fill="#A9A9A9"/>
<path d="M39.3822 51.5481L38.8356 51.25L38.2891 51.5481L38.8356 51.8711L39.3822 51.5481Z" fill="#A9A9A9"/>
<path d="M40.1772 50.6106L39.6306 50.3125L39.084 50.6106L39.6306 50.9336L40.1772 50.6106Z" fill="#A9A9A9"/>
<path d="M39.3822 53.4388L38.8356 53.1406L38.2891 53.4388L38.8356 53.7617L39.3822 53.4388Z" fill="#A9A9A9"/>
<path d="M40.1772 52.5013L39.6306 52.2031L39.084 52.5013L39.6306 52.8242L40.1772 52.5013Z" fill="#A9A9A9"/>
<path d="M39.3822 55.3294L38.8356 55.0312L38.2891 55.3294L38.8356 55.6524L39.3822 55.3294Z" fill="#A9A9A9"/>
<path d="M40.1772 54.3841L39.6306 54.0859L39.084 54.3841L39.6306 54.7071L40.1772 54.3841Z" fill="#A9A9A9"/>
<path d="M38.8356 56.9219L38.2891 57.22L38.8356 57.543L39.3822 57.22L38.8356 56.9219Z" fill="#A9A9A9"/>
<path d="M40.1772 56.2747L39.6306 55.9766L39.084 56.2747L39.6306 56.5977L40.1772 56.2747Z" fill="#A9A9A9"/>
<path d="M40.1772 58.1575L39.6306 57.8594L39.084 58.1575L39.6306 58.4805L40.1772 58.1575Z" fill="#A9A9A9"/>
<path d="M37.6414 36.546L37.219 36.1484L36.6973 36.4466L37.2438 36.7696L37.6414 36.546Z" fill="#A9A9A9"/>
<path d="M37.7904 38.3372L37.2438 38.0391L36.6973 38.3372L37.2438 38.6602L37.7904 38.3372Z" fill="#A9A9A9"/>
<path d="M38.5854 37.3919L38.0388 37.0938L37.4922 37.3919L38.0388 37.7149L38.5854 37.3919Z" fill="#A9A9A9"/>
<path d="M37.7904 40.22L37.2438 39.9219L36.6973 40.22L37.2438 40.543L37.7904 40.22Z" fill="#A9A9A9"/>
<path d="M38.5854 39.2825L38.0388 38.9844L37.4922 39.2825L38.0388 39.6055L38.5854 39.2825Z" fill="#A9A9A9"/>
<path d="M37.7904 42.1106L37.2438 41.8125L36.6973 42.1106L37.2438 42.4336L37.7904 42.1106Z" fill="#A9A9A9"/>
<path d="M38.5854 41.1653L38.0388 40.8672L37.4922 41.1653L38.0388 41.4883L38.5854 41.1653Z" fill="#A9A9A9"/>
<path d="M37.7904 44.0013L37.2438 43.7031L36.6973 44.0013L37.2438 44.3242L37.7904 44.0013Z" fill="#A9A9A9"/>
<path d="M38.5854 43.0559L38.0388 42.7578L37.4922 43.0559L38.0388 43.3789L38.5854 43.0559Z" fill="#A9A9A9"/>
<path d="M37.7903 45.8919L37.2437 45.5938L36.6971 45.8919L37.2437 46.2149L37.7903 45.8919Z" fill="#A9A9A9"/>
<path d="M38.5854 44.9466L38.0388 44.6484L37.4922 44.9466L38.0388 45.2696L38.5854 44.9466Z" fill="#A9A9A9"/>
<path d="M37.7903 47.7747L37.2437 47.4766L36.6971 47.7747L37.2437 48.0977L37.7903 47.7747Z" fill="#A9A9A9"/>
<path d="M38.5854 46.8294L38.0388 46.5312L37.4922 46.8294L38.0388 47.1524L38.5854 46.8294Z" fill="#A9A9A9"/>
<path d="M37.7903 49.6653L37.2437 49.3672L36.6971 49.6653L37.2437 49.9883L37.7903 49.6653Z" fill="#A9A9A9"/>
<path d="M38.5854 48.72L38.0388 48.4219L37.4922 48.72L38.0388 49.043L38.5854 48.72Z" fill="#A9A9A9"/>
<path d="M37.7903 51.5481L37.2437 51.25L36.6971 51.5481L37.2437 51.8711L37.7903 51.5481Z" fill="#A9A9A9"/>
<path d="M38.5854 50.6106L38.0388 50.3125L37.4922 50.6106L38.0388 50.9336L38.5854 50.6106Z" fill="#A9A9A9"/>
<path d="M37.7903 53.4388L37.2437 53.1406L36.6971 53.4388L37.2437 53.7617L37.7903 53.4388Z" fill="#A9A9A9"/>
<path d="M38.5854 52.5013L38.0388 52.2031L37.4922 52.5013L38.0388 52.8242L38.5854 52.5013Z" fill="#A9A9A9"/>
<path d="M37.7903 55.3294L37.2437 55.0312L36.6971 55.3294L37.2437 55.6524L37.7903 55.3294Z" fill="#A9A9A9"/>
<path d="M38.5854 54.3841L38.0388 54.0859L37.4922 54.3841L38.0388 54.7071L38.5854 54.3841Z" fill="#A9A9A9"/>
<path d="M37.2438 56.9219L36.6973 57.22L37.2438 57.543L37.7904 57.22L37.2438 56.9219Z" fill="#A9A9A9"/>
<path d="M38.5854 56.2747L38.0388 55.9766L37.4922 56.2747L38.0388 56.5977L38.5854 56.2747Z" fill="#A9A9A9"/>
<path d="M37.4922 58.1575L37.9891 58.4557L38.0388 58.4805L38.5854 58.1575L38.0388 57.8594L37.4922 58.1575Z" fill="#A9A9A9"/>
<path d="M35.7056 34.8585L35.2833 34.4609L35.1094 34.5603L35.656 34.8833L35.7056 34.8585Z" fill="#A9A9A9"/>
<path d="M36.2025 36.4466L35.656 36.1484L35.1094 36.4466L35.656 36.7696L36.2025 36.4466Z" fill="#A9A9A9"/>
<path d="M36.6725 35.7022L36.2502 35.3047L35.9023 35.5034L36.4489 35.8264L36.6725 35.7022Z" fill="#A9A9A9"/>
<path d="M36.2025 38.3372L35.656 38.0391L35.1094 38.3372L35.656 38.6602L36.2025 38.3372Z" fill="#A9A9A9"/>
<path d="M36.9955 37.3919L36.4489 37.0938L35.9023 37.3919L36.4489 37.7149L36.9955 37.3919Z" fill="#A9A9A9"/>
<path d="M36.2025 40.22L35.656 39.9219L35.1094 40.22L35.656 40.543L36.2025 40.22Z" fill="#A9A9A9"/>
<path d="M36.9955 39.2825L36.4489 38.9844L35.9023 39.2825L36.4489 39.6055L36.9955 39.2825Z" fill="#A9A9A9"/>
<path d="M36.2025 42.1106L35.656 41.8125L35.1094 42.1106L35.656 42.4336L36.2025 42.1106Z" fill="#A9A9A9"/>
<path d="M36.9955 41.1653L36.4489 40.8672L35.9023 41.1653L36.4489 41.4883L36.9955 41.1653Z" fill="#A9A9A9"/>
<path d="M36.2025 44.0013L35.656 43.7031L35.1094 44.0013L35.656 44.3242L36.2025 44.0013Z" fill="#A9A9A9"/>
<path d="M36.9955 43.0559L36.4489 42.7578L35.9023 43.0559L36.4489 43.3789L36.9955 43.0559Z" fill="#A9A9A9"/>
<path d="M36.2025 45.8919L35.656 45.5938L35.1094 45.8919L35.656 46.2149L36.2025 45.8919Z" fill="#A9A9A9"/>
<path d="M36.9955 44.9466L36.4489 44.6484L35.9023 44.9466L36.4489 45.2696L36.9955 44.9466Z" fill="#A9A9A9"/>
<path d="M36.2025 47.7747L35.656 47.4766L35.1094 47.7747L35.656 48.0977L36.2025 47.7747Z" fill="#A9A9A9"/>
<path d="M36.9955 46.8294L36.4489 46.5312L35.9023 46.8294L36.4489 47.1524L36.9955 46.8294Z" fill="#A9A9A9"/>
<path d="M36.2025 49.6653L35.656 49.3672L35.1094 49.6653L35.656 49.9883L36.2025 49.6653Z" fill="#A9A9A9"/>
<path d="M36.9955 48.72L36.4489 48.4219L35.9023 48.72L36.4489 49.043L36.9955 48.72Z" fill="#A9A9A9"/>
<path d="M36.2025 51.5481L35.656 51.25L35.1094 51.5481L35.656 51.8711L36.2025 51.5481Z" fill="#A9A9A9"/>
<path d="M36.9955 50.6106L36.4489 50.3125L35.9023 50.6106L36.4489 50.9336L36.9955 50.6106Z" fill="#A9A9A9"/>
<path d="M36.2025 53.4388L35.656 53.1406L35.1094 53.4388L35.656 53.7617L36.2025 53.4388Z" fill="#A9A9A9"/>
<path d="M36.9955 52.5013L36.4489 52.2031L35.9023 52.5013L36.4489 52.8242L36.9955 52.5013Z" fill="#A9A9A9"/>
<path d="M36.2025 55.3294L35.656 55.0312L35.1094 55.3294L35.656 55.6524L36.2025 55.3294Z" fill="#A9A9A9"/>
<path d="M36.9955 54.3841L36.4489 54.0859L35.9023 54.3841L36.4489 54.7071L36.9955 54.3841Z" fill="#A9A9A9"/>
<path d="M35.1094 57.22L35.656 57.543L36.2025 57.22L35.656 56.9219L35.1094 57.22Z" fill="#A9A9A9"/>
<path d="M36.9955 56.2747L36.4489 55.9766L35.9023 56.2747L36.4489 56.5977L36.9955 56.2747Z" fill="#A9A9A9"/>
<path d="M36.3008 57.9339L36.9467 58.1327L36.4498 57.8594L36.3008 57.9339Z" fill="#A9A9A9"/>
<path d="M34.6107 34.556L34.0642 34.2578L33.5176 34.556L34.0642 34.8789L34.6107 34.556Z" fill="#A9A9A9"/>
<path d="M34.6107 36.4466L34.0642 36.1484L33.5176 36.4466L34.0642 36.7696L34.6107 36.4466Z" fill="#A9A9A9"/>
<path d="M35.4076 35.5013L34.861 35.2031L34.3145 35.5013L34.861 35.8242L35.4076 35.5013Z" fill="#A9A9A9"/>
<path d="M34.6107 38.3372L34.0642 38.0391L33.5176 38.3372L34.0642 38.6602L34.6107 38.3372Z" fill="#A9A9A9"/>
<path d="M35.4076 37.3919L34.861 37.0938L34.3145 37.3919L34.861 37.7149L35.4076 37.3919Z" fill="#A9A9A9"/>
<path d="M34.6107 40.22L34.0642 39.9219L33.5176 40.22L34.0642 40.543L34.6107 40.22Z" fill="#A9A9A9"/>
<path d="M35.4076 39.2825L34.861 38.9844L34.3145 39.2825L34.861 39.6055L35.4076 39.2825Z" fill="#A9A9A9"/>
<path d="M34.6107 42.1106L34.0642 41.8125L33.5176 42.1106L34.0642 42.4336L34.6107 42.1106Z" fill="#A9A9A9"/>
<path d="M35.4076 41.1653L34.861 40.8672L34.3145 41.1653L34.861 41.4883L35.4076 41.1653Z" fill="#A9A9A9"/>
<path d="M34.6107 44.0013L34.0642 43.7031L33.5176 44.0013L34.0642 44.3242L34.6107 44.0013Z" fill="#A9A9A9"/>
<path d="M35.4076 43.0559L34.861 42.7578L34.3145 43.0559L34.861 43.3789L35.4076 43.0559Z" fill="#A9A9A9"/>
<path d="M34.6109 45.8919L34.0643 45.5938L33.5178 45.8919L34.0643 46.2149L34.6109 45.8919Z" fill="#A9A9A9"/>
<path d="M35.4076 44.9466L34.861 44.6484L34.3145 44.9466L34.861 45.2696L35.4076 44.9466Z" fill="#A9A9A9"/>
<path d="M34.6109 47.7747L34.0643 47.4766L33.5178 47.7747L34.0643 48.0977L34.6109 47.7747Z" fill="#A9A9A9"/>
<path d="M35.4076 46.8294L34.861 46.5312L34.3145 46.8294L34.861 47.1524L35.4076 46.8294Z" fill="#A9A9A9"/>
<path d="M34.6109 49.6653L34.0643 49.3672L33.5178 49.6653L34.0643 49.9883L34.6109 49.6653Z" fill="#A9A9A9"/>
<path d="M35.4076 48.72L34.861 48.4219L34.3145 48.72L34.861 49.043L35.4076 48.72Z" fill="#A9A9A9"/>
<path d="M34.6109 51.5481L34.0643 51.25L33.5178 51.5481L34.0643 51.8711L34.6109 51.5481Z" fill="#A9A9A9"/>
<path d="M35.4076 50.6106L34.861 50.3125L34.3145 50.6106L34.861 50.9336L35.4076 50.6106Z" fill="#A9A9A9"/>
<path d="M34.6109 53.4388L34.0643 53.1406L33.5178 53.4388L34.0643 53.7617L34.6109 53.4388Z" fill="#A9A9A9"/>
<path d="M35.4076 52.5013L34.861 52.2031L34.3145 52.5013L34.861 52.8242L35.4076 52.5013Z" fill="#A9A9A9"/>
<path d="M34.861 55.9766L34.3145 56.2747L34.861 56.5977L35.4076 56.2747L34.861 55.9766Z" fill="#A9A9A9"/>
<path d="M34.6109 55.3294L34.0643 55.0312L33.5178 55.3294L34.0643 55.6524L34.6109 55.3294Z" fill="#A9A9A9"/>
<path d="M35.4076 54.3841L34.861 54.0859L34.3145 54.3841L34.861 54.7071L35.4076 54.3841Z" fill="#A9A9A9"/>
<path d="M33.666 57.1455L34.3865 57.3691L34.6101 57.22L34.0635 56.9219L33.666 57.1455Z" fill="#A9A9A9"/>
<path d="M32.8969 32.625L32.6484 32.8983L33.0211 32.6747L32.8969 32.625Z" fill="#A9A9A9"/>
<path d="M33.0189 34.556L32.4724 34.2578L31.9258 34.556L32.4724 34.8789L33.0189 34.556Z" fill="#A9A9A9"/>
<path d="M33.8158 33.6106L33.2692 33.3125L32.7227 33.6106L33.2692 33.9336L33.8158 33.6106Z" fill="#A9A9A9"/>
<path d="M33.0189 36.4466L32.4724 36.1484L31.9258 36.4466L32.4724 36.7696L33.0189 36.4466Z" fill="#A9A9A9"/>
<path d="M33.8158 35.5013L33.2692 35.2031L32.7227 35.5013L33.2692 35.8242L33.8158 35.5013Z" fill="#A9A9A9"/>
<path d="M33.0189 38.3372L32.4724 38.0391L31.9258 38.3372L32.4724 38.6602L33.0189 38.3372Z" fill="#A9A9A9"/>
<path d="M33.8158 37.3919L33.2692 37.0938L32.7227 37.3919L33.2692 37.7149L33.8158 37.3919Z" fill="#A9A9A9"/>
<path d="M33.0189 40.22L32.4724 39.9219L31.9258 40.22L32.4724 40.543L33.0189 40.22Z" fill="#A9A9A9"/>
<path d="M33.8158 39.2825L33.2692 38.9844L32.7227 39.2825L33.2692 39.6055L33.8158 39.2825Z" fill="#A9A9A9"/>
<path d="M33.0189 42.1106L32.4724 41.8125L31.9258 42.1106L32.4724 42.4336L33.0189 42.1106Z" fill="#A9A9A9"/>
<path d="M33.8158 41.1653L33.2692 40.8672L32.7227 41.1653L33.2692 41.4883L33.8158 41.1653Z" fill="#A9A9A9"/>
<path d="M33.0189 44.0013L32.4724 43.7031L31.9258 44.0013L32.4724 44.3242L33.0189 44.0013Z" fill="#A9A9A9"/>
<path d="M33.8158 43.0559L33.2692 42.7578L32.7227 43.0559L33.2692 43.3789L33.8158 43.0559Z" fill="#A9A9A9"/>
<path d="M33.0189 45.8919L32.4724 45.5938L31.9258 45.8919L32.4724 46.2149L33.0189 45.8919Z" fill="#A9A9A9"/>
<path d="M33.8158 44.9466L33.2692 44.6484L32.7227 44.9466L33.2692 45.2696L33.8158 44.9466Z" fill="#A9A9A9"/>
<path d="M33.0189 47.7747L32.4724 47.4766L31.9258 47.7747L32.4724 48.0977L33.0189 47.7747Z" fill="#A9A9A9"/>
<path d="M33.8158 46.8294L33.2692 46.5312L32.7227 46.8294L33.2692 47.1524L33.8158 46.8294Z" fill="#A9A9A9"/>
<path d="M33.0189 49.6653L32.4724 49.3672L31.9258 49.6653L32.4724 49.9883L33.0189 49.6653Z" fill="#A9A9A9"/>
<path d="M33.8158 48.72L33.2692 48.4219L32.7227 48.72L33.2692 49.043L33.8158 48.72Z" fill="#A9A9A9"/>
<path d="M33.0189 51.5481L32.4724 51.25L31.9258 51.5481L32.4724 51.8711L33.0189 51.5481Z" fill="#A9A9A9"/>
<path d="M33.8158 50.6106L33.2692 50.3125L32.7227 50.6106L33.2692 50.9336L33.8158 50.6106Z" fill="#A9A9A9"/>
<path d="M33.0189 53.4388L32.4724 53.1406L31.9258 53.4388L32.4724 53.7617L33.0189 53.4388Z" fill="#A9A9A9"/>
<path d="M33.8158 52.5013L33.2692 52.2031L32.7227 52.5013L33.2692 52.8242L33.8158 52.5013Z" fill="#A9A9A9"/>
<path d="M33.2692 55.9766L32.7227 56.2747L33.2692 56.5977L33.8158 56.2747L33.2692 55.9766Z" fill="#A9A9A9"/>
<path d="M32.4724 55.0312L31.9258 55.3294L32.4724 55.6524L33.0189 55.3294L32.4724 55.0312Z" fill="#A9A9A9"/>
<path d="M33.8158 54.3841L33.2692 54.0859L32.7227 54.3841L33.2692 54.7071L33.8158 54.3841Z" fill="#A9A9A9"/>
<path d="M31.2594 34.4609L30.8867 34.8833L31.4333 34.5603L31.2594 34.4609Z" fill="#A9A9A9"/>
<path d="M32.0788 33.5391L31.7559 33.8869L32.2279 33.6136L32.0788 33.5391Z" fill="#A9A9A9"/>
<path d="M31.4311 36.4466L30.8845 36.1484L30.3379 36.4466L30.8845 36.7696L31.4311 36.4466Z" fill="#A9A9A9"/>
<path d="M32.2279 35.5013L31.6813 35.2031L31.1348 35.5013L31.6813 35.8242L32.2279 35.5013Z" fill="#A9A9A9"/>
<path d="M31.4311 38.3372L30.8845 38.0391L30.3379 38.3372L30.8845 38.6602L31.4311 38.3372Z" fill="#A9A9A9"/>
<path d="M32.2279 37.3919L31.6813 37.0938L31.1348 37.3919L31.6813 37.7149L32.2279 37.3919Z" fill="#A9A9A9"/>
<path d="M31.4311 40.22L30.8845 39.9219L30.3379 40.22L30.8845 40.543L31.4311 40.22Z" fill="#A9A9A9"/>
<path d="M32.2279 39.2825L31.6813 38.9844L31.1348 39.2825L31.6813 39.6055L32.2279 39.2825Z" fill="#A9A9A9"/>
<path d="M31.4311 42.1106L30.8845 41.8125L30.3379 42.1106L30.8845 42.4336L31.4311 42.1106Z" fill="#A9A9A9"/>
<path d="M32.2279 41.1653L31.6813 40.8672L31.1348 41.1653L31.6813 41.4883L32.2279 41.1653Z" fill="#A9A9A9"/>
<path d="M31.4311 44.0013L30.8845 43.7031L30.3379 44.0013L30.8845 44.3242L31.4311 44.0013Z" fill="#A9A9A9"/>
<path d="M31.6813 43.3789L32.2279 43.0559L31.6813 42.7578L31.1348 43.0559L31.6813 43.3789Z" fill="#A9A9A9"/>
<path d="M31.4311 45.8919L30.8845 45.5938L30.3379 45.8919L30.8845 46.2149L31.4311 45.8919Z" fill="#A9A9A9"/>
<path d="M32.2279 44.9466L31.6813 44.6484L31.1348 44.9466L31.6813 45.2696L32.2279 44.9466Z" fill="#A9A9A9"/>
<path d="M31.4311 47.7747L30.8845 47.4766L30.3379 47.7747L30.8845 48.0977L31.4311 47.7747Z" fill="#A9A9A9"/>
<path d="M31.6813 47.1524L32.2279 46.8294L31.6813 46.5312L31.1348 46.8294L31.6813 47.1524Z" fill="#A9A9A9"/>
<path d="M31.4311 49.6653L30.8845 49.3672L30.3379 49.6653L30.8845 49.9883L31.4311 49.6653Z" fill="#A9A9A9"/>
<path d="M32.2279 48.72L31.6813 48.4219L31.1348 48.72L31.6813 49.043L32.2279 48.72Z" fill="#A9A9A9"/>
<path d="M31.4311 51.5481L30.8845 51.25L30.3379 51.5481L30.8845 51.8711L31.4311 51.5481Z" fill="#A9A9A9"/>
<path d="M31.6813 50.9336L32.2279 50.6106L31.6813 50.3125L31.1348 50.6106L31.6813 50.9336Z" fill="#A9A9A9"/>
<path d="M31.6777 54.0859L31.2305 54.3344L31.951 54.5331L32.2243 54.3841L31.6777 54.0859Z" fill="#A9A9A9"/>
<path d="M30.8845 53.1406L30.3379 53.4388L30.8845 53.7617L31.4311 53.4388L30.8845 53.1406Z" fill="#A9A9A9"/>
<path d="M32.2279 52.5013L31.6813 52.2031L31.1348 52.5013L31.6813 52.8242L32.2279 52.5013Z" fill="#A9A9A9"/>
<path d="M31.1348 56.2747L31.4329 56.4486L31.7559 56.548L32.2279 56.2747L31.6813 55.9766L31.1348 56.2747Z" fill="#A9A9A9"/>
<path d="M29.8404 36.4523L29.6168 36.3281L29.2441 36.7505L29.2938 36.7753L29.8404 36.4523Z" fill="#A9A9A9"/>
<path d="M30.6339 35.5056L30.4352 35.4062L30.0625 35.8038L30.0873 35.8286L30.6339 35.5056Z" fill="#A9A9A9"/>
<path d="M29.8393 38.3372L29.2927 38.0391L28.7461 38.3372L29.2927 38.6602L29.8393 38.3372Z" fill="#A9A9A9"/>
<path d="M30.6361 37.3919L30.0896 37.0938L29.543 37.3919L30.0896 37.7149L30.6361 37.3919Z" fill="#A9A9A9"/>
<path d="M29.8393 40.22L29.2927 39.9219L28.7461 40.22L29.2927 40.543L29.8393 40.22Z" fill="#A9A9A9"/>
<path d="M30.6361 39.2825L30.0896 38.9844L29.543 39.2825L30.0896 39.6055L30.6361 39.2825Z" fill="#A9A9A9"/>
<path d="M29.8393 42.1106L29.2927 41.8125L28.7461 42.1106L29.2927 42.4336L29.8393 42.1106Z" fill="#A9A9A9"/>
<path d="M30.6361 41.1653L30.0896 40.8672L29.543 41.1653L30.0896 41.4883L30.6361 41.1653Z" fill="#A9A9A9"/>
<path d="M29.8393 44.0013L29.2927 43.7031L28.7461 44.0013L29.2927 44.3242L29.8393 44.0013Z" fill="#A9A9A9"/>
<path d="M30.6361 43.0559L30.0896 42.7578L29.543 43.0559L30.0896 43.3789L30.6361 43.0559Z" fill="#A9A9A9"/>
<path d="M29.8393 45.8919L29.2927 45.5938L28.7461 45.8919L29.2927 46.2149L29.8393 45.8919Z" fill="#A9A9A9"/>
<path d="M30.6361 44.9466L30.0896 44.6484L29.543 44.9466L30.0896 45.2696L30.6361 44.9466Z" fill="#A9A9A9"/>
<path d="M29.8393 47.7747L29.2927 47.4766L28.7461 47.7747L29.2927 48.0977L29.8393 47.7747Z" fill="#A9A9A9"/>
<path d="M30.6361 46.8294L30.0896 46.5312L29.543 46.8294L30.0896 47.1524L30.6361 46.8294Z" fill="#A9A9A9"/>
<path d="M29.8393 49.6653L29.2927 49.3672L28.7461 49.6653L29.2927 49.9883L29.8393 49.6653Z" fill="#A9A9A9"/>
<path d="M30.6361 48.72L30.0896 48.4219L29.543 48.72L30.0896 49.043L30.6361 48.72Z" fill="#A9A9A9"/>
<path d="M30.0896 52.2031L29.543 52.5013L30.0896 52.8242L30.6361 52.5013L30.0896 52.2031Z" fill="#A9A9A9"/>
<path d="M29.8393 51.5481L29.2927 51.25L28.7461 51.5481L29.2927 51.8711L29.8393 51.5481Z" fill="#A9A9A9"/>
<path d="M30.6361 50.6106L30.0896 50.3125L29.543 50.6106L30.0896 50.9336L30.6361 50.6106Z" fill="#A9A9A9"/>
<path d="M28.7461 53.4388L29.2927 53.7617L29.8393 53.4388L29.2927 53.1406L28.7461 53.4388Z" fill="#A9A9A9"/>
<path d="M28.2489 38.3366L27.9508 38.1875L27.5781 38.585L27.7023 38.6596L28.2489 38.3366Z" fill="#A9A9A9"/>
<path d="M29.0449 37.3913L28.7717 37.2422L28.4238 37.6646L28.4984 37.7142L29.0449 37.3913Z" fill="#A9A9A9"/>
<path d="M28.2514 40.22L27.7048 39.9219L27.1582 40.22L27.7048 40.543L28.2514 40.22Z" fill="#A9A9A9"/>
<path d="M29.0443 39.2825L28.4978 38.9844L27.9512 39.2825L28.4978 39.6055L29.0443 39.2825Z" fill="#A9A9A9"/>
<path d="M28.2514 42.1106L27.7048 41.8125L27.1582 42.1106L27.7048 42.4336L28.2514 42.1106Z" fill="#A9A9A9"/>
<path d="M29.0443 41.1653L28.4978 40.8672L27.9512 41.1653L28.4978 41.4883L29.0443 41.1653Z" fill="#A9A9A9"/>
<path d="M28.2514 44.0013L27.7048 43.7031L27.1582 44.0013L27.7048 44.3242L28.2514 44.0013Z" fill="#A9A9A9"/>
<path d="M29.0443 43.0559L28.4978 42.7578L27.9512 43.0559L28.4978 43.3789L29.0443 43.0559Z" fill="#A9A9A9"/>
<path d="M28.2514 45.8919L27.7048 45.5938L27.1582 45.8919L27.7048 46.2149L28.2514 45.8919Z" fill="#A9A9A9"/>
<path d="M29.0443 44.9466L28.4978 44.6484L27.9512 44.9466L28.4978 45.2696L29.0443 44.9466Z" fill="#A9A9A9"/>
<path d="M28.2514 47.7747L27.7048 47.4766L27.1582 47.7747L27.7048 48.0977L28.2514 47.7747Z" fill="#A9A9A9"/>
<path d="M29.0443 46.8294L28.4978 46.5312L27.9512 46.8294L28.4978 47.1524L29.0443 46.8294Z" fill="#A9A9A9"/>
<path d="M28.2514 49.6653L27.7048 49.3672L27.1582 49.6653L27.7048 49.9883L28.2514 49.6653Z" fill="#A9A9A9"/>
<path d="M29.0443 48.72L28.4978 48.4219L27.9512 48.72L28.4978 49.043L29.0443 48.72Z" fill="#A9A9A9"/>
<path d="M28.4978 52.1953L27.9512 52.4934L28.4978 52.8164L29.0443 52.4934L28.4978 52.1953Z" fill="#A9A9A9"/>
<path d="M28.2514 51.5481L27.7048 51.25L27.1582 51.5481L27.7048 51.8711L28.2514 51.5481Z" fill="#A9A9A9"/>
<path d="M29.0443 50.6106L28.4978 50.3125L27.9512 50.6106L28.4978 50.9336L29.0443 50.6106Z" fill="#A9A9A9"/>
<path d="M27.4082 53.2897L28.1535 53.4885L28.2529 53.4388L27.7063 53.1406L27.4082 53.2897Z" fill="#A9A9A9"/>
<path d="M26.66 40.2222L26.3121 40.0234L25.9395 40.4458L26.1134 40.5452L26.66 40.2222Z" fill="#A9A9A9"/>
<path d="M27.4554 39.2833L27.1324 39.1094L26.7598 39.5317L26.9088 39.6063L27.4554 39.2833Z" fill="#A9A9A9"/>
<path d="M26.6615 42.1106L26.1149 41.8125L25.5684 42.1106L26.1149 42.4336L26.6615 42.1106Z" fill="#A9A9A9"/>
<path d="M27.4564 41.1653L26.9099 40.8672L26.3633 41.1653L26.9099 41.4883L27.4564 41.1653Z" fill="#A9A9A9"/>
<path d="M26.6615 44.0013L26.1149 43.7031L25.5684 44.0013L26.1149 44.3242L26.6615 44.0013Z" fill="#A9A9A9"/>
<path d="M26.9099 43.3789L27.4564 43.0559L26.9099 42.7578L26.3633 43.0559L26.9099 43.3789Z" fill="#A9A9A9"/>
<path d="M26.6615 45.8919L26.1149 45.5938L25.5684 45.8919L26.1149 46.2149L26.6615 45.8919Z" fill="#A9A9A9"/>
<path d="M27.4564 44.9466L26.9099 44.6484L26.3633 44.9466L26.9099 45.2696L27.4564 44.9466Z" fill="#A9A9A9"/>
<path d="M26.6615 47.7747L26.1149 47.4766L25.5684 47.7747L26.1149 48.0977L26.6615 47.7747Z" fill="#A9A9A9"/>
<path d="M26.9099 47.1524L27.4564 46.8294L26.9099 46.5312L26.3633 46.8294L26.9099 47.1524Z" fill="#A9A9A9"/>
<path d="M26.6615 49.6653L26.1149 49.3672L25.5684 49.6653L26.1149 49.9883L26.6615 49.6653Z" fill="#A9A9A9"/>
<path d="M27.4564 48.72L26.9099 48.4219L26.3633 48.72L26.9099 49.043L27.4564 48.72Z" fill="#A9A9A9"/>
<path d="M26.9099 52.1953L26.3633 52.4934L26.9099 52.8164L27.4564 52.4934L26.9099 52.1953Z" fill="#A9A9A9"/>
<path d="M26.1149 51.25L25.5684 51.5481L26.1149 51.8711L26.6615 51.5481L26.1149 51.25Z" fill="#A9A9A9"/>
<path d="M26.9099 50.9336L27.4564 50.6106L26.9099 50.3125L26.3633 50.6106L26.9099 50.9336Z" fill="#A9A9A9"/>
<path d="M25.0729 42.1142L24.6754 41.8906L24.3027 42.313L24.5263 42.4372L25.0729 42.1142Z" fill="#A9A9A9"/>
<path d="M25.8664 41.1675L25.4937 40.9688L25.121 41.3911L25.3198 41.4905L25.8664 41.1675Z" fill="#A9A9A9"/>
<path d="M25.0697 44.0013L24.5231 43.7031L23.9766 44.0013L24.5231 44.3242L25.0697 44.0013Z" fill="#A9A9A9"/>
<path d="M25.8647 43.0559L25.3181 42.7578L24.7715 43.0559L25.3181 43.3789L25.8647 43.0559Z" fill="#A9A9A9"/>
<path d="M25.0697 45.8919L24.5231 45.5938L23.9766 45.8919L24.5231 46.2149L25.0697 45.8919Z" fill="#A9A9A9"/>
<path d="M25.8647 44.9466L25.3181 44.6484L24.7715 44.9466L25.3181 45.2696L25.8647 44.9466Z" fill="#A9A9A9"/>
<path d="M25.0697 47.7747L24.5231 47.4766L23.9766 47.7747L24.5231 48.0977L25.0697 47.7747Z" fill="#A9A9A9"/>
<path d="M25.8648 46.8294L25.3183 46.5312L24.7717 46.8294L25.3183 47.1524L25.8648 46.8294Z" fill="#A9A9A9"/>
<path d="M25.0697 49.6653L24.5231 49.3672L23.9766 49.6653L24.5231 49.9883L25.0697 49.6653Z" fill="#A9A9A9"/>
<path d="M25.8648 48.72L25.3183 48.4219L24.7717 48.72L25.3183 49.043L25.8648 48.72Z" fill="#A9A9A9"/>
<path d="M24.9704 52.3941L24.7717 52.4934L25.045 52.6674L25.4176 52.7667L25.8648 52.4934L25.3183 52.1953L24.9704 52.3941Z" fill="#A9A9A9"/>
<path d="M24.5231 51.25L23.9766 51.5481L24.5231 51.8711L25.0697 51.5481L24.5231 51.25Z" fill="#A9A9A9"/>
<path d="M25.8648 50.6106L25.3183 50.3125L24.7717 50.6106L25.3183 50.9336L25.8648 50.6106Z" fill="#A9A9A9"/>
<path d="M23.48 43.9984L23.0328 43.75L22.6602 44.1724L22.9334 44.3214L23.48 43.9984Z" fill="#A9A9A9"/>
<path d="M24.2735 43.0531L23.8512 42.8047L23.4785 43.227L23.727 43.3761L24.2735 43.0531Z" fill="#A9A9A9"/>
<path d="M23.4818 45.8919L22.9353 45.5938L22.3887 45.8919L22.9353 46.2149L23.4818 45.8919Z" fill="#A9A9A9"/>
<path d="M24.2768 44.9466L23.7302 44.6484L23.1836 44.9466L23.7302 45.2696L24.2768 44.9466Z" fill="#A9A9A9"/>
<path d="M23.4818 47.7747L22.9353 47.4766L22.3887 47.7747L22.9353 48.0977L23.4818 47.7747Z" fill="#A9A9A9"/>
<path d="M23.7302 47.1524L24.2768 46.8294L23.7302 46.5312L23.1836 46.8294L23.7302 47.1524Z" fill="#A9A9A9"/>
<path d="M23.4818 49.6653L22.9353 49.3672L22.3887 49.6653L22.9353 49.9883L23.4818 49.6653Z" fill="#A9A9A9"/>
<path d="M24.2768 48.72L23.7302 48.4219L23.1836 48.72L23.7302 49.043L24.2768 48.72Z" fill="#A9A9A9"/>
<path d="M23.5566 52.2698L24.1529 52.4189L23.7305 52.1953L23.5566 52.2698Z" fill="#A9A9A9"/>
<path d="M22.3887 51.5481L22.9353 51.8711L23.4818 51.5481L22.9353 51.25L22.3887 51.5481Z" fill="#A9A9A9"/>
<path d="M23.7302 50.9336L24.2768 50.6106L23.7302 50.3125L23.1836 50.6106L23.7302 50.9336Z" fill="#A9A9A9"/>
<path d="M21.8886 45.8919L21.3668 45.5938L20.9941 46.0161L21.342 46.2149L21.8886 45.8919Z" fill="#A9A9A9"/>
<path d="M22.6846 44.9452L22.1877 44.6719L21.8398 45.0942L22.138 45.2681L22.6846 44.9452Z" fill="#A9A9A9"/>
<path d="M21.89 47.7747L21.3435 47.4766L20.7969 47.7747L21.3435 48.0977L21.89 47.7747Z" fill="#A9A9A9"/>
<path d="M22.685 46.8294L22.1384 46.5312L21.5918 46.8294L22.1384 47.1524L22.685 46.8294Z" fill="#A9A9A9"/>
<path d="M21.89 49.6653L21.3435 49.3672L20.7969 49.6653L21.3435 49.9883L21.89 49.6653Z" fill="#A9A9A9"/>
<path d="M22.685 48.72L22.1384 48.4219L21.5918 48.72L22.1384 49.043L22.685 48.72Z" fill="#A9A9A9"/>
<path d="M20.7969 51.5481L20.8466 51.5978L21.5422 51.7717L21.89 51.5481L21.3435 51.25L20.7969 51.5481Z" fill="#A9A9A9"/>
<path d="M22.685 50.6106L22.1384 50.3125L21.5918 50.6106L22.1384 50.9336L22.685 50.6106Z" fill="#A9A9A9"/>
<path d="M20.2996 47.7747L19.753 47.4766L19.6784 47.5014L19.3555 47.8741L19.753 48.0977L20.2996 47.7747Z" fill="#A9A9A9"/>
<path d="M21.095 46.8294L20.5485 46.5312L20.1758 46.9536L20.5485 47.1524L21.095 46.8294Z" fill="#A9A9A9"/>
<path d="M20.3019 49.6653L19.7553 49.3672L19.2087 49.6653L19.7553 49.9883L20.3019 49.6653Z" fill="#A9A9A9"/>
<path d="M21.0932 48.72L20.5466 48.4219L20 48.72L20.5466 49.043L21.0932 48.72Z" fill="#A9A9A9"/>
<path d="M19.6543 51.2997L19.9773 51.3742L19.7537 51.25L19.6543 51.2997Z" fill="#A9A9A9"/>
<path d="M21.0932 50.6106L20.5466 50.3125L20 50.6106L20.5466 50.9336L21.0932 50.6106Z" fill="#A9A9A9"/>
<path d="M18.9587 50.3125L18.4121 50.6106L18.9587 50.9336L19.5053 50.6106L18.9587 50.3125Z" fill="#A9A9A9"/>
<path d="M18.166 49.3672L17.9175 49.4914L17.7188 49.7399L18.166 49.9883L18.7125 49.6653L18.166 49.3672Z" fill="#A9A9A9"/>
<path d="M19.5061 48.72L18.9595 48.4219L18.8105 48.4964L18.5372 48.7945L18.9595 49.043L19.5061 48.72Z" fill="#A9A9A9"/>
<path d="M17.0436 50.48L16.8945 50.6291C17.1181 50.6788 17.3417 50.7285 17.5902 50.7781L17.9132 50.6042L17.3666 50.2812L17.0436 50.48Z" fill="#A9A9A9"/>
<path d="M45.1952 12.7188L56.2759 45.8119L37.866 56.4455L26.7852 23.3523L45.1952 12.7188Z" fill="white"/>
<path d="M35.9555 13.64L37.8437 12.5469L39.0859 16.2487L26.7878 23.3543L19.4337 23.1804L35.9555 13.64Z" fill="#1A1A1A"/>
<path d="M26.7878 23.3614L37.8685 56.4546L30.5145 56.2807L19.4337 23.1875L26.7878 23.3614ZM32.7505 52.0819C33.4461 52.1068 33.7443 51.2869 33.4213 50.2931C33.0983 49.2993 32.2536 48.4546 31.5331 48.4546C30.8374 48.4297 30.5393 49.2248 30.8623 50.2434C31.2101 51.2372 32.0548 52.0571 32.7505 52.0819Z" fill="white"/>
<path d="M35.9534 9.76562V13.6414L19.4317 23.1818L26.6615 44.747L16.6739 50.511V20.8961L35.9534 9.76562Z" fill="#626262"/>
<path d="M33.4191 50.2916C33.7669 51.2854 33.4688 52.1053 32.7483 52.0805C32.0526 52.0556 31.2079 51.2357 30.8601 50.2419C30.5122 49.2482 30.8104 48.4531 31.5309 48.4531C32.2514 48.4531 33.0713 49.2978 33.4191 50.2916Z" fill="#1A1A1A"/>
<path d="M33.2955 11.3115L16.6743 20.9016L11.1837 17.7463L27.8048 8.15625L33.2955 11.3115Z" fill="white"/>
<path d="M27.8048 8.15106L11.1837 17.7411L8.52533 16.2007L27.8048 5.07031V8.15106Z" fill="#1A1A1A"/>
<path d="M25.147 6.6084L8.5259 16.1985L3.03522 13.0432L19.6812 3.45312L25.147 6.6084Z" fill="white"/>
<path d="M19.6565 3.45575L3.0354 13.0458L0.377014 11.5054L19.6565 0.375V3.45575Z" fill="#1A1A1A"/>
<path d="M16.6745 20.8988V50.4888L8.52545 45.7932V16.2031L16.6745 20.8988ZM13.9913 43.5075C13.9913 42.6131 13.3702 41.5199 12.5751 41.0727C11.805 40.6255 11.159 40.9982 11.159 41.8926C11.159 42.787 11.7801 43.8801 12.5751 44.3273C13.3702 44.7746 13.9913 44.4267 13.9913 43.5075Z" fill="white"/>
<path d="M12.5998 41.0723C13.37 41.5195 14.016 42.6127 14.016 43.5071C14.016 44.4015 13.3948 44.7742 12.5998 44.327C11.8296 43.8798 11.1837 42.7866 11.1837 41.8922C11.1837 40.9978 11.8048 40.6251 12.5998 41.0723Z" fill="#1A1A1A"/>
<path d="M8.52608 16.2035V45.7935L0.377014 41.0979V11.5078L8.52608 16.2035ZM5.8677 38.8122C5.8677 37.9177 5.24658 36.8246 4.45155 36.3774C3.68136 35.9302 3.0354 36.3028 3.0354 37.1973C3.0354 38.0917 3.65652 39.1848 4.45155 39.632C5.22173 40.0792 5.8677 39.7066 5.8677 38.8122Z" fill="white"/>
<path d="M4.45137 36.377C5.22155 36.8242 5.86752 37.9174 5.86752 38.8118C5.86752 39.7062 5.2464 40.0789 4.45137 39.6317C3.68118 39.1845 3.03522 38.0913 3.03522 37.1969C3.03522 36.3025 3.68118 35.9298 4.45137 36.377Z" fill="#1A1A1A"/>
<path d="M8.52571 46.1871C8.45117 46.1871 8.40148 46.1623 8.35179 46.1374L0.202725 41.4169C0.0785014 41.3672 0.00396729 41.243 0.00396729 41.0939V11.5039C0.00396729 11.3797 0.0785014 11.2554 0.202725 11.1809C0.326949 11.1064 0.451172 11.1064 0.575396 11.1809L8.69962 15.8766C8.87353 15.9759 8.94807 16.1995 8.82384 16.3734C8.72446 16.5474 8.50086 16.6219 8.32695 16.4977L0.749309 12.1498V40.8952L8.69962 45.4915C8.87353 45.5908 8.94807 45.8144 8.82384 45.9884C8.77415 46.1126 8.64993 46.1871 8.52571 46.1871Z" fill="#1A1A1A"/>
<path d="M5.07211 40.1941C4.82366 40.1941 4.52552 40.1195 4.25223 39.9456C3.35782 39.4239 2.66217 38.2065 2.66217 37.1879C2.66217 36.6164 2.88577 36.1692 3.25844 35.9456C3.65596 35.722 4.12801 35.7469 4.6249 36.045C5.51931 36.5667 6.21497 37.7593 6.21497 38.8028C6.21497 39.3742 5.99136 39.8214 5.61869 40.045C5.46962 40.1444 5.27087 40.1941 5.07211 40.1941ZM3.82987 36.5419C3.75534 36.5419 3.70565 36.5667 3.65596 36.5916C3.50689 36.6661 3.43236 36.8897 3.43236 37.1879C3.43236 37.958 3.97894 38.927 4.64975 39.2997C4.8982 39.4487 5.1218 39.4736 5.27087 39.399C5.41993 39.3245 5.49447 39.1009 5.49447 38.8028C5.49447 38.0326 4.92304 37.0636 4.27708 36.691C4.10316 36.5916 3.9541 36.5419 3.82987 36.5419Z" fill="#1A1A1A"/>
<path d="M0.377721 11.8742C0.253497 11.8742 0.129274 11.7996 0.0547396 11.6754C-0.0446393 11.5015 0.00505015 11.2779 0.178963 11.1785L19.4833 0.0480881C19.6075 -0.026446 19.7318 -0.026446 19.856 0.0480881C19.9802 0.122622 20.0547 0.246846 20.0547 0.371069V3.45181C20.0547 3.65057 19.8808 3.82449 19.6821 3.82449C19.4833 3.82449 19.3094 3.65057 19.3094 3.45181V1.01703L0.576479 11.8245C0.501945 11.8493 0.452255 11.8742 0.377721 11.8742Z" fill="#1A1A1A"/>
<path d="M3.0358 13.4119C2.91158 13.4119 2.78735 13.3374 2.71282 13.2132C2.61344 13.0393 2.66313 12.8157 2.83704 12.7163L19.4582 3.12621C19.5824 3.05168 19.7066 3.05168 19.8308 3.12621L25.3464 6.28149C25.5203 6.38087 25.5948 6.60447 25.4706 6.77839C25.3712 6.9523 25.1476 7.02683 24.9737 6.90261L19.6818 3.87155L3.23456 13.3622C3.16003 13.3871 3.11034 13.4119 3.0358 13.4119Z" fill="#1A1A1A"/>
<path d="M4.42742 32.1772C4.22866 32.1772 4.05475 32.0033 4.05475 31.8045V19.9039C4.05475 19.7052 4.22866 19.5312 4.42742 19.5312C4.62618 19.5312 4.80009 19.7052 4.80009 19.9039V31.8045C4.80009 32.0033 4.62618 32.1772 4.42742 32.1772Z" fill="#1A1A1A"/>
<path d="M16.6756 50.8824C16.601 50.8824 16.5513 50.8576 16.4768 50.8327L8.32772 46.1371C8.2035 46.0625 8.12897 45.9383 8.12897 45.8141V16.1992C8.12897 16.075 8.2035 15.9507 8.32772 15.8762C8.45195 15.8017 8.57617 15.8017 8.7004 15.8762L16.8495 20.5719C16.9737 20.6464 17.0482 20.7706 17.0482 20.8948V50.4849C17.0482 50.6091 16.9737 50.7334 16.8495 50.8079C16.7998 50.8576 16.7252 50.8824 16.6756 50.8824ZM8.89915 45.5905L16.3029 49.8638V21.1184L8.89915 16.8452V45.5905Z" fill="#1A1A1A"/>
<path d="M13.2205 44.8893C12.9721 44.8893 12.674 44.8147 12.4007 44.6408C11.5063 44.1191 10.8106 42.9017 10.8106 41.8831C10.8106 41.3116 11.0342 40.8644 11.4069 40.6408C11.7796 40.4172 12.2764 40.4669 12.7733 40.7402C13.6678 41.2619 14.3634 42.4545 14.3634 43.498C14.3634 44.0694 14.1398 44.5166 13.7671 44.7402C13.5932 44.8396 13.4193 44.8893 13.2205 44.8893ZM11.9535 41.2619C11.8789 41.2619 11.8292 41.2868 11.7796 41.3116C11.6305 41.3862 11.5559 41.6098 11.5559 41.9079C11.5559 42.6781 12.1025 43.647 12.7733 44.0197C13.0218 44.1688 13.2454 44.1936 13.3945 44.1191C13.5435 44.0445 13.6181 43.8209 13.6181 43.5228C13.6181 42.7526 13.0466 41.7837 12.4007 41.411C12.2516 41.3116 12.0777 41.2619 11.9535 41.2619Z" fill="#1A1A1A"/>
<path d="M8.52591 16.5695C8.40169 16.5695 8.27747 16.495 8.20293 16.3707C8.10355 16.1968 8.15324 15.9732 8.32716 15.8738L27.6067 4.7434C27.7309 4.66887 27.8551 4.66887 27.9793 4.7434C28.1036 4.81793 28.1781 4.94216 28.1781 5.06638V8.14713C28.1781 8.34588 28.0042 8.5198 27.8054 8.5198C27.6067 8.5198 27.4327 8.34588 27.4327 8.14713V5.71234L8.69983 16.5198C8.65014 16.5695 8.5756 16.5695 8.52591 16.5695Z" fill="#1A1A1A"/>
<path d="M11.1842 18.112C11.06 18.112 10.9358 18.0375 10.8613 17.9133C10.7619 17.7394 10.8116 17.5158 10.9855 17.4164L27.5818 7.85117C27.6066 7.82633 27.6066 7.82633 27.6314 7.82633C27.7308 7.77664 27.8799 7.77664 28.0041 7.82633L33.4948 10.9816C33.6687 11.081 33.7432 11.3046 33.619 11.4785C33.5196 11.6524 33.296 11.727 33.1221 11.6027L27.8302 8.54683L11.3582 18.0624C11.3085 18.112 11.2588 18.112 11.1842 18.112Z" fill="#1A1A1A"/>
<path d="M37.8691 56.8171L30.5151 56.6432C30.366 56.6432 30.217 56.5438 30.1673 56.3947L19.0865 23.3016C19.0368 23.1774 19.0617 23.0531 19.1362 22.9538C19.2107 22.8544 19.335 22.8047 19.4343 22.8047L26.7884 22.9786C26.9375 22.9786 27.0865 23.078 27.1362 23.227L38.217 56.3202C38.2666 56.4444 38.2418 56.5687 38.1673 56.668C38.0927 56.7674 37.9934 56.8171 37.8691 56.8171ZM30.7884 55.8979L37.3474 56.0469L26.5151 23.7239L19.9561 23.5749L30.7884 55.8979Z" fill="#1A1A1A"/>
<path d="M32.776 52.4457H32.7512C31.8816 52.4208 30.9127 51.5016 30.54 50.3339C30.2916 49.5885 30.3412 48.9177 30.6642 48.4953C30.8878 48.1972 31.2108 48.0481 31.5835 48.073C32.4282 48.0978 33.422 49.0171 33.7947 50.1599C34.0431 50.9053 33.9934 51.5761 33.6704 51.9985C33.4468 52.2966 33.1487 52.4457 32.776 52.4457ZM31.5089 48.8183C31.3847 48.8183 31.3102 48.868 31.2356 48.9425C31.1114 49.1165 31.0369 49.514 31.2356 50.1102C31.5338 51.0295 32.2791 51.7003 32.776 51.7003C32.9002 51.7003 32.9996 51.6506 33.0742 51.5761C33.1984 51.4022 33.2729 51.0047 33.0742 50.4084C32.7512 49.4891 32.0058 48.8183 31.5089 48.8183C31.5338 48.8183 31.5338 48.8183 31.5089 48.8183Z" fill="#1A1A1A"/>
<path d="M12.5759 36.8647C12.3771 36.8647 12.2032 36.6908 12.2032 36.492V24.5914C12.2032 24.3927 12.3771 24.2188 12.5759 24.2188C12.7746 24.2188 12.9485 24.3927 12.9485 24.5914V36.492C12.9485 36.7156 12.7746 36.8647 12.5759 36.8647Z" fill="#1A1A1A"/>
<path d="M29.8928 43.7234C29.7437 43.7234 29.5946 43.624 29.545 43.4749L25.0729 30.1582C24.9984 29.9594 25.1226 29.7607 25.2965 29.6861C25.4953 29.6116 25.694 29.7358 25.7686 29.9097L30.2406 43.2265C30.3151 43.4253 30.1909 43.624 30.017 43.6986C29.9673 43.7234 29.9176 43.7234 29.8928 43.7234Z" fill="#1A1A1A"/>
<path d="M16.6764 50.8853C16.5522 50.8853 16.428 50.8107 16.3534 50.6865C16.2541 50.5126 16.3038 50.289 16.4777 50.1896L26.4652 44.4257C26.6392 44.3263 26.8628 44.376 26.9621 44.5499C27.0615 44.7238 27.0118 44.9474 26.8379 45.0468L16.8503 50.8107C16.8007 50.8604 16.7261 50.8853 16.6764 50.8853Z" fill="#1A1A1A"/>
<path d="M16.6762 21.2896C16.5769 21.2896 16.5023 21.2648 16.4278 21.1903C16.2787 21.0412 16.2539 20.8176 16.4029 20.6685C16.4278 20.6437 16.4526 20.6188 16.5023 20.594L35.757 9.43871C35.8812 9.36418 36.0054 9.36418 36.1297 9.43871C36.2539 9.51325 36.3284 9.63747 36.3284 9.76169V13.6623C36.3284 13.8611 36.1545 14.035 35.9557 14.035C35.757 14.035 35.5831 13.8611 35.5831 13.6623V10.4325L16.8502 21.2151C16.8005 21.2648 16.7259 21.2896 16.6762 21.2896Z" fill="#1A1A1A"/>
<path d="M37.8665 56.8166C37.7423 56.8166 37.6181 56.7421 37.5436 56.6179C37.4442 56.444 37.4939 56.2204 37.6678 56.121L55.8293 45.6365L44.9721 13.2638L26.9597 23.6738C26.7858 23.7732 26.5622 23.7235 26.4628 23.5496C26.3634 23.3756 26.4131 23.152 26.587 23.0527L44.997 12.4191C45.0964 12.3694 45.2206 12.3446 45.32 12.3943C45.4193 12.444 45.4939 12.5185 45.5436 12.6179L56.6243 45.711C56.674 45.885 56.5995 46.0589 56.4504 46.1582L38.0405 56.7918C37.9908 56.7918 37.9162 56.8166 37.8665 56.8166Z" fill="#1A1A1A"/>
<path d="M19.4343 23.553C19.3101 23.553 19.1859 23.4785 19.1113 23.3542C19.0119 23.1803 19.0616 22.9567 19.2355 22.8573L37.6455 12.2238C37.7449 12.1741 37.8691 12.1493 37.9685 12.199C38.0678 12.2486 38.1424 12.3232 38.1921 12.4226L39.4343 16.1244C39.5088 16.3232 39.3846 16.5219 39.2107 16.5965C39.0119 16.671 38.8132 16.5468 38.7386 16.3729L37.6455 13.1182L19.6082 23.5033C19.5585 23.553 19.5088 23.553 19.4343 23.553Z" fill="#1A1A1A"/>
</g>
<defs>
<clipPath id="clip0_1494_13849">
<rect width="61.2174" height="60" fill="white"/>
</clipPath>
</defs>
</svg>
