<svg width="51" height="55" viewBox="0 0 51 55" fill="none" xmlns="http://www.w3.org/2000/svg">
<path d="M49.9734 22.3547V48.0297C49.9734 48.9297 49.6484 49.5547 49.1484 49.8547L45.3484 52.0547C45.8484 51.7547 46.1484 51.1297 46.1484 50.2547V24.5797C46.1484 22.7797 44.8734 20.5797 43.3234 19.6797L14.3984 2.97972C13.6234 2.52972 12.9234 2.47972 12.3984 2.77972L16.2484 0.579717C16.7484 0.279717 17.4734 0.329717 18.2484 0.779717L47.1484 17.4797C48.6984 18.3547 49.9734 20.5547 49.9734 22.3547Z" fill="white"/>
<path d="M46.1246 24.5813V50.2563C46.1246 51.1313 45.8246 51.7563 45.3246 52.0563C44.7996 52.3813 44.0746 52.3313 43.2996 51.8813L35.7996 47.5563L34.4746 54.5313L29.9996 44.2063L14.4246 35.2063C12.8746 34.3063 11.5996 32.1063 11.5996 30.3063V4.63128C11.5996 3.73128 11.9246 3.08128 12.4246 2.80628C12.9246 2.50628 13.6496 2.55628 14.4246 3.00628L43.3246 19.7063C44.8496 20.5813 46.1246 22.7813 46.1246 24.5813ZM40.8996 26.1313C40.8996 25.4563 40.4996 24.6813 39.9996 24.4063L26.4246 16.5563C25.9246 16.2563 25.5246 16.5813 25.5246 17.2313C25.5246 17.9063 25.9246 18.6813 26.4246 18.9563L39.9996 26.8063C40.4996 27.1063 40.8996 26.8063 40.8996 26.1313ZM40.8996 33.9563C40.8996 33.2813 40.4996 32.5063 39.9996 32.2313L26.4246 24.3813C25.9246 24.0813 25.5246 24.4063 25.5246 25.0563C25.5246 25.7313 25.9246 26.5063 26.4246 26.7813L39.9996 34.6313C40.4996 34.9313 40.8996 34.6313 40.8996 33.9563ZM40.8996 41.8063C40.8996 41.1313 40.4996 40.3563 39.9996 40.0813L26.4246 32.2313C25.9246 31.9313 25.5246 32.2563 25.5246 32.9063C25.5246 33.5813 25.9246 34.3563 26.4246 34.6313L39.9996 42.4813C40.4996 42.7813 40.8996 42.4563 40.8996 41.8063ZM21.7746 32.4563V29.6063L16.8246 26.7563V29.6063L21.7746 32.4563ZM21.7746 25.2313L19.2996 19.1063L16.8246 22.3813L21.7746 25.2313ZM21.3996 14.9813C21.3996 13.6563 20.4496 12.0063 19.2996 11.3563C18.1496 10.6813 17.1996 11.2313 17.1996 12.5563C17.1996 13.9063 18.1496 15.5313 19.2996 16.1813C20.4496 16.8563 21.3996 16.3313 21.3996 14.9813Z" fill="white"/>
<path d="M39.9984 24.3804C40.4984 24.6804 40.8984 25.4554 40.8984 26.1054C40.8984 26.7804 40.4984 27.0804 39.9984 26.7804L26.4234 18.9304C25.9234 18.6304 25.5234 17.8554 25.5234 17.2054C25.5234 16.5304 25.9234 16.2304 26.4234 16.5304L39.9984 24.3804Z" fill="white"/>
<path d="M39.9984 32.2319C40.4984 32.5069 40.8984 33.3069 40.8984 33.9569C40.8984 34.6069 40.4984 34.9319 39.9984 34.6319L26.4234 26.7819C25.9234 26.4819 25.5234 25.7069 25.5234 25.0569C25.5234 24.3819 25.9234 24.0819 26.4234 24.3819L39.9984 32.2319Z" fill="white"/>
<path d="M39.9984 40.06C40.4984 40.36 40.8984 41.135 40.8984 41.785C40.8984 42.46 40.4984 42.76 39.9984 42.46L26.4234 34.61C25.9234 34.31 25.5234 33.535 25.5234 32.885C25.5234 32.21 25.9234 31.91 26.4234 32.21L39.9984 40.06Z" fill="white"/>
<path d="M38.8742 49.3312L38.2992 52.2812L34.4492 54.5062L35.7992 47.5312L38.8742 49.3312Z" fill="white"/>
<path d="M21.7742 29.6094V32.4594L16.8242 29.6094V26.7344L21.7742 29.6094Z" fill="#E2E2E2"/>
<path d="M19.2992 19.1094L21.7742 25.2344L16.8242 22.3844L19.2992 19.1094Z" fill="#01DB83"/>
<path d="M19.2992 11.3517C20.4492 12.0267 21.3992 13.6517 21.3992 14.9767C21.3992 16.3017 20.4492 16.8517 19.2992 16.1767C18.1492 15.5017 17.1992 13.8767 17.1992 12.5517C17.1992 11.2267 18.1492 10.6767 19.2992 11.3517Z" fill="#1A1A1A"/>
<path d="M34.4508 54.8784C34.3008 54.8784 34.1758 54.7784 34.1008 54.6534L29.6758 44.4284L14.2008 35.5034C12.5008 34.5284 11.1758 32.2284 11.1758 30.2784V4.6284C11.1758 3.6284 11.5258 2.8534 12.2008 2.4784C12.8508 2.1034 13.7008 2.1784 14.5758 2.6784L43.4758 19.3784C45.1758 20.3534 46.5008 22.6534 46.5008 24.6034V50.2784C46.5008 51.2534 46.1508 52.0284 45.5258 52.4034C44.8758 52.8034 44.0008 52.7534 43.1008 52.2284L36.0508 48.1534L34.8258 54.6034C34.8008 54.7534 34.6508 54.8784 34.5008 54.9034C34.4758 54.8784 34.4758 54.8784 34.4508 54.8784ZM13.1508 2.9784C12.9508 2.9784 12.7508 3.0284 12.6008 3.1284C12.1758 3.3784 11.9508 3.9034 11.9508 4.6284V30.3034C11.9508 31.9784 13.1258 34.0284 14.6008 34.8784L30.1758 43.8784C30.2508 43.9284 30.3008 43.9784 30.3258 44.0534L34.3258 53.2784L35.4258 47.5034C35.4508 47.3784 35.5258 47.2784 35.6258 47.2284C35.7258 47.1784 35.8758 47.1784 35.9758 47.2534L43.4758 51.5784C44.1258 51.9534 44.7258 52.0034 45.1258 51.7534C45.5258 51.5034 45.7508 50.9784 45.7508 50.2534V24.5784C45.7508 22.9034 44.5758 20.8534 43.1008 20.0034L14.2008 3.3034C13.8258 3.0784 13.4508 2.9784 13.1508 2.9784Z" fill="#1A1A1A"/>
<path d="M20.2262 16.8554C19.8762 16.8554 19.5012 16.7304 19.1012 16.5054C17.8262 15.7554 16.8262 14.0304 16.8262 12.5554C16.8262 11.7804 17.1012 11.1804 17.6262 10.8804C18.1512 10.5804 18.8012 10.6304 19.4762 11.0304C20.7512 11.7804 21.7512 13.5054 21.7512 14.9804C21.7512 15.7554 21.4762 16.3554 20.9512 16.6554C20.7512 16.8054 20.5012 16.8554 20.2262 16.8554ZM18.3512 11.4304C18.2262 11.4304 18.1012 11.4554 18.0012 11.5304C17.7262 11.6804 17.5762 12.0554 17.5762 12.5554C17.5762 13.7554 18.4512 15.2804 19.4762 15.8554C19.9012 16.1054 20.3012 16.1554 20.5762 16.0054C20.8512 15.8554 21.0012 15.4804 21.0012 14.9804C21.0012 13.7804 20.1262 12.2804 19.1012 11.6804C18.8512 11.5304 18.5762 11.4304 18.3512 11.4304Z" fill="#1A1A1A"/>
<path d="M21.7762 25.5986C21.7012 25.5986 21.6512 25.5736 21.6012 25.5486L16.6512 22.6986C16.5512 22.6486 16.5012 22.5486 16.4762 22.4486C16.4512 22.3486 16.4762 22.2236 16.5512 22.1486L19.0012 18.8736C19.0762 18.7736 19.2262 18.6986 19.3512 18.7236C19.4762 18.7486 19.6012 18.8236 19.6512 18.9486L22.1262 25.0736C22.1762 25.2236 22.1512 25.3986 22.0262 25.4986C21.9512 25.5736 21.8512 25.5986 21.7762 25.5986ZM17.3762 22.2736L21.0012 24.3736L19.1762 19.8736L17.3762 22.2736Z" fill="#1A1A1A"/>
<path d="M21.7762 32.8313C21.7012 32.8313 21.6512 32.8063 21.6012 32.7813L16.6512 29.9313C16.5262 29.8563 16.4512 29.7313 16.4512 29.6063V26.7563C16.4512 26.6313 16.5262 26.5063 16.6512 26.4313C16.7762 26.3562 16.9012 26.3562 17.0262 26.4313L21.9762 29.2813C22.1012 29.3563 22.1762 29.4813 22.1762 29.6063V32.4563C22.1762 32.5813 22.1012 32.7063 21.9762 32.7813C21.9012 32.8063 21.8512 32.8313 21.7762 32.8313ZM17.2012 29.3813L21.4012 31.8063V29.8063L17.2012 27.3813V29.3813Z" fill="#1A1A1A"/>
<path d="M40.3754 27.303C40.2004 27.303 40.0004 27.253 39.8254 27.153L26.2504 19.303C25.6254 18.953 25.1504 18.053 25.1504 17.253C25.1504 16.753 25.3254 16.378 25.6504 16.203C25.9254 16.028 26.2754 16.053 26.6254 16.253L40.2004 24.103C40.8254 24.453 41.3004 25.353 41.3004 26.153C41.3004 26.653 41.1254 27.028 40.8004 27.203C40.6504 27.253 40.5004 27.303 40.3754 27.303ZM26.0504 16.803C26.0254 16.803 26.0254 16.803 26.0004 16.803C25.9504 16.828 25.8754 16.978 25.8754 17.203C25.8754 17.728 26.2004 18.403 26.6004 18.603L40.1754 26.453C40.2754 26.503 40.3504 26.528 40.4004 26.503C40.4504 26.478 40.5254 26.328 40.5254 26.103C40.5254 25.578 40.2004 24.928 39.8004 24.703L26.2254 16.853C26.1754 16.828 26.1004 16.803 26.0504 16.803Z" fill="#1A1A1A"/>
<path d="M40.3754 35.1288C40.2004 35.1288 40.0004 35.0788 39.8254 34.9788L26.2504 27.1288C25.6254 26.7788 25.1504 25.8788 25.1504 25.0788C25.1504 24.5788 25.3254 24.2038 25.6504 24.0288C25.9254 23.8788 26.2754 23.8788 26.6254 24.0788L40.2004 31.9288C40.8254 32.2788 41.3004 33.1788 41.3004 33.9788C41.3004 34.4788 41.1254 34.8538 40.8004 35.0288C40.6504 35.1038 40.5254 35.1288 40.3754 35.1288ZM26.0504 24.6538C26.0254 24.6538 26.0254 24.6538 26.0004 24.6538C25.9504 24.6788 25.8754 24.8288 25.8754 25.0538C25.8754 25.5788 26.2004 26.2288 26.6004 26.4538L40.1754 34.3038C40.2754 34.3538 40.3504 34.3788 40.4004 34.3538C40.4504 34.3288 40.5254 34.1788 40.5254 33.9538C40.5254 33.4288 40.2004 32.7538 39.8004 32.5538L26.2254 24.7038C26.1754 24.6788 26.1004 24.6538 26.0504 24.6538Z" fill="#1A1A1A"/>
<path d="M40.3754 42.9514C40.2004 42.9514 40.0004 42.9014 39.8254 42.8014L26.2504 34.9514C25.6254 34.6014 25.1504 33.7014 25.1504 32.9014C25.1504 32.4014 25.3254 32.0264 25.6504 31.8514C25.9254 31.6764 26.2754 31.7014 26.6254 31.9014L40.2004 39.7514C40.8254 40.1014 41.3004 41.0014 41.3004 41.8014C41.3004 42.3014 41.1254 42.6764 40.8004 42.8514C40.6504 42.9264 40.5254 42.9514 40.3754 42.9514ZM40.2004 42.1514C40.3004 42.2014 40.3754 42.2264 40.4254 42.2014C40.4754 42.1764 40.5504 42.0514 40.5504 41.8014C40.5504 41.2764 40.2254 40.6264 39.8254 40.4014L26.2504 32.5514C26.1504 32.5014 26.0754 32.4764 26.0254 32.5014C25.9754 32.5264 25.9004 32.6764 25.9004 32.9014C25.9004 33.4264 26.2254 34.0764 26.6254 34.3014L40.2004 42.1514Z" fill="#1A1A1A"/>
<path d="M45.3014 52.4518C45.1764 52.4518 45.0514 52.3768 44.9764 52.2518C44.8764 52.0768 44.9264 51.8518 45.1014 51.7518L48.9514 49.5268C49.3764 49.2768 49.6014 48.7518 49.6014 48.0268V22.3518C49.6014 20.6768 48.4264 18.6268 46.9514 17.7768L18.0514 1.10184C17.4264 0.726841 16.8514 0.651841 16.4264 0.901841L12.5764 3.12684C12.4014 3.22684 12.1764 3.17684 12.0764 3.00184C11.9764 2.82684 12.0264 2.60184 12.2014 2.50184L16.0514 0.251841C16.7014 -0.123159 17.5514 -0.0481594 18.4264 0.451841L47.3264 17.1518C49.0264 18.1268 50.3514 20.4268 50.3514 22.3768V48.0518C50.3514 49.0518 50.0014 49.8268 49.3264 50.2018L45.4764 52.4268C45.4264 52.4268 45.3764 52.4518 45.3014 52.4518Z" fill="#1A1A1A"/>
<path d="M34.4502 54.8813C34.3252 54.8813 34.2002 54.8063 34.1252 54.6813C34.0252 54.5063 34.0752 54.2813 34.2502 54.1813L37.9502 52.0563L38.5002 49.2563C38.5502 49.0563 38.7252 48.9313 38.9502 48.9563C39.1502 49.0063 39.2752 49.1813 39.2502 49.4063L38.6752 52.3813C38.6502 52.4813 38.6002 52.5813 38.5002 52.6313L34.6502 54.8563C34.6002 54.8813 34.5252 54.8813 34.4502 54.8813Z" fill="#1A1A1A"/>
<path d="M19.2992 34.9766V45.9016L9.82422 51.3516V40.4266L19.2992 34.9766Z" fill="#1A1A1A"/>
<path d="M19.3 34.975L9.825 40.425L0.375 34.975L9.825 29.5L19.3 34.975Z" fill="white"/>
<path d="M9.825 40.4266V51.3516L0.375 45.9016V34.9766L9.825 40.4266Z" fill="#E2E2E2"/>
<path d="M9.825 40.8047C9.75 40.8047 9.7 40.7797 9.625 40.7547L0.2 35.3047C0.075 35.2297 0 35.1047 0 34.9797C0 34.8547 0.075 34.7297 0.2 34.6547L9.65 29.2047C9.775 29.1297 9.9 29.1297 10.025 29.2047L19.475 34.6547C19.6 34.7297 19.675 34.8547 19.675 34.9797C19.675 35.1047 19.6 35.2297 19.475 35.3047L10.025 40.7547C9.975 40.8047 9.9 40.8047 9.825 40.8047ZM1.125 34.9797L9.825 40.0047L18.525 34.9797L9.825 29.9547L1.125 34.9797Z" fill="#1A1A1A"/>
<path d="M9.82422 51.7297C9.62422 51.7297 9.44922 51.5547 9.44922 51.3547V40.4297C9.44922 40.2297 9.62422 40.0547 9.82422 40.0547C10.0242 40.0547 10.1992 40.2297 10.1992 40.4297V51.3547C10.1992 51.5797 10.0492 51.7297 9.82422 51.7297Z" fill="#1A1A1A"/>
<path d="M9.825 51.7344C9.75 51.7344 9.7 51.7094 9.625 51.6844L0.2 46.2344C0.075 46.1594 0 46.0344 0 45.9094V34.9844C0 34.7844 0.175 34.6094 0.375 34.6094C0.575 34.6094 0.75 34.7844 0.75 34.9844V45.6844L9.825 50.9344L18.9 45.6844V34.9844C18.9 34.7844 19.075 34.6094 19.275 34.6094C19.475 34.6094 19.65 34.7844 19.65 34.9844V45.9094C19.65 46.0344 19.575 46.1594 19.45 46.2344L10 51.6844C9.975 51.7344 9.9 51.7344 9.825 51.7344Z" fill="#1A1A1A"/>
</svg>
