<svg width="458" height="300" viewBox="0 0 458 300" fill="none" xmlns="http://www.w3.org/2000/svg">
<path d="M71.9539 274.541C137.576 286.755 151.649 247.171 234.337 284.934C302.39 315.994 399.642 296.54 407.076 249.343C412.149 217.138 426.807 213.845 442.985 200.324C487.449 163.121 423.137 79.8426 353.634 86.2882C251.964 95.723 265.616 83.1121 242.075 56.7459C203.268 13.2616 142.999 78.7683 119.107 113.752C98.5112 143.925 38.3131 137.362 13.439 171.669C-18.542 215.737 8.76338 262.771 71.9539 274.541Z" fill="url(#paint0_linear_1494_14284)"/>
<path d="M101.522 233.73C102.784 234.454 104.839 234.454 106.101 233.73C107.362 233.006 107.362 231.814 106.101 231.09C104.839 230.366 102.784 230.366 101.522 231.09C100.261 231.814 100.261 232.982 101.522 233.73Z" fill="#E8ECF7"/>
<path d="M112.714 240.183C113.975 240.907 116.031 240.907 117.292 240.183C118.554 239.459 118.554 238.267 117.292 237.543C116.031 236.819 113.975 236.819 112.714 237.543C111.452 238.291 111.452 239.459 112.714 240.183Z" fill="#E8ECF7"/>
<path d="M123.925 246.652C125.186 247.376 127.242 247.376 128.503 246.652C129.765 245.927 129.765 244.736 128.503 244.012C127.242 243.288 125.186 243.288 123.925 244.012C122.663 244.736 122.663 245.927 123.925 246.652Z" fill="#E8ECF7"/>
<path d="M139.716 250.481C138.455 249.756 136.399 249.756 135.138 250.481C133.876 251.205 133.876 252.396 135.138 253.12C136.399 253.844 138.455 253.844 139.716 253.12C140.978 252.396 140.978 251.205 139.716 250.481Z" fill="#E8ECF7"/>
<path d="M90.3074 240.183C91.5688 240.907 93.6245 240.907 94.886 240.183C96.1474 239.459 96.1474 238.267 94.886 237.543C93.6245 236.819 91.5688 236.819 90.3074 237.543C89.046 238.291 89.046 239.459 90.3074 240.183Z" fill="#E8ECF7"/>
<path d="M101.522 246.652C102.784 247.376 104.839 247.376 106.101 246.652C107.362 245.927 107.362 244.736 106.101 244.012C104.839 243.288 102.784 243.288 101.522 244.012C100.261 244.736 100.261 245.927 101.522 246.652Z" fill="#E8ECF7"/>
<path d="M112.714 253.12C113.975 253.844 116.031 253.844 117.292 253.12C118.554 252.396 118.554 251.205 117.292 250.481C116.031 249.756 113.975 249.756 112.714 250.481C111.452 251.205 111.452 252.396 112.714 253.12Z" fill="#E8ECF7"/>
<path d="M128.503 256.949C127.242 256.225 125.186 256.225 123.925 256.949C122.663 257.674 122.663 258.865 123.925 259.589C125.186 260.313 127.242 260.313 128.503 259.589C129.765 258.865 129.765 257.674 128.503 256.949Z" fill="#E8ECF7"/>
<path d="M79.0984 246.652C80.3599 247.376 82.4155 247.376 83.677 246.652C84.9384 245.927 84.9384 244.736 83.677 244.012C82.4155 243.288 80.3599 243.288 79.0984 244.012C77.837 244.736 77.837 245.927 79.0984 246.652Z" fill="#E8ECF7"/>
<path d="M90.3074 253.12C91.5688 253.844 93.6245 253.844 94.886 253.12C96.1474 252.396 96.1474 251.205 94.886 250.481C93.6245 249.756 91.5688 249.756 90.3074 250.481C89.046 251.205 89.046 252.396 90.3074 253.12Z" fill="#E8ECF7"/>
<path d="M101.522 259.589C102.784 260.313 104.839 260.313 106.101 259.589C107.362 258.865 107.362 257.674 106.101 256.949C104.839 256.225 102.784 256.225 101.522 256.949C100.261 257.674 100.261 258.865 101.522 259.589Z" fill="#E8ECF7"/>
<path d="M117.292 263.418C116.031 262.694 113.975 262.694 112.714 263.418C111.452 264.142 111.452 265.334 112.714 266.058C113.975 266.782 116.031 266.782 117.292 266.058C118.577 265.334 118.577 264.142 117.292 263.418Z" fill="#E8ECF7"/>
<path d="M70.1963 253.675C71.9895 253.675 73.4433 252.838 73.4433 251.806C73.4433 250.774 71.9895 249.938 70.1963 249.938C68.403 249.938 66.9492 250.774 66.9492 251.806C66.9492 252.838 68.403 253.675 70.1963 253.675Z" fill="#E8ECF7"/>
<path d="M79.1218 259.589C80.3832 260.313 82.4389 260.313 83.7004 259.589C84.9618 258.865 84.9618 257.674 83.7004 256.949C82.4389 256.225 80.3832 256.225 79.1218 256.949C77.837 257.674 77.837 258.865 79.1218 259.589Z" fill="#E8ECF7"/>
<path d="M90.3074 266.058C91.5688 266.782 93.6245 266.782 94.886 266.058C96.1474 265.334 96.1474 264.142 94.886 263.418C93.6245 262.694 91.5688 262.694 90.3074 263.418C89.046 264.142 89.046 265.334 90.3074 266.058Z" fill="#E8ECF7"/>
<path d="M106.101 269.895C104.839 269.171 102.784 269.171 101.522 269.895C100.261 270.619 100.261 271.81 101.522 272.534C102.784 273.259 104.839 273.259 106.101 272.534C107.362 271.81 107.362 270.619 106.101 269.895Z" fill="#E8ECF7"/>
<path d="M61.2727 256.949C60.0112 256.225 57.9556 256.225 56.6941 256.949C55.4327 257.674 55.4327 258.865 56.6941 259.589C57.9556 260.313 60.0112 260.313 61.2727 259.589C62.5341 258.865 62.5341 257.674 61.2727 256.949Z" fill="#E8ECF7"/>
<path d="M72.4875 263.418C71.2261 262.694 69.1704 262.694 67.909 263.418C66.6475 264.142 66.6475 265.334 67.909 266.058C69.1704 266.782 71.2261 266.782 72.4875 266.058C73.749 265.334 73.749 264.142 72.4875 263.418Z" fill="#E8ECF7"/>
<path d="M83.6965 269.895C82.4351 269.171 80.3794 269.171 79.118 269.895C77.8565 270.619 77.8565 271.81 79.118 272.534C80.3794 273.259 82.4351 273.259 83.6965 272.534C84.9579 271.81 84.9579 270.619 83.6965 269.895Z" fill="#E8ECF7"/>
<path d="M94.886 276.363C93.6245 275.639 91.5688 275.639 90.3074 276.363C89.046 277.088 89.046 278.279 90.3074 279.003C91.5688 279.727 93.6245 279.727 94.886 279.003C96.1474 278.279 96.1474 277.088 94.886 276.363Z" fill="#E8ECF7"/>
<path d="M453.277 142.926C452.015 142.202 449.959 142.202 448.698 142.926C447.437 143.65 447.437 144.841 448.698 145.566C449.959 146.29 452.015 146.29 453.277 145.566C454.538 144.841 454.538 143.673 453.277 142.926Z" fill="white"/>
<path d="M442.062 149.402C440.8 148.678 438.745 148.678 437.483 149.402C436.222 150.127 436.222 151.318 437.483 152.042C438.745 152.766 440.8 152.766 442.062 152.042C443.323 151.318 443.323 150.127 442.062 149.402Z" fill="white"/>
<path d="M430.853 155.863C429.591 155.139 427.536 155.139 426.274 155.863C425.013 156.588 425.013 157.779 426.274 158.503C427.536 159.227 429.591 159.227 430.853 158.503C432.114 157.779 432.114 156.588 430.853 155.863Z" fill="white"/>
<path d="M419.663 162.34C418.402 161.616 416.346 161.616 415.085 162.34C413.823 163.064 413.823 164.256 415.085 164.98C416.346 165.704 418.402 165.704 419.663 164.98C420.925 164.256 420.925 163.064 419.663 162.34Z" fill="white"/>
<path d="M408.448 168.809C407.187 168.085 405.131 168.085 403.87 168.809C402.608 169.533 402.608 170.724 403.87 171.448C405.131 172.173 407.187 172.173 408.448 171.448C409.71 170.724 409.71 169.533 408.448 168.809Z" fill="white"/>
<mask id="mask0_1494_14284" style="mask-type:luminance" maskUnits="userSpaceOnUse" x="300" y="228" width="53" height="42">
<path d="M352.555 228.102H300.365V269.342H352.555V228.102Z" fill="white"/>
</mask>
<g mask="url(#mask0_1494_14284)">
<path d="M316.313 234.462C334.05 231.177 342.846 233.185 347.262 237.09C351.605 240.922 351.751 246.652 351.86 251.141C351.86 251.214 351.86 251.287 351.86 251.323C351.97 255.739 349.196 259.864 344.597 262.929C339.999 265.995 333.648 268.039 326.641 268.221C319.634 268.44 313.284 266.907 308.685 264.28C304.086 261.615 301.203 257.82 301.094 253.404C301.094 253.221 301.094 253.002 301.094 252.82C301.057 250.776 300.984 248.696 301.13 246.725C301.313 244.572 302.408 242.674 303.284 240.885C305.108 237.345 308.247 234.681 316.313 234.462Z" fill="#01DB83"/>
<path fill-rule="evenodd" clip-rule="evenodd" d="M307.298 236.319C304.852 237.925 304.561 238.509 303.283 240.516C302.48 242.122 301.13 244.238 300.947 246.684C300.874 247.56 300.838 248.582 300.838 249.713C300.838 250.406 300.838 251.428 300.874 252.815V253.399C300.911 255.589 301.641 257.669 302.991 259.603C304.305 261.465 306.166 263.071 308.539 264.421C310.911 265.771 313.612 266.793 316.677 267.487C319.816 268.18 323.137 268.508 326.604 268.399C330.071 268.29 333.393 267.779 336.531 266.83C339.597 265.917 342.298 264.64 344.633 263.071C347.006 261.501 348.794 259.713 350.071 257.706C351.385 255.625 352.006 253.509 351.969 251.282V251.1C351.933 249.567 351.896 248.363 351.823 247.56C351.714 246.173 351.531 244.932 351.276 243.801C350.582 240.917 349.268 238.655 347.334 236.939C344.889 234.786 341.349 233.399 336.75 232.888C331.422 232.268 324.56 232.706 316.239 234.275C312.444 234.385 309.633 235.151 307.298 236.319ZM301.312 246.72C301.495 244.311 301.969 242.341 302.772 240.808C303.721 238.947 305.217 237.523 307.188 236.501C309.488 235.37 312.517 234.713 316.312 234.603H316.349H316.385C324.67 233.071 331.495 232.596 336.787 233.217C341.312 233.764 344.779 235.078 347.152 237.195C349.049 238.874 350.327 241.1 350.984 243.874C351.239 244.968 351.422 246.173 351.531 247.56C351.604 248.363 351.641 249.567 351.677 251.1V251.282C351.714 253.399 351.13 255.479 349.852 257.487C348.611 259.421 346.823 261.173 344.524 262.742C342.188 264.311 339.524 265.552 336.495 266.465C333.356 267.414 330.071 267.925 326.641 268.034C323.21 268.144 319.925 267.815 316.787 267.122C313.758 266.428 311.093 265.443 308.758 264.092C306.422 262.742 304.633 261.173 303.32 259.348C302.006 257.487 301.312 255.479 301.239 253.363V252.779C301.203 251.392 301.203 250.37 301.203 249.713C301.203 248.618 301.239 247.596 301.312 246.72Z" fill="#1A1A1A" stroke="#1A1A1A" stroke-width="0.4"/>
<path d="M351.457 245.116C351.567 249.276 348.866 253.108 344.377 255.991C339.888 258.875 333.611 260.736 326.64 260.918C319.669 261.101 313.319 259.568 308.684 256.94C304.049 254.313 301.165 250.627 301.056 246.466C300.946 242.305 303.647 238.473 308.136 235.59C312.625 232.707 318.903 230.846 325.873 230.663C332.844 230.481 339.194 232.013 343.83 234.641C348.465 237.269 351.348 240.955 351.457 245.116Z" fill="white"/>
<path fill-rule="evenodd" clip-rule="evenodd" d="M349.486 239.202C348.172 237.414 346.31 235.845 343.938 234.494C341.566 233.144 338.865 232.122 335.799 231.429C332.624 230.699 329.34 230.407 325.909 230.48C322.478 230.589 319.194 231.064 316.055 231.939C313.026 232.779 310.398 233.947 308.062 235.443C305.763 236.903 303.975 238.582 302.734 240.443C301.457 242.377 300.836 244.385 300.873 246.465C300.909 248.545 301.639 250.516 303.026 252.377C304.34 254.166 306.201 255.735 308.573 257.085C310.946 258.436 313.646 259.458 316.712 260.151C319.887 260.881 323.172 261.173 326.602 261.1C330.033 260.99 333.318 260.516 336.456 259.64C339.486 258.801 342.113 257.633 344.449 256.136C346.748 254.677 348.537 252.998 349.778 251.136C351.055 249.202 351.675 247.195 351.639 245.115C351.602 243.034 350.872 241.064 349.486 239.202ZM335.727 231.793C338.756 232.487 341.42 233.472 343.756 234.823C346.091 236.137 347.916 237.669 349.194 239.421C350.544 241.21 351.201 243.107 351.274 245.115C351.347 247.122 350.726 249.056 349.486 250.918C348.281 252.742 346.529 254.385 344.267 255.845C342.004 257.304 339.376 258.436 336.383 259.312C333.281 260.188 330.033 260.662 326.639 260.772C323.245 260.881 319.96 260.553 316.821 259.859C313.792 259.166 311.128 258.18 308.792 256.83C306.457 255.516 304.632 253.983 303.354 252.231C302.004 250.443 301.347 248.545 301.274 246.538C301.238 244.531 301.822 242.596 303.062 240.735C304.267 238.91 306.019 237.268 308.281 235.808C310.544 234.348 313.172 233.217 316.165 232.341C319.267 231.465 322.515 230.991 325.909 230.881C329.303 230.772 332.588 231.064 335.727 231.793Z" fill="#1A1A1A" stroke="#1A1A1A" stroke-width="0.4"/>
<path d="M346.606 244.237C346.679 247.303 344.526 250.186 340.876 252.376C337.226 254.529 332.153 255.953 326.497 256.135C320.84 256.281 315.694 255.15 311.971 253.215C308.212 251.245 305.913 248.507 305.84 245.442C305.767 242.376 307.92 239.493 311.57 237.303C315.219 235.15 320.292 233.726 325.949 233.544C331.606 233.398 336.752 234.529 340.475 236.464C344.234 238.434 346.533 241.172 346.606 244.237Z" fill="white"/>
<path fill-rule="evenodd" clip-rule="evenodd" d="M345.071 239.823C344.012 238.473 342.516 237.305 340.582 236.32C338.648 235.298 336.458 234.568 333.976 234.057C331.421 233.546 328.757 233.291 325.947 233.4C323.173 233.473 320.509 233.874 317.954 234.531C315.509 235.188 313.356 236.064 311.494 237.159C309.633 238.291 308.173 239.531 307.188 240.918C306.129 242.378 305.655 243.874 305.691 245.444C305.728 247.013 306.312 248.473 307.407 249.86C308.465 251.21 309.961 252.378 311.896 253.363C313.83 254.385 316.02 255.115 318.502 255.626C321.056 256.137 323.721 256.393 326.531 256.283C329.304 256.21 331.969 255.809 334.523 255.152C336.969 254.495 339.122 253.619 340.983 252.524C342.845 251.393 344.304 250.152 345.29 248.765C346.348 247.305 346.823 245.809 346.786 244.239C346.75 242.707 346.166 241.21 345.071 239.823ZM333.903 234.385C336.348 234.896 338.502 235.626 340.399 236.612C342.261 237.597 343.72 238.728 344.779 240.042C345.837 241.356 346.385 242.78 346.421 244.239C346.458 245.699 345.983 247.159 344.998 248.546C344.012 249.896 342.626 251.137 340.801 252.232C338.976 253.327 336.823 254.203 334.414 254.823C331.896 255.48 329.268 255.845 326.531 255.955C323.757 256.028 321.129 255.809 318.575 255.298C316.129 254.787 313.976 254.057 312.078 253.071C310.217 252.086 308.757 250.955 307.699 249.641C306.64 248.327 306.093 246.904 306.056 245.444C306.02 243.984 306.494 242.524 307.48 241.137C308.465 239.787 309.852 238.546 311.677 237.451C313.502 236.356 315.655 235.48 318.064 234.86C320.582 234.203 323.21 233.838 325.947 233.728C328.721 233.656 331.385 233.874 333.903 234.385Z" fill="#1A1A1A" stroke="#1A1A1A" stroke-width="0.4"/>
<path fill-rule="evenodd" clip-rule="evenodd" d="M310.289 257.854C310.289 257.818 310.289 257.781 310.289 257.781V257.745C310.289 257.745 310.289 257.708 310.252 257.708C310.252 257.708 310.252 257.708 310.216 257.672H310.179H310.143H310.106H310.07H310.033H309.997C309.997 257.672 309.96 257.672 309.96 257.708C309.96 257.708 309.96 257.708 309.924 257.745V257.781V257.818V257.854C309.924 258.073 309.924 258.511 309.924 259.095C309.887 260.701 309.887 261.905 309.924 262.672C309.96 264.022 310.07 264.862 310.252 265.263C310.252 265.263 310.252 265.3 310.289 265.3L310.325 265.336C310.325 265.336 310.362 265.336 310.362 265.373H310.398H310.435H310.471H310.508C310.508 265.373 310.544 265.373 310.544 265.336C310.544 265.336 310.544 265.336 310.581 265.3V265.263V265.227V265.19C310.581 265.154 310.581 265.154 310.544 265.117C310.398 264.789 310.289 263.986 310.252 262.672C310.216 261.905 310.216 260.738 310.252 259.132C310.289 258.511 310.289 258.073 310.289 257.854Z" fill="#1A1A1A" stroke="#1A1A1A" stroke-width="0.4"/>
<path fill-rule="evenodd" clip-rule="evenodd" d="M333.172 260.44C333.172 260.404 333.172 260.404 333.172 260.44C333.172 260.404 333.172 260.367 333.172 260.367V260.331C333.172 260.331 333.172 260.294 333.208 260.294C333.208 260.294 333.208 260.294 333.245 260.258H333.281H333.318H333.354H333.391H333.427H333.464C333.464 260.258 333.5 260.258 333.5 260.294C333.5 260.294 333.5 260.294 333.537 260.331V260.367V260.404V260.44V267.338V267.375V267.411V267.448C333.537 267.448 333.537 267.484 333.5 267.484C333.5 267.484 333.5 267.484 333.464 267.521H333.427H333.391H333.354H333.318H333.281H333.245C333.245 267.521 333.208 267.521 333.208 267.484C333.208 267.484 333.208 267.484 333.172 267.448V267.411V267.375V267.338V260.44Z" fill="#1A1A1A"/>
<path d="M333.172 260.44C333.172 260.404 333.172 260.404 333.172 260.44ZM333.172 260.44C333.172 260.404 333.172 260.367 333.172 260.367V260.331C333.172 260.331 333.172 260.294 333.208 260.294C333.208 260.294 333.208 260.294 333.245 260.258H333.281H333.318H333.354H333.391H333.427H333.464C333.464 260.258 333.5 260.258 333.5 260.294C333.5 260.294 333.5 260.294 333.537 260.331V260.367V260.404V260.44V267.338V267.375V267.411V267.448C333.537 267.448 333.537 267.484 333.5 267.484C333.5 267.484 333.5 267.484 333.464 267.521H333.427H333.391H333.354H333.318H333.281H333.245C333.245 267.521 333.208 267.521 333.208 267.484C333.208 267.484 333.208 267.484 333.172 267.448V267.411V267.375V267.338V260.44Z" stroke="#1A1A1A" stroke-width="0.4"/>
<path fill-rule="evenodd" clip-rule="evenodd" d="M335.363 259.823C335.363 259.787 335.363 259.75 335.363 259.75V259.714C335.363 259.714 335.363 259.677 335.4 259.677C335.4 259.677 335.4 259.677 335.436 259.641H335.473H335.509H335.546H335.582H335.619H335.655C335.655 259.641 335.692 259.641 335.692 259.677C335.692 259.677 335.692 259.677 335.728 259.714V259.75V259.787V259.823V266.721V266.757V266.794V266.83C335.728 266.83 335.728 266.867 335.692 266.867C335.692 266.867 335.692 266.867 335.655 266.903H335.619H335.582H335.546H335.509H335.473H335.436C335.436 266.903 335.4 266.903 335.4 266.867C335.4 266.867 335.4 266.867 335.363 266.83V266.794V266.757V266.721V259.823Z" fill="#1A1A1A" stroke="#1A1A1A" stroke-width="0.4"/>
<mask id="mask1_1494_14284" style="mask-type:luminance" maskUnits="userSpaceOnUse" x="310" y="235" width="33" height="20">
<path d="M312.491 235.563L310.973 252.172L340.483 254.869L342.001 238.261L312.491 235.563Z" fill="white"/>
</mask>
<g mask="url(#mask1_1494_14284)">
<path d="M322.52 246.795L320.841 241.43L335.987 241.102L322.52 246.795ZM316.863 249.204L320.075 241.904L321.717 247.16L316.863 249.204ZM322.703 246.904L331.498 249.277L336.17 241.211L322.703 246.904ZM317.082 249.35L330.586 249.642L321.936 247.306L317.082 249.35Z" fill="#1A1A1A"/>
</g>
</g>
<mask id="mask2_1494_14284" style="mask-type:luminance" maskUnits="userSpaceOnUse" x="335" y="235" width="48" height="45">
<path d="M351.338 235.055L335.02 259.266L365.706 279.949L382.024 255.739L351.338 235.055Z" fill="white"/>
</mask>
<g mask="url(#mask2_1494_14284)">
<path d="M358.208 245.078C369.959 250.188 374.339 254.859 375.361 258.91C376.383 262.888 374.229 266.319 372.514 268.983C372.478 269.02 372.478 269.056 372.441 269.093C370.762 271.72 367.514 273.034 363.572 273.034C359.667 273.034 355.105 271.684 350.908 269.02C346.711 266.355 343.573 262.961 341.894 259.567C340.251 256.173 340.069 252.815 341.748 250.188C341.821 250.078 341.894 249.969 341.967 249.823C342.733 248.582 343.536 247.341 344.412 246.246C345.361 245.042 346.419 243.983 347.66 243.326C350.142 241.976 353.39 242.013 358.208 245.078Z" fill="#E6E6FF" stroke="#1A1A1A"/>
<path d="M374.888 265.152C373.283 267.67 370.107 268.947 366.275 268.874C362.443 268.801 357.991 267.451 353.794 264.787C349.597 262.123 346.458 258.656 344.779 255.225C343.1 251.794 342.918 248.437 344.524 245.882C346.129 243.364 349.305 242.086 353.137 242.159C356.969 242.232 361.421 243.583 365.618 246.247C369.815 248.911 372.954 252.378 374.633 255.809C376.312 259.239 376.531 262.597 374.888 265.152Z" fill="white" stroke="#1A1A1A"/>
<path d="M372.15 262.853C370.982 264.678 368.573 265.517 365.581 265.335C362.588 265.152 359.048 263.984 355.654 261.831C352.26 259.678 349.705 256.977 348.282 254.349C346.858 251.722 346.603 249.203 347.771 247.342C348.938 245.517 351.347 244.678 354.34 244.86C357.333 245.043 360.873 246.211 364.267 248.364C367.661 250.517 370.216 253.218 371.639 255.846C373.062 258.51 373.318 261.028 372.15 262.853Z" stroke="#1A1A1A"/>
<path d="M345.288 256.391C344.522 257.522 342.77 259.894 342.697 260.624" stroke="#1A1A1A" stroke-linecap="round" stroke-linejoin="round"/>
<path d="M357.952 267.086L355.215 271.137" stroke="#1A1A1A" stroke-linecap="round" stroke-linejoin="round"/>
<path d="M359.485 267.633L356.748 271.684" stroke="#1A1A1A" stroke-linecap="round" stroke-linejoin="round"/>
<path d="M355.981 253.952C355.944 253.989 355.908 254.025 355.798 253.916L354.557 252.931L353.9 253.478L356.2 255.266L355.214 256.069L356.455 257.018L357.441 256.215L358.207 256.799L357.222 257.602L358.389 258.514L359.375 257.712L360.251 258.405C360.835 258.843 363.207 260.266 364.192 259.427C364.813 258.989 364.594 258.04 363.718 257.091C364.776 257.493 365.47 257.493 365.798 257.091C366.309 256.471 365.543 255.558 365.068 255.047C364.703 254.646 364.302 254.281 363.864 253.916L364.886 253.077L363.754 252.201L362.732 253.04L361.82 252.347L362.842 251.507L361.711 250.631L360.689 251.471L358.316 249.609L357.696 250.12L359.01 251.142C359.156 251.252 359.119 251.288 359.083 251.288L355.981 253.952ZM361.273 252.931L362.659 254.025C362.915 254.208 363.973 255.193 363.426 255.631C363.134 255.887 362.513 255.777 361.893 255.412C361.784 255.339 361.638 255.266 361.528 255.193L359.995 253.989L361.273 252.931ZM359.411 254.5L361.565 256.179C362.222 256.69 362.441 257.347 362.039 257.602C361.638 257.931 360.762 257.566 360.36 257.31C360.287 257.274 360.251 257.237 360.178 257.201L358.061 255.558L359.411 254.5Z" fill="#1A1A1A"/>
</g>
<path d="M122.189 177.626L156.97 158.867L185.437 176.239L150.146 195.29L122.189 177.626Z" fill="#01DB83" stroke="#1A1A1A"/>
<path d="M84.0879 198.243L118.869 179.484L147.336 196.857L112.044 215.908L84.0879 198.243Z" stroke="#1A1A1A"/>
<path d="M154.779 197.405L189.086 178.938L217.078 196.456L182.772 215.069L154.779 197.405Z" stroke="#1A1A1A"/>
<path d="M161.789 156.35L168.358 153.102L260.657 209.05L254.088 212.408L161.789 156.35Z" stroke="#1A1A1A"/>
<path d="M116.678 218.03L150.984 199.562L178.977 217.081L144.67 235.694L116.678 218.03Z" stroke="#1A1A1A"/>
<path d="M185.766 217.006L220.072 198.539L248.065 216.057L213.758 234.67L185.766 217.006Z" stroke="#1A1A1A"/>
<path d="M147.666 237.623L181.972 219.156L209.965 236.674L175.659 255.288L147.666 237.623Z" stroke="#1A1A1A"/>
<path d="M73.3573 197.152L166.313 145.766L277.992 214.379L181.131 265.656L73.3573 197.152Z" stroke="#1A1A1A"/>
<path d="M129.707 192.699C124.159 190.254 107.59 184.159 105.984 193.867C103.977 205.984 126.823 212.626 129.707 208.027C132.006 204.378 127.261 199.779 124.597 197.955" stroke="#EF4E16" stroke-width="2"/>
<path d="M145.256 177.191L146.935 178.249L149.672 177.337L152.336 179.016L150.73 180.658L152.446 181.753L158.212 175.147L156.278 173.906L145.256 177.191ZM151.314 176.826L152.482 176.424C153.613 176.06 154.781 175.658 155.913 175.257L155.949 175.293C155.292 175.987 154.562 176.68 153.942 177.373L153.285 178.067L151.314 176.826Z" fill="#1A1A1A"/>
<path d="M209.488 217.7L212.408 219.562C214.233 220.693 216.35 221.131 218.065 220.109C219.196 219.452 219.196 218.649 218.503 217.956L218.539 217.919C219.488 218.211 220.693 218.029 221.496 217.554C223.065 216.642 222.298 215.511 220.583 214.452L217.882 212.773L209.488 217.7ZM216.094 215.839L218.211 214.598L219.196 215.219C220.182 215.839 220.364 216.314 219.634 216.752C218.977 217.153 218.101 217.116 217.043 216.46L216.094 215.839ZM212.444 217.992L214.89 216.569L216.021 217.299C217.152 218.029 217.371 218.613 216.569 219.087C215.693 219.598 214.671 219.452 213.576 218.759L212.444 217.992Z" fill="#1A1A1A"/>
<path d="M112.516 200.91C113.575 201.603 114.889 201.895 116.385 201.859L116.567 200.691C115.655 200.691 114.779 200.545 114.049 200.107C112.735 199.268 113.027 198.1 114.852 197.041C116.64 195.983 118.648 195.946 119.889 196.713C120.509 197.114 120.692 197.589 120.692 198.1L122.626 198.027C122.662 197.37 122.334 196.53 121.312 195.873C119.232 194.56 115.874 194.414 113.1 196.019C110.29 197.662 110.436 199.596 112.516 200.91Z" fill="#1A1A1A"/>
<path d="M170.438 238.505L172.773 240.001C175.219 241.534 178.138 241.717 180.985 240.038C183.795 238.396 183.613 236.607 181.094 235.001L178.832 233.578L170.438 238.505ZM173.43 238.761L179.124 235.439L179.635 235.768C181.167 236.753 181.35 237.812 179.306 239.016C177.262 240.22 175.474 240.111 173.941 239.126L173.43 238.761Z" fill="#1A1A1A"/>
<mask id="mask3_1494_14284" style="mask-type:luminance" maskUnits="userSpaceOnUse" x="373" y="10" width="67" height="91">
<path d="M439.418 10.9531H373.725V100.734H439.418V10.9531Z" fill="white"/>
</mask>
<g mask="url(#mask3_1494_14284)">
<path d="M423.945 98.4421L420.259 100.559L419.383 83.9531L424.638 85.34L423.945 98.4421Z" fill="#1A1A1A"/>
<path fill-rule="evenodd" clip-rule="evenodd" d="M424.126 98.4789L424.82 85.3402V85.3037V85.2672V85.2307V85.1942C424.82 85.1942 424.82 85.1942 424.82 85.1577C424.82 85.1577 424.82 85.1577 424.783 85.1212C424.783 85.1212 424.783 85.1212 424.747 85.1212C424.747 85.1212 424.747 85.1212 424.71 85.1212L419.455 83.7344C419.418 83.7344 419.418 83.7344 419.382 83.7344H419.345H419.309C419.309 83.7344 419.272 83.7344 419.272 83.7709C419.272 83.7709 419.272 83.7709 419.236 83.8074C419.236 83.8074 419.236 83.8439 419.199 83.8439V83.8804V83.9169V83.9534L420.075 100.559C420.075 100.596 420.075 100.632 420.112 100.632C420.112 100.632 420.112 100.669 420.148 100.669C420.148 100.669 420.148 100.669 420.185 100.705C420.185 100.705 420.221 100.705 420.221 100.742H420.258H420.294H420.331H420.367H420.404L424.09 98.6248C424.09 98.6248 424.126 98.6248 424.126 98.5883L424.163 98.5518V98.5153C424.126 98.4789 424.126 98.4789 424.126 98.4789ZM424.455 85.4497L423.761 98.3329L420.44 100.231L419.601 84.1358L424.455 85.4497Z" fill="#1A1A1A"/>
<path d="M406.793 72.3828L420.26 100.558V87.0908C420.26 85.12 423.764 85.7039 425.516 86.2149L424.457 85.5215L406.793 72.3828Z" fill="white"/>
<path fill-rule="evenodd" clip-rule="evenodd" d="M424.602 85.3418L425.66 86.0352L425.697 86.0717L425.733 86.1082C425.733 86.1447 425.733 86.1447 425.733 86.1812C425.733 86.2177 425.733 86.2177 425.733 86.2542V86.2907C425.733 86.2907 425.733 86.3272 425.697 86.3272C425.697 86.3272 425.697 86.3272 425.66 86.3637C425.66 86.3637 425.66 86.3637 425.624 86.4002H425.587H425.551H425.514H425.478C424.967 86.2542 424.456 86.1447 423.945 86.0352C423.325 85.9257 422.741 85.8892 422.266 85.8892C421.062 85.9257 420.478 86.3272 420.478 87.0936V100.561V100.597C420.478 100.597 420.478 100.634 420.441 100.634L420.405 100.67L420.368 100.707H420.332H420.295H420.259H420.222H420.186C420.186 100.707 420.149 100.707 420.149 100.67C420.149 100.67 420.149 100.67 420.113 100.634C420.113 100.634 420.113 100.597 420.076 100.597L406.609 72.4221V72.3856V72.3491V72.3126C406.609 72.3126 406.609 72.2761 406.646 72.2761C406.646 72.2761 406.646 72.2396 406.682 72.2396C406.682 72.2396 406.682 72.2396 406.719 72.2031H406.755H406.792H406.828H406.865H406.901C406.901 72.2031 406.938 72.2031 406.938 72.2396L424.602 85.3418ZM407.303 72.9695L424.383 85.6702L424.566 85.7797C424.383 85.7432 424.201 85.7067 424.018 85.6702C423.361 85.5607 422.777 85.5243 422.266 85.5243C421.646 85.5607 421.135 85.6702 420.77 85.8892C420.332 86.1447 420.113 86.5461 420.113 87.0936V99.7578L407.303 72.9695Z" fill="#1A1A1A"/>
<path d="M376.463 20.0109V19.9379L376.427 19.865L374.164 16.9088L376.427 14.0621L377.084 13.4781C378.653 12.0913 380.952 11.8723 382.741 12.8942L424.93 36.8357C428.872 39.062 431.317 43.259 431.317 47.7846V82.1275C431.317 84.6458 428.908 86.5071 426.463 85.8136L417.741 83.4049L408.471 78.0034L393.617 69.2808L378.106 54.3174C376.208 52.4926 375.149 49.9743 375.149 47.3466V30.1934L376.463 20.0109Z" fill="white"/>
<path fill-rule="evenodd" clip-rule="evenodd" d="M376.28 19.9731L374.967 30.192V47.3452C374.967 48.6956 375.222 49.973 375.77 51.2138C376.28 52.4547 377.047 53.5131 377.996 54.462L393.507 69.389L408.434 78.1481L417.667 83.5495L426.39 85.9948C427.01 86.1772 427.631 86.1772 428.251 86.0677C428.835 85.9583 429.382 85.7028 429.893 85.3378C430.368 84.9729 430.769 84.4984 431.061 83.951C431.353 83.367 431.499 82.7831 431.499 82.1262V47.7832C431.499 45.4839 430.915 43.3307 429.747 41.3599C428.58 39.3891 427.01 37.8197 425.003 36.6883L382.85 12.7468C381.901 12.1994 380.879 11.9804 379.821 12.0899C378.726 12.1994 377.777 12.6008 376.974 13.3307L376.28 13.9512L373.908 16.9074L376.28 19.9731ZM375.332 30.2285L376.645 20.0096L376.682 19.8636L376.572 19.7541L374.383 16.9074L376.536 14.1702L377.193 13.5862C377.959 12.9293 378.835 12.5278 379.821 12.4548C380.806 12.3453 381.755 12.5643 382.631 13.0388L424.82 37.0168C426.755 38.1117 428.288 39.6445 429.419 41.5788C430.55 43.5131 431.098 45.5934 431.098 47.8197V82.1262C431.098 82.7101 430.952 83.2575 430.696 83.7685C430.441 84.2794 430.076 84.6809 429.638 85.0094C429.2 85.3378 428.689 85.5568 428.142 85.6663C427.558 85.7758 427.01 85.7758 426.426 85.5933L417.74 83.1845L408.47 77.7466L393.689 69.0605L378.178 54.1335C377.266 53.2211 376.536 52.1992 376.025 50.9949C375.514 49.7905 375.259 48.5861 375.259 47.2722V30.2285H375.332Z" fill="#1A1A1A"/>
<path d="M429.562 85.6719L426.424 87.4237L427.665 85.8544L429.562 85.6719Z" fill="#1A1A1A"/>
<path d="M378.579 15.0112L422.009 40.0841C425.586 42.1644 427.776 45.9965 427.776 50.1205L427.52 84.865C427.52 86.9452 425.257 88.2591 423.433 87.2372L378.834 61.7628C375.805 60.0475 373.944 56.8358 373.944 53.3687V17.7119C373.907 15.3031 376.498 13.8068 378.579 15.0112Z" fill="white"/>
<path fill-rule="evenodd" clip-rule="evenodd" d="M374.199 15.999C373.907 16.51 373.725 17.0574 373.725 17.6779V53.3347C373.725 55.0865 374.163 56.7653 375.038 58.2982C375.914 59.831 377.155 61.0354 378.688 61.9113L423.286 87.3857C423.761 87.6411 424.272 87.7871 424.783 87.7871C425.294 87.7871 425.768 87.6411 426.206 87.3857C426.644 87.1302 427.009 86.8017 427.265 86.3638C427.557 85.9258 427.666 85.4149 427.666 84.8674L427.922 50.123C427.922 48.0062 427.411 46.0719 426.389 44.2471C425.33 42.4223 423.907 40.9989 422.082 39.9406L378.652 14.8676C378.104 14.5757 377.557 14.4297 376.973 14.4297C376.425 14.4297 375.878 14.5757 375.367 14.8676C374.892 15.1596 374.491 15.5246 374.199 15.999ZM374.09 53.3712V17.7143C374.09 17.1669 374.236 16.656 374.491 16.218C374.746 15.78 375.111 15.4516 375.549 15.1961C375.987 14.9406 376.462 14.7946 376.973 14.7946C377.52 14.7946 377.995 14.9041 378.469 15.1961L421.9 40.269C423.651 41.2909 425.038 42.6778 426.06 44.4296C427.082 46.1814 427.557 48.1157 427.557 50.123L427.301 84.8674C427.301 85.3419 427.192 85.7798 426.936 86.1813C426.717 86.5462 426.389 86.8382 426.024 87.0572C425.659 87.2762 425.221 87.3857 424.783 87.3857C424.308 87.3857 423.87 87.2762 423.469 87.0572L378.871 61.5828C377.411 60.7434 376.243 59.5755 375.367 58.1157C374.528 56.6558 374.09 55.05 374.09 53.3712Z" fill="#1A1A1A"/>
<path d="M430.77 44.0266H430.587C430.66 43.1871 429.748 42.6032 429.018 43.0047L426.244 44.501L427.449 85.8148L429.127 85.5228L429.2 85.4863C430.368 84.7929 431.098 83.552 431.098 82.1651V60.3404V50.7054L430.916 46.2528L430.587 44.0631L430.77 44.0266Z" fill="#1A1A1A"/>
<path fill-rule="evenodd" clip-rule="evenodd" d="M430.804 44.2073L431.133 46.2146L431.315 50.6671V82.1269C431.315 82.8568 431.133 83.5137 430.768 84.1342C430.403 84.7546 429.929 85.229 429.308 85.594L429.199 85.667L427.264 86.032L426.023 44.3898L428.907 42.8569C429.126 42.7474 429.345 42.7109 429.564 42.7109C429.783 42.7109 430.002 42.7839 430.184 42.9299C430.366 43.0394 430.512 43.2219 430.622 43.4044C430.695 43.5504 430.731 43.7328 430.768 43.8788L432.301 43.9883L430.804 44.2073ZM430.403 43.9153C430.403 43.6233 430.257 43.3679 430.002 43.2219C429.71 43.0394 429.418 43.0029 429.089 43.1854L426.388 44.6087L427.593 85.594L429.053 85.3385L429.126 85.302C429.673 84.9736 430.111 84.5356 430.439 83.9517C430.768 83.3677 430.914 82.7838 430.914 82.1269V50.6671L430.731 46.2511L430.403 44.1708H430.366V44.0248L430.403 43.9153Z" fill="#1A1A1A"/>
<path fill-rule="evenodd" clip-rule="evenodd" d="M393.031 41.6123C396.608 38.9845 402.703 40.5174 407.119 45.2619C411.79 50.2984 412.776 57.0867 409.345 60.4078C406.024 63.6195 399.747 62.4151 395.075 57.7436L397.703 55.2254C400.403 57.7801 403.907 58.4005 405.805 56.5757C407.812 54.6414 407.228 50.6998 404.528 47.7436C402.082 45.0794 398.725 44.167 396.608 45.4079L393.031 41.6123Z" fill="#1A1A1A"/>
<path d="M395.952 46.981L392.157 42.7109L389.273 45.2657L393.106 49.5357L390.113 52.1635L393.835 56.2875L396.828 53.6598L399.711 51.1051L395.952 46.981Z" fill="#01DB83"/>
</g>
<mask id="mask4_1494_14284" style="mask-type:luminance" maskUnits="userSpaceOnUse" x="224" y="224" width="50" height="36">
<path d="M273.721 224.453H224.816V259.854H273.721V224.453Z" fill="white"/>
</mask>
<g mask="url(#mask4_1494_14284)">
<path d="M239.747 229.965H239.783C256.389 227.155 264.6 228.907 268.688 232.228C272.703 235.512 272.849 240.33 272.958 244.199C272.958 244.235 272.958 244.308 272.958 244.345C273.068 248.067 270.513 251.571 266.206 254.199C261.936 256.826 255.987 258.542 249.418 258.724C242.849 258.907 236.936 257.629 232.63 255.33C228.323 253.067 225.695 249.819 225.586 246.096C225.586 245.914 225.586 245.768 225.586 245.585C225.549 243.834 225.477 242.045 225.622 240.366C225.768 238.505 226.17 236.79 227.009 235.294C228.652 232.337 232.192 230.184 239.747 229.965Z" fill="#01DB83"/>
<path fill-rule="evenodd" clip-rule="evenodd" d="M231.095 231.459C229.16 232.335 227.773 233.613 226.824 235.255C226.058 236.605 225.62 238.321 225.438 240.401C225.365 241.167 225.328 242.007 225.328 242.992C225.328 243.576 225.328 244.452 225.365 245.62V246.131C225.401 247.992 226.058 249.744 227.335 251.386C228.576 252.956 230.292 254.343 232.481 255.51C234.671 256.678 237.226 257.554 240.073 258.138C243.029 258.759 246.094 259.014 249.343 258.905C252.591 258.832 255.657 258.357 258.649 257.554C261.496 256.751 264.051 255.693 266.24 254.343C268.43 252.992 270.146 251.459 271.313 249.781C272.554 248.029 273.138 246.204 273.065 244.343V244.197C273.029 242.883 272.992 241.861 272.919 241.167C272.81 239.963 272.627 238.905 272.408 237.956C271.788 235.511 270.547 233.576 268.759 232.08C266.496 230.219 263.175 229.087 258.905 228.613C253.905 228.065 247.518 228.467 239.708 229.781C236.131 229.89 233.248 230.438 231.095 231.459ZM225.803 240.401C225.985 238.357 226.423 236.678 227.153 235.401C228.029 233.832 229.416 232.627 231.241 231.751C233.357 230.766 236.204 230.219 239.744 230.146H239.781H239.817C254.16 227.7 263.759 228.43 268.576 232.372C270.328 233.795 271.496 235.693 272.116 238.029C272.372 238.941 272.518 240 272.627 241.167C272.7 241.861 272.737 242.883 272.773 244.197V244.343C272.81 246.131 272.262 247.883 271.094 249.562C269.927 251.204 268.284 252.7 266.131 254.051C263.978 255.401 261.459 256.423 258.649 257.226C255.729 258.029 252.664 258.467 249.452 258.576C246.24 258.649 243.175 258.394 240.255 257.81C237.408 257.226 234.927 256.35 232.737 255.219C230.584 254.087 228.905 252.737 227.7 251.204C226.496 249.635 225.839 247.956 225.803 246.167V245.656C225.766 244.489 225.766 243.613 225.766 243.029C225.693 242.007 225.73 241.167 225.803 240.401Z" fill="#1A1A1A" stroke="#1A1A1A" stroke-width="0.4"/>
<path d="M272.737 238.285C272.847 241.971 270.329 245.438 266.132 248.029C261.934 250.62 256.022 252.336 249.489 252.482C242.92 252.664 236.971 251.277 232.628 248.905C228.285 246.533 225.584 243.212 225.511 239.526C225.402 235.839 227.92 232.372 232.117 229.781C236.314 227.19 242.227 225.475 248.759 225.329C255.329 225.146 261.278 226.533 265.621 228.905C269.964 231.277 272.628 234.599 272.737 238.285Z" fill="white"/>
<path fill-rule="evenodd" clip-rule="evenodd" d="M270.913 232.992C269.673 231.386 267.921 229.962 265.695 228.758C263.468 227.554 260.914 226.605 258.03 225.984C255.074 225.327 251.972 225.072 248.724 225.145C245.476 225.218 242.41 225.656 239.454 226.459C236.607 227.225 234.125 228.284 231.972 229.634C229.819 230.948 228.14 232.481 227.009 234.159C225.804 235.911 225.22 237.7 225.293 239.561C225.33 241.422 226.023 243.174 227.3 244.853C228.541 246.459 230.293 247.882 232.519 249.086C234.746 250.291 237.3 251.24 240.184 251.86C243.14 252.517 246.279 252.773 249.49 252.7C252.738 252.627 255.804 252.189 258.76 251.386C261.607 250.619 264.089 249.561 266.242 248.21C268.395 246.897 270.074 245.364 271.205 243.685C272.41 241.933 272.994 240.145 272.921 238.284C272.848 236.422 272.191 234.67 270.913 232.992ZM257.957 226.349C260.804 226.97 263.322 227.882 265.512 229.086C267.702 230.291 269.381 231.678 270.622 233.247C271.862 234.853 272.519 236.532 272.556 238.32C272.592 240.108 272.045 241.824 270.913 243.502C269.782 245.145 268.176 246.605 266.023 247.919C263.87 249.232 261.424 250.254 258.614 251.021C255.695 251.824 252.665 252.262 249.454 252.335C246.242 252.408 243.176 252.152 240.22 251.495C237.373 250.875 234.855 249.962 232.665 248.758C230.476 247.554 228.797 246.203 227.556 244.597C226.315 242.992 225.658 241.313 225.622 239.524C225.585 237.736 226.133 236.021 227.264 234.342C228.395 232.7 230.001 231.24 232.154 229.926C234.308 228.612 236.753 227.59 239.563 226.824C242.483 226.021 245.512 225.583 248.724 225.51C251.935 225.437 255.001 225.729 257.957 226.349Z" fill="#1A1A1A" stroke="#1A1A1A" stroke-width="0.4"/>
<path d="M268.033 238.284C268.106 240.839 266.135 243.284 262.705 245.145C259.31 247.007 254.566 248.211 249.274 248.357C243.982 248.503 239.201 247.518 235.697 245.875C232.194 244.196 230.077 241.861 230.004 239.306C229.931 236.751 231.902 234.306 235.332 232.445C238.727 230.583 243.471 229.379 248.763 229.233C254.055 229.087 258.836 230.072 262.34 231.715C265.88 233.394 267.96 235.729 268.033 238.284Z" fill="white"/>
<path fill-rule="evenodd" clip-rule="evenodd" d="M266.64 234.556C265.655 233.425 264.232 232.403 262.443 231.563C260.655 230.724 258.611 230.067 256.275 229.629C253.867 229.191 251.385 228.972 248.794 229.045C246.202 229.118 243.721 229.447 241.348 230.03C239.049 230.578 237.042 231.344 235.29 232.293C233.538 233.242 232.224 234.301 231.276 235.505C230.327 236.746 229.852 238.023 229.889 239.337C229.925 240.651 230.473 241.892 231.495 243.06C232.48 244.191 233.903 245.213 235.692 246.052C237.48 246.892 239.524 247.549 241.859 247.987C244.268 248.425 246.75 248.644 249.341 248.571C251.932 248.498 254.414 248.169 256.786 247.585C259.086 247.038 261.093 246.271 262.845 245.322C264.597 244.374 265.91 243.315 266.859 242.111C267.808 240.87 268.283 239.593 268.246 238.279C268.173 236.965 267.662 235.724 266.64 234.556ZM256.202 229.957C258.465 230.395 260.509 231.016 262.261 231.855C264.013 232.695 265.363 233.644 266.312 234.775C267.297 235.87 267.772 237.074 267.808 238.279C267.845 239.52 267.407 240.687 266.494 241.855C265.582 243.023 264.305 244.045 262.589 244.957C260.874 245.906 258.903 246.636 256.64 247.184C254.305 247.768 251.823 248.06 249.268 248.133C246.677 248.206 244.232 248.023 241.859 247.549C239.597 247.111 237.553 246.49 235.801 245.651C234.049 244.811 232.699 243.863 231.75 242.731C230.765 241.636 230.29 240.432 230.254 239.228C230.217 237.987 230.655 236.819 231.568 235.651C232.48 234.483 233.757 233.461 235.473 232.549C237.188 231.6 239.159 230.87 241.421 230.322C243.757 229.739 246.239 229.447 248.794 229.374C251.385 229.337 253.867 229.52 256.202 229.957Z" fill="#1A1A1A" stroke="#1A1A1A" stroke-width="0.4"/>
<path fill-rule="evenodd" clip-rule="evenodd" d="M234.125 249.636C234.125 249.6 234.125 249.6 234.125 249.636C234.125 249.6 234.125 249.563 234.125 249.563V249.527C234.125 249.527 234.125 249.49 234.088 249.49C234.088 249.49 234.088 249.49 234.052 249.454C234.015 249.417 234.015 249.454 234.015 249.454H233.979H233.942H233.906H233.869H233.833C233.833 249.454 233.796 249.454 233.796 249.49C233.796 249.49 233.796 249.49 233.76 249.527C233.723 249.563 233.76 249.563 233.76 249.563V249.6V249.636C233.76 249.855 233.76 250.22 233.76 250.731C233.723 252.154 233.723 253.176 233.76 253.833C233.796 255.001 233.906 255.768 234.088 256.096C234.088 256.096 234.088 256.133 234.125 256.133L234.161 256.169C234.161 256.169 234.198 256.169 234.198 256.206H234.234H234.271H234.307H234.344C234.344 256.206 234.38 256.206 234.38 256.169C234.38 256.169 234.38 256.169 234.417 256.133C234.453 256.096 234.417 256.096 234.417 256.096V256.06V256.023C234.417 255.987 234.417 255.95 234.38 255.95C234.234 255.658 234.125 254.965 234.088 253.833C234.052 253.176 234.052 252.154 234.088 250.731C234.125 250.184 234.125 249.819 234.125 249.636Z" fill="#1A1A1A"/>
<path d="M234.125 249.636C234.125 249.6 234.125 249.6 234.125 249.636ZM234.125 249.636C234.125 249.6 234.125 249.563 234.125 249.563V249.527C234.125 249.527 234.125 249.49 234.088 249.49C234.088 249.49 234.088 249.49 234.052 249.454C234.015 249.417 234.015 249.454 234.015 249.454H233.979H233.942H233.906H233.869H233.833C233.833 249.454 233.796 249.454 233.796 249.49C233.796 249.49 233.796 249.49 233.76 249.527C233.723 249.563 233.76 249.563 233.76 249.563V249.6V249.636C233.76 249.855 233.76 250.22 233.76 250.731C233.723 252.154 233.723 253.176 233.76 253.833C233.796 255.001 233.906 255.768 234.088 256.096C234.088 256.096 234.088 256.133 234.125 256.133L234.161 256.169C234.161 256.169 234.198 256.169 234.198 256.206H234.234H234.271H234.307H234.344C234.344 256.206 234.38 256.206 234.38 256.169C234.38 256.169 234.38 256.169 234.417 256.133C234.453 256.096 234.417 256.096 234.417 256.096V256.06V256.023C234.417 255.987 234.417 255.95 234.38 255.95C234.234 255.658 234.125 254.965 234.088 253.833C234.052 253.176 234.052 252.154 234.088 250.731C234.125 250.184 234.125 249.819 234.125 249.636Z" stroke="#1A1A1A" stroke-width="0.4"/>
<path fill-rule="evenodd" clip-rule="evenodd" d="M255.547 252.151C255.547 252.115 255.547 252.078 255.547 252.078V252.042C255.547 252.042 255.547 252.005 255.583 252.005C255.583 252.005 255.583 252.005 255.62 251.969H255.656H255.693H255.729H255.766H255.802H255.839C255.839 251.969 255.875 251.969 255.875 252.005C255.875 252.042 255.875 252.005 255.912 252.042C255.948 252.078 255.912 252.078 255.912 252.078V252.115V252.151V258.064V258.1V258.137V258.173C255.912 258.173 255.912 258.21 255.875 258.21C255.875 258.21 255.875 258.21 255.839 258.246H255.802H255.766H255.729H255.693H255.656H255.62C255.62 258.246 255.583 258.246 255.583 258.21C255.583 258.21 255.583 258.21 255.547 258.173V258.137V258.1V258.064V252.151Z" fill="#1A1A1A" stroke="#1A1A1A" stroke-width="0.4"/>
<path fill-rule="evenodd" clip-rule="evenodd" d="M257.594 251.643C257.594 251.607 257.594 251.57 257.594 251.57V251.534C257.594 251.534 257.594 251.497 257.63 251.497C257.63 251.497 257.63 251.497 257.667 251.461H257.703H257.74H257.776H257.813H257.849H257.886C257.886 251.461 257.922 251.461 257.922 251.497C257.922 251.534 257.922 251.497 257.959 251.534V251.57V251.607V251.643V257.556V257.592V257.629V257.665C257.959 257.665 257.959 257.702 257.922 257.702C257.886 257.702 257.922 257.702 257.886 257.738H257.849H257.813H257.776H257.74H257.703H257.667C257.667 257.738 257.63 257.738 257.63 257.702C257.63 257.702 257.63 257.702 257.594 257.665V257.629V257.592V257.556V251.643Z" fill="#1A1A1A" stroke="#1A1A1A" stroke-width="0.4"/>
<path fill-rule="evenodd" clip-rule="evenodd" d="M247.594 232.66C251.828 231.601 256.098 232.733 257.375 235.36C258.689 238.098 256.135 241.492 251.646 242.879C247.303 244.229 242.74 243.244 241.244 240.689L244.638 239.63C245.587 241.054 248.178 241.565 250.624 240.798C253.251 239.995 254.748 238.025 253.981 236.419C253.288 234.959 250.989 234.302 248.616 234.776L247.594 232.66Z" fill="#1A1A1A"/>
<path d="M247.336 235.476L246.315 233.141L242.665 234.199L243.687 236.535L239.928 237.63L240.913 239.892L244.672 238.798L248.322 237.739L247.336 235.476Z" fill="#1A1A1A"/>
</g>
<path d="M118.065 150.625L175.843 119.595C177.053 118.945 178.354 118.189 179.704 118.446C180.772 118.65 181.48 119.404 181.788 120.588C182.189 122.048 180.51 123.472 179.671 123.983L120.839 155.114C119.087 155.953 115.474 157.194 114.817 155.26C114.16 153.362 116.715 151.391 118.065 150.625Z" fill="white" stroke="#1A1A1A"/>
<path d="M116.402 156.376C116.82 156.176 116.842 155.35 116.451 154.532C116.06 153.713 115.404 153.212 114.986 153.412C114.568 153.611 114.545 154.437 114.936 155.255C115.327 156.074 115.983 156.576 116.402 156.376Z" fill="#1A1A1A"/>
<path d="M112.955 155.652L114.889 154.484C115.948 154.703 115.911 155.506 115.765 155.908L114.014 156.93C113.685 157.112 112.992 157.295 112.7 156.82C112.371 156.273 112.736 155.835 112.955 155.652Z" fill="#01DB83" stroke="#1A1A1A"/>
<path d="M372.444 165.33L372.627 80.111C372.627 79.3811 372.225 78.6877 371.568 78.3592L367.335 76.0234L366.787 171.534L370.911 168.395C371.897 167.665 372.444 166.534 372.444 165.33Z" fill="#1A1A1A" stroke="#1A1A1A"/>
<path d="M257.59 15.2563L371.385 78.2123C372.005 78.5407 372.005 79.4531 371.385 79.8181L367.006 82.2634L250.729 18.4314L255.947 15.2928C256.458 15.0008 257.079 14.9643 257.59 15.2563Z" fill="white" stroke="#1A1A1A"/>
<path d="M249.635 20.0025V98.2504L367.335 165.732V83.1774C367.335 82.5935 367.007 82.0461 366.496 81.7541L252.08 18.5426C250.985 17.9587 249.635 18.7251 249.635 20.0025Z" fill="white" stroke="#1A1A1A"/>
<path d="M255.035 27.8438V92.4056L359.779 152.04V86.5297L255.035 27.8438Z" fill="#1A1A1A" stroke="#1A1A1A" stroke-width="0.5"/>
<path d="M370.583 169.779L296.568 213.684C295.656 214.231 294.525 214.195 293.649 213.611L288.32 210.034L372.444 161.969V166.494C372.444 167.845 371.714 169.122 370.583 169.779Z" fill="#1A1A1A" stroke="#1A1A1A"/>
<path d="M181.823 146.674L293.465 213.498C293.83 213.717 294.304 213.462 294.304 213.024L294.158 207.002L181.385 139.922V145.907C181.385 146.236 181.567 146.528 181.823 146.674Z" fill="#E6E6FF" stroke="#1A1A1A"/>
<path d="M181.932 138.503L249.45 98.2109L367.224 164.634C367.333 164.707 367.333 164.89 367.224 164.963L294.158 207.444L181.932 140.693C181.093 140.182 181.093 138.977 181.932 138.503Z" fill="white" fill-opacity="0.67" stroke="#1A1A1A"/>
<path d="M228.539 161.388L262.298 180.841C263.612 181.607 265.218 181.607 266.496 180.841L286.605 169.089C287.7 168.469 287.7 166.899 286.605 166.242L252.663 146.571C251.24 145.768 249.488 145.768 248.101 146.571L228.576 157.885C227.226 158.688 227.226 160.622 228.539 161.388Z" stroke="#1A1A1A"/>
<path d="M191.422 25.9141L181.568 31.571L218.612 53.6512L229.013 47.2644L191.422 25.9141Z" fill="white" stroke="#1A1A1A"/>
<path d="M229.38 99.4524L201.132 116.168C200.84 116.35 200.512 116.058 200.585 115.766L216.971 54.3796L229.015 47.4453L229.38 99.4524Z" fill="#1A1A1A" stroke="#1A1A1A" stroke-width="0.5"/>
<path d="M219.161 52.9156L181.57 31.3828L156.57 90.3242L200.731 116.054L219.161 52.9156Z" fill="white" stroke="#1A1A1A"/>
<path d="M219.67 52.3397L181.531 31.1719L177.517 32.8507L175.692 44.274L169.889 57.3762L158.283 83.5805L180.29 97.0841L191.312 103.836L197.298 110.843L202.334 110.588L219.67 52.3397Z" fill="#E6E6FF" stroke="#1A1A1A"/>
<path d="M214.963 54.0166L177.372 33.0312L153.832 84.4544L197.08 110.695L214.963 54.0166Z" fill="white" stroke="#1A1A1A"/>
<path d="M203.284 70.0359L196.35 65.8389L199.269 57.9922L206.021 61.8243L203.284 70.0359Z" fill="white" stroke="#1A1A1A"/>
<path d="M181.386 57.3746L174.27 53.214L177.883 45.2578L184.817 49.4184L181.386 57.3746Z" fill="#01DB83" stroke="#1A1A1A"/>
<path d="M175.691 70.4717L168.137 66.0556L171.969 57.625L179.305 62.041L175.691 70.4717Z" fill="white" stroke="#1A1A1A"/>
<path d="M192.154 63.4628L185.402 59.4483L188.322 51.6016L195.256 55.7986L192.154 63.4628Z" fill="white" stroke="#1A1A1A"/>
<path d="M187.225 77.5136L179.926 72.9516L183.393 64.375L190.51 68.7545L187.225 77.5136Z" fill="white"/>
<path d="M198.539 84.084L191.24 79.7044L194.342 70.9453L201.642 75.1424L198.539 84.084Z" fill="white"/>
<path d="M187.225 77.5136L179.926 72.9516L183.393 64.375L190.51 68.7545L187.225 77.5136Z" stroke="#1A1A1A"/>
<path d="M198.539 84.084L191.24 79.7044L194.342 70.9453L201.642 75.1424L198.539 84.084Z" stroke="#1A1A1A"/>
<path d="M169.707 84.0862L162.408 79.5242L166.058 71.3125L173.357 75.8745L169.707 84.0862Z" fill="white"/>
<path d="M181.934 91.0237L174.27 86.4617L177.737 78.25L185.036 82.812L181.934 91.0237Z" fill="#01DB83"/>
<path d="M194.16 98.3155L186.496 93.571L189.416 85.3594L196.898 89.9214L194.16 98.3155Z" fill="white"/>
<path d="M169.707 84.0862L162.408 79.5242L166.058 71.3125L173.357 75.8745L169.707 84.0862Z" stroke="#1A1A1A"/>
<path d="M181.934 91.0237L174.27 86.4617L177.737 78.25L185.036 82.812L181.934 91.0237Z" fill="white" stroke="#1A1A1A"/>
<path d="M194.16 98.3155L186.496 93.571L189.416 85.3594L196.898 89.9214L194.16 98.3155Z" stroke="#1A1A1A"/>
<path d="M213.684 42.8813C211.604 42.1513 206.677 41.9689 203.465 47.0783C202.626 48.1732 201.166 51.2754 202.188 54.925" stroke="#1A1A1A"/>
<path d="M195.436 31.7563C193.356 31.0263 188.429 30.8439 185.217 35.9533C184.378 37.0482 182.918 40.1504 183.94 43.8" stroke="#1A1A1A"/>
<path d="M374.05 215.659C367.48 215.842 361.531 214.455 357.225 211.973C352.918 209.491 350.218 205.951 350.145 201.863C350.145 201.681 350.145 201.498 350.145 201.316C350.108 199.418 350.035 197.484 350.181 195.623C350.327 193.615 350.729 191.717 351.568 190.075C353.247 186.79 356.823 184.455 364.378 184.236C380.984 181.17 389.196 183.068 393.32 186.718C397.371 190.294 397.517 195.623 397.626 199.783C397.626 199.856 397.626 199.893 397.626 199.966C397.736 204.09 395.801 207.995 391.86 210.915C387.918 213.761 381.969 215.659 374.05 215.659Z" fill="#01DB83" stroke="#1A1A1A"/>
<path d="M397.591 193.353C397.7 197.404 395.145 201.199 390.912 204.01C386.678 206.82 380.766 208.681 374.16 208.864C367.554 209.046 361.569 207.55 357.189 204.958C352.81 202.367 350.072 198.754 349.999 194.667C349.89 190.615 352.445 186.82 356.678 184.01C360.912 181.199 366.861 179.338 373.43 179.156C380.036 178.973 386.021 180.469 390.401 183.061C394.78 185.652 397.481 189.302 397.591 193.353Z" fill="#01DB83" stroke="#1A1A1A"/>
<path d="M358.576 205.805C358.576 207.739 358.321 211.827 358.759 212.739" stroke="#1A1A1A" stroke-linecap="round" stroke-linejoin="round"/>
<path d="M380.291 208.359V215.111" stroke="#1A1A1A" stroke-linecap="round" stroke-linejoin="round"/>
<path d="M382.48 207.812V214.747" stroke="#1A1A1A" stroke-linecap="round" stroke-linejoin="round"/>
<path d="M370.071 193.361C369.998 193.434 369.961 193.471 369.888 193.361L369.049 192.084L367.845 193.033L369.414 195.368L367.662 196.719L368.502 197.96L370.253 196.609L370.764 197.376L369.012 198.726L369.815 199.894L371.567 198.544L372.151 199.42C372.553 200.004 374.414 201.755 376.239 200.368C377.297 199.639 377.699 198.215 377.297 196.938C378.283 197.376 379.122 197.266 379.852 196.609C380.91 195.587 380.582 194.383 380.399 193.69C380.217 193.179 379.998 192.668 379.706 192.193L381.531 190.77L380.764 189.639L378.939 191.062L378.319 190.15L380.144 188.726L379.377 187.595L377.553 189.018L375.947 186.609L374.852 187.449L375.728 188.763C375.801 188.909 375.764 188.945 375.728 188.982L370.071 193.361ZM377.224 190.989L378.173 192.376C378.319 192.631 378.939 193.945 377.991 194.639C377.48 195.04 376.75 195.004 376.312 194.529C376.202 194.456 376.129 194.347 376.056 194.237L375.034 192.704L377.224 190.989ZM373.866 193.617L375.326 195.806C375.764 196.5 375.582 197.412 374.925 197.85C374.195 198.434 373.392 197.996 373.1 197.668C373.064 197.631 372.991 197.595 372.954 197.522L371.531 195.405L373.866 193.617Z" fill="#1A1A1A"/>
<path d="M397.37 187.922C397.589 196.28 386.75 203.47 373.538 203.835C360.327 204.2 349.597 198.214 349.378 189.857C349.159 181.499 348.611 172.484 363.83 172.046C397.115 165.952 397.151 179.565 397.37 187.922Z" fill="white"/>
<path d="M363.831 172.229C380.509 169.164 388.758 171.062 392.882 174.675C396.969 178.251 397.079 183.58 397.188 187.74C397.188 187.813 397.188 187.85 397.188 187.923C397.298 192.01 394.706 195.843 390.4 198.726C386.093 201.572 380.108 203.47 373.539 203.653C366.969 203.835 360.984 202.448 356.677 199.967C352.334 197.485 349.67 193.945 349.561 189.857C349.561 189.675 349.561 189.492 349.561 189.31C349.524 187.412 349.451 185.478 349.597 183.616C349.743 181.609 350.145 179.711 350.984 178.069C352.663 174.821 356.239 172.448 363.831 172.229Z" stroke="#1A1A1A"/>
<path d="M397.079 181.09C397.188 185.141 394.633 188.936 390.4 191.746C386.166 194.557 380.254 196.418 373.648 196.6C367.042 196.783 361.057 195.287 356.677 192.695C352.298 190.104 349.597 186.491 349.488 182.44C349.378 178.389 351.933 174.593 356.166 171.783C360.4 168.973 366.312 167.112 372.918 166.929C379.524 166.747 385.509 168.243 389.889 170.834C394.268 173.389 396.969 177.038 397.079 181.09Z" fill="white" stroke="#1A1A1A"/>
<path d="M392.37 181.097C392.443 183.943 390.4 186.608 386.969 188.651C383.538 190.659 378.794 191.972 373.465 192.155C368.137 192.301 363.319 191.243 359.816 189.454C356.312 187.629 354.122 185.075 354.086 182.228C354.013 179.381 356.057 176.717 359.487 174.673C362.918 172.666 367.662 171.352 372.991 171.17C378.319 171.024 383.137 172.082 386.641 173.87C390.144 175.695 392.297 178.25 392.37 181.097Z" fill="white" stroke="#1A1A1A"/>
<path d="M358.062 193.609C358.062 195.836 357.916 200.58 358.391 201.639" stroke="#1A1A1A" stroke-linecap="round" stroke-linejoin="round"/>
<path d="M379.926 196.133V202.556" stroke="#1A1A1A" stroke-linecap="round" stroke-linejoin="round"/>
<path d="M382.006 195.586V201.973" stroke="#1A1A1A" stroke-linecap="round" stroke-linejoin="round"/>
<path d="M369.561 181.096C369.488 181.169 369.452 181.205 369.379 181.096L368.539 179.818L367.335 180.767L368.904 183.103L367.152 184.453L367.992 185.694L369.744 184.344L370.255 185.11L368.503 186.46L369.306 187.628L371.057 186.278L371.641 187.154C372.043 187.738 373.904 189.49 375.729 188.103C376.787 187.373 377.189 185.95 376.787 184.672C377.773 185.11 378.612 185.001 379.342 184.344C380.4 183.322 380.072 182.117 379.89 181.424C379.707 180.913 379.488 180.402 379.196 179.928L381.021 178.504L380.255 177.373L378.43 178.796L377.809 177.884L379.634 176.461L378.868 175.329L377.043 176.752L375.437 174.344L374.342 175.183L375.218 176.497C375.291 176.643 375.254 176.68 375.218 176.716L369.561 181.096ZM376.714 178.723L377.663 180.11C377.809 180.366 378.43 181.679 377.481 182.373C376.97 182.774 376.24 182.738 375.802 182.263C375.692 182.19 375.619 182.081 375.546 181.971L374.525 180.439L376.714 178.723ZM373.357 181.351L374.817 183.541C375.255 184.234 375.072 185.147 374.415 185.585C373.685 186.169 372.882 185.731 372.59 185.402C372.554 185.366 372.481 185.329 372.444 185.256L371.021 183.139L373.357 181.351Z" fill="#1A1A1A"/>
<path d="M396.97 175.99C397.189 184.348 386.459 191.537 373.357 191.902C360.255 192.267 349.634 186.282 349.415 177.924C349.196 169.567 348.649 160.552 363.722 160.114C396.714 153.983 396.787 167.632 396.97 175.99Z" fill="#01DB83"/>
<path d="M363.721 160.3C380.217 157.234 388.429 159.132 392.517 162.745C396.568 166.322 396.677 171.65 396.787 175.811C396.787 175.884 396.787 175.92 396.787 175.993C396.896 180.081 394.305 183.913 390.035 186.796C385.765 189.643 379.852 191.541 373.32 191.723C366.787 191.906 360.911 190.519 356.604 188.037C352.298 185.555 349.67 182.015 349.561 177.927C349.561 177.745 349.561 177.563 349.561 177.38C349.524 175.482 349.451 173.548 349.597 171.687C349.743 169.679 350.145 167.782 350.984 166.139C352.663 162.855 356.239 160.519 363.721 160.3Z" stroke="#1A1A1A"/>
<path d="M396.569 169.78C396.679 173.758 394.161 177.444 389.963 180.181C385.766 182.918 379.891 184.743 373.358 184.926C366.825 185.108 360.876 183.648 356.569 181.13C352.226 178.612 349.562 175.072 349.453 171.13C349.343 167.152 351.861 163.466 356.058 160.729C360.256 157.991 366.131 156.167 372.628 155.984C379.161 155.802 385.109 157.261 389.416 159.78C393.796 162.261 396.496 165.802 396.569 169.78Z" fill="white" stroke="#1A1A1A"/>
<path d="M391.934 169.417C392.007 172.264 389.999 174.928 386.605 176.972C383.211 178.979 378.503 180.293 373.248 180.475C367.992 180.621 363.211 179.563 359.744 177.775C356.277 175.95 354.124 173.395 354.051 170.548C353.978 167.702 355.985 165.037 359.379 162.994C362.773 160.986 367.481 159.672 372.737 159.49C377.992 159.344 382.773 160.402 386.24 162.191C389.708 163.979 391.861 166.534 391.934 169.417Z" fill="white" stroke="#1A1A1A"/>
<path d="M357.992 182.008C357.992 183.906 357.809 187.92 358.283 188.796" stroke="#1A1A1A" stroke-linecap="round" stroke-linejoin="round"/>
<path d="M379.6 184.453V190.876" stroke="#1A1A1A" stroke-linecap="round" stroke-linejoin="round"/>
<path d="M381.641 183.906V190.293" stroke="#1A1A1A" stroke-linecap="round" stroke-linejoin="round"/>
<path d="M365.546 169.526C365.473 169.563 365.436 169.599 365.254 169.563L363.137 168.942L362.006 169.745L365.911 170.877L364.269 172.081L366.349 172.702L367.991 171.497L369.305 171.862L367.663 173.067L369.67 173.651L371.312 172.446L372.809 172.884C373.794 173.176 377.809 173.906 379.524 172.665C380.546 172.008 380.217 171.023 378.685 170.329C380.473 170.439 381.641 170.183 382.225 169.636C383.101 168.797 381.787 168.103 381.02 167.702C380.4 167.41 379.707 167.154 378.977 166.899L380.692 165.658L378.758 165.11L377.042 166.351L375.509 165.913L377.225 164.672L375.29 164.125L373.575 165.366L369.524 164.161L368.502 164.891L370.728 165.548C370.947 165.621 370.911 165.658 370.838 165.694L365.546 169.526ZM374.488 166.643L376.86 167.337C377.261 167.446 379.05 168.176 378.174 168.797C377.699 169.161 376.604 169.271 375.582 169.052C375.363 169.015 375.181 168.979 374.999 168.906L372.407 168.14L374.488 166.643ZM371.349 168.942L375.035 170.037C376.166 170.366 376.531 170.986 375.874 171.388C375.181 171.899 373.721 171.753 373.028 171.643C372.918 171.643 372.809 171.607 372.736 171.57L369.159 170.512L371.349 168.942Z" fill="#1A1A1A"/>
<path d="M109.063 130.946C106.699 129.584 105.621 127.865 105.611 126.246C105.601 124.629 106.657 122.908 109.01 121.538C111.352 120.179 114.462 119.484 117.604 119.484C120.747 119.484 123.867 120.179 126.228 121.539C128.591 122.901 129.665 124.619 129.673 126.238C129.681 127.856 128.625 129.578 126.281 130.947C123.939 132.307 120.833 133.001 117.693 133.001C114.554 133.001 111.433 132.307 109.063 130.946Z" fill="white" stroke="#1A1A1A"/>
<path d="M108.812 125.742C106.348 124.319 105.107 122.439 105.107 120.578L105.126 118.188C105.126 120.067 106.348 121.928 108.83 123.352C113.739 126.18 121.677 126.18 126.549 123.352C128.976 121.947 130.18 120.104 130.199 118.26L130.18 120.651C130.18 122.494 128.958 124.337 126.531 125.742C121.658 128.571 113.721 128.571 108.812 125.742Z" fill="#01DB83"/>
<path d="M108.812 128.133C106.348 126.71 105.107 124.83 105.107 122.969L105.126 120.578C105.126 122.458 106.348 124.319 108.83 125.742C113.739 128.571 121.677 128.571 126.549 125.742C128.976 124.337 130.18 122.494 130.199 120.651L130.18 123.042C130.18 124.885 128.958 126.728 126.531 128.133C121.658 130.98 113.721 130.98 108.812 128.133Z" fill="white"/>
<path d="M108.812 130.516C106.348 129.092 105.107 127.213 105.107 125.351L105.126 122.961C105.126 124.84 106.348 126.702 108.83 128.125C113.739 130.954 121.677 130.954 126.549 128.125C128.976 126.72 130.18 124.877 130.199 123.034L130.18 125.424C130.18 127.267 128.958 129.111 126.531 130.516C121.658 133.362 113.721 133.362 108.812 130.516Z" fill="#01DB83"/>
<path d="M109.063 122.915C106.699 121.553 105.621 119.834 105.611 118.215C105.601 116.598 106.657 114.877 109.01 113.507C111.352 112.147 114.462 111.453 117.604 111.453C120.747 111.453 123.867 112.147 126.228 113.508C128.591 114.869 129.665 116.588 129.673 118.207C129.681 119.825 128.625 121.546 126.281 122.916C123.939 124.275 120.833 124.97 117.693 124.97C114.554 124.97 111.433 124.275 109.063 122.915Z" fill="white" stroke="#1A1A1A"/>
<path d="M109.762 119.044L110.163 119.647L124.451 116.417L124.05 115.814L109.762 119.044ZM117.243 114.063L110.492 113.898L110.765 117.804L111.878 117.785L111.641 114.592L117.189 114.72L117.243 114.063ZM123.904 117.913L122.791 117.931L123.028 121.125L117.481 120.997L117.426 121.636L124.178 121.8L123.904 117.913Z" fill="#1A1A1A"/>
<path d="M322.152 75.2155L312.48 69.6316V68.2812L322.152 73.8652V75.2155Z" fill="#BBC0E6"/>
<path d="M336.514 83.503L325.164 76.9519V75.6016L336.514 82.1526V83.503Z" fill="#BBC0E6"/>
<path d="M316.221 75.4568L312.48 73.3035V71.9531L316.221 74.1064V75.4568Z" fill="#E6E6FF"/>
<path d="M336.515 87.155L319.252 77.1915V75.8594L336.515 85.8229V87.155Z" fill="white"/>
<path d="M336.514 90.8165L327.846 85.8165V84.4844L336.514 89.4661V90.8165Z" fill="#FCF192"/>
<path d="M318.137 83.8642L312.48 80.616V79.2656L318.137 82.532V83.8642Z" fill="white"/>
<path d="M336.513 94.4663L321.148 85.5977V84.2656L336.513 93.1342V94.4663Z" fill="white"/>
<path d="M316.532 86.608L312.48 84.2722V82.9219L316.532 85.2576V86.608Z" fill="white"/>
<path d="M336.516 98.1314L319.545 88.3321V87L336.516 96.781V98.1314Z" fill="white"/>
<path d="M318.137 94.8512L312.48 91.5847V90.2344L318.137 93.5008V94.8512Z" fill="white"/>
<path d="M336.513 105.453L321.148 96.5847V95.2344L336.513 104.103V105.453Z" fill="white"/>
<path d="M319.962 99.5595L314.305 96.293V94.9609L319.962 98.2091V99.5595Z" fill="white"/>
<path d="M336.513 109.125L321.148 100.257V98.9062L336.513 107.775V109.125Z" fill="white"/>
<path d="M316.148 101.014L312.48 98.8972V97.5469L316.148 99.6637V101.014Z" fill="#FCF192"/>
<path d="M334.579 111.658L317.207 101.639V100.289L334.579 110.307V111.658Z" fill="white"/>
<path d="M318.137 109.484L312.48 106.218V104.867L318.137 108.134V109.484Z" fill="white"/>
<path d="M336.513 120.086L321.148 111.218V109.867L336.513 118.736V120.086Z" fill="white"/>
<path d="M318.137 116.804L312.48 113.538V112.188L318.137 115.454V116.804Z" fill="white"/>
<path d="M336.513 127.406L321.148 118.538V117.188L336.513 126.056V127.406Z" fill="white"/>
<path d="M318.137 120.458L312.48 117.21V115.859L318.137 119.126V120.458Z" fill="#BBC0E6"/>
<path d="M332.152 128.542L321.148 122.21V120.859L332.152 127.21V128.542Z" fill="#BBC0E6"/>
<path d="M270.62 85.7079L264.963 82.4415V81.1094L270.62 84.3575V85.7079Z" fill="white"/>
<path d="M304.616 105.343L273.631 87.4415V86.1094L304.616 103.993V105.343Z" fill="white"/>
<path d="M274.634 91.6739L264.963 86.1082V84.7578L274.634 90.3417V91.6739Z" fill="#BBC0E6"/>
<path d="M268.722 91.9333L264.963 89.7618V88.4297L268.722 90.583V91.9333Z" fill="#E6E6FF"/>
<path d="M308.959 115.159L271.732 93.6629V92.3125L308.959 113.809V115.159Z" fill="white"/>
<path d="M339.27 92.0798C339.27 90.2733 340.529 89.5434 342.098 90.4558C343.667 91.3499 344.926 93.5579 344.926 95.3463C344.926 97.1528 343.667 97.8827 342.098 96.9703C340.529 96.0762 339.27 93.8864 339.27 92.0798Z" fill="#EF4E16"/>
<path d="M339.27 103.064C339.27 101.258 340.529 100.528 342.098 101.44C343.667 102.334 344.926 104.542 344.926 106.331C344.926 108.137 343.667 108.867 342.098 107.955C340.529 107.061 339.27 104.871 339.27 103.064Z" fill="white"/>
<path d="M339.27 114.033C339.27 112.226 340.529 111.496 342.098 112.409C343.667 113.303 344.926 115.511 344.926 117.299C344.926 119.106 343.667 119.836 342.098 118.923C340.529 118.029 339.27 115.84 339.27 114.033Z" fill="white"/>
<path d="M339.27 125.017C339.27 123.211 340.529 122.481 342.098 123.393C343.667 124.287 344.926 126.495 344.926 128.284C344.926 130.09 343.667 130.82 342.098 129.908C340.529 129.014 339.27 126.824 339.27 125.017Z" fill="white"/>
<path d="M282.755 73.8297L284.179 75.3808L292.792 57.6254L291.368 56.0743L282.755 73.8297ZM281.606 54.7422L274.635 58.1181L281.606 69.5414L282.664 68.8298L276.952 59.4502L282.664 56.6765L281.606 54.7422ZM294.835 62.3882L293.777 63.0998L299.489 72.4794L293.777 75.2531L294.835 77.1874L301.806 73.8115L294.835 62.3882Z" fill="white"/>
<path d="M284.253 82.8402L281.881 81.4716V78.7344L284.253 80.103V82.8402Z" fill="white"/>
<path d="M288.962 85.5407L286.59 84.1721V81.4531L288.962 82.8217V85.5407Z" fill="white"/>
<path d="M293.667 88.2621L291.295 86.8935V84.1562L293.667 85.5249V88.2621Z" fill="white"/>
<path d="M260.424 111.135L255.984 108.571L258.196 107.297L262.636 109.862L260.424 111.135Z" fill="#ECECEC"/>
<path d="M267.891 115.448L263.451 112.883L265.68 111.609L270.12 114.174L267.891 115.448Z" fill="#ECECEC"/>
<path d="M275.374 119.768L270.934 117.203L273.145 115.93L277.585 118.495L275.374 119.768Z" fill="#ECECEC"/>
<path d="M282.836 124.089L278.414 121.524L280.625 120.25L285.065 122.815L282.836 124.089Z" fill="#ECECEC"/>
<path d="M290.319 128.401L285.879 125.836L288.108 124.562L292.548 127.127L290.319 128.401Z" fill="#ECECEC"/>
<path d="M297.801 132.714L293.361 130.149L295.572 128.875L300.012 131.44L297.801 132.714Z" fill="#ECECEC"/>
<path d="M305.268 137.034L300.828 134.469L303.057 133.195L307.497 135.76L305.268 137.034Z" fill="#ECECEC"/>
<path d="M312.749 141.346L308.309 138.781L310.537 137.508L314.96 140.073L312.749 141.346Z" fill="#ECECEC"/>
<path d="M320.231 145.667L315.791 143.102L318.002 141.828L322.442 144.393L320.231 145.667Z" fill="#ECECEC"/>
<path d="M327.696 149.979L323.256 147.414L325.485 146.141L329.925 148.706L327.696 149.979Z" fill="#ECECEC"/>
<path d="M335.178 154.292L330.738 151.727L332.949 150.453L337.389 153.018L335.178 154.292Z" fill="#ECECEC"/>
<path d="M342.659 158.62L338.219 156.055L340.43 154.781L344.87 157.346L342.659 158.62Z" fill="#ECECEC"/>
<path d="M256.482 117.51L248.504 112.893L252.944 110.328L260.922 114.945L256.482 117.51Z" fill="#ECECEC"/>
<path d="M252.36 123.394L241.34 117.026L245.78 114.461L256.8 120.829L252.36 123.394Z" fill="#ECECEC"/>
<path d="M247.918 129.466L233.855 121.346L238.295 118.781L252.358 126.901L247.918 129.466Z" fill="#ECECEC"/>
<path d="M232.794 131.178L224.816 126.561L230.831 123.094L238.809 127.711L232.794 131.178Z" fill="#ECECEC"/>
<path d="M243.814 137.527L235.836 132.928L241.832 129.461L249.828 134.06L243.814 137.527Z" fill="#ECECEC"/>
<path d="M254.835 143.896L246.857 139.297L252.854 135.812L260.832 140.429L254.835 143.896Z" fill="#ECECEC"/>
<path d="M292.816 165.834L284.838 161.217L290.852 157.75L298.83 162.367L292.816 165.834Z" fill="#ECECEC"/>
<path d="M311.495 176.6L295.84 167.561L301.854 164.094L317.491 173.133L311.495 176.6Z" fill="#ECECEC"/>
<path d="M281.811 159.48L257.859 145.647L263.874 142.18L287.825 156.013L281.811 159.48Z" fill="#ECECEC"/>
<path d="M266.053 123.02L259.525 119.252L263.965 116.688L270.493 120.455L266.053 123.02Z" fill="#ECECEC"/>
<path d="M261.928 128.911L255.383 125.143L259.823 122.578L266.368 126.346L261.928 128.911Z" fill="#ECECEC"/>
<path d="M257.682 134.856L251.154 131.088L255.594 128.523L262.122 132.309L257.682 134.856Z" fill="#ECECEC"/>
<path d="M267.252 140.395L260.725 136.627L265.165 134.062L271.692 137.83L267.252 140.395Z" fill="#ECECEC"/>
<path d="M276.822 145.911L270.295 142.143L274.735 139.578L281.262 143.346L276.822 145.911Z" fill="#ECECEC"/>
<path d="M286.393 151.434L279.865 147.667L284.305 145.102L290.833 148.869L286.393 151.434Z" fill="#ECECEC"/>
<path d="M295.961 156.973L289.434 153.188L293.874 150.641L300.401 154.408L295.961 156.973Z" fill="#ECECEC"/>
<path d="M305.535 162.489L299.008 158.721L303.448 156.156L309.975 159.924L305.535 162.489Z" fill="#ECECEC"/>
<path d="M320.746 171.259L308.559 164.237L312.999 161.672L325.186 168.712L320.746 171.259Z" fill="#ECECEC"/>
<path d="M271.498 134.434L264.953 130.667L269.393 128.102L275.938 131.869L271.498 134.434Z" fill="#ECECEC"/>
<path d="M281.051 139.973L274.523 136.188L278.963 133.641L285.491 137.408L281.051 139.973Z" fill="#ECECEC"/>
<path d="M290.617 145.489L284.09 141.721L288.53 139.156L295.057 142.924L290.617 145.489Z" fill="#ECECEC"/>
<path d="M300.191 151.005L293.664 147.237L298.104 144.672L304.631 148.44L300.191 151.005Z" fill="#ECECEC"/>
<path d="M309.76 156.528L303.232 152.76L307.672 150.195L314.2 153.981L309.76 156.528Z" fill="#ECECEC"/>
<path d="M328.015 167.073L312.803 158.299L317.243 155.734L332.455 164.508L328.015 167.073Z" fill="#ECECEC"/>
<path d="M275.619 128.544L269.092 124.776L273.532 122.211L280.059 125.979L275.619 128.544Z" fill="#ECECEC"/>
<path d="M285.191 134.083L278.664 130.297L283.104 127.75L289.631 131.518L285.191 134.083Z" fill="#ECECEC"/>
<path d="M294.762 139.598L288.234 135.831L292.657 133.266L299.202 137.033L294.762 139.598Z" fill="#ECECEC"/>
<path d="M304.332 145.114L297.787 141.346L302.227 138.781L308.772 142.549L304.332 145.114Z" fill="#ECECEC"/>
<path d="M313.897 150.637L307.352 146.87L311.792 144.305L318.319 148.09L313.897 150.637Z" fill="#ECECEC"/>
<path d="M323.453 156.176L316.926 152.409L321.366 149.844L327.893 153.612L323.453 156.176Z" fill="#ECECEC"/>
<path d="M335.181 162.93L326.496 157.924L330.936 155.359L339.621 160.365L335.181 162.93Z" fill="#ECECEC"/>
<path d="M62.2558 161.566L71.4173 181.186C71.9777 182.373 73.4396 182.834 74.5605 182.18L99.6083 167.816C101.436 166.774 100.924 164.013 98.8286 163.698L64.6193 158.417C62.865 158.151 61.5005 159.943 62.2558 161.566Z" fill="#E6E6FF"/>
<path d="M331.511 4.59366V4.55144L331.49 4.50922L330.182 2.79941L331.49 1.15292L331.87 0.815177C332.778 0.0130416 334.108 -0.113611 335.142 0.477436L359.544 14.3248C361.824 15.6125 363.238 18.04 363.238 20.6575V40.5209C363.238 41.9774 361.845 43.054 360.431 42.6529L355.386 41.2597L350.024 38.1356L341.433 33.0906L332.461 24.436C331.364 23.3805 330.752 21.924 330.752 20.4042V10.483L331.511 4.59366Z" fill="white"/>
<path fill-rule="evenodd" clip-rule="evenodd" d="M331.403 4.57534L330.643 10.4858V20.407C330.643 21.188 330.791 21.9268 331.108 22.6445C331.403 23.3622 331.847 23.9744 332.395 24.5232L341.367 33.1567L350 38.2228L355.341 41.3469L360.386 42.7612C360.745 42.8668 361.103 42.8668 361.462 42.8035C361.8 42.7401 362.117 42.5924 362.412 42.3813C362.687 42.1702 362.919 41.8958 363.088 41.5791C363.257 41.2414 363.341 40.9037 363.341 40.5237V20.6603C363.341 19.3304 363.003 18.085 362.328 16.9451C361.652 15.8052 360.745 14.8976 359.584 14.2432L335.203 0.395791C334.654 0.0791582 334.063 -0.0474949 333.451 0.0158316C332.818 0.0791581 332.269 0.311355 331.804 0.733532L331.403 1.09238L330.031 2.8022L331.403 4.57534ZM330.854 10.5069L331.614 4.59645L331.636 4.51201L331.572 4.44869L330.306 2.8022L331.551 1.21904L331.931 0.881294C332.374 0.501335 332.881 0.269138 333.451 0.22692C334.021 0.163594 334.57 0.290247 335.076 0.564661L359.478 14.4332C360.597 15.0664 361.483 15.953 362.138 17.0718C362.792 18.1905 363.109 19.3937 363.109 20.6814V40.5237C363.109 40.8614 363.024 41.1781 362.877 41.4736C362.729 41.7691 362.518 42.0013 362.264 42.1913C362.011 42.3813 361.716 42.5079 361.399 42.5713C361.061 42.6346 360.745 42.6346 360.407 42.529L355.383 41.1359L350.021 37.9906L341.472 32.9667L332.501 24.3332C331.973 23.8055 331.551 23.2144 331.256 22.5179C330.96 21.8213 330.812 21.1247 330.812 20.3648V10.5069H330.854Z" fill="#1A1A1A"/>
<path d="M362.224 42.5703L360.408 43.5835L361.126 42.6759L362.224 42.5703Z" fill="#1A1A1A"/>
<path d="M332.734 1.69907L357.853 16.2008C359.922 17.404 361.188 19.6205 361.188 22.0058L361.041 42.1014C361.041 43.3046 359.732 44.0645 358.677 43.4735L332.882 28.7395C331.13 27.7474 330.053 25.8898 330.053 23.8845V3.26112C330.032 1.86794 331.531 1.00248 332.734 1.69907Z" fill="white"/>
<path fill-rule="evenodd" clip-rule="evenodd" d="M330.2 2.27487C330.031 2.57039 329.926 2.88702 329.926 3.24587V23.8692C329.926 24.8824 330.179 25.8534 330.686 26.74C331.192 27.6266 331.91 28.3232 332.797 28.8298L358.592 43.5638C358.866 43.7115 359.162 43.796 359.457 43.796C359.753 43.796 360.027 43.7115 360.28 43.5638C360.534 43.416 360.745 43.226 360.892 42.9727C361.061 42.7194 361.125 42.4239 361.125 42.1073L361.272 22.0116C361.272 20.7873 360.977 19.6686 360.386 18.6131C359.774 17.5577 358.95 16.7344 357.895 16.1223L332.775 1.62049C332.459 1.45162 332.142 1.36719 331.804 1.36719C331.488 1.36719 331.171 1.45162 330.876 1.62049C330.601 1.78936 330.369 2.00045 330.2 2.27487ZM330.137 23.8903V3.26698C330.137 2.95035 330.221 2.65483 330.369 2.40152C330.517 2.14821 330.728 1.95824 330.981 1.81047C331.235 1.66271 331.509 1.57828 331.804 1.57828C332.121 1.57828 332.396 1.6416 332.67 1.81047L357.789 16.3122C358.803 16.9033 359.605 17.7054 360.196 18.7187C360.787 19.7319 361.061 20.8506 361.061 22.0116L360.914 42.1073C360.914 42.3817 360.85 42.635 360.702 42.8672C360.576 43.0783 360.386 43.2471 360.175 43.3738C359.964 43.5004 359.71 43.5638 359.457 43.5638C359.183 43.5638 358.929 43.5004 358.697 43.3738L332.902 28.6398C332.058 28.1543 331.382 27.4788 330.876 26.6345C330.39 25.7901 330.137 24.8613 330.137 23.8903Z" fill="#1A1A1A"/>
<path d="M362.92 18.4864H362.815C362.857 18.0009 362.329 17.6631 361.907 17.8953L360.303 18.7608L360.999 42.656L361.97 42.4871L362.013 42.466C362.688 42.0649 363.11 41.3472 363.11 40.5451V27.922V22.3493L363.005 19.774L362.815 18.5075L362.92 18.4864Z" fill="#1A1A1A"/>
<path fill-rule="evenodd" clip-rule="evenodd" d="M362.941 18.592L363.131 19.753L363.237 22.3283V40.5241C363.237 40.9463 363.131 41.3262 362.92 41.6851C362.709 42.0439 362.434 42.3184 362.076 42.5294L362.012 42.5717L360.893 42.7828L360.176 18.6976L361.843 17.811C361.97 17.7477 362.097 17.7266 362.223 17.7266C362.35 17.7266 362.477 17.7688 362.582 17.8532C362.688 17.9165 362.772 18.0221 362.836 18.1276C362.878 18.2121 362.899 18.3176 362.92 18.402L363.807 18.4654L362.941 18.592ZM362.709 18.4232C362.709 18.2543 362.624 18.1065 362.477 18.0221C362.308 17.9165 362.139 17.8954 361.949 18.001L360.387 18.8242L361.083 42.5294L361.928 42.3817L361.97 42.3606C362.287 42.1706 362.54 41.9173 362.73 41.5796C362.92 41.2418 363.004 40.9041 363.004 40.5241V22.3283L362.899 19.7741L362.709 18.5709H362.688V18.4865L362.709 18.4232Z" fill="#1A1A1A"/>
<line x1="116.556" y1="155.034" x2="181.519" y2="120.728" stroke="#1A1A1A"/>
<path d="M167.884 123.721L168.016 123.823C169.594 125.039 170.602 126.85 170.804 128.831V128.831" stroke="#1A1A1A" stroke-linejoin="round"/>
<g clip-path="url(#clip0_1494_14284)">
<path d="M338.244 16.867C338.244 17.3543 337.894 17.5542 337.469 17.3168L333.62 15.0927C333.196 14.8428 332.846 14.2431 332.846 13.7557V9.30752C332.846 8.82021 333.196 8.62029 333.62 8.8577L337.469 11.0818C337.894 11.3317 338.244 11.9315 338.244 12.4188V16.867Z" fill="#1A1A1A"/>
<path d="M338.331 9.3051C338.144 9.20514 337.919 9.26762 337.819 9.45504L335.545 13.5659L334.17 11.2043C334.07 11.0294 333.833 10.9669 333.658 11.0669C333.483 11.1669 333.42 11.4043 333.52 11.5792L335.22 14.5155C335.282 14.628 335.407 14.7029 335.545 14.7029C335.682 14.7029 335.807 14.628 335.869 14.5155L338.481 9.8174C338.581 9.64247 338.506 9.41756 338.331 9.3051Z" fill="#01DB83"/>
<path d="M358.3 24.8866L342.631 15.8402V14.7656L358.3 23.812V24.8866Z" fill="#1A1A1A"/>
<path d="M353.426 24.3264L340.844 17.0668V15.9922L353.426 23.2518V24.3264Z" fill="#1A1A1A"/>
<path d="M353.426 33.5607L340.844 26.3011V25.2266L353.426 32.4862V33.5607Z" fill="#1A1A1A"/>
<path d="M340.844 24.048L348.653 28.5587V27.4841L340.844 22.9609V24.048ZM350.115 28.3213V29.3959L358.299 34.119V33.0444L350.115 28.3213Z" fill="#1A1A1A"/>
<path d="M338.244 26.1014C338.244 26.5887 337.894 26.7886 337.469 26.5512L333.62 24.3271C333.196 24.0772 332.846 23.4774 332.846 22.9901V18.5419C332.846 18.0546 333.196 17.8547 333.62 18.0921L337.469 20.3287C337.894 20.5786 338.244 21.1783 338.244 21.6657V26.1014Z" fill="#EF4E16"/>
<path d="M334.857 21.9308C334.857 21.4935 335.157 21.3186 335.532 21.5435C335.907 21.7559 336.207 22.2807 336.207 22.718C336.207 23.1554 335.907 23.3303 335.532 23.1054C335.17 22.893 334.857 22.3682 334.857 21.9308Z" fill="white"/>
</g>
<defs>
<linearGradient id="paint0_linear_1494_14284" x1="197.37" y1="267.483" x2="277.485" y2="64.6283" gradientUnits="userSpaceOnUse">
<stop stop-color="white"/>
<stop offset="0.2465" stop-color="#FAFAFB"/>
<stop offset="1" stop-color="#EFEFF3"/>
</linearGradient>
<clipPath id="clip0_1494_14284">
<rect width="25.4523" height="25.3649" fill="white" transform="translate(332.846 8.75781)"/>
</clipPath>
</defs>
</svg>
