<svg width="166" height="129" viewBox="0 0 166 129" fill="none" xmlns="http://www.w3.org/2000/svg">
<path d="M150.595 -23.6493L-64.533 110.871L-54.0252 127.675L161.103 -6.84498L150.595 -23.6493Z" fill="#01DB83"/>
<path d="M149.95 -23.1891L138.997 -16.3633L149.449 0.408344L160.402 -6.4175L149.95 -23.1891Z" fill="#FFF9F0"/>
<path d="M-9.59307 79.7557L0.414371 73.5016L2.14304 76.2707L-4.68242 80.5362L-3.63226 82.2176L2.85846 78.1599L4.58714 80.929L-1.90358 84.9868L-0.549672 87.1568L6.31055 82.8641L8.03923 85.6332L-2.00297 91.9146L-9.59307 79.7557Z" fill="#1A1A1A"/>
<path d="M7.9858 74.2508L7.77783 74.3781L12.913 82.585L9.73105 84.5737L2.13013 72.421L6.63714 69.6024L16.8383 74.6463L17.0463 74.519L11.9111 66.3121L15.093 64.3234L22.694 76.4761L18.2086 79.2823L7.9858 74.2508Z" fill="#1A1A1A"/>
<path d="M15.6542 63.97L27.0594 56.8367L28.788 59.6059L24.6722 62.177L30.539 71.5637L27.3571 73.5523L21.4902 64.1657L17.3744 66.7368L15.6542 63.97Z" fill="#1A1A1A"/>
<path d="M71.8039 28.8611L81.8113 22.607L83.54 25.3762L76.7146 29.6416L77.7647 31.3231L84.2554 27.2653L85.9841 30.0345L79.4934 34.0922L80.8473 36.2623L87.7075 31.9695L89.4362 34.7387L79.394 41.0201L71.8039 28.8611Z" fill="#1A1A1A"/>
<path d="M82.555 23.094L82.1217 22.406L85.4142 20.3463L94.0887 26.7335L94.3129 26.5969L92.3696 16.0059L95.5678 14.0078L96.0011 14.6958L98.3811 29.1556L94.6054 31.5159L82.555 23.094Z" fill="#1A1A1A"/>
<path d="M96.0329 13.701L106.04 7.44688L107.769 10.216L100.944 14.4815L101.994 16.1629L108.484 12.1052L110.213 14.8743L103.722 18.9321L105.076 21.1021L111.937 16.8094L113.665 19.5785L103.623 25.8599L96.0329 13.701Z" fill="#1A1A1A"/>
<path d="M113.613 8.20005L113.405 8.32734L118.54 16.5343L115.358 18.5229L107.757 6.37023L112.264 3.5516L122.465 8.59553L122.673 8.46825L117.538 0.261325L120.72 -1.72734L128.321 10.4253L123.835 13.2315L113.613 8.20005Z" fill="#1A1A1A"/>
<path d="M121.281 -2.08083L132.686 -9.21406L134.415 -6.4449L130.299 -3.87376L136.166 5.51289L132.984 7.50156L127.117 -1.8851L123.001 0.686046L121.281 -2.08083Z" fill="#1A1A1A"/>
<path d="M40.6595 50.6767L40.0249 49.5276L43.5655 47.3102L44.3215 48.382L44.0788 48.5366L43.3968 47.7179L42.1228 48.5112C42.3032 48.8112 42.4921 49.1135 42.6811 49.4157C42.87 49.718 43.0621 50.0257 43.2542 50.3334L43.4744 50.6898C43.6633 50.992 43.8523 51.2943 44.0381 51.5912C44.227 51.8934 44.4129 52.1903 44.6041 52.484L45.3721 52.0767L45.4869 52.263L43.6408 53.4155L43.526 53.2292L44.2261 52.7167C44.0456 52.4168 43.8567 52.1145 43.6709 51.8176C43.4819 51.5153 43.2961 51.2185 43.1071 50.9162L42.887 50.5598C42.6949 50.2521 42.5059 49.9499 42.3139 49.6422C42.1249 49.3399 41.9359 49.0376 41.7447 48.7439L40.4707 49.5372L40.9014 50.5082L40.6595 50.6767Z" fill="#1A1A1A"/>
<path d="M46.3347 51.7456L46.2293 51.5755L46.7422 51.1639C46.6453 50.9961 46.5243 50.7989 46.3907 50.5801C46.2572 50.3613 46.1393 50.1696 46.0401 50.0104L44.0702 46.8609L43.4771 47.1961L43.3717 47.026L44.0811 46.3422L44.212 46.3315L44.7729 47.2779L45.6528 48.6895C45.7093 48.3249 45.8142 48.019 45.9642 47.7664C46.1143 47.5138 46.291 47.3324 46.485 47.2059C46.744 47.042 46.9965 47.0044 47.2512 47.0955C47.5028 47.1812 47.759 47.4375 48.0221 47.8557L48.4281 48.509C48.5304 48.6736 48.6506 48.8568 48.7841 49.0756C48.9231 49.2913 49.0464 49.4799 49.1541 49.6414L49.7018 49.3902L49.8073 49.5602L48.401 50.4371L48.2956 50.267L48.8085 49.8554C48.7117 49.6876 48.5906 49.4905 48.4571 49.2717C48.3235 49.0529 48.2056 48.8611 48.1065 48.7019L47.7129 48.0703C47.5115 47.7464 47.3122 47.5511 47.1235 47.4868C46.9348 47.4225 46.7435 47.4536 46.5463 47.5747C46.3979 47.6676 46.2528 47.8163 46.1134 48.0123C45.9771 48.2137 45.866 48.5087 45.7886 48.8998L46.3524 49.8012C46.4547 49.9659 46.5749 50.1491 46.7084 50.3679C46.8473 50.5835 46.9707 50.7721 47.0784 50.9337L47.6261 50.6824L47.7315 50.8525L46.3347 51.7456Z" fill="#1A1A1A"/>
<path d="M51.4148 48.6802C51.1504 48.8472 50.8756 48.9337 50.5773 48.9544C50.2843 48.972 49.9917 48.9028 49.7104 48.7405C49.4236 48.5813 49.1728 48.3219 48.941 47.9578C48.7333 47.6231 48.6155 47.2941 48.5985 46.9647C48.5816 46.6353 48.6391 46.3351 48.7713 46.0639C48.9034 45.7928 49.1032 45.5764 49.3514 45.4187C49.5887 45.2672 49.8333 45.1909 50.0822 45.1844C50.331 45.1779 50.5615 45.2396 50.776 45.3612C50.9905 45.4827 51.1719 45.6594 51.3179 45.8999C51.3702 45.9779 51.4054 46.0514 51.4375 46.1195C51.4696 46.1876 51.49 46.2479 51.5073 46.3029L49.2615 47.7006C49.4684 48.0214 49.6896 48.2545 49.9274 48.3914C50.1684 48.5338 50.402 48.6009 50.6446 48.5836C50.8817 48.5694 51.107 48.497 51.3204 48.3666C51.5338 48.2362 51.6897 48.0812 51.8075 47.8978C51.9199 47.7174 51.995 47.5225 52.0297 47.3076L52.1911 47.3371C52.1845 47.6007 52.1158 47.8569 51.9843 48.0916C51.8505 48.3348 51.6607 48.531 51.4148 48.6802ZM49.4678 45.6329C49.2815 45.7477 49.1481 45.9041 49.0505 46.0976C48.956 46.2964 48.9159 46.5145 48.9302 46.7516C48.9475 46.9942 49.0184 47.2419 49.1459 47.5003L50.8598 46.4314C50.9487 46.3728 50.998 46.3083 51.0024 46.2408C51.0067 46.1734 50.9738 46.0913 50.9176 45.9939C50.8184 45.8346 50.6876 45.7081 50.5306 45.6111C50.3735 45.5141 50.1997 45.463 50.0175 45.4599C49.8384 45.4622 49.6542 45.5181 49.4678 45.6329Z" fill="#1A1A1A"/>
<path d="M54.6357 46.6705C54.471 46.7728 54.3076 46.8022 54.143 46.7673C53.9785 46.7324 53.8378 46.626 53.7292 46.4505C53.6426 46.3129 53.5659 46.1551 53.4992 45.9771C53.4325 45.7991 53.3627 45.6157 53.2952 45.4238L52.0018 41.8836L51.2247 42.3251L51.1628 42.1804L52.0569 41.3539L52.1616 41.3728L53.2444 44.2983C53.2672 44.0254 53.3188 43.7647 53.3937 43.5194C53.4686 43.2741 53.5707 43.0635 53.6885 42.88C53.8063 42.6966 53.9383 42.5626 54.0759 42.476C54.246 42.3706 54.4233 42.3403 54.6112 42.3906C54.799 42.441 54.9827 42.6091 55.1654 42.9006C55.3106 43.1271 55.4156 43.384 55.4859 43.6682C55.5562 43.9524 55.5931 44.2414 55.5859 44.5414C55.5841 44.8383 55.5482 45.1261 55.4727 45.4079C55.4026 45.6865 55.2944 45.9366 55.1567 46.1604C55.0149 46.365 54.8436 46.5433 54.6357 46.6705ZM53.9744 46.1502C54.0548 46.277 54.1467 46.3611 54.2577 46.3908C54.3632 46.4237 54.4902 46.3937 54.6278 46.307C54.7546 46.2266 54.8766 46.1129 54.9929 45.9519C55.1124 45.7963 55.2037 45.592 55.2701 45.3444C55.3264 45.117 55.3486 44.8805 55.3421 44.6317C55.3356 44.3828 55.298 44.1303 55.2303 43.8879C55.1625 43.6456 55.0677 43.4189 54.9381 43.2194C54.7929 42.993 54.6528 42.8502 54.5176 42.7911C54.377 42.7351 54.2375 42.7435 54.1108 42.8239C53.919 42.9418 53.7611 43.1557 53.636 43.4516C53.5141 43.7529 53.4126 44.1146 53.3292 44.5453L53.5756 45.1969C53.636 45.3641 53.6894 45.5065 53.7294 45.6133C53.764 45.7232 53.8031 45.8161 53.8415 45.895C53.869 45.9801 53.919 46.0667 53.9744 46.1502Z" fill="#1A1A1A"/>
<path d="M57.7139 44.7427C57.5438 44.8481 57.3627 44.9094 57.1674 44.9211C56.9721 44.9328 56.7757 44.8802 56.5837 44.7601C56.3863 44.6432 56.2032 44.4386 56.0298 44.1634C55.8628 43.899 55.7506 43.6173 55.6904 43.3129C55.6301 43.0085 55.6148 42.707 55.6414 42.403C55.671 42.1044 55.7528 41.8335 55.8835 41.5848C56.0141 41.3362 56.1932 41.1462 56.4142 41.0041C56.5951 40.8925 56.7686 40.8429 56.9376 40.8607C57.1067 40.8786 57.2498 40.9764 57.3615 41.1573C57.5317 41.4271 57.5403 41.8046 57.3843 42.2844C57.2283 42.7642 56.861 43.3154 56.2855 43.9436C56.4946 44.2559 56.7133 44.4471 56.9469 44.5143C57.1806 44.5815 57.4107 44.5425 57.6371 44.3973C57.8343 44.2763 57.9785 44.1136 58.0676 43.9178C58.1566 43.7221 58.2084 43.5118 58.2337 43.2806L58.3857 43.2939C58.3786 43.594 58.3255 43.8772 58.2259 44.1295C58.1185 44.3936 57.9543 44.5967 57.7139 44.7427ZM56.4541 41.2482C56.3111 41.338 56.1908 41.4796 56.0986 41.6699C56.0064 41.8603 55.9492 42.0737 55.9216 42.3134C55.894 42.553 55.9005 42.8019 55.9466 43.0567C55.9873 43.3147 56.0659 43.5508 56.1886 43.7758C56.6746 43.2426 56.9849 42.7676 57.128 42.353C57.2711 41.9384 57.2712 41.6135 57.1167 41.3708C57.0363 41.244 56.9367 41.1716 56.818 41.1535C56.6993 41.1354 56.5809 41.1678 56.4541 41.2482Z" fill="#1A1A1A"/>
<path d="M60.1238 42.0028C60.2972 42.278 60.3364 42.5585 60.2384 42.8388C60.1404 43.1191 59.9446 43.3548 59.6477 43.5407C59.4104 43.6921 59.1905 43.7613 58.999 43.742C58.8074 43.7227 58.6256 43.6328 58.4527 43.4584C58.4331 43.412 58.4329 43.3616 58.4467 43.3104C58.4604 43.2591 58.4889 43.221 58.5268 43.1991C58.6319 43.1312 58.7421 43.147 58.8541 43.2411L59.1763 43.5242C59.2808 43.4927 59.3845 43.4473 59.4928 43.3848C59.7355 43.2302 59.8928 43.0527 59.9617 42.847C60.0306 42.6413 60.0049 42.4468 59.8901 42.2605C59.8097 42.1337 59.703 42.0365 59.5648 41.972C59.4265 41.9075 59.217 41.8697 58.9417 41.8554C58.6804 41.8403 58.4624 41.8001 58.2737 41.7359C58.0851 41.6716 57.9318 41.5436 57.817 41.3573C57.653 41.0983 57.6147 40.8318 57.6933 40.5555C57.7719 40.2791 57.9515 40.0527 58.243 39.87C58.4401 39.749 58.6352 39.6869 58.8205 39.6954C59.0112 39.7007 59.1751 39.7721 59.323 39.9032C59.3545 40.0077 59.3316 40.0931 59.2288 40.1525C59.1236 40.2204 59.0049 40.2023 58.8727 40.0982L58.6269 39.9226C58.5387 39.9447 58.4597 39.983 58.3894 40.0237C58.1466 40.1782 58.0001 40.3494 57.9529 40.5427C57.9057 40.7359 57.9391 40.9187 58.0445 41.0888C58.1468 41.2535 58.262 41.353 58.3963 41.3981C58.5306 41.4432 58.7284 41.4734 58.996 41.4993C59.3108 41.5196 59.549 41.5697 59.716 41.6465C59.8885 41.7201 60.0216 41.8382 60.1238 42.0028Z" fill="#1A1A1A"/>
<path d="M60.7242 41.8043L59.8028 39.2835L59.0444 39.7575L58.9746 39.5741L59.7234 39.0335L59.4149 37.9992L59.6391 37.8625L60.004 38.857L60.8892 38.3027L61.0059 38.5673L60.0834 39.1071L60.9773 41.5427C61.0017 41.6225 61.0346 41.7045 61.0644 41.7811C61.0942 41.8577 61.1263 41.9258 61.1544 41.9745C61.2254 42.0851 61.3162 42.1048 61.4376 42.0275C61.5373 41.9627 61.6228 41.8484 61.6825 41.6768C61.7422 41.5052 61.794 41.2949 61.8293 41.0436L61.9759 41.06C61.9648 41.3407 61.9195 41.6122 61.8446 41.8575C61.7728 42.1082 61.6303 42.2988 61.4277 42.4229C61.3442 42.4783 61.2583 42.4919 61.1652 42.4807C61.069 42.4641 60.9959 42.4125 60.9427 42.3204C60.9021 42.2501 60.8615 42.1797 60.8294 42.1116C60.805 42.0319 60.7681 41.9305 60.7242 41.8043Z" fill="#1A1A1A"/>
<path d="M48.1627 58.2009C47.998 58.3032 47.8146 58.373 47.6016 58.4166C47.3886 58.4602 47.1521 58.438 46.8866 58.3531L47.252 58.936C47.3574 59.1061 47.4807 59.2947 47.608 59.5026C47.7407 59.7075 47.8671 59.9015 47.9842 60.0793L48.6696 59.7413L48.775 59.9114L47.2257 60.878L47.1203 60.708L47.6441 60.2901C47.5409 60.1115 47.423 59.9198 47.2926 59.7064C47.1653 59.4984 47.0474 59.3067 46.942 59.1366L45.7529 57.2395C45.4929 56.8267 45.2642 56.468 45.059 56.1751L44.4713 56.5072L44.3659 56.3371L45.0371 55.6248L45.1464 55.6266L45.4562 56.0757C45.4976 55.7848 45.5864 55.5386 45.7173 55.3404C45.8482 55.1421 46.0072 54.9925 46.1796 54.8786C46.4277 54.7209 46.6894 54.6492 46.9593 54.6666C47.2292 54.684 47.4978 54.7743 47.7521 54.9522C48.0118 55.127 48.2392 55.371 48.4407 55.6949C48.6515 56.0351 48.7832 56.3632 48.825 56.6855C48.8721 57.0047 48.8393 57.2979 48.7234 57.5596C48.6107 57.8268 48.4217 58.037 48.1627 58.2009ZM46.2515 55.1907C46.1031 55.2836 45.968 55.4121 45.8602 55.5754C45.747 55.7418 45.6596 55.9654 45.5927 56.2495L46.7755 58.1358C47.0339 58.1959 47.2534 58.2135 47.4393 58.1855C47.6253 58.1576 47.8033 58.0909 47.9679 57.9886C48.1543 57.8738 48.2908 57.7228 48.3798 57.527C48.472 57.3367 48.5028 57.1024 48.4675 56.8414C48.4322 56.5803 48.3107 56.2823 48.1062 55.953C47.8243 55.5023 47.516 55.2184 47.1868 55.0981C46.8522 54.981 46.5376 55.0111 46.2515 55.1907Z" fill="#1A1A1A"/>
<path d="M52.117 55.724C51.9686 55.8169 51.8214 55.8369 51.67 55.7872C51.524 55.7343 51.3769 55.6172 51.2351 55.4465C51.1675 55.7669 51.0881 56.0293 50.9936 56.2282C50.8991 56.4271 50.7495 56.5929 50.5361 56.7233C50.2988 56.8747 50.061 56.9254 49.8128 56.8955C49.5669 56.8571 49.3678 56.7122 49.207 56.4586C49.0734 56.2399 49.0313 56.0044 49.0891 55.7545C49.1469 55.5046 49.3215 55.1945 49.6137 54.8382C49.7232 54.7028 49.8412 54.5697 49.9701 54.4304C50.0989 54.291 50.22 54.1633 50.3528 54.0434L50.2381 53.8571C50.0897 53.6251 49.9541 53.4653 49.8281 53.372C49.6967 53.2819 49.5655 53.2422 49.4269 53.2645C49.2882 53.2868 49.1404 53.3433 48.9757 53.4456C48.8868 53.5041 48.8011 53.5681 48.7215 53.6429C48.642 53.7176 48.5719 53.8087 48.508 53.9105L48.6443 54.4091C48.6877 54.5717 48.6525 54.6859 48.542 54.7569C48.4315 54.8279 48.3213 54.8121 48.2224 54.7033C48.135 54.4145 48.1524 54.1446 48.2792 53.8766C48.4005 53.6117 48.6165 53.386 48.9134 53.2001C49.2373 52.9987 49.5323 52.9222 49.7962 52.9791C50.06 53.0361 50.3051 53.2482 50.5339 53.6069L51.4442 55.0587C51.5746 55.2721 51.6946 55.4049 51.7956 55.4548C51.8966 55.5048 51.9911 55.4935 52.0886 55.4373C52.1721 55.3818 52.2337 55.2885 52.2811 55.1457L52.441 55.1977C52.4071 55.4265 52.3002 55.6038 52.117 55.724ZM49.5065 56.1775C49.6244 56.3692 49.7706 56.4724 49.9405 56.5042C50.1159 56.5329 50.2924 56.4887 50.4787 56.3739C50.6217 56.2841 50.7429 56.1564 50.8282 55.9917C50.9221 55.8293 51.0109 55.5831 51.1001 55.2502L50.4466 54.2058C50.3277 54.3249 50.2066 54.4526 50.0863 54.5942C49.966 54.7358 49.8642 54.8595 49.7787 54.9739C49.566 55.2554 49.443 55.4924 49.4151 55.6817C49.3873 55.871 49.4167 56.0344 49.5065 56.1775Z" fill="#1A1A1A"/>
<path d="M52.4452 55.4026L52.3398 55.2325L52.8418 54.8271C52.745 54.6593 52.6239 54.4622 52.4904 54.2434C52.3569 54.0246 52.2389 53.8329 52.1398 53.6736L51.9446 53.3605C51.6877 52.9531 51.4621 52.5999 51.2569 52.307L50.6638 52.6422L50.5584 52.4721L51.2297 51.7598L51.339 51.7616L51.8937 52.5599C51.8295 52.2362 51.839 51.9276 51.9284 51.645C52.0147 51.357 52.1619 51.1494 52.3753 51.019C52.4804 50.9511 52.5872 50.9111 52.6957 50.8989C52.8042 50.8868 52.8887 50.8958 52.9524 50.9311C53.0797 51.1391 53.0556 51.2974 52.8693 51.4121C52.8043 51.4496 52.7331 51.4763 52.6634 51.4805C52.5882 51.4878 52.5037 51.4789 52.4106 51.4677L52.2973 51.4465C52.1679 51.6223 52.0936 51.8311 52.0606 52.0739C52.0329 52.3136 52.0466 52.5872 52.1014 52.8947L52.4668 53.4776C52.5691 53.6423 52.6893 53.8254 52.8229 54.0442C52.9618 54.2599 53.0851 54.4485 53.1928 54.6101L53.8241 54.3034L53.9295 54.4734L52.4452 55.4026Z" fill="#1A1A1A"/>
<path d="M55.9516 53.3267C55.7196 53.4751 55.5121 53.5155 55.318 53.4544C55.127 53.3986 54.9581 53.2436 54.8004 52.9954C54.7419 52.9065 54.6981 52.8307 54.6544 52.755C54.6138 52.6846 54.5606 52.5926 54.4927 52.4875L53.4332 50.7898L52.7799 51.1958L52.6589 50.9987L53.2863 50.5354L52.8206 49.5413L53.0634 49.3867L53.6165 50.3448L54.5449 49.7654L54.6964 50.0027L53.7625 50.5852L55.107 52.739C55.2312 52.9415 55.3589 53.0627 55.4901 53.1024C55.6213 53.1421 55.7545 53.123 55.8867 53.0394C55.981 52.9778 56.0614 52.9169 56.1161 52.8492C56.1708 52.7816 56.2247 52.6999 56.2801 52.5958L56.4471 52.6726C56.3878 52.9449 56.2245 53.1619 55.9516 53.3267Z" fill="#1A1A1A"/>
<path d="M56.4055 48.8517L56.3001 48.6816L57.5362 47.9102L57.6416 48.0802L57.2709 48.3881L58.0619 52.2832C58.1839 52.8695 58.2124 53.3438 58.1465 53.6922C58.0783 54.0491 57.9197 54.2994 57.677 54.454C57.5556 54.5313 57.4241 54.5784 57.2931 54.589C57.1567 54.6028 57.0565 54.5668 56.9841 54.4788C56.9574 54.4076 56.9671 54.337 57.0079 54.2701C57.0456 54.1979 57.1012 54.1441 57.1684 54.0981C57.2334 54.0606 57.31 54.0308 57.3906 54.0204C57.4711 54.0099 57.5696 54.018 57.6798 54.0338L57.7652 54.0567C57.8798 53.8678 57.9447 53.6427 57.9684 53.3836C57.9889 53.1192 57.9667 52.8433 57.9042 52.5475L57.8297 52.1935L54.8017 49.9364L54.3337 50.1633L54.2283 49.9932L55.6237 49.1226L55.7323 49.2981L55.1829 49.7091L57.7259 51.6761L57.043 48.5558L56.4055 48.8517Z" fill="#1A1A1A"/>
<path d="M140.628 -0.348034C139.931 -1.46823 139.243 -2.98383 138.682 -4.68063C138.061 -6.5446 137.661 -8.39948 137.56 -9.89987C137.455 -11.4057 137.663 -12.3702 138.144 -12.6258C138.624 -12.8815 139.317 -12.3938 140.094 -11.2476C140.868 -10.1069 141.637 -8.45052 142.261 -6.58114C142.883 -4.71716 143.283 -2.86228 143.384 -1.3619C143.488 0.143899 143.28 1.10844 142.8 1.36407C142.32 1.61971 141.627 1.13208 140.849 -0.014121C140.776 -0.116124 140.702 -0.232081 140.628 -0.348034ZM140.289 -10.8981C140.214 -11.0141 140.143 -11.1246 140.072 -11.2351C139.695 -11.7893 139.34 -12.1908 139.006 -12.4312C138.842 -12.553 138.684 -12.6275 138.542 -12.6609C138.394 -12.6913 138.267 -12.6752 138.15 -12.615C138.033 -12.5548 137.93 -12.445 137.847 -12.2888C137.761 -12.1381 137.7 -11.944 137.65 -11.7058C137.557 -11.241 137.532 -10.6347 137.584 -9.90696C137.691 -8.4097 138.091 -6.55482 138.707 -4.68772C139.27 -2.99946 139.952 -1.48073 140.649 -0.360531C140.724 -0.244578 140.795 -0.134039 140.866 -0.0234976C141.243 0.530657 141.598 0.932197 141.932 1.17258C142.096 1.29434 142.254 1.36882 142.396 1.4023C142.544 1.43265 142.671 1.41658 142.788 1.35637C142.905 1.29615 143.008 1.18639 143.091 1.0302C143.177 0.879422 143.238 0.685346 143.288 0.447129C143.381 -0.0176422 143.406 -0.623982 143.354 -1.35169C143.247 -2.84895 142.847 -4.70383 142.231 -6.57093C141.673 -8.26231 140.986 -9.77791 140.289 -10.8981Z" fill="#1A1A1A"/>
<path d="M135.791 -8.0849C135.717 -8.20086 135.652 -8.31453 135.586 -8.42819C134.901 -9.62752 134.764 -10.4649 135.201 -10.7824C135.638 -11.0999 136.605 -10.8638 137.91 -10.1161C139.209 -9.36529 140.702 -8.19205 142.109 -6.81764C143.516 -5.44323 144.668 -4.02271 145.359 -2.82652C146.044 -1.62719 146.181 -0.789786 145.744 -0.472322C145.301 -0.151734 144.34 -0.390877 143.035 -1.13858C141.735 -1.88942 140.243 -3.06266 138.836 -4.43707C137.559 -5.68493 136.489 -6.96471 135.791 -8.0849ZM145.123 -3.15959C144.426 -4.27979 143.355 -5.55957 142.082 -6.80201C140.675 -8.17642 139.182 -9.34967 137.886 -10.0951C137.251 -10.4574 136.698 -10.7015 136.24 -10.8196C136.01 -10.8813 135.801 -10.9052 135.631 -10.9006C135.455 -10.8928 135.315 -10.848 135.207 -10.7716C135.1 -10.6951 135.028 -10.5816 134.995 -10.4396C134.961 -10.2976 134.961 -10.1239 134.998 -9.92176C135.069 -9.52284 135.276 -9.02838 135.608 -8.44069C136.293 -7.24137 137.447 -5.8294 138.854 -4.45499C140.261 -3.08058 141.754 -1.90733 143.05 -1.16191C143.685 -0.799611 144.238 -0.555549 144.696 -0.437428C144.926 -0.375661 145.135 -0.351777 145.305 -0.356412C145.481 -0.364173 145.621 -0.408989 145.729 -0.485439C145.836 -0.561889 145.908 -0.675386 145.941 -0.817401C145.975 -0.959416 145.975 -1.13307 145.938 -1.33524C145.867 -1.73416 145.66 -2.22861 145.328 -2.8163C145.266 -2.92456 145.197 -3.04364 145.123 -3.15959Z" fill="#1A1A1A"/>
<path d="M37.4075 62.4561C35.9557 63.3665 34.485 64.0568 33.271 64.4041C32.0431 64.7522 31.2227 64.7062 30.9502 64.2718C30.6777 63.8373 30.996 63.0762 31.8492 62.1289C32.6916 61.1879 33.9522 60.1714 35.404 59.261C36.8559 58.3507 38.3265 57.6604 39.5405 57.3131C40.7684 56.965 41.5888 57.0109 41.8613 57.4454C42.1338 57.8799 41.8155 58.641 40.9623 59.5882C40.1254 60.5261 38.8593 61.5457 37.4075 62.4561ZM35.4407 59.312C33.9943 60.2193 32.7305 61.2304 31.899 62.1651C31.0829 63.0765 30.7583 63.8269 31.0066 64.232C31.2572 64.6285 32.0745 64.6691 33.2529 64.3352C34.4615 63.991 35.9267 63.3038 37.3731 62.3966C38.8195 61.4893 40.0833 60.4782 40.9148 59.5435C41.7309 58.6321 42.0555 57.8818 41.8072 57.4766C41.5566 57.0801 40.7393 57.0395 39.5609 57.3735C38.3523 57.7176 36.8871 58.4048 35.4407 59.312Z" fill="#1A1A1A"/>
<path d="M36.7747 61.4366C35.3229 62.347 33.8522 63.0373 32.6382 63.3845C31.4103 63.7327 30.5899 63.6867 30.3174 63.2522C30.0449 62.8178 30.3632 62.0566 31.2164 61.1094C32.0588 60.1684 33.3194 59.1519 34.7712 58.2415C36.223 57.3311 37.6937 56.6408 38.9077 56.2935C40.1356 55.9454 40.956 55.9914 41.2285 56.4259C41.501 56.8603 41.1827 57.6215 40.3295 58.5687C39.4871 59.5097 38.2265 60.5262 36.7747 61.4366ZM34.8079 58.2925C33.3615 59.1998 32.0977 60.2108 31.2662 61.1456C30.4501 62.057 30.1255 62.8073 30.3738 63.2124C30.6244 63.609 31.4417 63.6496 32.6201 63.3156C33.8287 62.9715 35.2939 62.2843 36.7403 61.377C38.1867 60.4698 39.4505 59.4587 40.282 58.524C41.0981 57.6125 41.4227 56.8622 41.1744 56.4571C40.9238 56.0605 40.1065 56.02 38.9281 56.3539C37.7141 56.7012 36.2574 57.3907 34.8079 58.2925Z" fill="#1A1A1A"/>
<path d="M36.1389 60.421C34.6871 61.3313 33.2165 62.0216 32.0025 62.3689C30.7745 62.717 29.9541 62.6711 29.6816 62.2366C29.4092 61.8021 29.7275 61.041 30.5807 60.0938C31.423 59.1528 32.6837 58.1363 34.1355 57.2259C35.5873 56.3155 37.0579 55.6252 38.2719 55.2779C39.4999 54.9298 40.3203 54.9758 40.5928 55.4102C40.8653 55.8447 40.5469 56.6058 39.6938 57.5531C38.8545 58.4995 37.5939 59.516 36.1389 60.421ZM34.1753 57.2823C32.7289 58.1895 31.4651 59.2006 30.6336 60.1354C29.8174 61.0468 29.4929 61.7971 29.7412 62.2022C29.9895 62.6073 30.8091 62.6394 31.9875 62.3054C33.1961 61.9613 34.6613 61.2741 36.1077 60.3668C37.5541 59.4596 38.8179 58.4485 39.6494 57.5137C40.4655 56.6023 40.7901 55.852 40.5418 55.4469C40.2912 55.0503 39.4739 55.0098 38.2955 55.3437C37.0869 55.6879 35.6217 56.375 34.1753 57.2823Z" fill="#1A1A1A"/>
<path d="M71.9826 42.7961C72.0881 42.9662 73.4097 47.1179 73.4097 47.1179L69.0524 44.2209L64.6149 48.8974L65.6867 45.1537C65.6867 45.1537 58.3285 45.909 58.5107 45.7245C58.6982 45.5368 66.6131 43.2332 66.6131 43.2332L63.5383 39.17C63.5383 39.17 68.3244 42.6349 68.2742 42.4979C68.224 42.3609 69.2969 31.2193 69.2969 31.2193L70.5429 41.0149L75.1499 38.3695L71.7142 41.3562L75.1437 42.5588L71.9826 42.7961Z" fill="#1A1A1A"/>
</svg>
