<svg width="464" height="280" viewBox="0 0 464 280" fill="none" xmlns="http://www.w3.org/2000/svg">
<rect y="280" width="280" height="464" rx="16" transform="rotate(-90 0 280)" fill="url(#paint0_linear_1417_1607)"/>
<path d="M448.75 141.598C449.434 141.558 450.441 141.377 451.89 141.175C450.42 140.974 449.414 140.793 448.75 140.753C449.052 140.39 449.414 139.867 449.937 139.183C449.253 139.706 448.73 140.068 448.368 140.37C448.327 139.686 448.146 138.68 447.945 137.23C447.744 138.7 447.562 139.706 447.522 140.37C447.16 140.068 446.637 139.706 445.952 139.183C446.476 139.867 446.838 140.39 447.14 140.753C446.455 140.793 445.449 140.974 444 141.175C445.469 141.377 446.476 141.558 447.14 141.598C446.838 141.96 446.476 142.484 445.952 143.168C446.637 142.645 447.16 142.282 447.522 141.98C447.562 142.665 447.744 143.671 447.945 145.12C448.146 143.651 448.327 142.645 448.368 141.98C448.73 142.282 449.253 142.645 449.937 143.168C449.414 142.504 449.052 141.98 448.75 141.598Z" fill="#1A1A1A"/>
<path d="M446.397 88.9282C446.216 88.9282 446.075 88.7874 446.075 88.6062V40.322C446.075 40.1409 446.216 40 446.397 40C446.578 40 446.719 40.1409 446.719 40.322V88.6062C446.719 88.7874 446.558 88.9282 446.397 88.9282Z" fill="#1A1A1A"/>
<path d="M449.012 105.858C448.831 105.858 448.69 105.717 448.69 105.536V57.2517C448.69 57.0706 448.831 56.9297 449.012 56.9297C449.193 56.9297 449.334 57.0706 449.334 57.2517V105.536C449.314 105.717 449.173 105.858 449.012 105.858Z" fill="#1A1A1A"/>
<path d="M449.798 107.969C449.798 108.412 449.436 108.774 448.993 108.774C448.55 108.774 448.188 108.412 448.188 107.969C448.188 107.526 448.55 107.164 448.993 107.164C449.456 107.164 449.798 107.526 449.798 107.969Z" fill="#1A1A1A"/>
<path d="M449.799 110.938C449.799 111.381 449.436 111.743 448.994 111.743C448.551 111.743 448.188 111.381 448.188 110.938C448.188 110.495 448.551 110.133 448.994 110.133C449.456 110.133 449.799 110.495 449.799 110.938Z" fill="#1A1A1A"/>
<path d="M449.799 113.922C449.799 114.365 449.436 114.727 448.994 114.727C448.551 114.727 448.188 114.365 448.188 113.922C448.188 113.479 448.551 113.117 448.994 113.117C449.456 113.117 449.799 113.479 449.799 113.922Z" fill="#1A1A1A"/>
<path d="M446.397 191.094C446.216 191.094 446.075 191.235 446.075 191.416V239.7C446.075 239.881 446.216 240.022 446.397 240.022C446.578 240.022 446.719 239.881 446.719 239.7V191.396C446.719 191.235 446.558 191.094 446.397 191.094Z" fill="#1A1A1A"/>
<path d="M449.012 174.145C448.831 174.145 448.69 174.285 448.69 174.467V222.751C448.69 222.932 448.831 223.073 449.012 223.073C449.193 223.073 449.334 222.932 449.334 222.751V174.467C449.314 174.306 449.173 174.145 449.012 174.145Z" fill="#1A1A1A"/>
<path d="M449.798 172.032C449.798 171.589 449.436 171.227 448.993 171.227C448.55 171.227 448.188 171.589 448.188 172.032C448.188 172.474 448.55 172.837 448.993 172.837C449.456 172.837 449.798 172.474 449.798 172.032Z" fill="#1A1A1A"/>
<path d="M449.799 169.047C449.799 168.604 449.436 168.242 448.994 168.242C448.551 168.242 448.188 168.604 448.188 169.047C448.188 169.49 448.551 169.852 448.994 169.852C449.456 169.852 449.799 169.49 449.799 169.047Z" fill="#1A1A1A"/>
<path d="M449.799 166.071C449.799 165.628 449.436 165.266 448.994 165.266C448.551 165.266 448.188 165.628 448.188 166.071C448.188 166.513 448.551 166.876 448.994 166.876C449.456 166.876 449.799 166.513 449.799 166.071Z" fill="#1A1A1A"/>
<path d="M16.7499 141.598C17.4342 141.558 18.4406 141.377 19.8897 141.175C18.4204 140.974 17.4141 140.793 16.7499 140.753C17.0518 140.39 17.4141 139.867 17.9374 139.183C17.2531 139.706 16.7298 140.068 16.3675 140.37C16.3273 139.686 16.1461 138.68 15.9449 137.23C15.7436 138.7 15.5624 139.706 15.5222 140.37C15.1599 140.068 14.6366 139.706 13.9523 139.183C14.4756 139.867 14.8379 140.39 15.1398 140.753C14.4555 140.793 13.4491 140.974 12 141.175C13.4693 141.377 14.4756 141.558 15.1398 141.598C14.8379 141.96 14.4756 142.484 13.9523 143.168C14.6366 142.645 15.1599 142.282 15.5222 141.98C15.5624 142.665 15.7436 143.671 15.9449 145.12C16.1461 143.651 16.3273 142.645 16.3675 141.98C16.7298 142.282 17.2531 142.645 17.9374 143.168C17.4141 142.504 17.0518 141.98 16.7499 141.598Z" fill="#1A1A1A"/>
<path d="M14.3965 88.9282C14.2154 88.9282 14.0745 88.7874 14.0745 88.6062V40.322C14.0745 40.1409 14.2154 40 14.3965 40C14.5776 40 14.7185 40.1409 14.7185 40.322V88.6062C14.7185 88.7874 14.5575 88.9282 14.3965 88.9282Z" fill="#1A1A1A"/>
<path d="M17.0115 105.858C16.8303 105.858 16.6895 105.717 16.6895 105.536V57.2517C16.6895 57.0706 16.8303 56.9297 17.0115 56.9297C17.1926 56.9297 17.3335 57.0706 17.3335 57.2517V105.536C17.3134 105.717 17.1725 105.858 17.0115 105.858Z" fill="#1A1A1A"/>
<path d="M17.7979 107.969C17.7979 108.412 17.4356 108.774 16.9928 108.774C16.55 108.774 16.1877 108.412 16.1877 107.969C16.1877 107.526 16.55 107.164 16.9928 107.164C17.4557 107.164 17.7979 107.526 17.7979 107.969Z" fill="#1A1A1A"/>
<path d="M17.7984 110.938C17.7984 111.381 17.4361 111.743 16.9933 111.743C16.5505 111.743 16.1882 111.381 16.1882 110.938C16.1882 110.495 16.5505 110.133 16.9933 110.133C17.4562 110.133 17.7984 110.495 17.7984 110.938Z" fill="#1A1A1A"/>
<path d="M17.7984 113.922C17.7984 114.365 17.4361 114.727 16.9933 114.727C16.5505 114.727 16.1882 114.365 16.1882 113.922C16.1882 113.479 16.5505 113.117 16.9933 113.117C17.4562 113.117 17.7984 113.479 17.7984 113.922Z" fill="#1A1A1A"/>
<path d="M14.3965 191.094C14.2154 191.094 14.0745 191.235 14.0745 191.416V239.7C14.0745 239.881 14.2154 240.022 14.3965 240.022C14.5776 240.022 14.7185 239.881 14.7185 239.7V191.396C14.7185 191.235 14.5575 191.094 14.3965 191.094Z" fill="#1A1A1A"/>
<path d="M17.0115 174.145C16.8303 174.145 16.6895 174.285 16.6895 174.467V222.751C16.6895 222.932 16.8303 223.073 17.0115 223.073C17.1926 223.073 17.3335 222.932 17.3335 222.751V174.467C17.3134 174.306 17.1725 174.145 17.0115 174.145Z" fill="#1A1A1A"/>
<path d="M17.7979 172.032C17.7979 171.589 17.4356 171.227 16.9928 171.227C16.55 171.227 16.1877 171.589 16.1877 172.032C16.1877 172.474 16.55 172.837 16.9928 172.837C17.4557 172.837 17.7979 172.474 17.7979 172.032Z" fill="#1A1A1A"/>
<path d="M17.7984 169.047C17.7984 168.604 17.4361 168.242 16.9933 168.242C16.5505 168.242 16.1882 168.604 16.1882 169.047C16.1882 169.49 16.5505 169.852 16.9933 169.852C17.4562 169.852 17.7984 169.49 17.7984 169.047Z" fill="#1A1A1A"/>
<path d="M17.7984 166.071C17.7984 165.628 17.4361 165.266 16.9933 165.266C16.5505 165.266 16.1882 165.628 16.1882 166.071C16.1882 166.513 16.5505 166.876 16.9933 166.876C17.4562 166.876 17.7984 166.513 17.7984 166.071Z" fill="#1A1A1A"/>
<g clip-path="url(#clip0_1417_1607)">
<path d="M28.774 24.6219C27.9647 22.7958 26.5225 20.7518 24.6963 18.8634C25.4953 17.6909 26.7819 16.3006 28.5457 14.4122C26.6573 16.1761 25.267 17.4627 24.0945 18.2616C22.2062 16.4355 20.1829 14.9932 18.336 14.1839C16.375 13.3227 14.8601 13.2812 14.0716 14.0698C13.283 14.8583 13.3141 16.3836 14.1857 18.3342C15.0054 20.1707 16.4372 22.2044 18.2634 24.0928C17.4644 25.2652 16.1778 26.6556 14.414 28.5439C16.3024 26.7801 17.6927 25.4935 18.8652 24.6945C20.7536 26.5207 22.7768 27.9629 24.6237 28.7722C26.5847 29.6334 28.11 29.6853 28.8985 28.8967C29.6767 28.0978 29.6352 26.5829 28.774 24.6219ZM28.5976 24.6945C29.4277 26.5829 29.4899 28.0148 28.7532 28.7515C23.9804 23.6881 22.6108 22.0695 24.5822 19.0398C26.3772 20.897 27.7883 22.8892 28.5976 24.6945ZM18.2634 14.3603C20.0688 15.1489 22.0713 16.5703 23.9285 18.3653C20.8884 20.3471 19.2802 18.9879 14.2168 14.215C14.9431 13.4887 16.3854 13.5406 18.2634 14.3603ZM14.3621 18.2616C13.5424 16.3836 13.4802 14.9517 14.2168 14.215C18.9897 19.2784 20.3593 20.897 18.3879 23.9267C16.5721 22.0695 15.161 20.0773 14.3621 18.2616ZM24.6963 28.5958C22.891 27.8073 20.8884 26.3858 19.0312 24.5908C22.0609 22.6194 23.6795 23.989 28.7429 28.7618C28.0166 29.4881 26.5847 29.4259 24.6963 28.5958Z" fill="#1A1A1A"/>
</g>
<g clip-path="url(#clip1_1417_1607)">
<path d="M28.774 261.622C27.9647 259.796 26.5225 257.752 24.6963 255.863C25.4953 254.691 26.7819 253.301 28.5457 251.412C26.6573 253.176 25.267 254.463 24.0945 255.262C22.2062 253.435 20.1829 251.993 18.336 251.184C16.375 250.323 14.8601 250.281 14.0716 251.07C13.283 251.858 13.3141 253.384 14.1857 255.334C15.0054 257.171 16.4372 259.204 18.2634 261.093C17.4644 262.265 16.1778 263.656 14.414 265.544C16.3024 263.78 17.6927 262.493 18.8652 261.695C20.7536 263.521 22.7768 264.963 24.6237 265.772C26.5847 266.633 28.11 266.685 28.8985 265.897C29.6767 265.098 29.6352 263.583 28.774 261.622ZM28.5976 261.695C29.4277 263.583 29.4899 265.015 28.7532 265.751C23.9804 260.688 22.6108 259.069 24.5822 256.04C26.3772 257.897 27.7883 259.889 28.5976 261.695ZM18.2634 251.36C20.0688 252.149 22.0713 253.57 23.9285 255.365C20.8884 257.347 19.2802 255.988 14.2168 251.215C14.9431 250.489 16.3854 250.541 18.2634 251.36ZM14.3621 255.262C13.5424 253.384 13.4802 251.952 14.2168 251.215C18.9897 256.278 20.3593 257.897 18.3879 260.927C16.5721 259.069 15.161 257.077 14.3621 255.262ZM24.6963 265.596C22.891 264.807 20.8884 263.386 19.0312 261.591C22.0609 259.619 23.6795 260.989 28.7429 265.762C28.0166 266.488 26.5847 266.426 24.6963 265.596Z" fill="#1A1A1A"/>
</g>
<g clip-path="url(#clip2_1417_1607)">
<path d="M448.634 24.6219C447.825 22.7958 446.383 20.7518 444.556 18.8634C445.355 17.6909 446.642 16.3006 448.406 14.4122C446.517 16.1761 445.127 17.4627 443.955 18.2616C442.066 16.4355 440.043 14.9932 438.196 14.1839C436.235 13.3227 434.72 13.2812 433.932 14.0698C433.143 14.8583 433.174 16.3836 434.046 18.3342C434.865 20.1707 436.297 22.2044 438.123 24.0928C437.325 25.2652 436.038 26.6556 434.274 28.5439C436.162 26.7801 437.553 25.4935 438.725 24.6945C440.614 26.5207 442.637 27.9629 444.484 28.7722C446.445 29.6334 447.97 29.6853 448.759 28.8967C449.537 28.0978 449.495 26.5829 448.634 24.6219ZM448.458 24.6945C449.288 26.5829 449.35 28.0148 448.613 28.7515C443.841 23.6881 442.471 22.0695 444.442 19.0398C446.237 20.897 447.648 22.8892 448.458 24.6945ZM438.123 14.3603C439.929 15.1489 441.931 16.5703 443.789 18.3653C440.749 20.3471 439.14 18.9879 434.077 14.215C434.803 13.4887 436.245 13.5406 438.123 14.3603ZM434.222 18.2616C433.403 16.3836 433.34 14.9517 434.077 14.215C438.85 19.2784 440.219 20.897 438.248 23.9267C436.432 22.0695 435.021 20.0773 434.222 18.2616ZM444.556 28.5958C442.751 27.8073 440.749 26.3858 438.891 24.5908C441.921 22.6194 443.54 23.989 448.603 28.7618C447.877 29.4881 446.445 29.4259 444.556 28.5958Z" fill="#1A1A1A"/>
</g>
<g clip-path="url(#clip3_1417_1607)">
<path d="M448.634 261.622C447.825 259.796 446.383 257.752 444.556 255.863C445.355 254.691 446.642 253.301 448.406 251.412C446.517 253.176 445.127 254.463 443.955 255.262C442.066 253.435 440.043 251.993 438.196 251.184C436.235 250.323 434.72 250.281 433.932 251.07C433.143 251.858 433.174 253.384 434.046 255.334C434.865 257.171 436.297 259.204 438.123 261.093C437.325 262.265 436.038 263.656 434.274 265.544C436.162 263.78 437.553 262.493 438.725 261.695C440.614 263.521 442.637 264.963 444.484 265.772C446.445 266.633 447.97 266.685 448.759 265.897C449.537 265.098 449.495 263.583 448.634 261.622ZM448.458 261.695C449.288 263.583 449.35 265.015 448.613 265.751C443.841 260.688 442.471 259.069 444.442 256.04C446.237 257.897 447.648 259.889 448.458 261.695ZM438.123 251.36C439.929 252.149 441.931 253.57 443.789 255.365C440.749 257.347 439.14 255.988 434.077 251.215C434.803 250.489 436.245 250.541 438.123 251.36ZM434.222 255.262C433.403 253.384 433.34 251.952 434.077 251.215C438.85 256.278 440.219 257.897 438.248 260.927C436.432 259.069 435.021 257.077 434.222 255.262ZM444.556 265.596C442.751 264.807 440.749 263.386 438.891 261.591C441.921 259.619 443.54 260.989 448.603 265.762C447.877 266.488 446.445 266.426 444.556 265.596Z" fill="#1A1A1A"/>
</g>
<path d="M248.309 11.2347C248.309 10.9983 248.388 10.7619 248.585 10.5649C248.742 10.3679 248.979 10.2891 249.254 10.2891C249.53 10.2891 249.767 10.3679 249.924 10.5649C250.121 10.7619 250.2 10.9589 250.2 11.2347C250.2 11.5105 250.121 11.7469 249.924 11.9045C249.727 12.1015 249.53 12.1802 249.254 12.1802C248.979 12.1802 248.782 12.1015 248.585 11.9045C248.388 11.7075 248.309 11.4711 248.309 11.2347ZM248.506 13.4804L249.963 13.2046V19.0358H248.506V13.4804Z" fill="#1A1A1A"/>
<path d="M247.008 13.043H245.551V16.3525C245.551 17.0223 244.999 17.6133 244.29 17.6133C243.621 17.6133 243.03 17.0617 243.03 16.3525V13.043H241.572V16.3525C241.572 17.8497 242.793 19.0711 244.29 19.0711C245.787 19.0711 247.008 17.8497 247.008 16.3525V13.043Z" fill="#1A1A1A"/>
<path d="M227.267 15.7261V19.0356H228.724V15.7261C228.724 15.0563 229.276 14.5047 229.945 14.5047C230.615 14.5047 231.206 15.0563 231.206 15.7655V19.075H232.663V15.7655C232.663 14.2683 231.442 13.0469 229.945 13.0469C228.448 13.0469 227.267 14.2289 227.267 15.7261Z" fill="#1A1A1A"/>
<path d="M253.941 17.6951C253.862 17.6951 253.784 17.6951 253.705 17.6951C253.39 17.6951 253.153 17.6163 253.075 17.4587C252.996 17.3011 252.917 17.0647 252.917 16.8284V9.5L251.499 9.7758V16.8284C251.499 17.1041 251.538 17.3799 251.578 17.6163C251.617 17.8527 251.735 18.0891 251.854 18.2861C252.011 18.4831 252.169 18.6407 252.444 18.7195C252.681 18.8377 252.996 18.8771 253.39 18.8771C253.547 18.8771 253.705 18.8771 253.902 18.8377V17.6951H253.941Z" fill="#1A1A1A"/>
<path d="M262.411 17.6951C262.096 17.6951 261.859 17.6163 261.78 17.4587C261.702 17.3011 261.623 17.0647 261.623 16.8284V9.5L260.205 9.7758V13.2036C260.047 13.1248 259.89 13.046 259.693 12.9672C259.299 12.8096 258.905 12.7308 258.432 12.7308C257.999 12.7308 257.566 12.8096 257.172 12.9672C256.778 13.1248 256.463 13.3218 256.148 13.5976C255.872 13.8734 255.636 14.1886 255.478 14.5826C255.32 14.9766 255.242 15.3706 255.242 15.8434C255.242 16.3162 255.32 16.7102 255.478 17.1041C255.636 17.4981 255.872 17.8133 256.148 18.0891C256.423 18.3649 256.778 18.5619 257.172 18.7195C257.566 18.8771 257.96 18.9559 258.432 18.9559C258.866 18.9559 259.299 18.8771 259.693 18.7195C259.811 18.6801 259.929 18.6013 260.047 18.5619L260.008 18.5225C259.85 18.3255 259.772 18.1285 259.732 17.8527C259.693 17.6557 259.653 17.4587 259.653 17.2223C259.535 17.3405 259.378 17.4587 259.22 17.5375C259.023 17.6557 258.747 17.6951 258.472 17.6951C258.196 17.6951 257.92 17.6557 257.723 17.5375C257.526 17.4193 257.329 17.2617 257.211 17.1041C257.054 16.9071 256.975 16.7102 256.896 16.5132C256.817 16.2768 256.778 16.0404 256.778 15.8434C256.778 15.607 256.817 15.41 256.896 15.1736C256.975 14.9372 257.054 14.7402 257.211 14.5826C257.369 14.3856 257.526 14.2674 257.723 14.1492C257.92 14.031 258.196 13.9916 258.472 13.9916C258.747 13.9916 259.023 14.031 259.22 14.1492C259.417 14.2674 259.614 14.3856 259.732 14.5826C259.85 14.7796 259.969 14.9766 260.047 15.1736C260.087 15.2524 260.087 15.41 260.087 15.5282V16.8284C260.087 17.1041 260.126 17.3799 260.165 17.6163C260.205 17.8527 260.323 18.0891 260.441 18.2861C260.599 18.4831 260.756 18.6407 261.032 18.7195C261.268 18.8377 261.584 18.8771 261.977 18.8771C262.096 18.8771 262.293 18.8771 262.45 18.8377V17.6951C262.49 17.6951 262.45 17.6951 262.411 17.6951Z" fill="#1A1A1A"/>
<path d="M211.539 14.3038C211.854 14.3038 212.091 14.3826 212.169 14.5402C212.248 14.6978 212.327 14.9342 212.327 15.1706V22.4989L213.745 22.2231V18.7953C213.903 18.8741 214.06 18.9529 214.257 19.0317C214.651 19.1893 215.045 19.2681 215.518 19.2681C215.951 19.2681 216.384 19.1893 216.778 19.0317C217.172 18.8741 217.487 18.6771 217.802 18.4013C218.078 18.1255 218.314 17.8103 218.472 17.4163C218.629 17.0223 218.708 16.6283 218.708 16.1555C218.708 15.6828 218.629 15.2888 218.472 14.8948C218.314 14.5008 218.078 14.1856 217.802 13.9098C217.526 13.634 217.172 13.437 216.778 13.2794C216.384 13.1218 215.99 13.043 215.518 13.043C215.084 13.043 214.651 13.1218 214.257 13.2794C214.139 13.3188 214.021 13.3976 213.903 13.437L213.942 13.4764C214.099 13.6734 214.178 13.8704 214.218 14.1462C214.257 14.3432 214.296 14.5402 214.296 14.7766C214.415 14.6584 214.572 14.5402 214.73 14.4614C214.927 14.3432 215.202 14.3038 215.478 14.3038C215.754 14.3038 216.03 14.3432 216.227 14.4614C216.424 14.5796 216.62 14.7372 216.739 14.8948C216.896 15.0918 216.975 15.2888 217.054 15.4858C217.133 15.7222 217.172 15.9585 217.172 16.1555C217.172 16.3919 217.133 16.5889 217.054 16.8253C216.975 17.0617 216.896 17.2587 216.739 17.4163C216.581 17.6133 216.424 17.7315 216.227 17.8497C216.03 17.9679 215.754 18.0073 215.478 18.0073C215.202 18.0073 214.927 17.9679 214.73 17.8497C214.533 17.7315 214.336 17.6133 214.218 17.4163C214.099 17.2193 213.981 17.0223 213.903 16.8253C213.863 16.7465 213.863 16.5889 213.863 16.4707V15.1706C213.863 14.8948 213.824 14.619 213.784 14.3826C213.745 14.1462 213.627 13.9098 213.509 13.7128C213.351 13.5158 213.193 13.3582 212.918 13.2794C212.681 13.1612 212.366 13.1218 211.972 13.1218C211.854 13.1218 211.657 13.1218 211.5 13.1612V14.3038C211.46 14.3038 211.5 14.3038 211.539 14.3038Z" fill="#1A1A1A"/>
<path d="M225.759 14.816C225.601 14.422 225.404 14.1068 225.168 13.831C224.932 13.5552 224.616 13.3582 224.262 13.24C223.907 13.1218 223.553 13.043 223.12 13.043C222.686 13.043 222.292 13.1218 221.899 13.2794C221.505 13.437 221.19 13.634 220.914 13.9098C220.638 14.1856 220.402 14.5008 220.244 14.8948C220.087 15.2888 220.008 15.7222 220.008 16.1949C220.008 16.6677 220.087 17.1011 220.244 17.4951C220.402 17.8891 220.638 18.2043 220.914 18.4407C221.19 18.7165 221.505 18.9135 221.899 19.0317C222.292 19.1499 222.686 19.2287 223.159 19.2287C223.907 19.2287 224.695 19.0317 225.404 18.4013L224.616 17.4557C224.498 17.5739 224.144 17.8103 224.065 17.8497C223.829 17.9679 223.514 18.0467 223.159 18.0467C222.962 18.0467 222.726 18.0073 222.568 17.9285C222.371 17.8497 222.214 17.7709 222.056 17.6133C221.899 17.4951 221.78 17.3375 221.702 17.1799C221.623 17.0223 221.544 16.8253 221.544 16.5889C221.505 16.0373 221.544 15.5252 221.544 15.5252C221.583 15.0918 221.741 14.7766 222.056 14.5008C222.371 14.225 222.726 14.1068 223.159 14.1068C223.395 14.1068 223.592 14.1462 223.789 14.225C223.947 14.3038 224.104 14.422 224.223 14.5402C224.341 14.6584 224.42 14.816 224.459 14.9736C224.498 15.1312 224.538 15.3282 224.538 15.5252H222.017V16.5889H225.956C225.956 16.5101 225.956 16.4707 225.956 16.3919C225.956 16.3131 225.956 16.2737 225.956 16.1949C225.995 15.6828 225.916 15.21 225.759 14.816Z" fill="#1A1A1A"/>
<path d="M239.504 14.8229C238.978 14.216 237.32 14.2565 237.32 14.2565H236.753H236.147V15.6321H237.562C237.926 15.6321 238.695 15.6321 238.695 16.6031C238.695 17.6955 237.845 17.6955 237.724 17.6955H235.54V15.6321V14.2565V12.3145H236.915C237.037 12.3145 237.117 12.3549 237.239 12.3954C237.32 12.4359 237.441 12.5168 237.481 12.5977C237.522 12.6786 237.603 12.8 237.643 12.8809C237.684 13.0023 237.724 13.1237 237.724 13.245C237.724 13.3664 237.684 13.4878 237.643 13.6092C237.643 13.6092 237.643 13.6496 237.603 13.6496C238.533 13.6901 238.938 13.8519 239.221 13.9733C239.261 13.8115 239.302 13.5687 239.302 13.1641C239.302 12.7191 239.18 10.8984 236.875 10.8984H233.962V19.0711H237.724C238.088 19.0711 238.412 19.0306 238.695 18.9497C239.019 18.8688 239.261 18.7474 239.504 18.5451C239.747 18.3428 239.908 18.1001 240.07 17.8169C240.192 17.4932 240.272 17.1291 240.272 16.684C240.272 16.1176 240.07 15.3489 239.504 14.8229Z" fill="#1A1A1A"/>
<path fill-rule="evenodd" clip-rule="evenodd" d="M203.392 11.9113C204.958 10.5427 207.337 10.5707 208.875 12.0357C210.502 13.5851 210.565 16.1685 209.013 17.7998C207.516 19.3734 205.054 19.4867 203.416 18.0877L204.591 16.8527C205.545 17.607 206.929 17.524 207.782 16.6275C208.687 15.6771 208.653 14.1715 207.703 13.2669C206.845 12.45 205.545 12.3993 204.63 13.0909L203.392 11.9113Z" fill="#1A1A1A"/>
<path d="M204.306 13.7518L202.983 12.4297L201.694 13.7078L203.017 15.0304L201.689 16.3476L202.973 17.6306L204.301 16.3134L205.589 15.0353L204.306 13.7518Z" fill="#1A1A1A"/>
<path d="M248.309 259.735C248.309 259.498 248.388 259.262 248.585 259.065C248.742 258.868 248.979 258.789 249.254 258.789C249.53 258.789 249.767 258.868 249.924 259.065C250.121 259.262 250.2 259.459 250.2 259.735C250.2 260.01 250.121 260.247 249.924 260.404C249.727 260.601 249.53 260.68 249.254 260.68C248.979 260.68 248.782 260.601 248.585 260.404C248.388 260.207 248.309 259.971 248.309 259.735ZM248.506 261.98L249.963 261.705V267.536H248.506V261.98Z" fill="#1A1A1A"/>
<path d="M247.008 261.543H245.551V264.853C245.551 265.522 244.999 266.113 244.29 266.113C243.621 266.113 243.03 265.562 243.03 264.853V261.543H241.572V264.853C241.572 266.35 242.793 267.571 244.29 267.571C245.787 267.571 247.008 266.35 247.008 264.853V261.543Z" fill="#1A1A1A"/>
<path d="M227.267 264.226V267.536H228.724V264.226C228.724 263.556 229.276 263.005 229.945 263.005C230.615 263.005 231.206 263.556 231.206 264.265V267.575H232.663V264.265C232.663 262.768 231.442 261.547 229.945 261.547C228.448 261.547 227.267 262.729 227.267 264.226Z" fill="#1A1A1A"/>
<path d="M253.941 266.195C253.862 266.195 253.784 266.195 253.705 266.195C253.39 266.195 253.153 266.116 253.075 265.959C252.996 265.801 252.917 265.565 252.917 265.328V258L251.499 258.276V265.328C251.499 265.604 251.538 265.88 251.578 266.116C251.617 266.353 251.735 266.589 251.854 266.786C252.011 266.983 252.169 267.141 252.444 267.22C252.681 267.338 252.996 267.377 253.39 267.377C253.547 267.377 253.705 267.377 253.902 267.338V266.195H253.941Z" fill="#1A1A1A"/>
<path d="M262.411 266.195C262.096 266.195 261.859 266.116 261.78 265.959C261.702 265.801 261.623 265.565 261.623 265.328V258L260.205 258.276V261.704C260.047 261.625 259.89 261.546 259.693 261.467C259.299 261.31 258.905 261.231 258.432 261.231C257.999 261.231 257.566 261.31 257.172 261.467C256.778 261.625 256.463 261.822 256.148 262.098C255.872 262.373 255.636 262.689 255.478 263.083C255.32 263.477 255.242 263.871 255.242 264.343C255.242 264.816 255.32 265.21 255.478 265.604C255.636 265.998 255.872 266.313 256.148 266.589C256.423 266.865 256.778 267.062 257.172 267.22C257.566 267.377 257.96 267.456 258.432 267.456C258.866 267.456 259.299 267.377 259.693 267.22C259.811 267.18 259.929 267.101 260.047 267.062L260.008 267.023C259.85 266.826 259.772 266.629 259.732 266.353C259.693 266.156 259.653 265.959 259.653 265.722C259.535 265.841 259.378 265.959 259.22 266.038C259.023 266.156 258.747 266.195 258.472 266.195C258.196 266.195 257.92 266.156 257.723 266.038C257.526 265.919 257.329 265.762 257.211 265.604C257.054 265.407 256.975 265.21 256.896 265.013C256.817 264.777 256.778 264.54 256.778 264.343C256.778 264.107 256.817 263.91 256.896 263.674C256.975 263.437 257.054 263.24 257.211 263.083C257.369 262.886 257.526 262.767 257.723 262.649C257.92 262.531 258.196 262.492 258.472 262.492C258.747 262.492 259.023 262.531 259.22 262.649C259.417 262.767 259.614 262.886 259.732 263.083C259.85 263.28 259.969 263.477 260.047 263.674C260.087 263.752 260.087 263.91 260.087 264.028V265.328C260.087 265.604 260.126 265.88 260.165 266.116C260.205 266.353 260.323 266.589 260.441 266.786C260.599 266.983 260.756 267.141 261.032 267.22C261.268 267.338 261.584 267.377 261.977 267.377C262.096 267.377 262.293 267.377 262.45 267.338V266.195C262.49 266.195 262.45 266.195 262.411 266.195Z" fill="#1A1A1A"/>
<path d="M211.539 262.804C211.854 262.804 212.091 262.883 212.169 263.04C212.248 263.198 212.327 263.434 212.327 263.671V270.999L213.745 270.723V267.295C213.903 267.374 214.06 267.453 214.257 267.532C214.651 267.689 215.045 267.768 215.518 267.768C215.951 267.768 216.384 267.689 216.778 267.532C217.172 267.374 217.487 267.177 217.802 266.901C218.078 266.626 218.314 266.31 218.472 265.916C218.629 265.522 218.708 265.128 218.708 264.656C218.708 264.183 218.629 263.789 218.472 263.395C218.314 263.001 218.078 262.686 217.802 262.41C217.526 262.134 217.172 261.937 216.778 261.779C216.384 261.622 215.99 261.543 215.518 261.543C215.084 261.543 214.651 261.622 214.257 261.779C214.139 261.819 214.021 261.898 213.903 261.937L213.942 261.976C214.099 262.173 214.178 262.37 214.218 262.646C214.257 262.843 214.296 263.04 214.296 263.277C214.415 263.158 214.572 263.04 214.73 262.961C214.927 262.843 215.202 262.804 215.478 262.804C215.754 262.804 216.03 262.843 216.227 262.961C216.424 263.08 216.62 263.237 216.739 263.395C216.896 263.592 216.975 263.789 217.054 263.986C217.133 264.222 217.172 264.459 217.172 264.656C217.172 264.892 217.133 265.089 217.054 265.325C216.975 265.562 216.896 265.759 216.739 265.916C216.581 266.113 216.424 266.232 216.227 266.35C216.03 266.468 215.754 266.507 215.478 266.507C215.202 266.507 214.927 266.468 214.73 266.35C214.533 266.232 214.336 266.113 214.218 265.916C214.099 265.719 213.981 265.522 213.903 265.325C213.863 265.247 213.863 265.089 213.863 264.971V263.671C213.863 263.395 213.824 263.119 213.784 262.883C213.745 262.646 213.627 262.41 213.509 262.213C213.351 262.016 213.193 261.858 212.918 261.779C212.681 261.661 212.366 261.622 211.972 261.622C211.854 261.622 211.657 261.622 211.5 261.661V262.804C211.46 262.804 211.5 262.804 211.539 262.804Z" fill="#1A1A1A"/>
<path d="M225.759 263.316C225.601 262.922 225.404 262.607 225.168 262.331C224.932 262.055 224.616 261.858 224.262 261.74C223.907 261.622 223.553 261.543 223.12 261.543C222.686 261.543 222.292 261.622 221.899 261.779C221.505 261.937 221.19 262.134 220.914 262.41C220.638 262.686 220.402 263.001 220.244 263.395C220.087 263.789 220.008 264.222 220.008 264.695C220.008 265.168 220.087 265.601 220.244 265.995C220.402 266.389 220.638 266.704 220.914 266.941C221.19 267.217 221.505 267.414 221.899 267.532C222.292 267.65 222.686 267.729 223.159 267.729C223.907 267.729 224.695 267.532 225.404 266.901L224.616 265.956C224.498 266.074 224.144 266.31 224.065 266.35C223.829 266.468 223.514 266.547 223.159 266.547C222.962 266.547 222.726 266.507 222.568 266.429C222.371 266.35 222.214 266.271 222.056 266.113C221.899 265.995 221.78 265.838 221.702 265.68C221.623 265.522 221.544 265.325 221.544 265.089C221.505 264.537 221.544 264.025 221.544 264.025C221.583 263.592 221.741 263.277 222.056 263.001C222.371 262.725 222.726 262.607 223.159 262.607C223.395 262.607 223.592 262.646 223.789 262.725C223.947 262.804 224.104 262.922 224.223 263.04C224.341 263.158 224.42 263.316 224.459 263.474C224.498 263.631 224.538 263.828 224.538 264.025H222.017V265.089H225.956C225.956 265.01 225.956 264.971 225.956 264.892C225.956 264.813 225.956 264.774 225.956 264.695C225.995 264.183 225.916 263.71 225.759 263.316Z" fill="#1A1A1A"/>
<path d="M239.504 263.323C238.978 262.716 237.32 262.756 237.32 262.756H236.753H236.147V264.132H237.562C237.926 264.132 238.695 264.132 238.695 265.103C238.695 266.195 237.845 266.195 237.724 266.195H235.54V264.132V262.756V260.814H236.915C237.037 260.814 237.117 260.855 237.239 260.895C237.32 260.936 237.441 261.017 237.481 261.098C237.522 261.179 237.603 261.3 237.643 261.381C237.684 261.502 237.724 261.624 237.724 261.745C237.724 261.866 237.684 261.988 237.643 262.109C237.643 262.109 237.643 262.15 237.603 262.15C238.533 262.19 238.938 262.352 239.221 262.473C239.261 262.311 239.302 262.069 239.302 261.664C239.302 261.219 239.18 259.398 236.875 259.398H233.962V267.571H237.724C238.088 267.571 238.412 267.531 238.695 267.45C239.019 267.369 239.261 267.247 239.504 267.045C239.747 266.843 239.908 266.6 240.07 266.317C240.192 265.993 240.272 265.629 240.272 265.184C240.272 264.618 240.07 263.849 239.504 263.323Z" fill="#1A1A1A"/>
<path fill-rule="evenodd" clip-rule="evenodd" d="M203.392 260.411C204.958 259.043 207.337 259.071 208.875 260.536C210.502 262.085 210.565 264.668 209.013 266.3C207.516 267.873 205.054 267.987 203.416 266.588L204.591 265.353C205.545 266.107 206.929 266.024 207.782 265.128C208.687 264.177 208.653 262.672 207.703 261.767C206.845 260.95 205.545 260.899 204.63 261.591L203.392 260.411Z" fill="#1A1A1A"/>
<path d="M204.306 262.252L202.983 260.93L201.694 262.208L203.017 263.53L201.689 264.848L202.973 266.131L204.301 264.813L205.589 263.535L204.306 262.252Z" fill="#1A1A1A"/>
<path d="M128.928 16.4006C128.928 16.5818 128.787 16.7227 128.606 16.7227L80.322 16.7227C80.1409 16.7227 80 16.5818 80 16.4006C80 16.2195 80.1409 16.0786 80.322 16.0786L128.606 16.0786C128.787 16.0786 128.928 16.2396 128.928 16.4006Z" fill="#1A1A1A"/>
<path d="M145.857 13.7873C145.857 13.9685 145.717 14.1094 145.535 14.1094L97.2512 14.1094C97.0701 14.1094 96.9292 13.9685 96.9292 13.7873C96.9292 13.6062 97.0701 13.4653 97.2512 13.4653L145.535 13.4653C145.717 13.4854 145.857 13.6263 145.857 13.7873Z" fill="#1A1A1A"/>
<path d="M147.968 12.9992C148.411 12.9992 148.773 13.3615 148.773 13.8043C148.773 14.2471 148.411 14.6094 147.968 14.6094C147.525 14.6094 147.163 14.2471 147.163 13.8043C147.163 13.3414 147.525 12.9992 147.968 12.9992Z" fill="#1A1A1A"/>
<path d="M150.94 12.9992C151.383 12.9992 151.745 13.3615 151.745 13.8043C151.745 14.2471 151.383 14.6094 150.94 14.6094C150.497 14.6094 150.135 14.2471 150.135 13.8043C150.135 13.3414 150.497 12.9992 150.94 12.9992Z" fill="#1A1A1A"/>
<path d="M153.923 12.9992C154.366 12.9992 154.728 13.3615 154.728 13.8043C154.728 14.2471 154.366 14.6094 153.923 14.6094C153.48 14.6094 153.118 14.2471 153.118 13.8043C153.118 13.3414 153.48 12.9992 153.923 12.9992Z" fill="#1A1A1A"/>
<path d="M128.928 266.678C128.928 266.859 128.787 267 128.606 267L80.322 267C80.1409 267 80 266.859 80 266.678C80 266.497 80.1409 266.356 80.322 266.356L128.606 266.356C128.787 266.356 128.928 266.517 128.928 266.678Z" fill="#1A1A1A"/>
<path d="M145.857 264.065C145.857 264.246 145.717 264.387 145.535 264.387L97.2512 264.387C97.0701 264.387 96.9292 264.246 96.9292 264.065C96.9292 263.884 97.0701 263.743 97.2512 263.743L145.535 263.743C145.717 263.763 145.857 263.904 145.857 264.065Z" fill="#1A1A1A"/>
<path d="M147.968 263.277C148.411 263.277 148.773 263.639 148.773 264.082C148.773 264.524 148.411 264.887 147.968 264.887C147.525 264.887 147.163 264.524 147.163 264.082C147.163 263.619 147.525 263.277 147.968 263.277Z" fill="#1A1A1A"/>
<path d="M150.94 263.277C151.383 263.277 151.745 263.639 151.745 264.082C151.745 264.524 151.383 264.887 150.94 264.887C150.497 264.887 150.135 264.524 150.135 264.082C150.135 263.619 150.497 263.277 150.94 263.277Z" fill="#1A1A1A"/>
<path d="M153.923 263.277C154.366 263.277 154.728 263.639 154.728 264.082C154.728 264.524 154.366 264.887 153.923 264.887C153.48 264.887 153.118 264.524 153.118 264.082C153.118 263.619 153.48 263.277 153.923 263.277Z" fill="#1A1A1A"/>
<path d="M333.799 16.4006C333.799 16.5818 333.94 16.7227 334.121 16.7227L382.406 16.7227C382.587 16.7227 382.728 16.5818 382.728 16.4006C382.728 16.2195 382.587 16.0786 382.406 16.0786L334.121 16.0786C333.94 16.0786 333.799 16.2396 333.799 16.4006Z" fill="#1A1A1A"/>
<path d="M316.87 13.7873C316.87 13.9685 317.011 14.1094 317.192 14.1094L365.476 14.1094C365.657 14.1094 365.798 13.9685 365.798 13.7873C365.798 13.6062 365.657 13.4653 365.476 13.4653L317.192 13.4653C317.011 13.4854 316.87 13.6263 316.87 13.7873Z" fill="#1A1A1A"/>
<path d="M314.759 12.9992C314.317 12.9992 313.954 13.3615 313.954 13.8043C313.954 14.2471 314.317 14.6094 314.759 14.6094C315.202 14.6094 315.564 14.2471 315.564 13.8043C315.564 13.3414 315.202 12.9992 314.759 12.9992Z" fill="#1A1A1A"/>
<path d="M311.788 12.9992C311.345 12.9992 310.983 13.3615 310.983 13.8043C310.983 14.2471 311.345 14.6094 311.788 14.6094C312.23 14.6094 312.593 14.2471 312.593 13.8043C312.593 13.3414 312.23 12.9992 311.788 12.9992Z" fill="#1A1A1A"/>
<path d="M308.805 12.9992C308.362 12.9992 308 13.3615 308 13.8043C308 14.2471 308.362 14.6094 308.805 14.6094C309.248 14.6094 309.61 14.2471 309.61 13.8043C309.61 13.3414 309.248 12.9992 308.805 12.9992Z" fill="#1A1A1A"/>
<path d="M333.799 266.678C333.799 266.859 333.94 267 334.121 267L382.406 267C382.587 267 382.728 266.859 382.728 266.678C382.728 266.497 382.587 266.356 382.406 266.356L334.121 266.356C333.94 266.356 333.799 266.517 333.799 266.678Z" fill="#1A1A1A"/>
<path d="M316.87 264.065C316.87 264.246 317.011 264.387 317.192 264.387L365.476 264.387C365.657 264.387 365.798 264.246 365.798 264.065C365.798 263.884 365.657 263.743 365.476 263.743L317.192 263.743C317.011 263.763 316.87 263.904 316.87 264.065Z" fill="#1A1A1A"/>
<path d="M314.759 263.277C314.317 263.277 313.954 263.639 313.954 264.082C313.954 264.524 314.317 264.887 314.759 264.887C315.202 264.887 315.564 264.524 315.564 264.082C315.564 263.619 315.202 263.277 314.759 263.277Z" fill="#1A1A1A"/>
<path d="M311.788 263.277C311.345 263.277 310.983 263.639 310.983 264.082C310.983 264.524 311.345 264.887 311.788 264.887C312.23 264.887 312.593 264.524 312.593 264.082C312.593 263.619 312.23 263.277 311.788 263.277Z" fill="#1A1A1A"/>
<path d="M308.805 263.277C308.362 263.277 308 263.639 308 264.082C308 264.524 308.362 264.887 308.805 264.887C309.248 264.887 309.61 264.524 309.61 264.082C309.61 263.619 309.248 263.277 308.805 263.277Z" fill="#1A1A1A"/>
<defs>
<linearGradient id="paint0_linear_1417_1607" x1="280" y1="512" x2="0" y2="512" gradientUnits="userSpaceOnUse">
<stop stop-color="#EFE37F"/>
<stop offset="1" stop-color="#01DB83"/>
</linearGradient>
<clipPath id="clip0_1417_1607">
<rect width="20.9538" height="20" fill="white" transform="translate(21.1396 7) rotate(45)"/>
</clipPath>
<clipPath id="clip1_1417_1607">
<rect width="20.9538" height="20" fill="white" transform="translate(21.1396 244) rotate(45)"/>
</clipPath>
<clipPath id="clip2_1417_1607">
<rect width="20.9538" height="20" fill="white" transform="translate(441 7) rotate(45)"/>
</clipPath>
<clipPath id="clip3_1417_1607">
<rect width="20.9538" height="20" fill="white" transform="translate(441 244) rotate(45)"/>
</clipPath>
</defs>
</svg>
