<svg width="17" height="16" viewBox="0 0 17 16" fill="none" xmlns="http://www.w3.org/2000/svg">
<path d="M12.3292 6.53977C14.2877 5.20577 14.3183 3.67632 14.3183 3.35241C14.3183 3.02837 14.3584 2.24922 13.7685 2.24922C13.1785 2.24922 12.3777 3.40372 12.3777 3.40372L12.4037 1.69727C12.4037 1.69727 12.8732 1.02344 13.8798 1.02344C14.8865 1.02344 15.4904 2.23135 15.4904 2.83528C15.4904 3.43914 15.6243 6.45015 11.6484 8.16561L12.3292 6.53977Z" fill="#FFD28F"/>
<path d="M12.0486 7.46533C16.772 4.7633 14.9753 1.59375 14.9753 1.59375C15.0834 1.73782 15.1819 1.88879 15.2703 2.04571C15.4138 2.33151 15.4904 2.62224 15.4904 2.83682C15.4904 3.44067 15.6243 6.45169 11.6484 8.16715L12.0486 7.46533Z" fill="#E6BA79"/>
<path d="M14.3206 3.10629C14.311 2.74185 14.2395 2.25205 13.7717 2.25205C13.1817 2.25205 12.3809 3.40655 12.3809 3.40655L12.3926 2.63679C12.7673 2.31952 13.3515 1.89062 13.7717 1.89062C14.4384 1.89062 14.3206 3.10629 14.3206 3.10629Z" fill="#E6BA79"/>
<path d="M14.7265 1.86211C15.3744 2.7136 15.1425 3.50306 14.9385 4.20837C15.2512 3.30346 15.2835 2.60184 15.1451 2.05784C14.8864 1.5344 14.4023 1.02344 13.7476 1.02344C12.741 1.02344 12.2714 1.69727 12.2714 1.69727L12.2676 2.42432C13.6506 0.672265 14.7265 1.86211 14.7265 1.86211ZM14.5554 5.12818C14.5554 5.12818 14.7805 4.7548 14.9385 4.20837C14.8396 4.49436 14.7136 4.80014 14.5554 5.12818Z" fill="#FFE0B3"/>
<path d="M4.73896 8.16561C0.763119 6.45015 0.897018 3.4392 0.897018 2.83528C0.897018 2.23135 1.50094 1.02344 2.50755 1.02344C3.51416 1.02344 3.98366 1.69727 3.98366 1.69727L4.00967 3.40372C4.00967 3.40372 3.20891 2.24922 2.61885 2.24922C2.02892 2.24922 2.06906 3.02837 2.06906 3.35241C2.06906 3.67632 2.09974 5.20577 4.05816 6.53977L4.73896 8.16561Z" fill="#FFD28F"/>
<path d="M4.33877 7.46533C-0.384614 4.7633 1.41211 1.59375 1.41211 1.59375C1.30403 1.73782 1.20546 1.88879 1.11705 2.04571C0.973625 2.33151 0.897018 2.62224 0.897018 2.83682C0.897018 3.44067 0.763119 6.45169 4.73896 8.16715L4.33877 7.46533Z" fill="#E6BA79"/>
<path d="M2.06467 3.10629C2.07426 2.74185 2.14581 2.25205 2.6136 2.25205C3.2036 2.25205 4.00443 3.40655 4.00443 3.40655L3.99274 2.63679C3.61798 2.31952 3.03383 1.89062 2.6136 1.89062C1.94687 1.89062 2.06467 3.10629 2.06467 3.10629Z" fill="#E6BA79"/>
<path d="M4.11954 2.42432L4.11573 1.69727C4.11573 1.69727 3.64623 1.02344 2.63955 1.02344C1.98484 1.02344 1.50076 1.5344 1.24209 2.05784C1.10366 2.60184 1.13592 3.30346 1.44859 4.20837C1.24459 3.50306 1.01273 2.71366 1.66061 1.86211C1.66067 1.86211 2.73653 0.672265 4.11954 2.42432ZM1.44866 4.20837C1.60673 4.75474 1.83182 5.12818 1.83182 5.12818C1.67349 4.80014 1.54747 4.49436 1.44866 4.20837Z" fill="#FFE0B3"/>
<path d="M10.9159 9.14062C10.9159 9.14062 9.09734 10.9707 9.09734 12.7152V12.6987H7.13892V12.7152C7.13892 10.9705 5.32031 9.14062 5.32031 9.14062" fill="#FFD28F"/>
<path d="M5.32031 9.14062C5.32031 9.14062 6.69169 10.5212 7.05233 12.0273C7.02933 11.6 7.11849 10.8231 8.07128 10.8231C9.38531 10.8231 9.12139 12.3609 9.12139 12.3609L9.12185 12.3603C9.3359 10.7313 10.9159 9.14062 10.9159 9.14062H5.32031Z" fill="#E6BA79"/>
<path d="M3.91674 0.6875V5.58605C3.91674 5.58605 3.64848 10.1827 8.51332 10.1827C8.51332 10.1827 12.439 9.67949 12.439 5.58605V0.6875H3.91674Z" fill="#FFD28F"/>
<path d="M11.4863 0.6875V3.94345C11.4863 8.03689 7.99941 8.5401 7.99941 8.5401C4.33033 8.5401 3.94847 5.22666 3.91674 4.22649V5.33651C3.91674 5.33651 3.64848 9.93316 8.51332 9.93316C8.51332 9.93316 12.439 9.42995 12.439 5.33651V0.6875H11.4863Z" fill="#FFD28F"/>
<path opacity="0.64" d="M5.18226 5.58591V0.6875H3.85424V5.58605C3.85424 5.58605 3.58598 10.1827 8.45082 10.1827C8.45082 10.1827 8.70206 10.1504 9.07728 10.036C4.72235 9.54158 5.18226 5.58591 5.18226 5.58591Z" fill="#FFECBD"/>
<path opacity="0.85" d="M11.8942 6.61636C11.0894 9.31753 8.29533 9.69005 8.29533 9.69005C4.27369 9.69005 3.86313 6.32734 3.83008 5.325V5.58669C3.83008 5.58669 3.9442 10.6162 8.47436 10.2311C8.47436 10.2311 12.4407 9.72271 12.4407 5.58669V0.703125H12.1088V5.04571C12.1088 5.64142 12.0297 6.16184 11.8942 6.61636Z" fill="#E6BA79"/>
<path d="M7.41409 0.6875H11.4876V1.60732H7.41409V0.6875Z" fill="#FFD28F"/>
<path d="M5.66406 15.3015V13.0716C5.66406 12.6798 5.98455 12.3594 6.37626 12.3594H10.2239C10.6157 12.3594 10.9364 12.6798 10.9364 13.0716V15.3015" fill="#F0F0FF"/>
<path d="M6.50781 12.3594H7.62473V14.9729H6.50781V12.3594Z" fill="white"/>
<path opacity="0.39" d="M7.98242 12.3594H8.41362V14.9729H7.98242V12.3594Z" fill="white"/>
<path d="M4.57034 14.9688H12.0337V15.6258H4.57034V14.9688Z" fill="#C6C6DE"/>
<path opacity="0.28" d="M10.2215 12.3594H9.49219V14.9729H10.9335V13.0653C10.9301 12.6763 10.6111 12.3594 10.2215 12.3594Z" fill="#6E6E96"/>
<path opacity="0.4" d="M8.29492 9.75802C8.29492 9.75802 10.7431 9.19588 10.7431 5.60419V0.757812H12.1084L12.0984 5.47259C12.0983 5.47266 12.1979 8.69957 8.29492 9.75802Z" fill="#E6BA79"/>
<path d="M2.12097 10.8147C2.19961 10.5737 2.44606 10.2778 2.66892 10.1568L2.6699 10.1564C2.89302 10.0355 2.89302 9.83797 2.6699 9.71728L2.66892 9.71662C2.44606 9.59593 2.18693 9.32379 2.09324 9.11204C1.99949 8.90015 1.84614 8.90015 1.75232 9.11204C1.65863 9.32406 1.39957 9.59593 1.17625 9.71662L1.1752 9.71728C0.952016 9.83797 0.952016 10.0355 1.1752 10.1564L1.17625 10.1568C1.39951 10.2776 1.64562 10.5737 1.7242 10.8147L1.78011 10.985C1.85869 11.2261 1.98641 11.2261 2.06545 10.985L2.12097 10.8147Z" fill="#C1ABFF"/>
<path d="M13.9224 12.1638C13.9917 11.9515 14.2088 11.6907 14.4053 11.5841L14.4061 11.5838C14.6028 11.4772 14.6028 11.3032 14.4061 11.1968L14.4053 11.1962C14.2089 11.0899 13.9805 10.85 13.898 10.6635C13.8153 10.4768 13.6802 10.4768 13.5975 10.6635C13.5149 10.8503 13.2867 11.0899 13.0899 11.1962L13.0889 11.1968C12.8922 11.3031 12.8922 11.4772 13.0889 11.5838L13.0899 11.5841C13.2866 11.6906 13.5034 11.9515 13.5728 12.1638L13.622 12.3139C13.6913 12.5263 13.8038 12.5263 13.8734 12.3139L13.9224 12.1638Z" fill="#FFABAB"/>
<path d="M8.79931 4.20397C8.86869 3.99163 9.08577 3.08915 9.28221 2.98259L9.28307 2.98226C9.47971 2.87563 9.47971 2.70165 9.28307 2.59521L9.28221 2.59469C9.08583 2.48832 8.85746 2.24844 8.77494 2.06192C8.69228 1.87519 8.5572 1.87519 8.47448 2.06192C8.3919 2.24871 8.16365 2.48832 7.96681 2.59469L7.96589 2.59521C7.76918 2.70158 7.76918 2.87563 7.96589 2.98226L7.96681 2.98259C8.16359 3.08902 8.3804 3.99156 8.44971 4.20397L8.49892 4.35403C8.56824 4.56645 8.68079 4.56645 8.75036 4.35403L8.79931 4.20397Z" fill="white"/>
</svg>
