<svg width="119" height="120" viewBox="0 0 119 120" fill="none" xmlns="http://www.w3.org/2000/svg">
<g clipPath="url(#clip0_291_39754)">
<path d="M39.7575 113.419C39.6213 113.419 39.5305 113.328 39.5305 113.192L37.3066 44.7506C37.3066 44.6598 37.352 44.569 37.4428 44.5236L66.3989 36.3088C66.4897 36.2634 66.5805 36.3088 66.6259 36.3996L110.015 112.194C110.06 112.239 110.06 112.33 110.015 112.421C109.969 112.466 109.924 112.512 109.833 112.512L39.7575 113.419ZM37.7605 44.9321L39.939 112.965L109.47 112.103L66.3535 36.7627L37.7605 44.9321Z" fill="#D1DEF0"/>
<path d="M40.8005 66.0355C40.5282 65.1278 39.8928 64.447 39.1666 64.0385L40.4828 54.326L37.9412 53.9629L36.625 63.6754C36.5342 63.6754 36.4435 63.7208 36.3527 63.7662C34.4919 64.3562 33.448 66.3532 34.038 68.214C34.628 70.0748 36.625 71.1187 38.4858 70.5287C40.392 69.8933 41.4359 67.8963 40.8005 66.0355Z" fill="#A3A3A3"/>
<path d="M37.4423 70.8472C35.8538 70.8472 34.3561 69.8487 33.8568 68.2149C33.2214 66.2179 34.3107 64.1301 36.3077 63.4947C36.353 63.4947 36.3984 63.4493 36.4892 63.4493L37.8054 53.8729C37.8054 53.7368 37.9415 53.6914 38.0323 53.6914L40.5739 54.0545C40.6193 54.0545 40.6647 54.0999 40.7101 54.1453C40.7555 54.1906 40.7555 54.236 40.7555 54.3268L39.4393 63.9032C40.2108 64.3571 40.8009 65.0832 41.0732 65.9456C41.7086 67.9425 40.6193 70.0303 38.6223 70.6657C38.2139 70.8018 37.8054 70.8472 37.4423 70.8472ZM38.1685 54.1906L36.8523 63.6763C36.8523 63.767 36.7615 63.8578 36.6707 63.8578C36.58 63.9032 36.4892 63.9032 36.3984 63.9486C34.6738 64.4932 33.6753 66.3994 34.2653 68.1241C34.7192 69.531 36.0353 70.4388 37.4423 70.4388C37.76 70.4388 38.1231 70.3934 38.4408 70.3026C40.1654 69.758 41.1639 67.8518 40.5739 66.1271C40.3016 65.3102 39.757 64.6294 39.0308 64.2209C38.94 64.1755 38.8946 64.0847 38.94 63.994L40.2562 54.5083L38.1685 54.1906Z" fill="#707070"/>
<path d="M81.7863 52.9193C81.1963 51.0585 79.1993 50.0146 77.3385 50.6046C77.2477 50.65 77.157 50.65 77.0662 50.6954L70.3491 43.6152L68.4883 45.3399L75.2054 52.4655C74.8423 53.237 74.7515 54.1901 75.0238 55.0525C75.6139 56.9133 77.6108 57.9571 79.4716 57.3671C81.3325 56.7771 82.3763 54.7801 81.7863 52.9193Z" fill="#A3A3A3"/>
<path d="M78.4269 57.776C76.8384 57.776 75.3407 56.7775 74.8414 55.1436C74.5691 54.2813 74.6145 53.3735 74.9776 52.5112L68.3513 45.4764C68.2605 45.3856 68.2605 45.2495 68.3513 45.1587L70.2121 43.4341C70.2575 43.3887 70.3029 43.3887 70.3483 43.3887C70.3936 43.3887 70.439 43.4341 70.4844 43.4794L77.1107 50.5142C77.1561 50.5142 77.2015 50.4689 77.2923 50.4689C79.2893 49.8335 81.377 50.9227 82.0124 52.9197C82.6478 54.9167 81.5585 57.0044 79.5616 57.6398C79.1531 57.7306 78.79 57.776 78.4269 57.776ZM68.8051 45.3856L75.3861 52.3751C75.4315 52.4204 75.4768 52.5566 75.4315 52.602C75.0684 53.3735 75.023 54.2359 75.2499 55.0528C75.7945 56.7775 77.7007 57.776 79.4254 57.186C81.1501 56.6413 82.1486 54.7351 81.5585 53.0105C81.0139 51.2858 79.1077 50.2873 77.383 50.8773C77.2923 50.9227 77.2015 50.9227 77.1107 50.9681C77.02 51.0135 76.9292 50.9681 76.8838 50.9227L70.3029 43.9333L68.8051 45.3856Z" fill="#707070"/>
<path d="M56.0867 54.8189C69.7911 50.4393 79.3172 41.934 77.364 35.822C75.4107 29.7099 62.7176 28.3055 49.0132 32.6852C35.3088 37.0648 25.7827 45.57 27.736 51.6821C29.6893 57.7942 42.3823 59.1986 56.0867 54.8189Z" fill="#A3A3A3"/>
<path d="M41.0278 57.596C39.8024 57.596 38.6224 57.5506 37.4877 57.4144C34.8554 57.1421 32.6768 56.5067 30.9522 55.5536C29.1821 54.5551 28.0021 53.2843 27.5029 51.7412C27.0036 50.1981 27.1852 48.4734 28.0929 46.658C28.9552 44.9334 30.3622 43.1179 32.3137 41.3933C36.3531 37.8078 42.2532 34.6308 48.8796 32.4976C55.5513 30.3645 62.1776 29.5476 67.5331 30.1376C70.1655 30.4099 72.344 31.0453 74.0687 31.9984C75.8387 32.9969 77.0187 34.2677 77.518 35.8108C78.0172 37.3539 77.8357 39.0786 76.928 40.894C76.0656 42.6187 74.6587 44.4341 72.7071 46.1588C68.6678 49.7442 62.7676 52.9212 56.1413 55.0544C50.8765 56.6883 45.6572 57.596 41.0278 57.596ZM64.0838 30.3645C59.4998 30.3645 54.3259 31.2268 49.1065 32.9061C42.4802 35.0392 36.6708 38.1255 32.6768 41.711C30.7252 43.4356 29.3637 45.1603 28.5467 46.8396C27.7298 48.5642 27.5029 50.1527 28.0021 51.6051C28.456 53.0574 29.5452 54.2374 31.2245 55.1452C32.8584 56.0529 34.9915 56.6429 37.5785 56.9152C38.6678 57.0514 39.8478 57.0967 41.0732 57.0967C45.6572 57.0967 50.8311 56.2344 56.0505 54.5551C62.6315 52.4674 68.4862 49.3358 72.4802 45.7503C74.4318 44.0256 75.7933 42.301 76.6103 40.6217C77.4272 38.897 77.6541 37.3085 77.1549 35.8562C76.701 34.4038 75.6118 33.2238 73.9325 32.3161C72.2986 31.4084 70.1655 30.8184 67.5785 30.5461C66.4439 30.4553 65.3092 30.3645 64.0838 30.3645Z" fill="#707070"/>
<path d="M98.2594 21.0588L2.1323 51.7849L0.271484 52.375L0.952271 54.4627C2.31384 58.729 25.7783 55.0527 53.3728 46.2479C80.9674 37.443 102.208 26.8228 100.846 22.5565L100.166 20.4688L98.2594 21.0588Z" fill="#D9D9D9"/>
<path d="M7.03387 56.5053C6.6254 56.5053 6.21692 56.5053 5.85384 56.4599C2.85838 56.3238 1.13372 55.6884 0.77063 54.5537L0.0898438 52.466C0.0898438 52.4206 0.0898438 52.3298 0.0898438 52.2844C0.13523 52.2391 0.180615 52.1937 0.226001 52.1937L100.075 20.2875C100.211 20.2421 100.302 20.3328 100.347 20.4236L101.028 22.5114C101.391 23.646 100.392 25.1891 97.987 27.0046C95.7631 28.7292 92.4045 30.7262 88.0475 32.9047C79.0611 37.3979 66.7616 42.2088 53.4181 46.4751C40.0747 50.7413 27.2759 53.9637 17.3364 55.5068C13.1609 56.1422 9.71163 56.5053 7.03387 56.5053ZM0.543702 52.5114L1.13372 54.4176C1.45142 55.3707 3.03992 55.9153 5.80845 56.0061C8.62237 56.1422 12.4348 55.8245 17.2457 55.053C27.1398 53.5099 39.9386 50.2875 53.2366 46.0666C66.58 41.8003 78.8342 36.9894 87.7752 32.5416C92.1322 30.3631 95.4454 28.4115 97.6693 26.6869C99.8478 25.0076 100.846 23.6006 100.574 22.6475L99.9839 20.7413L98.3047 21.286L0.543702 52.5114Z" fill="#707070"/>
<path d="M52.6617 44.1445C80.2376 35.3318 101.485 24.7232 100.119 20.4495C98.7535 16.1758 75.2917 19.8555 47.7158 28.6682C20.1398 37.4809 -1.10766 48.0895 0.258118 52.3632C1.6239 56.6368 25.0858 52.9572 52.6617 44.1445Z" fill="#F3F3F3"/>
<path d="M6.35528 54.3741C5.94681 54.3741 5.53833 54.3741 5.17525 54.3288C2.17979 54.1926 0.455128 53.5572 0.0920413 52.4226C-0.271045 51.2879 0.727442 49.7448 3.13289 47.9294C5.35679 46.2047 8.71534 44.2077 13.0724 42.0292C22.0588 37.536 34.3583 32.7251 47.7017 28.4589C61.0451 24.1926 73.8439 20.9702 83.7834 19.4271C88.5943 18.6555 92.4975 18.3378 95.3114 18.474C98.3069 18.6102 100.032 19.2456 100.395 20.3802C100.758 21.5148 99.7592 23.058 97.3538 24.8734C95.1299 26.598 91.7713 28.595 87.4143 30.7735C78.4279 35.2667 66.1283 40.0776 52.7849 44.3439C39.4415 48.6102 26.6427 51.8325 16.7032 53.3757C12.5277 54.0564 9.03304 54.3741 6.35528 54.3741ZM94.086 18.8825C91.4082 18.8825 87.9589 19.2002 83.8288 19.881C73.9347 21.4241 61.1359 24.6465 47.8379 28.8673C34.4945 33.1336 22.1949 37.9445 13.2539 42.4377C8.89688 44.6162 5.58372 46.5678 3.35982 48.2925C1.1813 49.9717 0.182813 51.3787 0.455128 52.3318C0.772828 53.2849 2.36133 53.8295 5.12986 53.9203C7.94378 54.0564 11.7562 53.7387 16.5671 52.9672C26.4612 51.4241 39.26 48.2017 52.558 43.9808C65.9014 39.7145 78.1556 34.9036 87.0966 30.4558C91.4536 28.2773 94.7668 26.3257 96.9907 24.6011C99.1692 22.9218 100.168 21.5148 99.8954 20.5617C99.5777 19.6086 97.9892 19.064 95.2206 18.9732C94.8575 18.9279 94.4945 18.8825 94.086 18.8825Z" fill="#707070"/>
<path d="M15.0673 49.1541C14.7496 49.1541 14.4773 49.1541 14.205 49.1541C11.7088 49.0634 10.3472 48.5641 10.0295 47.611C9.71178 46.6579 10.5287 45.4779 12.5257 43.9348C14.3411 42.5278 17.1097 40.8939 20.6498 39.1239C28.0023 35.493 38.0325 31.5444 48.9251 28.0951C59.8177 24.6004 70.3018 21.968 78.3805 20.6972C82.329 20.0618 85.506 19.7895 87.7753 19.8803C90.2715 19.9711 91.6331 20.4703 91.9508 21.4234C92.2685 22.3765 91.4516 23.5565 89.4546 25.0997C87.6392 26.5066 84.8706 28.1405 81.3305 29.9106C73.978 33.5414 63.9478 37.49 53.0552 40.9393C42.1626 44.434 31.6785 47.0664 23.5998 48.3372C20.1505 48.8818 17.2912 49.1541 15.0673 49.1541ZM86.9584 20.2888C84.7799 20.2888 81.9206 20.5611 78.4712 21.1057C70.3926 22.3765 59.9538 25.0089 49.1066 28.5036C38.2141 31.9983 28.1838 35.9015 20.8767 39.5323C17.3366 41.3024 14.6134 42.8909 12.798 44.2978C11.5726 45.2509 10.1656 46.5671 10.438 47.5202C10.7557 48.428 12.6619 48.7003 14.205 48.7457C16.4743 48.8364 19.6059 48.5641 23.5544 47.9287C31.6331 46.6579 42.0718 44.0255 52.919 40.5308C63.8116 37.0361 73.8419 33.1329 81.149 29.5021C84.6891 27.732 87.4122 26.1435 89.2277 24.7366C90.4531 23.7835 91.86 22.4673 91.5877 21.5142C91.27 20.6065 89.3638 20.3342 87.8207 20.2888C87.5484 20.2888 87.2761 20.2888 86.9584 20.2888Z" fill="#707070"/>
<path d="M77.7012 27.2773C60.7723 37.6706 42.3457 43.5707 22.5121 44.8869C21.5136 44.9323 20.6967 44.1154 20.742 43.1169L21.1505 34.9021C21.7405 22.7841 29.7738 12.2999 41.3472 8.6237C52.8752 4.94745 65.5378 8.80524 73.0265 18.3363L78.1097 24.781C78.7451 25.598 78.5181 26.7326 77.7012 27.2773Z" fill="white"/>
<path d="M22.4213 45.1143C21.922 45.1143 21.4682 44.9327 21.1051 44.5697C20.742 44.2066 20.5151 43.6619 20.5604 43.1173L20.9689 34.9025C21.1051 31.907 21.7405 28.9569 22.7843 26.143C23.8282 23.3745 25.2352 20.8329 27.0052 18.4728C28.7753 16.1582 30.9084 14.1158 33.3138 12.3911C35.7647 10.6665 38.4424 9.30491 41.3017 8.39719C44.161 7.48948 47.1565 7.03562 50.152 6.99023C53.102 6.99023 56.0067 7.39871 58.8207 8.26104C61.6346 9.12337 64.2669 10.3942 66.7178 12.0281C69.214 13.7073 71.3925 15.7497 73.2533 18.1098L78.3365 24.5545C78.6542 24.963 78.7904 25.5076 78.6996 26.0523C78.6088 26.5969 78.2911 27.0507 77.8373 27.3231C69.3955 32.5424 60.4545 36.6271 51.2866 39.5772C42.1187 42.5273 32.4515 44.3427 22.5574 44.9781C22.512 45.1143 22.4666 45.1143 22.4213 45.1143ZM50.1974 7.48948C50.152 7.48948 50.152 7.48948 50.1066 7.48948C47.1565 7.48948 44.2064 7.94334 41.3925 8.85105C38.5786 9.75877 35.9008 11.075 33.4954 12.7996C31.1353 14.4789 29.0476 16.4759 27.2775 18.7905C25.5075 21.1052 24.1459 23.6014 23.1474 26.2792C22.1036 29.0477 21.5135 31.9524 21.3774 34.9025L20.9689 43.1173C20.9689 43.5258 21.1051 43.9343 21.4228 44.2066C21.7405 44.4789 22.1036 44.6604 22.5574 44.615C32.3607 44.025 41.9825 42.2096 51.1051 39.2595C60.2276 36.3548 69.1232 32.2247 77.565 27.0507C77.9281 26.8238 78.155 26.4607 78.2458 26.0523C78.3365 25.6438 78.2004 25.2353 77.9734 24.8722L72.8902 18.4275C71.0748 16.1128 68.8963 14.0704 66.4455 12.4365C64.04 10.8026 61.453 9.57722 58.6845 8.71489C55.8706 7.89795 53.0567 7.48948 50.1974 7.48948Z" fill="#707070"/>
<path d="M74.4334 20.1523C58.0038 30.0918 40.2125 35.8104 21.0144 37.2174L20.742 43.1175C20.6967 44.116 21.5136 44.933 22.5121 44.8876C42.3457 43.5714 60.7723 37.6713 77.7012 27.2779C78.5635 26.7333 78.7451 25.5986 78.1551 24.8271L74.4334 20.1523Z" fill="#A3A3A3"/>
<path d="M22.4213 45.1149C21.922 45.1149 21.4682 44.9334 21.1051 44.5703C20.742 44.2072 20.5151 43.6626 20.5604 43.118L20.8328 37.2178C20.8328 37.127 20.9235 37.0363 21.0143 36.9909C30.5453 36.2647 39.8494 34.4947 48.6996 31.6808C57.5499 28.8668 66.1731 24.9183 74.3426 19.9712C74.4334 19.9258 74.5695 19.9258 74.6149 20.0166L78.2911 24.6913C78.6089 25.0998 78.745 25.6444 78.6542 26.1891C78.5635 26.7337 78.2458 27.1876 77.7919 27.4599C69.3502 32.6792 60.4092 36.764 51.2412 39.714C42.0733 42.6641 32.4061 44.4795 22.512 45.1149C22.512 45.1149 22.4666 45.1149 22.4213 45.1149ZM21.2412 37.3994L20.9689 43.118C20.9689 43.5264 21.1051 43.9349 21.4228 44.2072C21.7405 44.4795 22.1036 44.6611 22.5574 44.6157C32.3607 44.0257 41.9825 42.2103 51.1051 39.2602C60.2276 36.3101 69.1232 32.2254 77.565 27.0514C77.9281 26.8245 78.155 26.4614 78.2458 26.0529C78.3365 25.6444 78.2004 25.236 77.9734 24.8729L74.4334 20.3797C66.2639 25.2814 57.686 29.2299 48.8812 32.0438C40.0309 34.9031 30.7269 36.7186 21.2412 37.3994Z" fill="#707070"/>
<path d="M84.9621 7.26172C84.7352 7.98789 84.2813 8.53252 83.5098 8.85022C84.2359 9.16792 84.7352 9.71255 84.9167 10.4387C85.1437 9.71255 85.5975 9.16792 86.3237 8.85022C85.6429 8.57791 85.1437 8.03328 84.9621 7.26172Z" fill="#D9D9D9"/>
<path d="M109.833 23.6016C109.606 24.3277 109.152 24.8724 108.381 25.1901C109.107 25.5078 109.606 26.0524 109.788 26.7786C110.015 26.0524 110.469 25.5078 111.195 25.1901C110.514 24.8724 110.06 24.3731 109.833 23.6016Z" fill="#D9D9D9"/>
<path d="M16.1574 66.9891C15.9305 67.7153 15.4766 68.2599 14.7051 68.5776C15.4313 68.8953 15.9305 69.4399 16.112 70.1661C16.339 69.4399 16.7928 68.8953 17.519 68.5776C16.8382 68.2599 16.3844 67.7153 16.1574 66.9891Z" fill="#D9D9D9"/>
<path d="M24.3273 1.63477C24.282 1.63477 24.282 1.63477 24.3273 1.63477C24.1004 2.36094 23.6466 2.90557 22.875 3.22327C23.6012 3.54097 24.1004 4.0856 24.282 4.81177C24.5089 4.0856 25.0081 3.54097 25.7343 3.22327C25.0081 2.90557 24.5089 2.36094 24.3273 1.63477Z" fill="#D9D9D9"/>
<path d="M6.30781 32.9043C6.08088 33.6305 5.62703 34.1751 4.85547 34.4928C5.58164 34.8105 6.08088 35.3551 6.26243 36.0813C6.48936 35.3551 6.94321 34.8105 7.66939 34.4928C6.9886 34.1751 6.48936 33.6305 6.30781 32.9043Z" fill="#D9D9D9"/>
<path d="M11.164 10.3934C10.7555 11.8911 9.80242 12.935 8.30469 13.6158C9.80242 14.2512 10.7555 15.3405 11.164 16.8382V16.8836V16.7928C11.5725 15.2951 12.5256 14.2512 14.0233 13.5704C12.571 12.935 11.6178 11.8911 11.164 10.3934Z" fill="#D9D9D9"/>
<path d="M103.752 0.0457581C103.343 1.54349 102.39 2.58736 100.893 3.26815C102.39 3.90355 103.343 4.99281 103.752 6.49054C104.16 4.99281 105.113 3.94894 106.611 3.26815C105.113 2.58736 104.16 1.54349 103.752 0.0457581Z" fill="#D9D9D9"/>
<path d="M98.4863 45.4316C98.0778 46.9294 97.1247 47.9732 95.627 48.654C97.1247 49.2894 98.0778 50.3787 98.4863 51.8764C98.8947 50.3787 99.8478 49.3348 101.346 48.654C99.8478 48.0186 98.8947 46.9294 98.4863 45.4316Z" fill="#D9D9D9"/>
<path d="M74.9322 120C94.4835 120 110.333 116.953 110.333 113.193C110.333 109.433 94.4835 106.385 74.9322 106.385C55.3808 106.385 39.5312 109.433 39.5312 113.193C39.5312 116.953 55.3808 120 74.9322 120Z" fill="#F3F3F3"/>
<path d="M6.44397 106.068L4.85547 101.121L10.9825 81.3777L17.7904 79.1992L22.8282 94.9935L25.7329 94.0404L27.4122 99.3051L24.5075 100.258L26.0052 104.888L19.8782 106.839L18.3804 102.21L6.44397 106.068ZM14.2957 87.7317L11.2095 98.7151L17.2004 96.8089L14.2957 87.7317Z" fill="#D9D9D9"/>
<path d="M95.627 72.3453L96.1716 67.2167L109.697 51.5586L116.822 52.2848L115.143 68.7598L118.184 69.0775L117.639 74.6146L114.598 74.2969L114.099 79.1531L107.745 78.5177L108.244 73.6615L95.627 72.3453ZM110.15 58.6842L102.934 67.5344L109.197 68.1698L110.15 58.6842Z" fill="#D9D9D9"/>
<path d="M60.2728 67.8517C62.8144 66.3086 65.7644 66.354 69.123 67.8971C72.4815 69.4856 74.3877 71.7095 74.8416 74.6596C75.2955 77.6096 74.6147 81.0136 72.7992 84.9167C70.9384 88.8653 68.7599 91.5885 66.2183 93.1316C63.6767 94.6747 60.7266 94.6293 57.3681 93.0862C54.0095 91.4977 52.1033 89.2738 51.6495 86.3237C51.1956 83.3736 51.8764 79.9243 53.7372 76.0211C55.5526 72.0726 57.7312 69.3948 60.2728 67.8517ZM68.8053 76.6111C68.8961 75.1588 68.1245 74.0242 66.5814 73.298C65.0383 72.5718 63.7221 72.708 62.6328 73.7065C61.5436 74.7049 60.4997 76.3388 59.4104 78.6535C58.6843 80.1966 58.185 81.5128 57.9127 82.6021C57.6404 83.6913 57.595 84.6898 57.8673 85.5521C58.1396 86.4145 58.8204 87.1406 59.9097 87.6399C60.9989 88.1391 61.952 88.2299 62.8144 87.8668C63.6767 87.5037 64.4029 86.8683 65.0837 85.9606C65.7191 85.0529 66.3998 83.8275 67.126 82.2844C68.1699 79.9697 68.7145 78.0635 68.8053 76.6111Z" fill="#D9D9D9"/>
</g>
<defs>
<clipPath id="clip0_291_39754">
<rect width="118.139" height="120" fill="white"/>
</clipPath>
</defs>
</svg>
