<svg width="120" height="120" viewBox="0 0 120 120" fill="none" xmlns="http://www.w3.org/2000/svg">
<path d="M120 60L110.724 66.6783L117.96 75.5362L107.271 79.5815L111.962 90.0087L100.575 91.1421L102.424 102.424L91.1421 100.575L90.0087 111.962L79.5815 107.271L75.5362 117.96L66.6783 110.724L60 120L53.3217 110.724L44.4638 117.96L40.4185 107.271L29.9913 111.962L28.8579 100.575L17.5763 102.424L19.4072 91.1421L8.03836 90.0087L12.7289 79.5815L2.02267 75.5362L9.27637 66.6783L0 60L9.27637 53.3217L2.02267 44.4638L12.7289 40.4185L8.03836 29.9913L19.4246 28.8579L17.5763 17.5763L28.8579 19.4072L29.9913 8.03836L40.4185 12.7289L44.4638 2.02267L53.3217 9.27637L60 0L66.6783 9.27637L75.5362 2.02267L79.5815 12.7289L90.0087 8.03836L91.1421 19.4246L102.424 17.5763L100.575 28.8579L111.962 29.9913L107.271 40.4185L117.96 44.4638L110.724 53.3217L120 60Z" fill="#173C32"/>
<path d="M17.9772 46.3125L19.2501 46.6089L17.9598 52.2584C17.9075 52.4677 17.9423 52.6595 18.0295 52.8164C18.1167 52.9908 18.2562 53.0954 18.448 53.1303L20.2789 53.5488C20.4707 53.5836 20.645 53.5488 20.802 53.4441C20.9589 53.3221 21.0635 53.1652 21.1158 52.9734L22.0923 48.6839L21.203 48.4747L20.7671 50.4276L19.564 50.1486L20.3661 46.6438L23.7314 47.411L22.3015 53.7057C22.1795 54.2114 21.9179 54.6124 21.5169 54.8914C21.1158 55.1704 20.6799 55.2576 20.2091 55.153L17.8377 54.6124C17.3844 54.5078 17.0182 54.2462 16.7741 53.8103C16.53 53.3744 16.4602 52.9036 16.5823 52.3979L17.9772 46.3125Z" fill="black"/>
<path d="M23.9756 46.9221L18.6748 44.4287L19.3548 42.9814L23.4699 44.9169L25.7367 40.0869L26.9224 40.6449L23.9756 46.9221Z" fill="black"/>
<path d="M26.4343 31.4389C26.7482 31.0204 27.1492 30.7763 27.6374 30.6891C28.1257 30.6019 28.5616 30.7065 28.9278 30.9855L30.8632 32.4677C31.2469 32.7467 31.4561 33.1477 31.491 33.6359C31.5258 34.1242 31.4038 34.5775 31.0725 34.996L28.2826 38.6228C27.9687 39.0413 27.5677 39.2854 27.0795 39.3726C26.5912 39.4598 26.1553 39.3552 25.7891 39.0762L23.8537 37.5941C23.4701 37.2977 23.2608 36.914 23.2259 36.4258C23.1911 35.9376 23.3306 35.4842 23.6444 35.0657L26.4343 31.4389ZM24.7952 36.0422C24.8127 36.234 24.8824 36.3909 25.0394 36.513L26.5389 37.6638C26.6959 37.7859 26.8528 37.8208 27.062 37.7859C27.2538 37.751 27.4108 37.6464 27.5503 37.4895L29.7647 34.5949C29.8868 34.4206 29.9391 34.2462 29.9217 34.0544C29.9042 33.8626 29.817 33.7057 29.6775 33.5836L28.178 32.4328C28.0211 32.3107 27.8467 32.2759 27.6549 32.3107C27.4631 32.3456 27.2887 32.4328 27.1667 32.6072L24.9522 35.5017C24.8476 35.6586 24.7778 35.833 24.7952 36.0422Z" fill="black"/>
<path d="M33.3565 24.9169C33.7401 24.603 34.1586 24.4635 34.6294 24.4809C35.1002 24.4984 35.4664 24.6727 35.7454 25.0215C35.8849 25.1959 35.9895 25.4051 36.0418 25.6143C36.0941 25.841 36.0941 26.0677 36.0592 26.2944C36.3731 26.2246 36.6695 26.2246 36.966 26.3118C37.2624 26.399 37.5065 26.5559 37.6983 26.8C37.9947 27.1488 38.0993 27.5673 38.0296 28.038C37.9599 28.5088 37.7332 28.8925 37.3496 29.2238L32.6416 33.1296L28.9102 28.6135L33.3565 24.9169ZM31.6477 29.433L34.4725 27.0965C34.612 26.9918 34.6817 26.8523 34.6992 26.6954C34.7166 26.5385 34.6817 26.399 34.5771 26.2769C34.4725 26.1549 34.333 26.0851 34.1761 26.0851C34.0191 26.0677 33.8622 26.12 33.7227 26.2421L30.8979 28.5786L31.6477 29.433ZM33.0775 31.1592L36.2162 28.5612C36.3557 28.4565 36.4254 28.317 36.4428 28.1601C36.4777 27.9857 36.4254 27.8462 36.3208 27.7242C36.2162 27.6021 36.0941 27.5324 35.9197 27.5324C35.7628 27.5149 35.6059 27.5673 35.4838 27.6893L32.3452 30.2874L33.0775 31.1592Z" fill="black"/>
<path d="M41.0638 20.2617L47.0098 23.8363L45.4753 24.6035L44.185 23.8188L40.6279 25.5974L40.471 27.1144L38.9365 27.8816L39.6514 20.9766L41.0638 20.2617ZM40.7848 24.1327L42.9121 23.069L41.0115 21.9182L40.7848 24.1327Z" fill="black"/>
<path d="M47.341 23.8356L45.9111 18.1512L47.463 17.7676L48.579 22.1791L53.7577 20.8713L54.0716 22.1442L47.341 23.8356Z" fill="black"/>
<path d="M102.371 72.5548L101.098 72.2933L102.232 66.6263C102.284 66.4171 102.249 66.2253 102.144 66.0683C102.057 65.894 101.9 65.8068 101.708 65.7545L99.8601 65.3883C99.6683 65.3534 99.494 65.3883 99.337 65.5104C99.1801 65.6324 99.0755 65.7894 99.0406 65.9986L98.1862 70.3055L99.0755 70.4799L99.4591 68.5269L100.662 68.771L99.9648 72.2933L96.582 71.6132L97.8549 65.2837C97.9595 64.778 98.2036 64.377 98.6047 64.0805C99.0057 63.7841 99.4417 63.6969 99.895 63.7841L102.284 64.2549C102.755 64.3421 103.103 64.6037 103.365 65.0221C103.626 65.4406 103.696 65.9114 103.592 66.4345L102.371 72.5548Z" fill="black"/>
<path d="M96.3555 72.1182L101.726 74.4721L101.081 75.9368L96.9134 74.106L94.7861 78.9883L93.583 78.4652L96.3555 72.1182Z" fill="black"/>
<path d="M94.3154 87.6543C94.0015 88.0728 93.6179 88.3343 93.1297 88.4389C92.6414 88.5435 92.2055 88.4564 91.8219 88.1774L89.8516 86.7476C89.4679 86.4686 89.2413 86.085 89.189 85.5967C89.1366 85.1085 89.2587 84.6551 89.5726 84.2192L92.2578 80.5052C92.5717 80.0867 92.9553 79.8252 93.4435 79.7205C93.9318 79.6159 94.3677 79.7031 94.7513 79.9821L96.7217 81.4119C97.1053 81.6909 97.3319 82.0745 97.3842 82.5627C97.4366 83.051 97.3145 83.5218 97.0006 83.9402L94.3154 87.6543ZM95.8324 83.0161C95.8149 82.8243 95.7277 82.6673 95.5708 82.5627L94.0538 81.4642C93.8969 81.3596 93.7225 81.3247 93.5307 81.3596C93.3389 81.3945 93.182 81.4991 93.0599 81.6735L90.9326 84.6203C90.8106 84.7946 90.7583 84.9864 90.7757 85.1782C90.7931 85.3701 90.8803 85.527 91.0373 85.6316L92.5543 86.7301C92.7112 86.8522 92.8856 86.8871 93.0774 86.8347C93.2692 86.7999 93.4261 86.6952 93.5482 86.5209L95.6754 83.5741C95.7975 83.3997 95.8498 83.2079 95.8324 83.0161Z" fill="black"/>
<path d="M87.585 94.3501C87.2188 94.664 86.8003 94.8209 86.3296 94.8209C85.8588 94.8209 85.4752 94.6466 85.1962 94.2978C85.0392 94.1235 84.9346 93.9317 84.8823 93.705C84.83 93.4783 84.8126 93.2516 84.8474 93.0249C84.5336 93.1121 84.2371 93.1121 83.9407 93.0249C83.6443 92.9378 83.4002 92.7808 83.1909 92.5542C82.8945 92.2054 82.7724 91.8044 82.8248 91.3336C82.8771 90.8628 83.0863 90.4617 83.4699 90.1304L88.0732 86.1025L91.9268 90.514L87.585 94.3501ZM87.6896 88.1078L84.6207 90.793C84.4813 90.9151 84.4115 91.0546 84.3941 91.2115C84.3766 91.3859 84.4115 91.5254 84.5336 91.63C84.6382 91.7521 84.7777 91.8044 84.9346 91.8218C85.0915 91.8218 85.2485 91.7695 85.3705 91.6649L88.4394 88.9796L87.6896 88.1078ZM89.1717 89.7991L86.3993 92.2229C86.2598 92.3449 86.1901 92.4844 86.1726 92.6413C86.1552 92.7983 86.1901 92.9378 86.2947 93.0598C86.3993 93.1819 86.5388 93.2516 86.6957 93.2516C86.8527 93.2516 87.0096 93.1993 87.1316 93.0947L89.9041 90.671L89.1717 89.7991Z" fill="black"/>
<path d="M79.9999 99.2152L73.9668 95.7976L75.4838 94.978L76.809 95.7278L80.3138 93.8621L80.4358 92.3451L81.9528 91.543L81.4297 98.4654L79.9999 99.2152ZM80.1743 95.3442L78.0644 96.4601L79.9999 97.5587L80.1743 95.3442Z" fill="black"/>
<path d="M73.6355 95.8154L75.2222 101.448L73.6878 101.883L72.4498 97.5068L67.3233 98.9541L66.9746 97.6986L73.6355 95.8154Z" fill="black"/>
<path d="M60.0004 95.0824C40.5583 95.0824 24.7432 79.3369 24.7432 59.9821C24.7432 40.6273 40.5583 24.8818 60.0004 24.8818C79.4424 24.8818 95.2575 40.6273 95.2575 59.9821C95.2575 79.3369 79.4424 95.0824 60.0004 95.0824ZM60.0004 26.7824C41.5871 26.7824 26.6263 41.6735 26.6263 59.9995C26.6263 78.3256 41.6045 93.2166 60.0004 93.2166C78.4136 93.2166 93.3744 78.3256 93.3744 59.9995C93.3744 41.6735 78.4136 26.7824 60.0004 26.7824Z" fill="black"/>
<path d="M60.0004 44.9167C50.1311 44.9167 40.6629 42.3534 34.0195 37.8722L35.0657 36.3203C41.4127 40.5923 50.4973 43.0509 60.0004 43.0509C69.5034 43.0509 78.588 40.5923 84.935 36.3203L85.9812 37.8722C79.3378 42.3534 69.8521 44.9167 60.0004 44.9167Z" fill="black"/>
<path d="M35.0657 83.6784L34.0195 82.1265C40.6629 77.6452 50.1311 75.082 60.0004 75.082C69.8696 75.082 79.3378 77.6452 85.9812 82.1265L84.935 83.6784C78.588 79.4064 69.5034 76.9478 60.0004 76.9478C50.4973 76.9652 41.4127 79.4064 35.0657 83.6784Z" fill="black"/>
<path d="M60.0003 95.0826C54.0892 95.0826 48.5618 91.3686 44.4292 84.638C40.4013 78.0469 38.1694 69.2936 38.1694 59.9998C38.1694 50.706 40.3839 41.9527 44.4292 35.3616C48.5443 28.6136 54.0718 24.917 60.0003 24.917C65.9288 24.917 71.4388 28.631 75.5714 35.3616C79.5992 41.9527 81.8312 50.706 81.8312 59.9998C81.8312 69.2936 79.6167 78.0469 75.5714 84.638C71.4388 91.386 65.9114 95.0826 60.0003 95.0826ZM60.0003 26.7827C49.0151 26.7827 40.07 41.6738 40.07 59.9998C40.07 78.3259 48.9977 93.2169 60.0003 93.2169C71.0029 93.2169 79.9305 78.3259 79.9305 59.9998C79.9305 41.6738 70.9855 26.7827 60.0003 26.7827Z" fill="black"/>
<path d="M60.9418 25.8408H59.0586V94.1407H60.9418V25.8408Z" fill="black"/>
<path d="M94.3332 59.0576H25.6846V60.9408H94.3332V59.0576Z" fill="black"/>
<path d="M101.447 62.2323C101.098 61.3605 101.273 60.2445 100.383 59.704C99.7381 59.2855 98.9186 59.1809 98.1514 59.0065C98.9186 58.7101 99.9648 58.7101 100.558 58.1172C101.15 57.5244 101.203 56.5305 101.447 55.7109C101.569 57.7162 102.737 58.8844 104.742 59.0065C103.103 59.2332 101.691 59.826 101.639 61.6569C101.534 62.0056 101.447 62.2323 101.447 62.2323Z" fill="black"/>
<path d="M18.9889 63.5575C18.6402 62.6857 18.8145 61.5697 17.9253 61.0292C17.2801 60.6107 16.4606 60.5061 15.6934 60.3317C16.4606 60.0353 17.5068 60.0353 18.0996 59.4424C18.6925 58.8496 18.7448 57.8557 18.9889 57.0361C19.111 59.0414 20.2792 60.2096 22.2845 60.3317C20.6454 60.5584 19.233 61.1512 19.1807 62.9821C19.0761 63.3308 18.9889 63.5575 18.9889 63.5575Z" fill="black"/>
<path d="M60.0003 108.161C47.1319 108.161 35.0482 103.156 25.9462 94.0543C16.8442 84.9523 11.8398 72.8686 11.8398 60.0003C11.8398 47.1319 16.8442 35.0482 25.9462 25.9462C35.0482 16.8442 47.1319 11.8398 60.0003 11.8398C72.8686 11.8398 84.9523 16.8442 94.0543 25.9462C103.156 35.0482 108.161 47.1319 108.161 60.0003C108.161 72.8686 103.156 84.9523 94.0543 94.0543C84.9523 103.156 72.8686 108.161 60.0003 108.161ZM60.0003 13.0953C34.1415 13.0953 13.0953 34.1415 13.0953 60.0003C13.0953 85.859 34.1415 106.905 60.0003 106.905C85.859 106.905 106.905 85.859 106.905 60.0003C106.905 34.1415 85.859 13.0953 60.0003 13.0953Z" fill="black"/>
</svg>
