<svg width="52" height="52" viewBox="0 0 52 52" fill="none" xmlns="http://www.w3.org/2000/svg">
<path d="M51 26C51 39.8075 39.8075 51 26 51C12.1925 51 1 39.8075 1 26C1 12.1925 12.1925 1 26 1C39.8075 1 51 12.1925 51 26Z" fill="white" stroke="#F2F5FA"/>
<path fillRule="evenodd" clipRule="evenodd" d="M39.5492 19.4249V20.9275C39.5492 21.228 39.3938 21.4974 39.1347 21.6425L34.285 24.4508L38.6269 26.9482C39.2073 27.2798 39.5596 27.9016 39.5596 28.5648V32.5855C39.5596 33.2487 39.2073 33.8705 38.6269 34.2021L27.2176 40.7513C26.6373 41.0829 25.9326 41.0829 25.3523 40.7513L21.6114 38.5959C21.3316 38.4404 21.3316 38.0363 21.6114 37.8808L33.943 30.7824C34.0777 30.6995 34.0777 30.5026 33.943 30.4197L29.3523 27.7772C29.0933 27.6321 28.7824 27.6321 28.5233 27.7772L15.9948 35C15.8083 35.114 15.5699 35.114 15.3731 35L13.9534 34.1917C13.3731 33.8601 13.0104 33.2383 13.0104 32.5751V30.9275C13.0104 30.7098 13.1244 30.5026 13.3212 30.3886L31.2798 20.0674C31.4145 19.9845 31.4145 19.7876 31.2798 19.7047L26.6891 17.0518C26.4301 16.9067 26.1192 16.9067 25.8601 17.0518L13.6218 24.0881C13.342 24.2435 13 24.0466 13 23.7254V19.4145C13 18.7513 13.3523 18.1295 13.9326 17.7979L25.342 11.2487C25.9223 10.9171 26.6269 10.9171 27.2073 11.2487L38.5959 17.8187C39.1969 18.1503 39.5492 18.7617 39.5492 19.4249Z" fill="#7524F9"/>
</svg>
