<svg width="14" height="14" viewBox="0 0 14 14" fill="none" xmlns="http://www.w3.org/2000/svg">
<g clipPath="url(#clip0_34_490)">
<path fillRule="evenodd" clipRule="evenodd" d="M10.1526 6.0284C10.1358 6.2188 10.0938 6.4036 10.0154 6.5772C9.85858 6.9244 9.58978 7.1344 9.22578 7.2296C9.21178 7.2324 9.20058 7.238 9.17818 7.2436C9.19498 7.252 9.20618 7.2604 9.21738 7.266C9.40778 7.3696 9.58138 7.4928 9.72138 7.658C9.90058 7.868 9.99018 8.1116 9.99018 8.3888C9.99298 8.7976 9.86978 9.1672 9.65978 9.5088C9.44138 9.8616 9.11658 10.0688 8.71338 10.1528C8.60978 10.1752 8.50338 10.1892 8.39978 10.1948C8.26538 10.2032 8.13378 10.2032 7.99938 10.2004C7.92098 10.2004 7.84258 10.1864 7.76418 10.178C7.65498 10.1668 7.54298 10.1528 7.43378 10.136C7.35818 10.1248 7.28258 10.108 7.20418 10.094C7.10058 10.5112 6.99698 10.9284 6.89058 11.3484C6.63858 11.2868 6.38658 11.2224 6.13458 11.1608C6.23818 10.7492 6.33898 10.3376 6.44258 9.9232C6.24378 9.87 6.04498 9.8196 5.84058 9.7664C5.73698 10.1808 5.63338 10.5924 5.52978 11.0068C5.27778 10.9452 5.02858 10.8808 4.77378 10.8192C4.87738 10.3992 4.98098 9.9848 5.08738 9.562C4.58058 9.4332 4.07378 9.3072 3.56698 9.1784C3.57258 9.1644 3.57538 9.1532 3.58098 9.142C3.69578 8.876 3.81058 8.6128 3.92538 8.3468C3.93658 8.3188 3.94778 8.3132 3.97578 8.3216C4.13818 8.3636 4.30058 8.4056 4.46298 8.4448C4.51618 8.456 4.56658 8.47 4.62258 8.4588C4.73738 8.4336 4.81018 8.3608 4.83818 8.2516C4.96698 7.7504 5.09018 7.252 5.21338 6.7508C5.36458 6.1404 5.51858 5.53 5.66698 4.9196C5.71178 4.7292 5.65018 4.5612 5.45698 4.4744C5.34778 4.4268 5.23018 4.4016 5.11538 4.368C5.00618 4.3372 4.89698 4.3148 4.78218 4.2868C4.84938 4.018 4.91658 3.752 4.98378 3.4804C5.49058 3.6064 5.99738 3.7352 6.50698 3.8612C6.61058 3.444 6.71418 3.0324 6.81778 2.6152C7.06978 2.6768 7.31898 2.7412 7.57378 2.8028C7.47298 3.2088 7.37218 3.612 7.27138 4.0208C7.47298 4.0684 7.67178 4.116 7.87618 4.1636C7.97698 3.7632 8.07778 3.36 8.17858 2.954C8.43058 3.0156 8.67978 3.08 8.93458 3.1416C8.83098 3.556 8.73018 3.9676 8.62658 4.3848C8.64058 4.3904 8.65738 4.396 8.67138 4.4016C8.95138 4.5024 9.22298 4.6172 9.47218 4.7796C9.65978 4.9 9.82498 5.0428 9.95098 5.2276C10.1162 5.474 10.1806 5.7428 10.1526 6.0284ZM13.9802 6.6276C13.9746 6.5464 13.9718 6.4624 13.9662 6.3812C13.9578 6.286 13.9466 6.188 13.9326 6.0928C13.9102 5.9472 13.8934 5.8016 13.8654 5.656C13.7478 5.0428 13.549 4.4576 13.2718 3.9004C12.6978 2.744 11.8662 1.8144 10.7826 1.1116C10.035 0.6272 9.22298 0.3024 8.34938 0.1316C8.20098 0.1036 8.04978 0.0784 7.89858 0.0588C7.79218 0.0448 7.68578 0.0364 7.57938 0.028C7.47578 0.0196 7.37498 0.014 7.27138 0.0056C7.26858 0.0056 7.26298 0.0028 7.26018 0H6.74218C6.69178 0.0056 6.63858 0.0084 6.58818 0.014C6.37258 0.0364 6.15978 0.056 5.94418 0.084C5.30858 0.1708 4.70098 0.3584 4.11578 0.6244C3.44378 0.9296 2.83338 1.33 2.28738 1.8284C1.69938 2.3632 1.21778 2.982 0.839777 3.6848C0.498177 4.3148 0.260177 4.9812 0.125777 5.684C0.100577 5.8184 0.0781771 5.9528 0.0585771 6.0872C0.0445771 6.1796 0.0389771 6.2748 0.0305771 6.3672C0.0221771 6.4848 0.0109771 6.5996 0.00817712 6.7172C0.00257712 6.8964 -0.00582288 7.0728 0.00257712 7.252C0.0137771 7.4676 0.0333771 7.6832 0.0585771 7.896C0.106177 8.288 0.190177 8.6744 0.307777 9.0524C0.596177 9.9848 1.05538 10.822 1.68818 11.5612C2.28738 12.2612 2.99858 12.8184 3.81898 13.2356C4.39298 13.5296 4.99498 13.7396 5.62778 13.8628C5.82378 13.902 6.02538 13.9272 6.22418 13.9552C6.33618 13.9692 6.45098 13.9748 6.56578 13.986C6.61618 13.9916 6.66658 13.9944 6.71698 14H7.26858C7.27698 13.9972 7.28538 13.9944 7.29378 13.9944C7.43658 13.986 7.58218 13.9832 7.72498 13.9636C7.96578 13.93 8.20658 13.8964 8.44458 13.846C9.30418 13.6668 10.0994 13.3364 10.833 12.852C11.8522 12.18 12.6446 11.3008 13.2102 10.2172C13.5462 9.5732 13.773 8.8928 13.8934 8.1788C13.9186 8.0248 13.9382 7.868 13.9578 7.714C13.9662 7.6412 13.969 7.5656 13.9746 7.4928C13.9802 7.42 13.9858 7.35 13.9886 7.2772C13.9886 7.2744 13.9914 7.2688 13.9942 7.266V6.7424C13.9914 6.7032 13.983 6.6668 13.9802 6.6276Z" fill="#F6921A"/>
<path fillRule="evenodd" clipRule="evenodd" d="M8.66898 5.98354C8.64098 6.28593 8.48978 6.54074 8.09498 6.61074C7.98578 6.63034 7.87098 6.63874 7.75898 6.63874C7.65258 6.63874 7.54338 6.61913 7.43698 6.60513C7.18778 6.56873 6.94698 6.49873 6.70338 6.43713C6.70058 6.43713 6.70058 6.43433 6.69218 6.43154C6.81538 5.93314 6.94138 5.43194 7.06738 4.92513C7.20738 4.95873 7.34458 4.98674 7.48178 5.02034C7.71138 5.07634 7.93818 5.14634 8.15098 5.25274C8.29378 5.32554 8.42818 5.41233 8.52898 5.54114C8.63538 5.66993 8.68578 5.81834 8.66898 5.98354ZM7.93818 9.05233C7.77298 9.10553 7.60218 9.11953 7.43138 9.11114C7.29978 9.10554 7.17098 9.09154 7.03938 9.07474C6.75938 9.03834 6.48778 8.96554 6.21618 8.89274C6.17418 8.88154 6.13218 8.87033 6.08738 8.85913C6.22738 8.30193 6.36458 7.75034 6.50178 7.19594C6.61378 7.22114 6.72578 7.24634 6.83778 7.27154C7.10938 7.33314 7.37818 7.40594 7.63578 7.50954C7.82618 7.58794 8.01098 7.68034 8.16778 7.81754C8.29378 7.92954 8.39178 8.06113 8.42538 8.23194C8.49538 8.60713 8.29658 8.93753 7.93818 9.05233ZM9.47258 4.78794C9.22338 4.62554 8.95178 4.51074 8.67178 4.40994C8.65778 4.40434 8.64098 4.39874 8.62698 4.39313C8.73058 3.97593 8.83418 3.56434 8.93498 3.14994C8.68018 3.08554 8.43098 3.02394 8.17898 2.96234C8.07818 3.36834 7.97738 3.76874 7.87658 4.17194C7.67218 4.12434 7.47338 4.07674 7.27178 4.02913C7.37258 3.62314 7.47338 3.21994 7.57418 2.81114C7.31938 2.74674 7.07018 2.68514 6.81818 2.62354C6.71458 3.03794 6.61098 3.44954 6.50738 3.86954C5.99778 3.74074 5.49098 3.61474 4.98418 3.48874C4.91698 3.76314 4.84978 4.02913 4.78258 4.29514C4.89458 4.32314 5.00658 4.34554 5.11578 4.37354C5.23058 4.40434 5.35098 4.43234 5.45738 4.47994C5.65058 4.56394 5.71498 4.73474 5.66738 4.92513C5.51898 5.53553 5.36498 6.14594 5.21378 6.75634C5.08778 7.25753 4.96458 7.75873 4.83858 8.25713C4.81058 8.36633 4.73778 8.43913 4.62298 8.46433C4.56698 8.47833 4.51378 8.46433 4.46338 8.45033C4.30098 8.41113 4.13858 8.36913 3.97618 8.32714C3.94818 8.31873 3.93698 8.32433 3.92578 8.35233C3.81098 8.61833 3.69618 8.88154 3.58138 9.14754C3.57578 9.15874 3.57298 9.16994 3.56738 9.18394C4.07418 9.31274 4.58098 9.43874 5.08778 9.56754C4.98138 9.99034 4.87778 10.4075 4.77418 10.8247C5.02618 10.8891 5.27538 10.9507 5.53018 11.0123C5.63378 10.5979 5.73738 10.1835 5.84098 9.77193C6.04538 9.82513 6.24418 9.87554 6.44298 9.92874C6.33938 10.3431 6.23858 10.7519 6.13498 11.1663C6.38698 11.2279 6.63898 11.2923 6.89098 11.3539C6.99458 10.9339 7.09818 10.5195 7.20458 10.0995C7.28298 10.1135 7.35858 10.1303 7.43418 10.1415C7.54338 10.1583 7.65538 10.1695 7.76458 10.1835C7.84298 10.1919 7.92138 10.2031 7.99978 10.2059C8.13418 10.2087 8.26858 10.2087 8.40018 10.2003C8.50658 10.1947 8.61018 10.1779 8.71378 10.1583C9.11698 10.0743 9.44178 9.86713 9.66018 9.51433C9.87018 9.17273 9.99338 8.80033 9.99058 8.39433C9.98778 8.11713 9.89818 7.87354 9.72178 7.66354C9.58178 7.49554 9.40538 7.37514 9.21778 7.27154C9.20658 7.26594 9.19538 7.26033 9.17858 7.24914C9.20098 7.24354 9.21218 7.23794 9.22618 7.23514C9.59018 7.13994 9.85898 6.92714 10.0158 6.58274C10.0942 6.40914 10.1334 6.22434 10.153 6.03394C10.1782 5.74554 10.1166 5.47954 9.95138 5.24153C9.82538 5.05114 9.66018 4.90834 9.47258 4.78794Z" fill="#FEFEFE"/>
<path fillRule="evenodd" clipRule="evenodd" d="M8.17024 7.82033C8.01344 7.68313 7.82864 7.58793 7.63824 7.51233C7.38064 7.40593 7.11184 7.33593 6.84024 7.27433C6.72824 7.24913 6.61904 7.22393 6.50424 7.19873C6.36704 7.75313 6.22704 8.30473 6.08984 8.86193C6.13464 8.87313 6.17664 8.88433 6.21864 8.89553C6.49024 8.96833 6.76184 9.03833 7.04184 9.07753C7.17064 9.09433 7.30224 9.10833 7.43384 9.11393C7.60464 9.12233 7.77544 9.10553 7.94064 9.05513C8.30184 8.94313 8.50064 8.60993 8.42784 8.24033C8.39424 8.06393 8.29624 7.93233 8.17024 7.82033Z" fill="#F6931A"/>
<path fillRule="evenodd" clipRule="evenodd" d="M8.15021 5.25289C7.93741 5.14649 7.71061 5.07649 7.48101 5.02049C7.34661 4.98689 7.20941 4.95609 7.06661 4.92529C6.94061 5.43209 6.81461 5.93329 6.69141 6.43169C6.69981 6.43449 6.69981 6.43729 6.70261 6.43729C6.94621 6.50169 7.18701 6.56889 7.43621 6.60529C7.54261 6.62209 7.64901 6.63889 7.75821 6.63889C7.87021 6.63889 7.98501 6.63049 8.09421 6.61089C8.48901 6.53809 8.64021 6.28609 8.66821 5.98369C8.68221 5.81569 8.63461 5.66729 8.52821 5.53849C8.42741 5.41249 8.29301 5.32569 8.15021 5.25289Z" fill="#F6931A"/>
</g>
<defs>
<clipPath id="clip0_34_490">
<rect width="13.9944" height="14" fill="white"/>
</clipPath>
</defs>
</svg>
