<svg width="14" height="14" viewBox="0 0 14 14" fill="none" xmlns="http://www.w3.org/2000/svg">
<g clip-path="url(#clip0_291_25126)">
<path d="M4.08366 4.37467C5.69449 4.37467 7.00033 3.72176 7.00033 2.91634C7.00033 2.11093 5.69449 1.45801 4.08366 1.45801C2.47283 1.45801 1.16699 2.11093 1.16699 2.91634C1.16699 3.72176 2.47283 4.37467 4.08366 4.37467Z" stroke="#1A1A1A" stroke-linecap="round" stroke-linejoin="round"/>
<path d="M1.16699 2.91699C1.16699 2.91699 1.16699 4.15325 1.16699 4.95866C1.16699 5.76407 2.47283 6.41699 4.08366 6.41699C5.69448 6.41699 7.00033 5.76407 7.00033 4.95866C7.00033 4.48161 7.00033 2.91699 7.00033 2.91699" stroke="#1A1A1A" stroke-linecap="round" stroke-linejoin="round"/>
<path d="M1.16699 4.95801C1.16699 4.95801 1.16699 6.19427 1.16699 6.99967C1.16699 7.80508 2.47283 8.45801 4.08366 8.45801C5.69448 8.45801 7.00033 7.80508 7.00033 6.99967C7.00033 6.52262 7.00033 4.95801 7.00033 4.95801" stroke="#1A1A1A" stroke-linecap="round" stroke-linejoin="round"/>
<path d="M1.16699 7C1.16699 7 1.16699 8.23626 1.16699 9.04167C1.16699 9.84707 2.47283 10.5 4.08366 10.5C5.69448 10.5 7.00033 9.84707 7.00033 9.04167C7.00033 8.56462 7.00033 7 7.00033 7" stroke="#1A1A1A" stroke-linecap="round" stroke-linejoin="round"/>
<path d="M1.16699 9.04199C1.16699 9.04199 1.16699 10.2783 1.16699 11.0837C1.16699 11.8891 2.47283 12.542 4.08366 12.542C5.69448 12.542 7.00033 11.8891 7.00033 11.0837C7.00033 10.6066 7.00033 9.04199 7.00033 9.04199" stroke="#1A1A1A" stroke-linecap="round" stroke-linejoin="round"/>
<path d="M9.91667 8.45866C11.5275 8.45866 12.8333 7.80574 12.8333 7.00033C12.8333 6.19491 11.5275 5.54199 9.91667 5.54199C8.30584 5.54199 7 6.19491 7 7.00033C7 7.80574 8.30584 8.45866 9.91667 8.45866Z" stroke="#1A1A1A" stroke-linecap="round" stroke-linejoin="round"/>
<path d="M7 7C7 7 7 8.23626 7 9.04167C7 9.84707 8.30585 10.5 9.91667 10.5C11.5275 10.5 12.8333 9.84707 12.8333 9.04167C12.8333 8.56462 12.8333 7 12.8333 7" stroke="#1A1A1A" stroke-linecap="round" stroke-linejoin="round"/>
<path d="M7 9.04199C7 9.04199 7 10.2783 7 11.0837C7 11.8891 8.30585 12.542 9.91667 12.542C11.5275 12.542 12.8333 11.8891 12.8333 11.0837C12.8333 10.6066 12.8333 9.04199 12.8333 9.04199" stroke="#1A1A1A" stroke-linecap="round" stroke-linejoin="round"/>
</g>
<defs>
<clipPath id="clip0_291_25126">
<rect width="14" height="14" fill="white"/>
</clipPath>
</defs>
</svg>
