<svg width="16" height="16" viewBox="0 0 16 16" fill="none" xmlns="http://www.w3.org/2000/svg">
<g clip-path="url(#clip0_0_3)">
<path d="M16 8C16 3.58172 12.4183 0 8 0C3.58172 0 0 3.58172 0 8C0 12.4183 3.58172 16 8 16C12.4183 16 16 12.4183 16 8Z" fill="#1A1A1A"/>
<mask id="mask0_0_3" style="mask-type:luminance" maskUnits="userSpaceOnUse" x="3" y="4" width="11" height="8">
<path d="M13.4854 4H3V12H13.4854V4Z" fill="white"/>
</mask>
<g mask="url(#mask0_0_3)">
<path d="M11.8873 4.67471C11.884 4.66913 11.8795 4.66468 11.874 4.66245C11.1941 4.35038 10.4764 4.12859 9.73967 4.00042C9.7263 3.9982 9.71181 4.00488 9.70512 4.01714C9.60705 4.19435 9.519 4.37602 9.43987 4.56326C8.64522 4.44289 7.83719 4.44289 7.04254 4.56326C6.9623 4.37602 6.87314 4.19435 6.77283 4.01714C6.76614 4.00488 6.75166 3.99931 6.73828 4.00042C6.00159 4.12748 5.28384 4.35038 4.60398 4.66245C4.59841 4.66468 4.59284 4.66913 4.58949 4.67471C3.2309 6.70424 2.85865 8.68474 3.04143 10.6396C3.04254 10.6496 3.047 10.6585 3.0548 10.6641C3.84611 11.2504 4.73215 11.6973 5.6728 11.9871C5.68618 11.9915 5.70067 11.9859 5.70958 11.9748C5.91131 11.6995 6.09075 11.4086 6.24566 11.1044C6.25012 11.0954 6.25012 11.0865 6.24678 11.0776C6.24344 11.0687 6.23675 11.062 6.22783 11.0587C5.94586 10.9506 5.67169 10.8202 5.40978 10.6686C5.39975 10.663 5.39417 10.653 5.39306 10.6418C5.39195 10.6307 5.39752 10.6195 5.40643 10.6129C5.46105 10.5716 5.51566 10.5293 5.56915 10.4858C5.57918 10.478 5.59144 10.4758 5.60259 10.4813C7.31894 11.2648 9.17684 11.2648 10.872 10.4813C10.8832 10.4758 10.8965 10.478 10.9066 10.4858C10.9601 10.5293 11.0136 10.5727 11.0693 10.614C11.0782 10.6207 11.0838 10.6318 11.0827 10.6429C11.0816 10.6541 11.076 10.6641 11.0659 10.6697C10.8052 10.8224 10.531 10.9528 10.2479 11.0587C10.239 11.062 10.2323 11.0687 10.2289 11.0776C10.2256 11.0865 10.2256 11.0966 10.2301 11.1044C10.3872 11.4075 10.5655 11.6984 10.765 11.9748C10.7728 11.9859 10.7884 11.9915 10.8018 11.9871C11.7447 11.6984 12.6318 11.2515 13.4243 10.6641C13.4321 10.6585 13.4365 10.6496 13.4376 10.6396C13.6572 8.37936 13.0721 6.41558 11.8873 4.67471ZM6.502 9.4493C5.98487 9.4493 5.55912 8.97563 5.55912 8.39274C5.55912 7.81096 5.97707 7.33617 6.502 7.33617C7.0314 7.33617 7.45269 7.8143 7.44377 8.39274C7.44377 8.97563 7.02694 9.4493 6.502 9.4493ZM9.98598 9.4493C9.46885 9.4493 9.04422 8.97563 9.04422 8.39274C9.04422 7.81096 9.46216 7.33617 9.98598 7.33617C10.5154 7.33617 10.9367 7.8143 10.9289 8.39274C10.9277 8.97563 10.5154 9.4493 9.98598 9.4493Z" fill="white"/>
</g>
</g>
<defs>
<clipPath id="clip0_0_3">
<rect width="16" height="16" fill="white"/>
</clipPath>
</defs>
</svg>
