<svg width="16" height="16" viewBox="0 0 16 16" fill="none" xmlns="http://www.w3.org/2000/svg">
<path d="M12.8514 3.88478C11.9437 3.46808 10.9858 3.17094 10.0016 3.00078C9.99271 2.99906 9.98347 3.0002 9.97524 3.00406C9.96702 3.00791 9.96023 3.01428 9.95585 3.02224C9.83284 3.24145 9.69659 3.52682 9.60111 3.75139C8.54034 3.5903 7.46133 3.5903 6.40056 3.75139C6.2939 3.50202 6.17356 3.25872 6.0401 3.0226C6.03549 3.01485 6.02866 3.00867 6.02051 3.00485C6.01235 3.00102 6.00323 2.99973 5.99433 3.00114C5.01024 3.17075 4.05241 3.46767 3.14494 3.88442C3.13705 3.88778 3.13042 3.89353 3.12599 3.90087C1.31116 6.61186 0.813731 9.25705 1.05797 11.8686C1.05905 11.8815 1.0662 11.8937 1.07585 11.9015C2.27347 12.7809 3.43353 13.3148 4.57178 13.6684C4.58062 13.671 4.59003 13.6709 4.59878 13.668C4.60753 13.6651 4.6152 13.6597 4.62077 13.6523C4.89073 13.2849 5.12994 12.8958 5.33598 12.4891C5.33878 12.4835 5.34037 12.4774 5.34065 12.4711C5.34092 12.4649 5.33988 12.4587 5.33759 12.4529C5.33529 12.4471 5.33179 12.4418 5.32733 12.4374C5.32286 12.4331 5.31752 12.4297 5.31166 12.4276C4.93459 12.2835 4.56953 12.1097 4.2199 11.908C4.21353 11.9042 4.20818 11.8989 4.20432 11.8926C4.20047 11.8863 4.19824 11.8791 4.19781 11.8717C4.19739 11.8644 4.19879 11.857 4.20189 11.8503C4.205 11.8435 4.20971 11.8377 4.21561 11.8332C4.28892 11.7785 4.36223 11.7213 4.43267 11.6634C4.43888 11.6583 4.44638 11.655 4.45434 11.6539C4.4623 11.6529 4.4704 11.654 4.47773 11.6573C6.76889 12.7033 9.24923 12.7033 11.5136 11.6573C11.5209 11.6537 11.5291 11.6523 11.5372 11.6533C11.5453 11.6542 11.553 11.6575 11.5593 11.6626C11.6294 11.7206 11.7024 11.7785 11.7768 11.8332C11.7827 11.8377 11.7874 11.8435 11.7906 11.8502C11.7937 11.8569 11.7951 11.8643 11.7947 11.8716C11.7943 11.879 11.7921 11.8862 11.7883 11.8925C11.7845 11.8989 11.7792 11.9042 11.7728 11.908C11.4242 12.1118 11.0612 12.2838 10.6804 12.4279C10.6745 12.4301 10.6692 12.4336 10.6648 12.438C10.6603 12.4424 10.6569 12.4477 10.6546 12.4535C10.6524 12.4594 10.6514 12.4656 10.6517 12.4718C10.652 12.4781 10.6536 12.4842 10.6564 12.4898C10.8658 12.8944 11.1046 13.2831 11.3709 13.6527C11.382 13.6681 11.402 13.6749 11.4202 13.6692C12.5642 13.3151 13.7239 12.7816 14.9212 11.9022C14.9264 11.8985 14.9307 11.8937 14.9339 11.8882C14.9371 11.8826 14.9391 11.8764 14.9398 11.8701C15.2316 8.8501 14.4506 6.22708 12.8696 3.90159C12.8657 3.89418 12.8591 3.88801 12.8514 3.88478ZM5.67785 10.2787C4.98839 10.2787 4.42016 9.64541 4.42016 8.86762C4.42016 8.08983 4.9773 7.45652 5.6782 7.45652C6.38447 7.45652 6.94734 8.09556 6.93625 8.86762C6.93625 9.64541 6.37875 10.2787 5.67785 10.2787ZM10.3303 10.2787C9.64009 10.2787 9.0715 9.64541 9.0715 8.86762C9.0715 8.08983 9.62936 7.45652 10.3303 7.45652C11.0362 7.45652 11.599 8.09556 11.588 8.86762C11.588 9.64541 11.0365 10.2787 10.3303 10.2787Z" stroke="#1A1A1A"/>
</svg>
