<svg width="16" height="16" viewBox="0 0 16 16" fill="none" xmlns="http://www.w3.org/2000/svg">
<g clip-path="url(#clip0_1558_52965)">
<path d="M0 8C0 10.1217 0.842855 12.1566 2.34315 13.6569C3.84344 15.1571 5.87827 16 8 16C10.1217 16 12.1566 15.1571 13.6569 13.6569C15.1571 12.1566 16 10.1217 16 8C16 5.87827 15.1571 3.84344 13.6569 2.34315C12.1566 0.842855 10.1217 0 8 0C5.87827 0 3.84344 0.842855 2.34315 2.34315C0.842855 3.84344 0 5.87827 0 8Z" fill="white"/>
<path d="M11.3888 11.1333C11.3896 11.2009 11.377 11.2679 11.3519 11.3306C11.3267 11.3933 11.2894 11.4504 11.2421 11.4987C11.1949 11.547 11.1386 11.5854 11.0764 11.6119C11.0143 11.6384 10.9475 11.6524 10.8799 11.6531H7.46439C7.32916 11.6491 7.20081 11.5926 7.10656 11.4956C7.01231 11.3985 6.95959 11.2686 6.95959 11.1333C6.95959 10.998 7.01231 10.8681 7.10656 10.771C7.20081 10.674 7.32916 10.6175 7.46439 10.6135H10.8799C11.0162 10.6155 11.1461 10.6713 11.2414 10.7686C11.3367 10.866 11.3897 10.997 11.3888 11.1333ZM11.3888 9.66263C11.3896 9.73018 11.377 9.79723 11.3519 9.85992C11.3267 9.92262 11.2894 9.97974 11.2421 10.028C11.1949 10.0763 11.1386 10.1148 11.0764 10.1413C11.0143 10.1678 10.9475 10.1817 10.8799 10.1824H8.94216C8.80694 10.1785 8.67858 10.122 8.58433 10.0249C8.49008 9.92786 8.43736 9.79791 8.43736 9.66263C8.43736 9.52735 8.49008 9.39739 8.58433 9.30035C8.67858 9.2033 8.80694 9.1468 8.94216 9.14285H10.8799C11.0161 9.14484 11.146 9.20052 11.2413 9.29779C11.3366 9.39505 11.3896 9.52601 11.3888 9.66218V9.66263ZM9.3555 7.05107L6.03328 10.8666L4.62883 11.1633C4.61151 11.1673 4.59347 11.1669 4.57635 11.1621C4.55922 11.1574 4.54356 11.1484 4.53076 11.1361C4.51796 11.1237 4.50845 11.1084 4.50306 11.0915C4.49768 11.0745 4.49661 11.0565 4.49994 11.0391L4.70661 9.59263L7.9955 5.81485C8.01138 5.7945 8.03116 5.77751 8.05368 5.76488C8.0762 5.75226 8.10101 5.74424 8.12666 5.7413C8.15231 5.73836 8.17829 5.74057 8.20308 5.74777C8.22787 5.75498 8.25098 5.76706 8.27105 5.78329L9.3555 6.76952C9.3919 6.80708 9.41225 6.85733 9.41225 6.90963C9.41225 6.96193 9.3919 7.01218 9.3555 7.04974V7.05107ZM10.3155 5.95196L9.80661 6.53641C9.79688 6.54742 9.78506 6.5564 9.77184 6.56282C9.75862 6.56923 9.74425 6.57296 9.72958 6.57379C9.7149 6.57462 9.70021 6.57252 9.68635 6.56763C9.67249 6.56274 9.65974 6.55515 9.64883 6.54529L8.45327 5.46129C8.43078 5.44113 8.4172 5.41286 8.41554 5.38269C8.41387 5.35252 8.42425 5.32293 8.44439 5.30041L8.95327 4.71463C8.99671 4.66439 9.04977 4.62338 9.10932 4.594C9.16888 4.56462 9.23372 4.54747 9.30001 4.54358C9.3663 4.53969 9.4327 4.54912 9.49529 4.57132C9.55787 4.59352 9.61537 4.62805 9.66439 4.67285L10.2755 5.22685C10.3744 5.31915 10.4337 5.44609 10.4412 5.58114C10.4486 5.71619 10.4036 5.8489 10.3155 5.95152V5.95196Z" fill="#1A1A1A"/>
</g>
<defs>
<clipPath id="clip0_1558_52965">
<rect width="16" height="16" fill="white"/>
</clipPath>
</defs>
</svg>
