<svg width="16" height="16" viewBox="0 0 16 16" fill="none" xmlns="http://www.w3.org/2000/svg">
<g clipPath="url(#clip0_505_202)">
<path d="M0 7.9464C0 12.329 3.57781 15.883 7.99411 15.883C12.4084 15.883 15.9882 12.331 15.9882 7.9464C15.9882 3.5638 12.4104 0.00976562 7.99411 0.00976562C3.57781 0.00976562 0 3.5638 0 7.9464Z" fill="#F3F3F3"/>
<mask id="mask0_505_202" style="mask-type:luminance" maskUnits="userSpaceOnUse" x="0" y="0" width="16" height="16">
<path d="M16 0H0V16H16V0Z" fill="white"/>
</mask>
<g mask="url(#mask0_505_202)">
<path d="M1.59895 3.18413C1.06679 3.9776 0.532674 4.90363 0.267578 5.82967H4.39718L1.59895 3.18413ZM15.7197 5.82967C15.4527 4.77106 14.9205 3.84503 14.3883 3.05156L11.5901 5.82967H15.7197ZM10.1252 0.275391V4.37531L12.9234 1.59719C11.9907 1.06886 11.058 0.54053 10.1252 0.275391ZM0.267578 10.0622C0.534638 11.1208 1.06679 12.0468 1.59895 12.8403L4.39718 10.0622H0.267578ZM14.3883 12.7077C15.054 11.9142 15.4546 10.9882 15.7197 9.92959H11.5901L14.3883 12.7077ZM10.1252 15.6184C11.1915 15.3533 12.1242 14.8249 12.9234 14.2966L10.1252 11.5185V15.6184ZM5.86208 15.6184V11.5185L3.06385 14.2946C3.99659 14.8249 4.92934 15.3533 5.86208 15.6184ZM5.86208 4.37531V0.275391C4.92934 0.54053 3.99659 1.06886 3.06385 1.59719L5.86208 4.37531Z" fill="#0052B4"/>
</g>
<mask id="mask1_505_202" style="mask-type:luminance" maskUnits="userSpaceOnUse" x="0" y="0" width="16" height="16">
<path d="M16 0H0V16H16V0Z" fill="white"/>
</mask>
<g mask="url(#mask1_505_202)">
<path d="M15.8527 6.8878H9.05842V0.142335C8.65783 0.00976562 8.39273 0.00976562 7.99215 0.00976562C7.59156 0.00976562 7.32646 0.00976562 6.92587 0.142335V7.02037H0.13353C0 7.28551 0 7.5487 0 7.9464V9.00501H6.92783V15.883C7.59352 16.0156 8.2592 16.0156 9.05842 15.883V9.00306H15.9863V7.94446C15.9863 7.5487 15.9863 7.28551 15.8527 6.8878Z" fill="#D80027"/>
</g>
</g>
<defs>
<clipPath id="clip0_505_202">
<rect width="16" height="16" fill="white"/>
</clipPath>
</defs>
</svg>
