<svg width="14" height="14" viewBox="0 0 14 14" fill="none" xmlns="http://www.w3.org/2000/svg">
<path fillRule="evenodd" clipRule="evenodd" d="M14 7C14 10.8668 10.8668 14 7 14C3.1332 14 0 10.8668 0 7C0 3.1332 3.1332 0 7 0C10.8668 0 14 3.1332 14 7Z" fill="#ECEFF0"/>
<path fillRule="evenodd" clipRule="evenodd" d="M3.86916 7.0559C4.25836 6.8795 4.64476 6.7031 5.03396 6.5267C5.34756 6.3839 5.65836 6.2439 5.97196 6.1011C6.30516 5.9499 6.64116 5.7959 6.97716 5.6447C6.98556 5.6419 6.99396 5.6391 7.00236 5.6363C7.00236 5.6251 7.00516 5.6139 7.00516 5.6027C7.00516 4.3315 7.00516 3.0631 7.00516 1.7919C7.00516 1.7807 7.00236 1.7695 7.00236 1.7583C6.99676 1.7667 6.99116 1.7723 6.98556 1.7807C6.79516 2.0971 6.60476 2.4135 6.41156 2.7299C5.94676 3.5027 5.48196 4.2727 5.01716 5.0455C4.68396 5.5999 4.34796 6.1543 4.01476 6.7115C3.97556 6.7759 3.93916 6.8375 3.89996 6.9019C3.86076 6.9663 3.82436 7.0279 3.78516 7.0923C3.81036 7.0783 3.84116 7.0671 3.86916 7.0559Z" fill="#8B8B8B"/>
<path fillRule="evenodd" clipRule="evenodd" d="M9.9064 6.57137C9.7356 6.28577 9.562 6.00017 9.3912 5.71457C9.2232 5.43737 9.0552 5.15737 8.8872 4.88017C8.7164 4.59457 8.5428 4.30897 8.372 4.02337C8.204 3.74337 8.0332 3.46337 7.8652 3.18057C7.7 2.90617 7.532 2.63177 7.3668 2.35737C7.2492 2.16417 7.1344 1.96817 7.0168 1.77497C7.0168 1.77217 7.014 1.77217 7.014 1.76937C7.0084 1.76377 7.0028 1.75817 7 1.75537C7 1.76657 7.0028 1.77777 7.0028 1.78897C7.0028 3.06017 7.0028 4.32857 7.0028 5.59977C7.0028 5.61097 7 5.62217 7 5.63337L7.0028 5.63617C7.0196 5.64177 7.0364 5.64737 7.0532 5.65577C7.07 5.66137 7.0868 5.66977 7.1036 5.67537C7.2632 5.74817 7.42 5.82097 7.5796 5.89377C7.7896 5.98897 7.9996 6.08417 8.2068 6.17937C8.3944 6.26617 8.582 6.35017 8.7696 6.43697C8.9572 6.52377 9.1448 6.60777 9.3324 6.69457C9.52 6.78137 9.7076 6.86537 9.8952 6.95217C9.996 6.99697 10.094 7.04177 10.1948 7.08937C10.2004 7.09217 10.2088 7.09497 10.2172 7.09497C10.2144 7.08657 10.2088 7.08097 10.206 7.07257C10.1052 6.90177 10.0072 6.73657 9.9064 6.57137Z" fill="#343434"/>
<path fillRule="evenodd" clipRule="evenodd" d="M7.00014 5.63659L6.99734 5.63379C6.98894 5.63659 6.98054 5.63939 6.97214 5.64219C6.63614 5.79339 6.30294 5.94739 5.96694 6.09859C5.65334 6.24139 5.34254 6.38139 5.02894 6.52419C4.63974 6.70059 4.25334 6.87699 3.86414 7.05339C3.83614 7.06739 3.80534 7.07579 3.77734 7.08699V7.08979C3.77734 7.09259 3.78014 7.09819 3.78294 7.09819C3.89774 7.16819 4.01534 7.23539 4.13014 7.30259C5.07654 7.86259 6.02294 8.42259 6.96934 8.98259C6.97774 8.98819 6.98614 8.98819 6.99454 8.99379C6.99454 7.88499 6.99454 6.77339 6.99454 5.66459C7.00014 5.65899 7.00014 5.64779 7.00014 5.63659Z" fill="#393939"/>
<path fillRule="evenodd" clipRule="evenodd" d="M9.89533 6.94686C9.70773 6.86286 9.52013 6.77606 9.33253 6.68926C9.14493 6.60246 8.95733 6.51846 8.76973 6.43166C8.58213 6.34486 8.39453 6.26086 8.20693 6.17406C7.99693 6.07886 7.78693 5.98366 7.57973 5.88846C7.42013 5.81566 7.26333 5.74286 7.10373 5.67006C7.08693 5.66166 7.07013 5.65606 7.05333 5.65046C7.03653 5.64486 7.01973 5.63926 7.00293 5.63086C7.00293 5.64206 7.00293 5.65046 7.00293 5.66166C7.00293 6.77046 7.00293 7.88206 7.00293 8.99086C7.00573 8.99086 7.00853 8.99086 7.00853 8.99086C7.11493 8.92926 7.22133 8.86766 7.32493 8.80326C7.47613 8.71366 7.62453 8.62406 7.77573 8.53446C7.96333 8.42526 8.15093 8.31606 8.33573 8.20406C8.49253 8.11166 8.64933 8.01646 8.80333 7.92406C9.01333 7.79806 9.22613 7.67486 9.43893 7.55166C9.57053 7.47326 9.70213 7.39486 9.83653 7.31366C9.96253 7.23806 10.0885 7.16526 10.2145 7.08966C10.2173 7.08686 10.2173 7.08126 10.2201 7.07846C10.2117 7.07566 10.2061 7.07566 10.1977 7.07286C10.0969 7.03926 9.99613 6.99446 9.89533 6.94686Z" fill="#151515"/>
<path fillRule="evenodd" clipRule="evenodd" d="M6.99969 9.65173C6.99969 9.63773 6.99969 9.62653 6.99969 9.61253C6.98009 9.60133 6.95769 9.59013 6.93809 9.57893C6.49569 9.31853 6.05329 9.05533 5.61089 8.79493C5.06769 8.47293 4.52449 8.15373 3.98129 7.83173C3.91689 7.79253 3.85249 7.75613 3.78809 7.71973C3.79369 7.72813 3.79649 7.73933 3.80209 7.74773C4.12129 8.19853 4.44049 8.64653 4.75969 9.09733C5.47649 10.1081 6.19609 11.1189 6.91289 12.1325C6.94089 12.1717 6.96889 12.2081 6.99689 12.2445C6.99689 12.2305 6.99969 12.2193 6.99969 12.2053C6.99969 11.3513 6.99969 10.5001 6.99969 9.65173Z" fill="#8C8C8C"/>
<path fillRule="evenodd" clipRule="evenodd" d="M10.2061 7.71973C10.2005 7.72253 10.1949 7.72533 10.1893 7.72813C9.43613 8.17333 8.68293 8.61853 7.92973 9.06373C7.62173 9.24573 7.31373 9.42773 7.00573 9.60973C7.00573 9.62373 7.00573 9.63493 7.00573 9.64893C7.00573 10.5001 7.00573 11.3513 7.00573 12.1997C7.00573 12.2137 7.00293 12.2249 7.00293 12.2389C7.00293 12.2417 7.00293 12.2417 7.00573 12.2417C7.00853 12.2417 7.01133 12.2389 7.01133 12.2389C7.01413 12.2333 7.01973 12.2277 7.02253 12.2221C7.94373 10.9229 8.86493 9.62653 9.78893 8.32733C9.93173 8.12573 10.0745 7.92413 10.2173 7.72253C10.2089 7.72253 10.2089 7.72253 10.2061 7.71973Z" fill="#343434"/>
<path fillRule="evenodd" clipRule="evenodd" d="M10.2061 7.71973C10.2089 7.72253 10.2089 7.72253 10.2117 7.72533C10.2117 7.72253 10.2117 7.71973 10.2117 7.71973C10.2089 7.71973 10.2089 7.71973 10.2061 7.71973Z" fill="#343434"/>
</svg>
