<svg width="20" height="20" viewBox="0 0 20 20" fill="none" xmlns="http://www.w3.org/2000/svg">
<g opacity="0.2" clip-path="url(#clip0_981_1480)">
<path d="M17.7889 3.99525L11.3597 0.321558C10.6109 -0.106561 9.39095 -0.107811 8.64033 0.321558L2.21106 3.99525C1.46232 4.42337 0.851082 5.4746 0.851082 6.34021V13.6595C0.851082 14.5257 1.45982 15.5757 2.21106 16.0044L8.64033 19.6781C9.38907 20.1062 10.6091 20.1075 11.3597 19.6781L17.7889 16.0044C18.5377 15.5763 19.1489 14.5251 19.1489 13.6595V6.34021C19.1489 5.4746 18.5402 4.42399 17.7889 3.99525ZM15.0327 9.10454L13.4265 10.7026C13.0928 11.0351 12.8846 11.6901 12.9634 12.1589L13.3421 14.4163C13.4209 14.8851 13.1478 15.0876 12.7359 14.8663L10.7503 13.8001C10.3378 13.5788 9.66282 13.5788 9.25095 13.8001L7.26536 14.8663C6.85286 15.0882 6.57974 14.8857 6.65912 14.4163L7.03786 12.1589C7.11661 11.6901 6.90786 11.0345 6.57412 10.7026L4.96789 9.10454C4.63415 8.77205 4.73852 8.44456 5.19976 8.37581L7.41973 8.04644C7.88097 7.97769 8.42659 7.57269 8.63283 7.14645L9.62594 5.09273C9.83219 4.66586 10.1697 4.66586 10.3759 5.09273L11.3684 7.14645C11.5747 7.57332 12.1209 7.97831 12.5815 8.04644L14.8009 8.37581C15.2615 8.44393 15.3659 8.77205 15.0321 9.10454H15.0327Z" fill="#1A1A1A"/>
</g>
<defs>
<clipPath id="clip0_981_1480">
<rect width="20" height="20" fill="white"/>
</clipPath>
</defs>
</svg>
