<svg width="14" height="14" viewBox="0 0 14 14" fill="none" xmlns="http://www.w3.org/2000/svg">
<path d="M5.05555 1.16699C3.88888 1.16699 3.5 2.08761 3.5 3.22324C3.5 5.27949 5.775 7.14881 7 7.58366C8.225 7.14881 10.5 5.27949 10.5 3.22324C10.5 2.08761 10.0076 1.16699 8.94445 1.16699C8.2934 1.16699 7.34837 2.06448 7 2.59292C6.65163 2.06448 5.7066 1.16699 5.05555 1.16699Z" stroke="#1A1A1A" stroke-linecap="round" stroke-linejoin="round"/>
<path d="M7 7.58301C6.41667 7.90119 5.54167 8.60384 5.54167 9.62467C5.54167 10.6455 8.45833 10.3538 8.45833 11.3747C8.45833 12.3955 5.25 12.833 5.25 12.833" stroke="#1A1A1A" stroke-linecap="round" stroke-linejoin="round"/>
</svg>
