<svg width="16" height="16" viewBox="0 0 16 16" fill="none" xmlns="http://www.w3.org/2000/svg">
<mask id="mask0_1594_306" style="mask-type:luminance" maskUnits="userSpaceOnUse" x="0" y="0" width="16" height="16">
<path d="M7.93388 0C3.57025 0 0 3.72509 0 8.2484C0 11.8404 2.24793 14.9003 5.42149 15.9646C5.81818 16.0977 5.95041 15.8316 5.95041 15.5655C5.95041 15.4325 5.95041 14.7672 5.95041 14.102C3.70248 14.6342 3.30579 13.1708 3.30579 13.1708C2.90909 12.2396 2.38017 11.9735 2.38017 11.9735C1.71901 11.4413 2.38017 11.4413 2.38017 11.4413C3.17355 11.4413 3.57025 12.2396 3.57025 12.2396C4.2314 13.4369 5.42149 13.1708 5.81818 12.9047C5.81818 12.3726 6.08264 11.9735 6.34711 11.8405C4.6281 11.7074 2.77686 10.9092 2.77686 7.8493C2.77686 6.91803 3.04132 6.25282 3.57025 5.58763C3.43802 5.32155 3.17355 4.52327 3.70248 3.45897C3.70248 3.45897 4.36364 3.19294 5.95041 4.25725C6.61157 4.12421 7.27273 3.99115 7.93388 3.99115C8.59504 3.99115 9.2562 4.12421 9.91736 4.25725C11.3719 3.19294 12.1653 3.45897 12.1653 3.45897C12.562 4.52327 12.2975 5.45459 12.2975 5.58763C12.8264 6.11978 13.0909 6.91803 13.0909 7.8493C13.0909 11.0422 11.2397 11.7074 9.52066 11.8405C9.78512 12.1065 10.0496 12.6387 10.0496 13.3038C10.0496 14.3682 10.0496 15.2994 10.0496 15.5655C10.0496 15.8316 10.1818 16.0977 10.5785 15.9646C13.7521 14.9003 16 11.8404 16 8.2484C15.8678 3.72509 12.2975 0 7.93388 0Z" fill="white"/>
</mask>
<g mask="url(#mask0_1594_306)">
<mask id="mask1_1594_306" style="mask-type:luminance" maskUnits="userSpaceOnUse" x="-14" y="-1189" width="2117" height="1332">
<path d="M2102.47 -1188.03H-13.2285V142.353H2102.47V-1188.03Z" fill="white"/>
</mask>
<g mask="url(#mask1_1594_306)">
<path d="M17.1843 -1.32812H-1.32812V17.2973H17.1843V-1.32812Z" fill="#1A1A1A"/>
</g>
</g>
</svg>
