<svg width="16" height="16" viewBox="0 0 16 16" fill="none" xmlns="http://www.w3.org/2000/svg">
<path d="M9.78082 10.1587C10.582 9.99217 11.3091 9.70344 11.8742 9.27954C12.8394 8.5557 13.3327 7.4377 13.3327 6.33314C13.3327 5.55824 13.0389 4.83484 12.5303 4.2221C12.2469 3.88067 13.0758 1.33313 12.3393 1.67623C11.6028 2.01933 10.5229 2.77877 9.95688 2.61116C9.35085 2.43172 8.69045 2.33313 7.99935 2.33313C7.39908 2.33313 6.82198 2.40751 6.28355 2.54464C5.50088 2.74396 4.75238 1.9998 3.99935 1.67623C3.2463 1.35266 3.65722 3.98757 3.43355 4.26464C2.94641 4.8682 2.66602 5.5761 2.66602 6.33314C2.66602 7.4377 3.26297 8.5557 4.22812 9.27954C4.87105 9.76174 5.67735 10.069 6.57938 10.2205" stroke="#1A1A1A" stroke-linecap="round"/>
<path d="M6.57923 10.2188C6.19307 10.6438 6 11.0474 6 11.4296C6 11.8118 6 12.7803 6 14.335" stroke="#1A1A1A" stroke-linecap="round"/>
<path d="M9.78125 10.1602C10.1472 10.6404 10.3301 11.0716 10.3301 11.4538C10.3301 11.836 10.3301 12.7975 10.3301 14.3382" stroke="#1A1A1A" stroke-linecap="round"/>
<path d="M2 10.4062C2.29962 10.4429 2.52185 10.5806 2.66667 10.8195C2.8839 11.1778 3.6914 12.5071 4.60837 12.5071C5.2197 12.5071 5.68383 12.5071 6.0008 12.5071" stroke="#1A1A1A" stroke-linecap="round"/>
</svg>
