<svg width="24" height="24" viewBox="0 0 24 24" fill="none" xmlns="http://www.w3.org/2000/svg">
<mask id="mask0_505_232" style="mask-type:luminance" maskUnits="userSpaceOnUse" x="0" y="0" width="24" height="24">
<path d="M11.9008 0C5.35537 0 0 5.58764 0 12.3726C0 17.7607 3.3719 22.3505 8.13223 23.9469C8.72727 24.1465 8.92562 23.7474 8.92562 23.3483C8.92562 23.1487 8.92562 22.1509 8.92562 21.1531C5.55372 21.9513 4.95868 19.7563 4.95868 19.7563C4.36364 18.3594 3.57025 17.9602 3.57025 17.9602C2.57851 17.162 3.57025 17.1619 3.57025 17.1619C4.76033 17.1619 5.35537 18.3593 5.35537 18.3593C6.34711 20.1553 8.13223 19.7562 8.72727 19.3571C8.72727 18.5589 9.12397 17.9602 9.52066 17.7607C6.94215 17.5611 4.16529 16.3638 4.16529 11.7739C4.16529 10.377 4.56198 9.37923 5.35537 8.38145C5.15702 7.98233 4.76033 6.78491 5.55372 5.18845C5.55372 5.18845 6.54545 4.78941 8.92562 6.38587C9.91736 6.18631 10.9091 5.98673 11.9008 5.98673C12.8926 5.98673 13.8843 6.18631 14.876 6.38587C17.0579 4.78941 18.2479 5.18845 18.2479 5.18845C18.843 6.78491 18.4463 8.18189 18.4463 8.38145C19.2397 9.17968 19.6364 10.377 19.6364 11.7739C19.6364 16.5633 16.8595 17.5611 14.281 17.7607C14.6777 18.1598 15.0744 18.958 15.0744 19.9558C15.0744 21.5522 15.0744 22.9492 15.0744 23.3483C15.0744 23.7474 15.2727 24.1465 15.8678 23.9469C20.6281 22.3505 24 17.7607 24 12.3726C23.8017 5.58764 18.4463 0 11.9008 0Z" fill="white"/>
</mask>
<g mask="url(#mask0_505_232)">
<mask id="mask1_505_232" style="mask-type:luminance" maskUnits="userSpaceOnUse" x="-20" y="-1783" width="3174" height="1997">
<path d="M3153.71 -1782.05H-19.8457V213.53H3153.71V-1782.05Z" fill="white"/>
</mask>
<g mask="url(#mask1_505_232)">
<path d="M25.7706 -1.99219H-1.99805V25.9459H25.7706V-1.99219Z" fill="#1A1A1A"/>
</g>
</g>
</svg>
