<svg width="16" height="16" viewBox="0 0 16 16" fill="none" xmlns="http://www.w3.org/2000/svg">
<path opacity="0.6" d="M11.5349 16C11.2685 16 11.1142 15.8478 11.1142 15.5793V12.7907C11.184 12.1839 10.9916 11.6617 10.5223 11.1924C10.425 11.0951 10.351 10.9471 10.4165 10.8499L10.4461 10.8076L10.4588 10.7569C10.4948 10.6173 10.6618 10.5264 10.8098 10.4757C11.721 10.3784 12.8669 10.1712 13.7358 9.43975C14.6364 8.68076 15.074 7.50951 15.074 5.86469C15.074 4.97886 14.74 4.11628 14.1354 3.43552L14.129 3.42918L14.1227 3.42283C13.9874 3.28753 14.0191 3.11205 14.0487 3.0148C14.2728 2.41438 14.2981 1.79493 14.129 1.11628L14.0592 0.839324L13.7781 0.896406C13.2453 1.00211 12.5962 1.32558 11.795 1.87949L11.7738 1.89429L11.7548 1.91332C11.7464 1.92178 11.7231 1.94503 11.6533 1.94503C11.6068 1.94503 11.5476 1.93446 11.4842 1.91332L11.4779 1.91121L11.4715 1.90909C10.6935 1.68288 9.87954 1.56871 9.05079 1.56871C8.22204 1.56871 7.40808 1.68076 6.63007 1.90486L6.62373 1.90698L6.61739 1.90909C6.55396 1.93023 6.49688 1.9408 6.44403 1.9408C6.37214 1.9408 6.30449 1.91966 6.23684 1.87526C5.35312 1.21353 4.67024 0.97463 4.25164 0.890063L3.97045 0.832981L3.90069 1.10994C3.73155 1.78436 3.75692 2.40169 3.9768 2.99789C3.99794 3.0888 4.04233 3.32135 3.95354 3.38055L3.92183 3.40169L3.89646 3.43129C3.28969 4.11205 2.95777 4.97674 2.95777 5.86047C2.95777 7.5074 3.3954 8.67653 4.29603 9.43552C5.17553 10.1776 6.34043 10.3806 7.25587 10.4757L7.27066 10.4778H7.28546C7.44403 10.4778 7.53705 10.6216 7.57088 10.7548C7.62162 10.9598 7.56453 11.1332 7.50534 11.1903C7.10787 11.5877 6.91337 12.0825 6.91337 12.6977V15.5053C6.91337 15.7717 6.76115 15.926 6.49265 15.926C6.22415 15.926 6.07193 15.7738 6.07193 15.5053V13.9281L5.7231 13.9873C5.48208 14.0275 5.24741 14.0486 5.02753 14.0486C3.5751 14.0486 2.87532 13.1903 2.31083 12.4989L2.26221 12.4397L2.2157 12.3805C1.92817 12.0211 1.68081 11.7104 1.31083 11.6173L1.30449 11.6152L1.29815 11.6131C1.2009 11.5941 1.09942 11.5116 1.04233 11.408C1.01485 11.3573 0.972567 11.2558 1.01274 11.1564L1.02331 11.1311L1.02965 11.1036C1.06136 10.9493 1.24107 10.8034 1.39963 10.8034C1.43134 10.8034 1.46094 10.8097 1.48631 10.8203L1.49899 10.8245L1.51168 10.8288C2.14381 11.019 2.53493 11.4715 2.94508 11.9514C3.18398 12.2812 3.42711 12.5941 3.75269 12.8288C4.11633 13.0909 4.54128 13.2199 5.05079 13.2199C5.28758 13.2199 5.54128 13.1945 5.82669 13.1395L6.06982 13.093V12.7738C6.06982 12.3425 6.14381 11.8901 6.26432 11.5899L6.3954 11.26L6.04868 11.186C4.90914 10.9408 4.00428 10.4672 3.36369 9.77378C2.53282 8.87738 2.1121 7.58562 2.1121 5.93869C2.1121 4.94503 2.44614 3.98943 3.05291 3.24947L3.15227 3.12896L3.10999 2.97886C2.8436 2.04863 2.90914 1.17548 3.31083 0.308668L3.31718 0.293869L3.3214 0.27907C3.36157 0.156448 3.43345 0.0824524 3.55396 0.0401691C3.6491 0.0169133 3.75269 0.0063425 3.86897 0.0063425C4.32775 0.0063425 5.15439 0.181818 6.47574 1.01269L6.58145 1.07822L6.70195 1.05074C7.46728 0.877379 8.25375 0.788584 9.03811 0.788584C9.82035 0.788584 10.5878 0.877379 11.3172 1.05074L11.4419 1.08034L11.5497 1.01057C12.8246 0.173362 13.6639 0 14.1438 0C14.2664 0 14.3764 0.0105708 14.4715 0.0338266C14.5899 0.0761099 14.6618 0.150106 14.7041 0.272727L14.7062 0.27907L14.7083 0.285412C15.0444 1.16068 15.1142 2.0444 14.9113 2.91755L14.8774 3.06131L14.9705 3.17548C15.5772 3.91543 15.9113 4.87104 15.9113 5.86469C15.9113 9.75053 13.6576 10.7632 11.9641 11.1882L11.6512 11.2664L11.7527 11.5729C11.8795 11.9556 11.9535 12.4186 11.9535 12.8457V15.5814C11.9535 15.8478 11.8013 16 11.5349 16Z" fill="#1A1A1A"/>
</svg>
