<svg width="17" height="17" viewBox="0 0 17 17" fill="none" xmlns="http://www.w3.org/2000/svg">
<path opacity="0.6" d="M4.38811 15.1944L4.38772 15.1941C3.13961 14.4258 2.12658 13.3398 1.46078 12.0506L1.46037 12.0498C0.89058 10.9405 0.6 9.74546 0.6 8.5C0.6 7.25474 0.890491 6.05714 1.46296 4.94746C2.12642 3.65796 3.13967 2.57174 4.39055 1.80558C5.67267 1.01687 7.15742 0.6 8.68071 0.6C9.73499 0.6 10.7421 0.783304 11.6698 1.1458C12.0947 1.31118 12.5044 1.51596 12.8936 1.75761L13.3276 2.02705L12.9619 2.38377L12.2918 3.03757L12.0719 3.25204L11.808 3.09502C10.8918 2.55007 9.82146 2.26161 8.68071 2.26161C7.3327 2.26161 6.04662 2.68477 4.95657 3.4867C3.92055 4.24912 3.12529 5.33107 2.71394 6.5306L2.70463 6.55774L2.70292 6.56108C2.48998 7.20211 2.38133 7.85462 2.38133 8.49766C2.38133 9.15305 2.49099 9.8123 2.71175 10.4607C3.12323 11.6648 3.91851 12.7488 4.95413 13.5109L4.38811 15.1944ZM4.38811 15.1944C5.67248 15.983 7.15722 16.4 8.68071 16.4C10.7786 16.4 12.6286 15.7548 14.0082 14.5086C14.7668 13.828 15.3557 12.9921 15.763 12.0273C16.1881 11.02 16.4 9.8992 16.4 8.70081C16.4 8.53611 16.3976 8.36847 16.3873 8.19607L16.365 7.8198H15.988H10.0378H9.63782V8.2198V8.98568V9.38568M4.38811 15.1944L9.63782 9.38568M9.63782 9.38568H10.0378M9.63782 9.38568H10.0378M10.0378 9.38568H14.6936L14.4869 10.4754C14.4869 10.4755 14.4869 10.4755 14.4869 10.4756C14.2325 11.8133 13.4502 12.9697 12.2751 13.7362C11.2801 14.3848 10.0391 14.7361 8.67831 14.7361C7.33262 14.7361 6.04417 14.3129 4.95417 13.511L10.0378 9.38568Z" stroke="#1A1A1A" stroke-width="0.8"/>
</svg>
