<svg width="16" height="16" viewBox="0 0 16 16" fill="none" xmlns="http://www.w3.org/2000/svg">
<g clip-path="url(#clip0_2709_52)">
<path d="M2.51781 14C2.23014 14 2 13.7699 2 13.4822V2.51781C2 2.23014 2.23014 2 2.51781 2H13.474C13.7616 2 13.9918 2.23014 13.9918 2.51781V13.474C13.9918 13.7616 13.7616 13.9918 13.474 13.9918H2.51781V14ZM3.04384 12.9562H12.9644V3.04384H3.04384V12.9562ZM10.5644 11.6V8.85479C10.5644 8.10685 9.95616 7.49041 9.2 7.49041C8.45205 7.49041 7.83562 8.09863 7.83562 8.85479V11.6H6.79178V6.79178H7.83562V7.30959L8.11507 7.03836C8.51781 6.65205 8.94521 6.44658 9.3726 6.44658C10.6466 6.44658 11.6082 7.48219 11.6082 8.85479V11.6H10.5644ZM4.4 11.6V6.79178H5.44384V11.6H4.4ZM4.91781 5.78082C4.4411 5.78082 4.05479 5.39452 4.05479 4.91781C4.05479 4.4411 4.4411 4.05479 4.91781 4.05479C5.39452 4.05479 5.78082 4.4411 5.78082 4.91781C5.78082 5.39452 5.39452 5.78082 4.91781 5.78082Z" fill="#1A1A1A"/>
</g>
<defs>
<clipPath id="clip0_2709_52">
<rect width="12" height="12" fill="white" transform="translate(2 2)"/>
</clipPath>
</defs>
</svg>
