<svg width="17" height="16" viewBox="0 0 17 16" fill="none" xmlns="http://www.w3.org/2000/svg">
<path d="M14.8518 0H1.19813C0.549142 0 0 0.49922 0 1.14821V14.8518C0 15.5008 0.549142 16 1.19813 16H14.8019C15.4509 16 16 15.5008 16 14.8518V1.14821C16 0.49922 15.5008 0 14.8518 0ZM4.79251 13.6537H2.39626V6.04056H4.79251V13.6537ZM3.59438 4.94228C2.84555 4.94228 2.19657 4.34321 2.19657 3.54446C2.19657 2.74571 2.79563 2.14665 3.59438 2.14665C4.34321 2.14665 4.9922 2.74571 4.9922 3.54446C4.9922 4.34321 4.34321 4.94228 3.59438 4.94228ZM13.6537 13.6537H11.2574V9.95944C11.2574 9.06084 11.2574 7.91264 10.0094 7.91264C8.76131 7.91264 8.56162 8.86115 8.56162 9.85959V13.6537H6.21529V6.04056H8.5117V7.08892H8.56162C9.01092 6.29017 9.90952 5.84087 10.8081 5.84087C13.2044 5.84087 13.6537 7.43838 13.6537 9.48518V13.6537Z" fill="white"/>
</svg>
