<svg width="188" height="40" viewBox="0 0 188 40" fill="none" xmlns="http://www.w3.org/2000/svg">
<path d="M143.447 5.33381C143.447 4.60656 143.689 3.87931 144.295 3.27327C144.78 2.66722 145.507 2.4248 146.356 2.4248C147.204 2.4248 147.932 2.66722 148.416 3.27327C149.022 3.87931 149.265 4.48535 149.265 5.33381C149.265 6.18227 149.022 6.90953 148.416 7.39436C147.81 8.0004 147.204 8.24282 146.356 8.24282C145.507 8.24282 144.901 8.0004 144.295 7.39436C143.689 6.78832 143.447 6.06107 143.447 5.33381ZM144.053 12.2427L148.538 11.3942V29.3331H144.053V12.2427Z" fill="white"/>
<path d="M139.447 10.9102H134.962V21.0917C134.962 23.1522 133.265 24.9704 131.083 24.9704C129.023 24.9704 127.205 23.2734 127.205 21.0917V10.9102H122.72V21.0917C122.72 25.6976 126.477 29.4551 131.083 29.4551C135.689 29.4551 139.447 25.6976 139.447 21.0917V10.9102Z" fill="white"/>
<path d="M78.6978 19.1523V29.3339H83.1825V19.1523C83.1825 17.0918 84.8794 15.3949 86.9399 15.3949C89.0005 15.3949 90.8186 17.0918 90.8186 19.2736V29.4551H95.3033V19.2736C95.3033 14.6676 91.5459 10.9102 86.9399 10.9102C82.334 10.9102 78.6978 14.5464 78.6978 19.1523Z" fill="white"/>
<path d="M160.78 25.2114C160.537 25.2114 160.295 25.2114 160.053 25.2114C159.083 25.2114 158.356 24.969 158.113 24.4841C157.871 23.9993 157.628 23.2721 157.628 22.5448V0L153.265 0.84846V22.5448C153.265 23.3933 153.386 24.2417 153.507 24.969C153.629 25.6962 153.992 26.4235 154.356 27.0295C154.841 27.6356 155.325 28.1204 156.174 28.3628C156.901 28.7265 157.871 28.8477 159.083 28.8477C159.568 28.8477 160.053 28.8477 160.659 28.7265V25.2114H160.78Z" fill="white"/>
<path d="M186.84 25.2114C185.87 25.2114 185.143 24.969 184.9 24.4842C184.658 23.9993 184.416 23.2721 184.416 22.5448V0L180.052 0.848461V11.3936C179.567 11.1512 179.082 10.9088 178.476 10.6664C177.264 10.1815 176.052 9.93911 174.598 9.93911C173.264 9.93911 171.931 10.1815 170.719 10.6664C169.507 11.1512 168.537 11.7572 167.568 12.6057C166.719 13.4542 165.992 14.4238 165.507 15.6359C165.022 16.848 164.78 18.0601 164.78 19.5146C164.78 20.9691 165.022 22.1812 165.507 23.3933C165.992 24.6054 166.719 25.575 167.568 26.4235C168.416 27.2719 169.507 27.878 170.719 28.3628C171.931 28.8477 173.143 29.0901 174.598 29.0901C175.931 29.0901 177.264 28.8477 178.476 28.3628C178.84 28.2416 179.204 27.9992 179.567 27.878L179.446 27.7568C178.961 27.1507 178.719 26.5447 178.598 25.6962C178.476 25.0902 178.355 24.4842 178.355 23.7569C177.992 24.1205 177.507 24.4841 177.022 24.7266C176.416 25.0902 175.567 25.2114 174.719 25.2114C173.87 25.2114 173.022 25.0902 172.416 24.7266C171.81 24.3629 171.204 23.8781 170.84 23.3933C170.355 22.7872 170.113 22.1812 169.871 21.5751C169.628 20.8479 169.507 20.1206 169.507 19.5146C169.507 18.7873 169.628 18.1813 169.871 17.454C170.113 16.7268 170.355 16.1208 170.84 15.6359C171.325 15.0299 171.81 14.6662 172.416 14.3026C173.022 13.939 173.87 13.8178 174.719 13.8178C175.567 13.8178 176.416 13.939 177.022 14.3026C177.628 14.6662 178.234 15.0299 178.598 15.6359C178.961 16.242 179.325 16.848 179.567 17.454C179.688 17.6965 179.688 18.1813 179.688 18.5449V22.5448C179.688 23.3933 179.81 24.2417 179.931 24.969C180.052 25.6962 180.416 26.4235 180.779 27.0295C181.264 27.6356 181.749 28.1204 182.597 28.3628C183.325 28.7265 184.294 28.8477 185.506 28.8477C185.87 28.8477 186.476 28.8477 186.961 28.7265V25.2114C187.082 25.2114 186.961 25.2114 186.84 25.2114Z" fill="white"/>
<path d="M30.3042 14.7888C31.2739 14.7888 32.0011 15.0313 32.2436 15.5161C32.486 16.0009 32.7284 16.7282 32.7284 17.4554V40.0002L37.0919 39.1518V28.6066C37.5767 28.849 38.0616 29.0915 38.6676 29.3339C39.8797 29.8187 41.0918 30.0611 42.5463 30.0611C43.8796 30.0611 45.2129 29.8187 46.425 29.3339C47.6371 28.849 48.6067 28.243 49.5764 27.3945C50.4249 26.5461 51.1521 25.5764 51.6369 24.3643C52.1218 23.1522 52.3642 21.9401 52.3642 20.4856C52.3642 19.0311 52.1218 17.8191 51.6369 16.607C51.1521 15.3949 50.4249 14.4252 49.5764 13.5767C48.7279 12.7283 47.6371 12.1222 46.425 11.6374C45.2129 11.1526 44.0008 10.9102 42.5463 10.9102C41.213 10.9102 39.8797 11.1526 38.6676 11.6374C38.304 11.7586 37.9404 12.001 37.5767 12.1222L37.698 12.2435C38.1828 12.8495 38.4252 13.4555 38.5464 14.304C38.6676 14.91 38.7888 15.5161 38.7888 16.2433C39.1525 15.8797 39.6373 15.5161 40.1221 15.2737C40.7282 14.91 41.5766 14.7888 42.4251 14.7888C43.2736 14.7888 44.122 14.91 44.7281 15.2737C45.3341 15.6373 45.9401 16.1221 46.3038 16.607C46.7886 17.213 47.031 17.8191 47.2734 18.4251C47.5159 19.1523 47.6371 19.8796 47.6371 20.4856C47.6371 21.2129 47.5159 21.8189 47.2734 22.5462C47.031 23.2734 46.7886 23.8795 46.3038 24.3643C45.8189 24.9704 45.3341 25.334 44.7281 25.6976C44.122 26.0612 43.2736 26.1824 42.4251 26.1824C41.5766 26.1824 40.7282 26.0612 40.1221 25.6976C39.5161 25.334 38.91 24.9704 38.5464 24.3643C38.1828 23.7583 37.8192 23.1522 37.5767 22.5462C37.4555 22.3038 37.4555 21.8189 37.4555 21.4553V17.4554C37.4555 16.607 37.3343 15.7585 37.2131 15.0313C37.0919 14.304 36.7283 13.5767 36.3647 12.9707C35.8798 12.3647 35.395 11.8798 34.5465 11.6374C33.8193 11.2738 32.8496 11.1526 31.6375 11.1526C31.2739 11.1526 30.6679 11.1526 30.183 11.2738V14.7888C30.0618 14.7888 30.183 14.7888 30.3042 14.7888Z" fill="white"/>
<path d="M74.0607 16.3645C73.5759 15.1525 72.9698 14.1828 72.2426 13.3343C71.5153 12.4859 70.5457 11.8798 69.4548 11.5162C68.3639 11.1526 67.273 10.9102 65.9397 10.9102C64.6064 10.9102 63.3944 11.1526 62.1823 11.6374C60.9702 12.1222 60.0005 12.7283 59.1521 13.5767C58.3036 14.4252 57.5763 15.3949 57.0915 16.607C56.6067 17.819 56.3643 19.1523 56.3643 20.6068C56.3643 22.0614 56.6067 23.3946 57.0915 24.6067C57.5763 25.8188 58.3036 26.7885 59.1521 27.5157C60.0005 28.3642 60.9702 28.9702 62.1823 29.3339C63.3944 29.6975 64.6064 29.9399 66.061 29.9399C68.3639 29.9399 70.7881 29.3339 72.9698 27.3945L70.5457 24.4855C70.182 24.8492 69.0912 25.5764 68.8487 25.6976C68.1215 26.0612 67.1518 26.3037 66.061 26.3037C65.4549 26.3037 64.7277 26.1824 64.2428 25.94C63.6368 25.6976 63.1519 25.4552 62.6671 24.9704C62.1823 24.6067 61.8186 24.1219 61.5762 23.6371C61.3338 23.1522 61.0914 22.5462 61.0914 21.8189C60.9702 20.122 61.0914 18.5463 61.0914 18.5463C61.2126 17.213 61.6974 16.2433 62.6671 15.3949C63.6368 14.5464 64.7277 14.1828 66.061 14.1828C66.7882 14.1828 67.3942 14.304 68.0003 14.5464C68.4851 14.7888 68.97 15.1525 69.3336 15.5161C69.6972 15.8797 69.9396 16.3645 70.0608 16.8494C70.182 17.3342 70.3033 17.9403 70.3033 18.5463H62.5459V21.8189H74.6668C74.6668 21.5765 74.6668 21.4553 74.6668 21.2129C74.6668 20.9705 74.6668 20.8493 74.6668 20.6068C74.788 19.0311 74.5456 17.5766 74.0607 16.3645Z" fill="white"/>
<path d="M116.355 16.3593C114.737 14.4923 109.634 14.6168 109.634 14.6168H107.891H106.024V18.8487H110.381C111.501 18.8487 113.866 18.8487 113.866 21.8358C113.866 25.1964 111.252 25.1964 110.879 25.1964H104.157V18.8487V14.6168V8.64244H108.389C108.763 8.64244 109.012 8.76691 109.385 8.89138C109.634 9.01584 110.007 9.26477 110.132 9.5137C110.256 9.76264 110.505 10.136 110.63 10.385C110.754 10.7584 110.879 11.1318 110.879 11.5052C110.879 11.8786 110.754 12.252 110.63 12.6254C110.63 12.6254 110.63 12.7498 110.505 12.7498C113.368 12.8743 114.613 13.3722 115.484 13.7456C115.608 13.2477 115.733 12.5009 115.733 11.2562C115.733 9.8871 115.359 4.28613 108.265 4.28613H99.3032V29.4283H110.879C111.999 29.4283 112.994 29.3038 113.866 29.0549C114.861 28.8059 115.608 28.4325 116.355 27.8102C117.102 27.1879 117.6 26.4411 118.098 25.5698C118.471 24.5741 118.72 23.4539 118.72 22.0848C118.72 20.3422 118.098 17.9774 116.355 16.3593Z" fill="white"/>
<path fillRule="evenodd" clipRule="evenodd" d="M5.23633 7.40612C10.0578 3.19586 17.376 3.28191 22.11 7.78887C27.1169 12.5554 27.3112 20.5027 22.5343 25.5215C17.9264 30.3622 10.3515 30.7109 5.3105 26.4072L8.92735 22.6078C11.8633 24.9281 16.121 24.6729 18.7468 21.915C21.5299 18.991 21.4276 14.3594 18.5035 11.5763C15.8643 9.06322 11.8618 8.90745 9.04751 11.0348L5.23633 7.40612Z" fill="white"/>
<path d="M8.04994 13.0674L3.98064 9L0.0152866 12.9319L4.08459 17.0008L0 21.0529L3.95006 25L8.03465 20.9479L12 17.016L8.04994 13.0674Z" fill="#F3FF65"/>
</svg>
