<svg width="45" height="42" viewBox="0 0 45 42" fill="none" xmlns="http://www.w3.org/2000/svg">
<path d="M42.4766 1L25.4277 13.5021L28.5982 6.13412L42.4782 1H42.4766Z" fill="#E17726" stroke="#E17726" stroke-width="0.25" stroke-linecap="round" stroke-linejoin="round"/>
<path d="M3.14961 1L20.0474 13.6179L17.0297 6.13412L3.14793 1H3.14961ZM36.3628 29.9854L31.8262 36.8516L41.5405 39.5034L44.3233 30.1347L36.3628 29.9837V29.9854ZM1.36719 30.1347L4.13313 39.5034L13.829 36.8516L9.30921 29.9854L1.36719 30.1347Z" fill="#E27625" stroke="#E27625" stroke-width="0.25" stroke-linecap="round" stroke-linejoin="round"/>
<path d="M13.2823 18.3879L10.5835 22.4227L20.1955 22.8558L19.8766 12.6043L13.2806 18.3879H13.2823ZM32.3401 18.3879L25.6451 12.4868L25.4269 22.8558L35.0389 22.4211L32.3401 18.3879ZM13.8211 36.8667L19.6399 34.0807L14.6317 30.2137L13.8227 36.8651L13.8211 36.8667ZM26.0026 34.0807L31.8047 36.8667L31.0125 30.2137L26.0026 34.0823V34.0807Z" fill="#E27625" stroke="#E27625" stroke-width="0.25" stroke-linecap="round" stroke-linejoin="round"/>
<path d="M31.8059 36.8534L26.0038 34.069L26.4771 37.8033L26.4268 39.386L31.8059 36.8534ZM13.8223 36.8534L19.2199 39.3877L19.1863 37.8033L19.6412 34.069L13.8223 36.8534Z" fill="#D5BFB2" stroke="#D5BFB2" stroke-width="0.25" stroke-linecap="round" stroke-linejoin="round"/>
<path d="M19.3148 27.7368L14.4912 26.3371L17.8983 24.7863L19.3148 27.7368ZM26.3321 27.7368L27.7486 24.7863L31.1725 26.3371L26.3321 27.7368Z" fill="#233447" stroke="#233447" stroke-width="0.25" stroke-linecap="round" stroke-linejoin="round"/>
<path d="M13.8077 36.8512L14.6519 29.985L9.28955 30.1344L13.8077 36.8512ZM30.9774 29.985L31.8031 36.8512L36.3398 30.1344L30.9757 29.9833L30.9774 29.985ZM35.0424 22.4189L25.4304 22.852L26.3233 27.736L27.7398 24.7854L31.1637 26.3363L35.0424 22.4189ZM14.4824 26.3363L17.8895 24.7854L19.306 27.736L20.1989 22.852L10.5869 22.4189L14.4824 26.3363Z" fill="#CC6228" stroke="#CC6228" stroke-width="0.25" stroke-linecap="round" stroke-linejoin="round"/>
<path d="M10.582 22.4189L14.6135 30.2032L14.4792 26.3363L10.5837 22.4189H10.582ZM31.1638 26.3363L31.0128 30.2032L35.0425 22.4189L31.1655 26.3363H31.1638ZM20.2108 22.8453L19.3162 27.7293L20.4458 33.4962L20.6992 25.8948L20.2108 22.8453ZM25.4137 22.8453L24.9421 25.8781L25.1771 33.4978L26.3083 27.7293L25.4137 22.8453Z" fill="#E27525" stroke="#E27525" stroke-width="0.25" stroke-linecap="round" stroke-linejoin="round"/>
<path d="M26.3338 27.733L25.2042 33.4999L26.0132 34.0672L31.0214 30.2002L31.1725 26.3333L26.3338 27.733ZM14.4929 26.3333L14.6272 30.2002L19.6354 34.0672L20.4444 33.4999L19.3148 27.733L14.4912 26.3333H14.4929Z" fill="#F5841F" stroke="#F5841F" stroke-width="0.25" stroke-linecap="round" stroke-linejoin="round"/>
<path d="M26.4362 39.3837L26.4865 37.7976L26.0501 37.4317H19.6069L19.1856 37.7976L19.2192 39.382L13.8232 36.8477L15.7114 38.3817L19.5381 40.9999H26.1005L29.9439 38.3817L31.817 36.8477L26.4362 39.382V39.3837Z" fill="#C0AC9D" stroke="#C0AC9D" stroke-width="0.25" stroke-linecap="round" stroke-linejoin="round"/>
<path d="M26.0031 34.0792L25.1924 33.512H20.4376L19.627 34.0792L19.1738 37.8136L19.5934 37.446H26.0367L26.473 37.8136L26.0031 34.0792Z" fill="#161616" stroke="#161616" stroke-width="0.25" stroke-linecap="round" stroke-linejoin="round"/>
<path d="M43.2058 14.3195L44.6392 7.41807L42.4808 1L26.0043 13.0842L32.3451 18.3879L41.3009 20.9709L43.273 18.6866L42.4137 18.069L43.7798 16.8354L42.7342 16.0365L44.1004 15.0026L43.2058 14.3195ZM1 7.41807L2.45011 14.3195L1.52197 15.0026L2.90494 16.0365L1.85932 16.8354L3.22551 18.069L2.36619 18.6866L4.33827 20.9692L13.294 18.3862L19.6349 13.0859L3.15838 1L1 7.41807Z" fill="#763E1A" stroke="#763E1A" stroke-width="0.25" stroke-linecap="round" stroke-linejoin="round"/>
<path d="M41.3005 20.9776L32.3464 18.3929L35.0436 22.4277L31.0138 30.2119L36.3426 30.1448H44.3014L41.3005 20.9776ZM13.3071 18.3929L4.35132 20.9776L1.36719 30.1448H9.30921L14.638 30.2119L10.6083 22.4277L13.3071 18.3929ZM25.4333 22.859L26.0073 13.0909L28.6054 6.13916H17.0364L19.6328 13.0909L20.2068 22.859L20.425 25.9271L20.4418 33.5116H25.1983L25.2151 25.9254L25.4333 22.859Z" fill="#F5841F" stroke="#F5841F" stroke-width="0.25" stroke-linecap="round" stroke-linejoin="round"/>
</svg>
