<svg width="40" height="40" viewBox="0 0 40 40" fill="none" xmlns="http://www.w3.org/2000/svg">
<g clip-path="url(#clip0_1_2)">
<path d="M39.1666 20C39.1666 9.41453 30.5854 0.833332 20 0.833332C9.41453 0.833332 0.833332 9.41453 0.833332 20C0.833332 30.5854 9.41453 39.1666 20 39.1666C30.5854 39.1666 39.1666 30.5854 39.1666 20Z" fill="white" stroke="white" stroke-width="1.66667"/>
<path d="M15.0003 20.0001C15.0003 19.0796 14.2541 18.3334 13.3337 18.3334C12.4132 18.3334 11.667 19.0796 11.667 20.0001C11.667 20.9205 12.4132 21.6667 13.3337 21.6667C14.2541 21.6667 15.0003 20.9205 15.0003 20.0001Z" fill="#1A1A1A"/>
<path d="M21.6673 20.0001C21.6673 19.0796 20.9211 18.3334 20.0007 18.3334C19.0802 18.3334 18.334 19.0796 18.334 20.0001C18.334 20.9205 19.0802 21.6667 20.0007 21.6667C20.9211 21.6667 21.6673 20.9205 21.6673 20.0001Z" fill="#1A1A1A"/>
<path d="M28.3333 20.0001C28.3333 19.0796 27.5871 18.3334 26.6667 18.3334C25.7462 18.3334 25 19.0796 25 20.0001C25 20.9205 25.7462 21.6667 26.6667 21.6667C27.5871 21.6667 28.3333 20.9205 28.3333 20.0001Z" fill="#1A1A1A"/>
</g>
<defs>
<clipPath id="clip0_1_2">
<rect width="40" height="40" fill="white"/>
</clipPath>
</defs>
</svg>
