<svg width="14" height="14" viewBox="0 0 14 14" fill="none" xmlns="http://www.w3.org/2000/svg">
<g>
<path d="M5.83366 9.62467L7.58366 10.208C7.58366 10.208 11.9587 9.33301 12.542 9.33301C13.1253 9.33301 13.1253 9.91634 12.542 10.4997C11.9587 11.083 9.91699 12.833 8.16699 12.833C6.41699 12.833 5.25033 11.958 4.08366 11.958C2.91699 11.958 1.16699 11.958 1.16699 11.958" stroke="#1A1A1A" stroke-linecap="round" stroke-linejoin="round"/>
<path d="M1.16699 8.45833C1.75033 7.875 2.91699 7 4.08366 7C5.25033 7 8.02116 8.16667 8.45866 8.75C8.89616 9.33333 7.58366 10.2083 7.58366 10.2083" stroke="#1A1A1A" stroke-linecap="round" stroke-linejoin="round"/>
<path d="M4.66699 5.24967V2.91634C4.66699 2.59417 4.92815 2.33301 5.25033 2.33301H12.2503C12.5725 2.33301 12.8337 2.59417 12.8337 2.91634V7.58301" stroke="#1A1A1A" stroke-linecap="round" stroke-linejoin="round"/>
<path d="M10.2087 2.33301H7.29199V4.95801H10.2087V2.33301Z" stroke="#1A1A1A" stroke-linecap="round" stroke-linejoin="round"/>
</g>
</svg>
