<svg width="20" height="20" viewBox="0 0 20 20" fill="none" xmlns="http://www.w3.org/2000/svg">
<path d="M4.16659 18.3327H15.8333C16.2935 18.3327 16.6666 17.9596 16.6666 17.4993V5.83268H12.4999V1.66602H4.16659C3.70635 1.66602 3.33325 2.03911 3.33325 2.49935V17.4993C3.33325 17.9596 3.70635 18.3327 4.16659 18.3327Z" stroke="#1A1A1A" stroke-linecap="round" stroke-linejoin="round"/>
<path d="M12.5 1.66602L16.6667 5.83268" stroke="#1A1A1A" stroke-linecap="round" stroke-linejoin="round"/>
<path d="M10 14.166C12.0711 14.166 13.75 11.666 13.75 11.666C13.75 11.666 12.0711 9.16602 10 9.16602C7.92892 9.16602 6.25 11.666 6.25 11.666C6.25 11.666 7.92892 14.166 10 14.166Z" stroke="#1A1A1A" stroke-linejoin="round"/>
<path d="M10.0001 12.5007C10.4603 12.5007 10.8334 12.1276 10.8334 11.6673C10.8334 11.2071 10.4603 10.834 10.0001 10.834C9.53983 10.834 9.16675 11.2071 9.16675 11.6673C9.16675 12.1276 9.53983 12.5007 10.0001 12.5007Z" fill="#333333"/>
</svg>
