<svg width="19" height="20" viewBox="0 0 19 20" fill="none" xmlns="http://www.w3.org/2000/svg">
<g clip-path="url(#clip0_855_11320)">
<path d="M7.61504 19.9561L6.20251 18.6581L4.32962 19.0803C4.2106 19.1072 4.10729 18.9949 4.13873 18.8759L5.78481 12.707L9.52836 13.7064L7.88228 19.873C7.84859 19.9943 7.70487 20.0392 7.61504 19.9561Z" fill="#E57373"/>
<path d="M11.3114 19.9561L12.7239 18.6581L14.5968 19.0803C14.7159 19.1072 14.8192 18.9949 14.7877 18.8759L13.1416 12.707L9.3981 13.7064L11.0442 19.873C11.0756 19.9943 11.2216 20.0392 11.3114 19.9561Z" fill="#E57373"/>
<path d="M16.6068 7.1435C16.6068 7.59263 16.3732 7.96991 16.1689 8.30227C16.0454 8.50213 15.9286 8.69302 15.8814 8.86369C15.832 9.04559 15.8388 9.27689 15.8455 9.52167C15.8545 9.90568 15.8657 10.3436 15.6501 10.7164C15.4301 11.0959 15.0438 11.3047 14.7025 11.4889C14.4891 11.6034 14.2892 11.7112 14.1612 11.8415C14.031 11.9717 13.9232 12.1716 13.8087 12.3827C13.6245 12.724 13.4157 13.1103 13.0362 13.3303C12.6611 13.5459 12.2255 13.5347 11.8392 13.5257C11.5944 13.519 11.3654 13.5145 11.1835 13.5616C11.0128 13.6066 10.8242 13.7233 10.6221 13.8491C10.2897 14.0534 9.91242 14.287 9.46329 14.287C9.01415 14.287 8.63688 14.0534 8.30452 13.8491C8.10241 13.7256 7.91377 13.6088 7.7431 13.5616C7.5612 13.5122 7.32989 13.519 7.08736 13.5257C6.70335 13.5369 6.26544 13.5482 5.89266 13.3303C5.51314 13.1103 5.30429 12.724 5.12015 12.3827C5.00562 12.1716 4.89783 11.9695 4.76758 11.8415C4.63733 11.7112 4.43746 11.6034 4.22637 11.4889C3.88503 11.3047 3.49877 11.0959 3.27869 10.7164C3.06311 10.3413 3.07209 9.90568 3.08332 9.52167C3.09006 9.27689 3.09455 9.04783 3.04739 8.86369C3.00247 8.69526 2.8857 8.50438 2.76219 8.30227C2.55558 7.96991 2.32428 7.59263 2.32428 7.1435C2.32428 6.69436 2.55558 6.31709 2.76219 5.98473C2.8857 5.78486 3.00247 5.59398 3.04739 5.42331C3.09679 5.24141 3.09006 5.01011 3.08332 4.76533C3.07434 4.38132 3.06311 3.94341 3.27869 3.57063C3.49877 3.19111 3.88503 2.98226 4.22637 2.79811C4.43746 2.68358 4.63957 2.57579 4.76758 2.44554C4.89783 2.31529 5.00562 2.11543 5.12015 1.90433C5.30429 1.56299 5.51314 1.17673 5.89266 0.956658C6.26769 0.738828 6.70335 0.750056 7.08736 0.761285C7.33214 0.768022 7.5612 0.772513 7.74534 0.725354C7.91377 0.68044 8.10465 0.563665 8.30676 0.437907C8.63688 0.23355 9.01415 0 9.46329 0C9.91242 0 10.2897 0.23355 10.6221 0.437907C10.8219 0.561419 11.0128 0.678194 11.1835 0.725354C11.3654 0.774759 11.5967 0.768022 11.8392 0.761285C12.2255 0.752302 12.6611 0.738828 13.0362 0.956658C13.4157 1.17673 13.6245 1.56299 13.8087 1.90433C13.9232 2.11543 14.031 2.31754 14.1612 2.44554C14.2915 2.57579 14.4914 2.68358 14.7025 2.79811C15.0438 2.98226 15.4301 3.19111 15.6501 3.57063C15.868 3.94565 15.8567 4.38132 15.8455 4.76533C15.8388 5.01011 15.832 5.23916 15.8814 5.42331C15.9263 5.59398 16.0431 5.78262 16.1689 5.98473C16.3755 6.31709 16.6068 6.69436 16.6068 7.1435Z" fill="#EDCB3A"/>
<path d="M14.7945 6.36385C14.7945 6.36161 14.7945 6.35712 14.7923 6.35487C14.79 6.35263 14.7856 6.35263 14.7833 6.35263C14.5026 6.39305 14.3185 6.51881 14.2309 6.72541C14.2151 6.49186 14.1837 6.26055 14.1343 6.03374C14.4375 5.89675 14.5475 5.65871 14.4599 5.32411C14.4599 5.32186 14.4577 5.31737 14.4554 5.31737C14.4532 5.31512 14.4487 5.31737 14.4465 5.31737C14.2241 5.4027 14.0939 5.53745 14.0557 5.71935C13.9996 5.52397 13.9344 5.33309 13.8536 5.1467C14.1208 4.94459 14.1747 4.68633 14.013 4.37643C14.013 4.37418 14.0108 4.37194 14.0063 4.36969C14.0041 4.36969 13.9996 4.36969 13.9996 4.37194C13.8087 4.50219 13.7121 4.65939 13.7121 4.83679C13.6223 4.65939 13.519 4.48647 13.4067 4.32029C13.6066 4.10021 13.6111 3.86442 13.4202 3.61964C13.4202 3.61739 13.4157 3.61515 13.4134 3.61515C13.4112 3.61515 13.409 3.61739 13.4067 3.61964C13.2607 3.76336 13.2001 3.91382 13.2248 4.06877C13.117 3.92954 13.0025 3.79705 12.879 3.67129C13.0429 3.43774 13.0227 3.20868 12.8116 2.9886C12.8094 2.98636 12.8071 2.98411 12.8049 2.98411C12.8026 2.98411 12.8004 2.98636 12.7981 2.9886C12.6656 3.14804 12.6207 3.30749 12.6634 3.46244C12.5376 3.34791 12.4051 3.23787 12.2659 3.13682C12.2569 3.13008 12.2502 3.12783 12.239 3.12559C12.1648 2.85611 11.9785 2.72586 11.6775 2.74382C11.6753 2.74382 11.673 2.74382 11.6708 2.74607C11.6686 2.74831 11.6686 2.75056 11.6708 2.75281C11.7224 3.04699 11.8909 3.1997 12.1671 3.21092C12.1716 3.22215 12.1783 3.23113 12.1895 3.24012C12.3153 3.33219 12.4366 3.431 12.5511 3.5343C12.4074 3.49612 12.2547 3.5343 12.0975 3.65108C12.0952 3.65108 12.093 3.65557 12.093 3.65781C12.093 3.66006 12.093 3.6623 12.0975 3.66455C12.221 3.7948 12.3512 3.86217 12.4882 3.86217C12.5848 3.86217 12.6836 3.82848 12.7869 3.76336C12.9037 3.88463 13.0137 4.01038 13.117 4.14288C12.9733 4.08449 12.8161 4.10695 12.6432 4.21025C12.6409 4.21025 12.6387 4.2125 12.6387 4.21699C12.6387 4.21923 12.6387 4.22148 12.6409 4.22372C12.7622 4.38092 12.8992 4.45952 13.0519 4.45952C13.1305 4.45952 13.2136 4.43931 13.2989 4.39664C13.409 4.55833 13.5078 4.72676 13.5953 4.89967C13.4471 4.79637 13.263 4.78514 13.0452 4.86823C13.0429 4.86823 13.0384 4.87048 13.0384 4.87272C13.0384 4.87497 13.0384 4.87946 13.0407 4.88171C13.1619 5.11301 13.3281 5.22979 13.537 5.22979C13.5998 5.22979 13.665 5.21856 13.7346 5.20059C13.8064 5.37126 13.8693 5.54418 13.921 5.72384C13.7997 5.59808 13.629 5.55092 13.4045 5.58011C13.4022 5.58011 13.3977 5.58011 13.3977 5.5846C13.3955 5.58685 13.3955 5.59134 13.3977 5.59359C13.4741 5.90798 13.6627 6.06518 13.9547 6.06518C13.9704 6.06518 13.9883 6.06518 14.0041 6.06293C14.049 6.27403 14.0804 6.48737 14.0961 6.70295C13.9951 6.51656 13.8087 6.41101 13.537 6.38407C13.5347 6.38182 13.5302 6.38407 13.528 6.38631C13.5257 6.38856 13.5235 6.39305 13.5257 6.39529C13.5347 6.79502 13.7301 7.02633 14.1096 7.08472C14.1074 7.31378 14.0894 7.54283 14.0535 7.77189C13.9861 7.56529 13.8177 7.42381 13.5459 7.3542C13.5437 7.35195 13.5392 7.35195 13.537 7.3542C13.5347 7.35644 13.5325 7.35869 13.5325 7.36318C13.4786 7.75168 13.6313 8.00994 13.9816 8.12896C13.9412 8.29738 13.8918 8.46356 13.8356 8.623C13.8087 8.69936 13.7795 8.77347 13.748 8.84533C13.7503 8.59381 13.62 8.37598 13.3528 8.19408C13.3506 8.19184 13.3461 8.18959 13.3416 8.18959C13.3371 8.18959 13.3348 8.19408 13.3348 8.19857C13.3348 8.19857 13.3348 8.19857 13.3348 8.20082C13.1148 8.62301 13.1889 8.97558 13.5527 9.25179C13.4381 9.46064 13.3101 9.66051 13.1642 9.8469C13.2607 9.55496 13.1799 9.25853 12.9216 8.96659C12.9171 8.95761 12.9037 8.95761 12.8992 8.96659C12.8992 8.96659 12.8992 8.96659 12.8992 8.96884C12.5331 9.37755 12.5197 9.79525 12.8588 10.2062C12.6611 10.4151 12.4411 10.6059 12.203 10.7789C12.4029 10.4959 12.4074 10.159 12.212 9.77504C12.212 9.77055 12.2075 9.76606 12.2008 9.76381C12.1963 9.76156 12.1918 9.76381 12.1873 9.7683C11.6977 10.0917 11.5697 10.5184 11.8055 11.0371C11.709 11.0932 11.6079 11.1471 11.5046 11.1988C11.3362 11.2819 11.161 11.356 10.9791 11.4211C11.2868 11.1966 11.4058 10.8485 11.3339 10.3814C11.3339 10.3769 11.3317 10.3701 11.3272 10.3679C11.3227 10.3657 11.316 10.3657 11.3115 10.3679C11.3115 10.3679 11.3115 10.3679 11.3092 10.3679C10.6894 10.5408 10.4155 10.9428 10.4963 11.5693C10.1774 11.6502 9.83383 11.7108 9.46105 11.7467C9.08827 11.7108 8.74693 11.6524 8.42579 11.5693C8.50664 10.9428 8.23267 10.5408 7.61061 10.3679C7.60612 10.3657 7.59939 10.3657 7.59489 10.3679C7.5904 10.3701 7.58816 10.3769 7.58816 10.3814C7.58816 10.3814 7.58816 10.3814 7.58816 10.3836C7.51629 10.8507 7.63532 11.1966 7.94297 11.4211C7.76107 11.356 7.58591 11.2819 7.41748 11.1988C7.31418 11.1471 7.21537 11.0932 7.11656 11.0371C7.35236 10.5184 7.22436 10.0917 6.73255 9.7683C6.73031 9.76381 6.72357 9.76381 6.71908 9.76381C6.71459 9.76606 6.7101 9.7683 6.7101 9.77504C6.7101 9.77504 6.7101 9.77504 6.7101 9.77728C6.51697 10.1635 6.52146 10.4981 6.72132 10.7811C6.48328 10.6082 6.26321 10.4173 6.06559 10.2085C6.40468 9.79525 6.38896 9.3798 6.02292 8.96884C6.01843 8.95986 6.00495 8.95986 6.00046 8.96884C6.00046 8.96884 6.00046 8.96884 6.00046 8.97109C5.74221 9.26302 5.66361 9.55721 5.75793 9.84914C5.61196 9.66051 5.48396 9.46289 5.36943 9.25404C5.73547 8.97782 5.80958 8.62301 5.58726 8.20082C5.58726 8.19633 5.58277 8.19408 5.57827 8.19184C5.57378 8.19184 5.56929 8.19184 5.56705 8.19633C5.30206 8.37823 5.17181 8.59606 5.17405 8.84757C5.14261 8.77347 5.11342 8.69936 5.08647 8.62525C5.03033 8.46581 4.98093 8.29963 4.9405 8.1312C5.29083 8.01218 5.44353 7.75393 5.38964 7.36318C5.38964 7.35869 5.38739 7.35644 5.38515 7.3542C5.3829 7.35195 5.37841 7.35195 5.37616 7.3542C5.10668 7.42381 4.93826 7.56529 4.87089 7.77189C4.83496 7.54283 4.81699 7.31378 4.81474 7.08472C5.19202 7.02633 5.38964 6.79502 5.39862 6.39529C5.39862 6.39305 5.39862 6.38856 5.39638 6.38631C5.39413 6.38407 5.38964 6.38407 5.38739 6.38407C5.11791 6.41101 4.93152 6.51656 4.83046 6.70295C4.84618 6.48737 4.87762 6.27403 4.92254 6.06293C4.9405 6.06293 4.95622 6.06518 4.97194 6.06518C5.26388 6.06518 5.45252 5.90798 5.53112 5.59359C5.53336 5.59134 5.53336 5.58685 5.53112 5.5846C5.52887 5.58236 5.52662 5.58011 5.52438 5.58236C5.30206 5.55316 5.12914 5.60257 5.01012 5.72608C5.06177 5.54867 5.12465 5.37351 5.19651 5.20508C5.26613 5.2253 5.33125 5.23428 5.39413 5.23428C5.60522 5.23428 5.7714 5.1175 5.89267 4.88395C5.89492 4.88171 5.89492 4.87722 5.89492 4.87497C5.89492 4.87272 5.89042 4.87048 5.88818 4.87048C5.67035 4.78963 5.48845 4.80086 5.34023 4.90192C5.42781 4.729 5.52887 4.56058 5.63666 4.39889C5.722 4.44155 5.80509 4.46177 5.88369 4.46177C6.03639 4.46177 6.17563 4.38317 6.29689 4.22372C6.29914 4.22148 6.29914 4.21923 6.29914 4.21699C6.29914 4.21474 6.29689 4.2125 6.29465 4.2125C6.12173 4.10919 5.96453 4.08898 5.82081 4.14513C5.92411 4.01263 6.03415 3.88687 6.15092 3.76561C6.25422 3.83073 6.35303 3.86442 6.4496 3.86442C6.58658 3.86442 6.71683 3.79929 6.84035 3.6668C6.84259 3.66455 6.84484 3.6623 6.84259 3.66006C6.84259 3.65781 6.84035 3.65557 6.8381 3.65332C6.6809 3.53655 6.53044 3.49837 6.38672 3.53655C6.50125 3.43325 6.62251 3.33444 6.74827 3.24236C6.7595 3.23563 6.76624 3.2244 6.77073 3.21317C7.04919 3.20194 7.21537 3.04923 7.26702 2.75281C7.26927 2.75056 7.26702 2.74831 7.26702 2.74607C7.26478 2.74382 7.26253 2.74382 7.26029 2.74382C6.95937 2.72586 6.77298 2.85611 6.69887 3.12559C6.68989 3.12783 6.6809 3.13008 6.67192 3.13682C6.53269 3.23787 6.40019 3.34791 6.27444 3.46244C6.3171 3.30749 6.27219 3.14804 6.13969 2.9886C6.13969 2.98636 6.1352 2.98411 6.13296 2.98411C6.13071 2.98411 6.12847 2.98636 6.12622 2.9886C5.91737 3.20868 5.89492 3.43774 6.0611 3.67129C5.93758 3.79705 5.82305 3.93179 5.71526 4.06877C5.73772 3.91382 5.67709 3.76111 5.53112 3.61739C5.52887 3.61515 5.52662 3.6129 5.52438 3.6129C5.52213 3.6129 5.51989 3.61515 5.51764 3.61739C5.32676 3.86217 5.3335 4.09797 5.53112 4.31804C5.41883 4.48422 5.31553 4.65714 5.2257 4.83455C5.22346 4.65489 5.12689 4.49994 4.93601 4.36745C4.93377 4.3652 4.93152 4.3652 4.92703 4.3652C4.92478 4.3652 4.92254 4.36745 4.92254 4.37194C4.76085 4.6796 4.81474 4.93785 5.08198 5.13996C5.00338 5.32635 4.93601 5.51723 4.87987 5.71261C4.84169 5.53071 4.71144 5.39597 4.48688 5.31063C4.48463 5.30839 4.48014 5.30839 4.47789 5.31063C4.47565 5.31288 4.4734 5.31512 4.4734 5.31737C4.38807 5.65197 4.4981 5.89002 4.79903 6.027C4.74962 6.25382 4.71818 6.48512 4.70246 6.71867C4.61488 6.51207 4.43073 6.38856 4.14778 6.34589C4.14553 6.34364 4.14104 6.34589 4.1388 6.34813C4.13655 6.35038 4.1343 6.35487 4.13655 6.35712C4.12532 6.75909 4.31396 6.99938 4.69348 7.07573C4.69572 7.31153 4.71369 7.54733 4.75187 7.78537C4.63509 7.60571 4.43972 7.51589 4.16799 7.51589C4.1635 7.51589 4.15676 7.51589 4.15227 7.51589C4.14778 7.51589 4.14553 7.51589 4.14329 7.51813C4.14104 7.52038 4.14104 7.52487 4.14104 7.52712C4.19494 7.93358 4.424 8.14018 4.82373 8.14917C4.86415 8.32433 4.9158 8.495 4.97419 8.66118C5.01012 8.76448 5.05279 8.86554 5.09545 8.96659C4.88212 8.77796 4.60814 8.74427 4.27578 8.87003C4.27129 8.87003 4.26905 8.87452 4.2668 8.87677C4.26455 8.88126 4.2668 8.88575 4.26905 8.888C4.43298 9.20464 4.66204 9.36408 4.94949 9.36408C5.0483 9.36408 5.1516 9.34611 5.26388 9.30794C5.38739 9.53475 5.53112 9.75258 5.69056 9.95694C5.40087 9.80648 5.08872 9.8469 4.75411 10.0782C4.74962 10.0805 4.74737 10.0849 4.74513 10.0894C4.74513 10.0939 4.74737 10.0984 4.74962 10.1007C4.74962 10.1007 4.74962 10.1007 4.75187 10.1007C4.96521 10.3432 5.19651 10.4645 5.44129 10.4645C5.61196 10.4645 5.78937 10.4061 5.97351 10.2871C6.18012 10.5049 6.40918 10.7047 6.65845 10.8844C6.31935 10.8103 6.0072 10.9383 5.72649 11.2684C5.722 11.2707 5.71975 11.2774 5.722 11.2819C5.722 11.2864 5.72649 11.2909 5.73098 11.2931C5.73098 11.2931 5.73098 11.2931 5.73323 11.2931C5.94657 11.4346 6.15092 11.5042 6.34405 11.5042C6.59781 11.5042 6.83585 11.3829 7.05369 11.1427C7.15474 11.201 7.26029 11.2594 7.36583 11.3111C7.54324 11.3987 7.72739 11.4773 7.91827 11.5446C7.53651 11.5761 7.2513 11.8119 7.0694 12.252C7.06716 12.2565 7.06491 12.2632 7.06716 12.2677C7.06941 12.2722 7.0739 12.2745 7.07839 12.2745H7.08063C7.22436 12.3149 7.35685 12.3351 7.48036 12.3351C7.88683 12.3351 8.19224 12.1195 8.38762 11.6906C8.54032 11.7288 8.69752 11.7625 8.86146 11.7917C8.84349 11.8029 8.83226 11.8253 8.83451 11.8478C8.83675 11.8837 8.8637 11.9107 8.89963 11.9107H8.90188C9.09725 11.9039 9.28364 11.8905 9.4633 11.8725C9.64295 11.8905 9.82934 11.9017 10.0247 11.9107H10.027C10.0629 11.9107 10.0898 11.8837 10.0921 11.8478C10.0921 11.8253 10.0809 11.8051 10.0651 11.7917C10.2291 11.7625 10.3863 11.7288 10.539 11.6906C10.7366 12.1195 11.0398 12.3351 11.4462 12.3351C11.572 12.3351 11.7045 12.3149 11.8482 12.2745C11.8527 12.2745 11.8594 12.27 11.8617 12.2655C11.8639 12.261 11.8639 12.2543 11.8594 12.2498C11.8594 12.2498 11.8594 12.2498 11.8572 12.2475C11.6753 11.8096 11.3901 11.5738 11.0106 11.5424C11.2015 11.475 11.3856 11.3964 11.563 11.3088C11.6708 11.2549 11.7741 11.1988 11.8752 11.1404C12.093 11.3807 12.331 11.502 12.5848 11.502C12.7802 11.502 12.9845 11.4301 13.1979 11.2886C13.2023 11.2864 13.2068 11.2819 13.2068 11.2774C13.2068 11.2729 13.2046 11.2684 13.2001 11.2639C13.2001 11.2639 13.2001 11.2639 13.1979 11.2639C12.9171 10.9361 12.6072 10.808 12.2681 10.8822C12.5174 10.7025 12.7442 10.5026 12.9531 10.2848C13.1372 10.4016 13.3146 10.4622 13.4853 10.4622C13.7301 10.4622 13.9614 10.3409 14.177 10.0984C14.1815 10.0962 14.1837 10.0917 14.1815 10.0872C14.1815 10.0827 14.177 10.0782 14.1725 10.0782C14.1725 10.0782 14.1725 10.0782 14.1702 10.0782C13.8379 9.8469 13.5235 9.80872 13.236 9.95694C13.3955 9.75258 13.5392 9.537 13.6627 9.30794C13.775 9.34611 13.8805 9.36408 13.9771 9.36408C14.2646 9.36408 14.4936 9.20464 14.6575 8.888C14.6598 8.88575 14.662 8.88126 14.6598 8.87677C14.6575 8.87228 14.6553 8.87003 14.6508 8.87003C14.6508 8.87003 14.6508 8.87003 14.6486 8.87003C14.3162 8.74427 14.0422 8.77796 13.8289 8.96659C13.8738 8.86554 13.9142 8.76448 13.9502 8.66118C14.0085 8.495 14.0602 8.32433 14.1006 8.14917C14.5004 8.14243 14.7294 7.93358 14.7833 7.52712C14.7856 7.52487 14.7833 7.52038 14.7811 7.51813C14.7788 7.51589 14.7743 7.51364 14.7721 7.51589C14.7676 7.51589 14.7608 7.51589 14.7564 7.51589C14.4846 7.51589 14.2915 7.60796 14.1725 7.78537C14.2107 7.54957 14.2286 7.31153 14.2309 7.07573C14.6194 7.00836 14.8058 6.76808 14.7945 6.36385Z" fill="white"/>
<path d="M2.825 2.31012C2.44549 2.31012 1.97614 1.67459 1.97614 1.15584C1.97614 1.09296 1.92449 1.03906 1.85936 1.03906C1.79648 1.03906 1.74259 1.09071 1.74259 1.15584C1.74259 1.67234 1.27549 2.31012 0.893722 2.31012C0.830843 2.31012 0.776947 2.36177 0.776947 2.42689C0.776947 2.48977 0.828598 2.54367 0.893722 2.54367C1.27324 2.54367 1.74259 3.17919 1.74259 3.69794C1.74259 3.76082 1.79424 3.81472 1.85936 3.81472C1.92224 3.81472 1.97614 3.76307 1.97614 3.69794C1.97614 3.18144 2.44324 2.54367 2.825 2.54367C2.88788 2.54367 2.94178 2.49202 2.94178 2.42689C2.94178 2.36177 2.89013 2.31012 2.825 2.31012Z" fill="#EDCB3A"/>
<path d="M16.582 13.5829C16.207 13.5829 15.7466 12.9563 15.7466 12.4466C15.7466 12.3837 15.695 12.332 15.6321 12.332C15.5692 12.332 15.5176 12.3837 15.5176 12.4466C15.5176 12.9563 15.0572 13.5829 14.6822 13.5829C14.6193 13.5829 14.5677 13.6345 14.5677 13.6974C14.5677 13.7603 14.6193 13.8119 14.6822 13.8119C15.0572 13.8119 15.5176 14.4385 15.5176 14.9482C15.5176 15.0111 15.5692 15.0628 15.6321 15.0628C15.695 15.0628 15.7466 15.0111 15.7466 14.9482C15.7466 14.4385 16.207 13.8119 16.582 13.8119C16.6449 13.8119 16.6966 13.7603 16.6966 13.6974C16.6966 13.6345 16.6449 13.5829 16.582 13.5829Z" fill="#EDCB3A"/>
<path d="M1.51578 5.55031C1.23283 5.55031 0.886994 5.07872 0.886994 4.69471C0.886994 4.64755 0.848818 4.60938 0.801658 4.60938C0.754499 4.60938 0.716323 4.64755 0.716323 4.69471C0.716323 5.07872 0.368243 5.55031 0.087533 5.55031C0.0403738 5.55031 0.00219727 5.58849 0.00219727 5.63565C0.00219727 5.68281 0.0403738 5.72099 0.087533 5.72099C0.370488 5.72099 0.716323 6.19258 0.716323 6.57659C0.716323 6.62375 0.754499 6.66192 0.801658 6.66192C0.848818 6.66192 0.886994 6.62375 0.886994 6.57659C0.886994 6.19258 1.23507 5.72099 1.51578 5.72099C1.56294 5.72099 1.60112 5.68281 1.60112 5.63565C1.60112 5.58849 1.56519 5.55031 1.51578 5.55031Z" fill="#EDCB3A"/>
<path d="M17.9721 10.5447C17.6936 10.5447 17.3523 10.0798 17.3523 9.70252C17.3523 9.65536 17.3141 9.61719 17.2669 9.61719C17.2198 9.61719 17.1816 9.65536 17.1816 9.70252C17.1816 10.0798 16.8403 10.5447 16.5618 10.5447C16.5146 10.5447 16.4765 10.5828 16.4765 10.63C16.4765 10.6771 16.5146 10.7153 16.5618 10.7153C16.8403 10.7153 17.1816 11.1802 17.1816 11.5575C17.1816 11.6046 17.2198 11.6428 17.2669 11.6428C17.3141 11.6428 17.3523 11.6046 17.3523 11.5575C17.3523 11.1802 17.6936 10.7153 17.9721 10.7153C18.0193 10.7153 18.0574 10.6771 18.0574 10.63C18.0552 10.5828 18.0193 10.5447 17.9721 10.5447Z" fill="#EDCB3A"/>
<path opacity="0.1" d="M12.953 0.911745L6.27214 13.4786C6.14189 13.4494 6.01164 13.4022 5.89037 13.3326C5.51085 13.1125 5.302 12.7263 5.11786 12.3849C5.00333 12.1738 4.89554 11.9717 4.76529 11.8437C4.63504 11.7135 4.43517 11.6057 4.22408 11.4911C3.88274 11.307 3.49648 11.0981 3.2764 10.7186C3.06082 10.3436 3.0698 9.90793 3.08103 9.52392C3.08777 9.27914 3.09226 9.05008 3.0451 8.86593C3.00019 8.69751 2.88341 8.50663 2.7599 8.30451C2.5533 7.97215 2.32199 7.59488 2.32199 7.14575C2.32199 6.69661 2.5533 6.31934 2.7599 5.98698C2.88341 5.78711 3.00019 5.59623 3.0451 5.42556C3.0945 5.24366 3.08777 5.01235 3.08103 4.76757C3.07205 4.38356 3.06082 3.94566 3.2764 3.57287C3.49648 3.19335 3.88274 2.9845 4.22408 2.80036C4.43517 2.68583 4.63728 2.57804 4.76529 2.44779C4.89554 2.31754 5.00333 2.11767 5.11786 1.90658C5.302 1.56524 5.51085 1.17898 5.89037 0.958904C6.2654 0.741073 6.70106 0.752302 7.08507 0.76353C7.32985 0.770267 7.55891 0.774759 7.74306 0.727599C7.91148 0.682686 8.10236 0.565911 8.30447 0.442398C8.63684 0.23355 9.01411 0 9.46324 0C9.91238 0 10.2897 0.23355 10.622 0.437907C10.8219 0.561419 11.0128 0.678195 11.1834 0.723108C11.3653 0.772513 11.5966 0.765776 11.8392 0.759039C12.1962 0.752302 12.5982 0.741073 12.953 0.911745Z" fill="white"/>
<path d="M9.55754 8.66781C9.42505 8.66781 9.28582 8.58023 9.28582 8.41405C9.28582 7.98512 9.30378 7.00601 9.30378 6.39968C9.30378 5.75517 9.28132 5.70576 9.12413 5.70576C9.11065 5.70576 9.09718 5.70576 9.0837 5.70576C9.07472 5.70576 9.07023 5.70576 9.06125 5.70576C8.90405 5.70576 8.8277 5.58674 8.8277 5.46098C8.8277 5.32849 8.91079 5.19375 9.06798 5.18027C9.16006 5.17578 9.19599 5.17578 9.29255 5.17578C9.60919 5.17578 9.8113 5.36442 9.82702 5.66758C9.83152 5.72822 9.83152 5.81131 9.83152 5.91236C9.83152 6.28065 9.81804 6.89597 9.81804 7.55395C9.81804 7.83915 9.81804 8.12885 9.82702 8.41405C9.82702 8.41854 9.82702 8.41854 9.82702 8.42303C9.82478 8.58472 9.69228 8.66781 9.55754 8.66781Z" fill="white" stroke="white" stroke-width="0.141556" stroke-miterlimit="10"/>
</g>
<defs>
<clipPath id="clip0_855_11320">
<rect width="18.0552" height="20" fill="white"/>
</clipPath>
</defs>
</svg>
