<svg width="19" height="20" viewBox="0 0 19 20" fill="none" xmlns="http://www.w3.org/2000/svg">
<g clip-path="url(#clip0_855_11097)">
<path d="M7.48482 19.9544L6.07229 18.6564L4.1994 19.0764C4.08038 19.1033 3.97708 18.991 4.00851 18.872L5.6546 12.7031L9.39814 13.7025L7.7543 19.8713C7.72062 19.9926 7.5769 20.0375 7.48482 19.9544Z" fill="#E57373"/>
<path d="M11.1835 19.9561L12.596 18.6581L14.4689 19.0803C14.5879 19.1072 14.6912 18.9949 14.6598 18.8759L13.0137 12.707L9.27014 13.7064L10.9162 19.873C10.9477 19.9943 11.0936 20.0392 11.1835 19.9561Z" fill="#E57373"/>
<path d="M16.4788 7.1435C16.4788 7.59263 16.2452 7.96991 16.0409 8.30227C15.9174 8.50213 15.8006 8.69302 15.7534 8.86369C15.704 9.04559 15.7107 9.27689 15.7175 9.52167C15.7265 9.90568 15.7377 10.3436 15.5221 10.7164C15.302 11.0959 14.9158 11.3047 14.5744 11.4889C14.3611 11.6034 14.1612 11.7112 14.0332 11.8415C13.903 11.9717 13.7952 12.1716 13.6807 12.3827C13.4965 12.724 13.2877 13.1103 12.9081 13.3303C12.5331 13.5459 12.0975 13.5347 11.7112 13.5257C11.4664 13.519 11.2374 13.5145 11.0532 13.5616C10.8825 13.6066 10.6939 13.7233 10.4918 13.8491C10.1594 14.0534 9.78216 14.287 9.33303 14.287C8.88389 14.287 8.50662 14.0534 8.17426 13.8491C7.97215 13.7256 7.78351 13.6088 7.61284 13.5616C7.43094 13.5122 7.19963 13.519 6.9571 13.5257C6.57309 13.5369 6.13518 13.5482 5.7624 13.3303C5.38288 13.1103 5.17403 12.724 4.98989 12.3827C4.87536 12.1716 4.76756 11.9695 4.63731 11.8415C4.50707 11.7112 4.3072 11.6034 4.09611 11.4889C3.75476 11.3047 3.36851 11.0959 3.14843 10.7164C2.93285 10.3413 2.94183 9.90568 2.95306 9.52167C2.95979 9.27689 2.96429 9.04783 2.91713 8.86369C2.87221 8.69526 2.75544 8.50438 2.62968 8.30227C2.42308 7.96991 2.19177 7.59263 2.19177 7.1435C2.19177 6.69436 2.42308 6.31709 2.62968 5.98473C2.75319 5.78486 2.86997 5.59398 2.91713 5.42331C2.96653 5.24141 2.95979 5.01011 2.95306 4.76533C2.94407 4.38132 2.93285 3.94341 3.14843 3.57063C3.36851 3.19111 3.75476 2.98226 4.09611 2.79811C4.3072 2.68358 4.50931 2.57579 4.63731 2.44554C4.76756 2.31529 4.87536 2.11543 4.98989 1.90433C5.17403 1.56299 5.38288 1.17673 5.7624 0.956658C6.13743 0.738828 6.57309 0.750056 6.9571 0.761285C7.20188 0.768022 7.43094 0.772513 7.61508 0.725354C7.78575 0.68044 7.97439 0.563665 8.1765 0.437907C8.50886 0.23355 8.88614 0 9.33527 0C9.78441 0 10.1617 0.23355 10.494 0.437907C10.6939 0.561419 10.8848 0.678194 11.0555 0.725354C11.2374 0.774759 11.4687 0.768022 11.7134 0.761285C12.0975 0.752302 12.5354 0.738828 12.9104 0.956658C13.2899 1.17673 13.4988 1.56299 13.6829 1.90433C13.7974 2.11543 13.9052 2.31754 14.0355 2.44554C14.1657 2.57579 14.3656 2.68358 14.5767 2.79811C14.918 2.98226 15.3043 3.19111 15.5244 3.57063C15.7422 3.94565 15.731 4.38132 15.7197 4.76533C15.713 5.01011 15.7063 5.23916 15.7557 5.42331C15.8006 5.59398 15.9174 5.78262 16.0431 5.98473C16.2452 6.31709 16.4788 6.69436 16.4788 7.1435Z" fill="#BB7E53"/>
<path d="M14.6665 6.36219C14.6665 6.35995 14.6665 6.35546 14.6642 6.35321C14.662 6.35097 14.6575 6.35096 14.6553 6.35096C14.3746 6.39139 14.1904 6.51715 14.1028 6.72375C14.0871 6.4902 14.0557 6.25889 14.0063 6.03208C14.3094 5.89509 14.4195 5.65705 14.3319 5.32245C14.3319 5.3202 14.3296 5.31571 14.3274 5.31571C14.3252 5.31346 14.3207 5.31571 14.3184 5.31571C14.0961 5.40104 13.9658 5.53578 13.9277 5.71768C13.8715 5.52231 13.8064 5.33143 13.7256 5.14504C13.9928 4.94293 14.0467 4.68467 13.885 4.37477C13.885 4.37252 13.8828 4.37028 13.8783 4.36803C13.876 4.36803 13.8715 4.36803 13.8715 4.37028C13.6806 4.50053 13.5841 4.65772 13.5841 4.83513C13.4943 4.65772 13.3909 4.48481 13.2787 4.31863C13.4785 4.09855 13.483 3.86276 13.2921 3.61798C13.2921 3.61573 13.2876 3.61348 13.2854 3.61348C13.2832 3.61348 13.2809 3.61573 13.2787 3.61798C13.1327 3.7617 13.0721 3.91216 13.0968 4.06711C12.989 3.92788 12.8744 3.79538 12.7509 3.66963C12.9149 3.43608 12.8947 3.20702 12.6836 2.98694C12.6813 2.9847 12.6791 2.98245 12.6768 2.98245C12.6746 2.98245 12.6723 2.9847 12.6701 2.98694C12.5376 3.14638 12.4927 3.30583 12.5353 3.46078C12.4096 3.34625 12.2771 3.23621 12.1379 3.13516C12.1289 3.12842 12.1221 3.12617 12.1109 3.12393C12.0368 2.85445 11.8504 2.7242 11.5495 2.74216C11.5472 2.74216 11.545 2.74216 11.5428 2.74441C11.5405 2.74665 11.5405 2.7489 11.5428 2.75114C11.5944 3.04533 11.7628 3.19803 12.0391 3.20926C12.0435 3.22049 12.0503 3.22947 12.0615 3.23846C12.1873 3.33053 12.3085 3.42934 12.4231 3.53264C12.2793 3.49446 12.1266 3.53264 11.9694 3.64942C11.9672 3.64942 11.9649 3.65391 11.9649 3.65615C11.9649 3.6584 11.9649 3.66064 11.9694 3.66289C12.0929 3.79314 12.2232 3.86051 12.3602 3.86051C12.4567 3.86051 12.5556 3.82682 12.6589 3.7617C12.7756 3.88297 12.8857 4.00872 12.989 4.14122C12.8453 4.08283 12.6881 4.10529 12.5151 4.20859C12.5129 4.20859 12.5106 4.21083 12.5106 4.21533C12.5106 4.21757 12.5106 4.21982 12.5129 4.22206C12.6342 4.37926 12.7711 4.45786 12.9238 4.45786C13.0024 4.45786 13.0855 4.43765 13.1709 4.39498C13.2809 4.55667 13.3797 4.7251 13.4673 4.89801C13.3191 4.79471 13.1349 4.78348 12.9171 4.86657C12.9149 4.86657 12.9104 4.86882 12.9104 4.87106C12.9104 4.87331 12.9104 4.8778 12.9126 4.88005C13.0339 5.11135 13.2001 5.22813 13.4089 5.22813C13.4718 5.22813 13.5369 5.2169 13.6065 5.19893C13.6784 5.3696 13.7413 5.54252 13.7929 5.72218C13.6717 5.59642 13.501 5.54926 13.2764 5.57845C13.2742 5.57845 13.2697 5.57845 13.2697 5.58294C13.2674 5.58519 13.2674 5.58968 13.2697 5.59193C13.3483 5.90408 13.5369 6.06127 13.8289 6.06127C13.8446 6.06127 13.8625 6.06127 13.8783 6.05903C13.9232 6.27012 13.9546 6.48346 13.9703 6.69904C13.8693 6.51265 13.6829 6.40711 13.4112 6.38016C13.4089 6.37791 13.4044 6.38016 13.4022 6.38241C13.3999 6.38465 13.3977 6.38914 13.3999 6.39139C13.4089 6.79112 13.6043 7.02242 13.9838 7.08081C13.9816 7.30987 13.9636 7.53893 13.9277 7.76799C13.8603 7.56139 13.6919 7.41991 13.4201 7.35029C13.4179 7.34805 13.4134 7.34805 13.4112 7.35029C13.4089 7.35254 13.4067 7.35478 13.4067 7.35927C13.3528 7.74778 13.5055 8.00603 13.8558 8.12505C13.8154 8.29348 13.766 8.45966 13.7098 8.6191C13.6829 8.69545 13.6537 8.76956 13.6223 8.84142C13.6245 8.58991 13.4943 8.37207 13.227 8.19018C13.2248 8.18793 13.2203 8.18568 13.2158 8.18568C13.2113 8.18568 13.2091 8.19017 13.2091 8.19467C13.2091 8.19467 13.2091 8.19467 13.2091 8.19691C12.989 8.6191 13.0631 8.97167 13.4269 9.24789C13.3124 9.45674 13.1843 9.6566 13.0384 9.84299C13.1349 9.55105 13.0541 9.25463 12.7958 8.96269C12.7914 8.9537 12.7779 8.9537 12.7734 8.96269C12.7734 8.96269 12.7734 8.96269 12.7734 8.96493C12.4073 9.37365 12.3939 9.79134 12.733 10.2023C12.5353 10.4111 12.3153 10.602 12.0772 10.7749C12.2771 10.492 12.2816 10.1551 12.0862 9.77113C12.0862 9.76664 12.0817 9.76215 12.075 9.7599C12.0705 9.75766 12.066 9.7599 12.0615 9.76439C11.572 10.0878 11.4439 10.5145 11.6797 11.0332C11.5832 11.0893 11.4821 11.1432 11.3788 11.1949C11.2104 11.278 11.0352 11.3521 10.8533 11.4172C11.161 11.1926 11.28 10.8446 11.2082 10.3775C11.2082 10.373 11.2059 10.3662 11.2014 10.364C11.1969 10.3617 11.1902 10.3617 11.1857 10.364C11.1857 10.364 11.1857 10.364 11.1834 10.364C10.5636 10.5369 10.2897 10.9389 10.3705 11.5654C10.0516 11.6463 9.70804 11.7069 9.33526 11.7428C8.96248 11.7069 8.62113 11.6485 8.3 11.5654C8.38084 10.9389 8.10687 10.5369 7.48482 10.364C7.48033 10.3617 7.47359 10.3617 7.4691 10.364C7.46461 10.3662 7.46236 10.373 7.46236 10.3775C7.46236 10.3775 7.46236 10.3775 7.46236 10.3797C7.3905 10.8468 7.50952 11.1926 7.81718 11.4172C7.63528 11.3521 7.46012 11.278 7.29169 11.1949C7.18839 11.1432 7.08958 11.0893 6.99077 11.0332C7.22657 10.5145 7.09856 10.0878 6.60676 9.76439C6.60451 9.7599 6.59778 9.7599 6.59329 9.7599C6.58879 9.76215 6.5843 9.76439 6.5843 9.77113C6.5843 9.77113 6.5843 9.77113 6.5843 9.77338C6.39117 10.1596 6.39567 10.4942 6.59553 10.7772C6.35749 10.6043 6.13741 10.4134 5.93979 10.2045C6.27889 9.79134 6.26317 9.37589 5.89713 8.96493C5.89263 8.95595 5.87916 8.95595 5.87467 8.96493C5.87467 8.96493 5.87467 8.96493 5.87467 8.96718C5.61642 9.25912 5.53782 9.5533 5.63214 9.84524C5.48617 9.6566 5.35816 9.45898 5.24363 9.25013C5.60968 8.97392 5.68379 8.6191 5.46146 8.19691C5.46146 8.19242 5.45697 8.19018 5.45248 8.18793C5.44799 8.18793 5.4435 8.18793 5.44125 8.19242C5.17626 8.37432 5.04601 8.59215 5.04826 8.84367C5.01682 8.76956 4.98763 8.69545 4.96068 8.62134C4.90454 8.4619 4.85513 8.29572 4.81471 8.1273C5.16503 8.00827 5.31774 7.75002 5.26384 7.35927C5.26384 7.35478 5.2616 7.35254 5.25935 7.35029C5.25711 7.34805 5.25262 7.34805 5.25037 7.35029C4.98089 7.41991 4.81246 7.56139 4.74509 7.76799C4.70916 7.53893 4.6912 7.30987 4.68895 7.08081C5.06623 7.02242 5.26384 6.79112 5.27283 6.39139C5.27283 6.38914 5.27283 6.38465 5.27058 6.38241C5.26834 6.38016 5.26384 6.38016 5.2616 6.38016C4.99212 6.40711 4.80573 6.51265 4.70467 6.69904C4.72039 6.48346 4.75183 6.27012 4.79674 6.05903C4.81471 6.05903 4.83043 6.06127 4.84615 6.06127C5.13809 6.06127 5.32672 5.90408 5.40532 5.58968C5.40757 5.58743 5.40757 5.58294 5.40532 5.5807C5.40308 5.57845 5.40083 5.57621 5.39859 5.57845C5.17626 5.54926 5.00335 5.59866 4.88433 5.72218C4.93598 5.54477 4.99885 5.3696 5.07072 5.20118C5.14033 5.22139 5.20546 5.23037 5.26834 5.23037C5.47943 5.23037 5.64561 5.1136 5.76688 4.88005C5.76912 4.8778 5.76912 4.87331 5.76912 4.87106C5.76912 4.86882 5.76463 4.86657 5.76238 4.86657C5.54455 4.78573 5.36265 4.79696 5.21444 4.89801C5.30202 4.7251 5.40308 4.55667 5.51087 4.39498C5.5962 4.43765 5.67929 4.45786 5.75789 4.45786C5.9106 4.45786 6.04983 4.37926 6.1711 4.21982C6.17334 4.21757 6.17334 4.21533 6.17334 4.21308C6.17334 4.21084 6.1711 4.20859 6.16885 4.20859C5.99594 4.10529 5.83874 4.08508 5.69501 4.14122C5.79832 4.00872 5.90835 3.88297 6.02513 3.7617C6.12843 3.82682 6.22724 3.86051 6.3238 3.86051C6.46079 3.86051 6.59104 3.79538 6.71455 3.66289C6.7168 3.66064 6.71904 3.6584 6.7168 3.65615C6.7168 3.65391 6.71455 3.65166 6.71231 3.64942C6.55511 3.53264 6.40465 3.49446 6.26092 3.53264C6.37545 3.42934 6.49672 3.33053 6.62248 3.23846C6.63371 3.23172 6.64044 3.22049 6.64494 3.20926C6.9234 3.19803 7.08958 3.04533 7.14123 2.7489C7.14348 2.74665 7.14123 2.74441 7.14123 2.74216C7.13898 2.73992 7.13674 2.73992 7.13449 2.73992C6.83357 2.72195 6.64718 2.8522 6.57307 3.12168C6.56409 3.12393 6.55511 3.12617 6.54613 3.13291C6.40689 3.23397 6.2744 3.344 6.14864 3.45853C6.19131 3.30358 6.1464 3.14414 6.0139 2.9847C6.0139 2.98245 6.00941 2.9802 6.00716 2.9802C6.00492 2.9802 6.00267 2.98245 6.00043 2.9847C5.79158 3.20477 5.76912 3.43383 5.9353 3.66738C5.81179 3.79314 5.69726 3.92788 5.58947 4.06487C5.61192 3.90991 5.55129 3.75721 5.40532 3.61348C5.40308 3.61124 5.40083 3.60899 5.39859 3.60899C5.39634 3.60899 5.39409 3.61124 5.39185 3.61348C5.20097 3.85826 5.2077 4.09406 5.40532 4.31414C5.29304 4.48032 5.18974 4.65323 5.09991 4.83064C5.09766 4.65099 5.0011 4.49604 4.81022 4.36354C4.80797 4.3613 4.80573 4.3613 4.80124 4.3613C4.79899 4.3613 4.79674 4.36354 4.79674 4.36803C4.63506 4.67569 4.68895 4.93394 4.95619 5.13605C4.87759 5.32244 4.81022 5.51333 4.75408 5.7087C4.7159 5.5268 4.58565 5.39206 4.36108 5.30673C4.35884 5.30448 4.35435 5.30448 4.3521 5.30673C4.34985 5.30897 4.34761 5.31122 4.34761 5.31346C4.26227 5.64807 4.37231 5.88611 4.67323 6.0231C4.62383 6.24991 4.59239 6.48121 4.57667 6.71476C4.48909 6.50816 4.30494 6.38465 4.02199 6.34198C4.01974 6.33974 4.01525 6.34198 4.013 6.34423C4.01076 6.34647 4.00851 6.35097 4.01076 6.35321C3.99953 6.75519 4.18817 6.99547 4.56768 7.07183C4.56993 7.30762 4.5879 7.54342 4.62607 7.78146C4.5093 7.60181 4.31392 7.51198 4.0422 7.51198C4.0377 7.51198 4.03097 7.51198 4.02648 7.51198C4.02199 7.51198 4.01974 7.51198 4.01749 7.51423C4.01525 7.51647 4.01525 7.52096 4.01525 7.52321C4.06914 7.92968 4.2982 8.13628 4.69793 8.14526C4.73836 8.32042 4.79001 8.4911 4.84839 8.65728C4.88433 8.76058 4.92699 8.86163 4.96966 8.96269C4.75632 8.77405 4.48235 8.74037 4.14999 8.86612C4.1455 8.86612 4.14325 8.87062 4.14101 8.87286C4.13876 8.87735 4.14101 8.88184 4.14325 8.88409C4.30719 9.20073 4.53625 9.36017 4.82369 9.36017C4.9225 9.36017 5.0258 9.34221 5.13809 9.30403C5.2616 9.53084 5.40532 9.74867 5.56477 9.95303C5.27507 9.80257 4.96292 9.84299 4.62832 10.0743C4.62383 10.0765 4.62158 10.081 4.61934 10.0855C4.61934 10.09 4.62158 10.0945 4.62383 10.0968C4.62383 10.0968 4.62383 10.0968 4.62607 10.0968C4.83941 10.3393 5.07072 10.4606 5.3155 10.4606C5.48617 10.4606 5.66357 10.4022 5.84772 10.2831C6.05432 10.501 6.28338 10.7008 6.53265 10.8805C6.19355 10.8064 5.88141 10.9344 5.6007 11.2645C5.5962 11.2668 5.59396 11.2735 5.5962 11.278C5.5962 11.2825 5.6007 11.287 5.60519 11.2892C5.60519 11.2892 5.60519 11.2892 5.60743 11.2892C5.82077 11.4307 6.02513 11.5003 6.21826 11.5003C6.47202 11.5003 6.71006 11.379 6.92789 11.1387C7.02895 11.1971 7.13449 11.2555 7.24004 11.3072C7.41745 11.3948 7.60159 11.4734 7.79248 11.5407C7.41071 11.5722 7.12551 11.808 6.94361 12.2481C6.94137 12.2526 6.93912 12.2593 6.94137 12.2638C6.94361 12.2683 6.9481 12.2706 6.95484 12.2706H6.95708C7.10081 12.311 7.2333 12.3312 7.35682 12.3312C7.76328 12.3312 8.0687 12.1156 8.26407 11.6867C8.41678 11.7249 8.57397 11.7586 8.73791 11.7878C8.71994 11.799 8.70871 11.8214 8.71096 11.8439C8.7132 11.8798 8.74015 11.9068 8.77608 11.9068H8.77833C8.9737 11.9 9.16009 11.8866 9.33975 11.8686C9.5194 11.8866 9.70579 11.8978 9.90117 11.9068H9.90341C9.93934 11.9068 9.96629 11.8798 9.96854 11.8439C9.96854 11.8214 9.95731 11.8012 9.94159 11.7878C10.1055 11.7586 10.2627 11.7249 10.4154 11.6867C10.613 12.1156 10.9162 12.3312 11.3227 12.3312C11.4484 12.3312 11.5809 12.311 11.7247 12.2706C11.7291 12.2706 11.7359 12.2661 11.7381 12.2616C11.7404 12.2571 11.7404 12.2504 11.7359 12.2459C11.7359 12.2459 11.7359 12.2459 11.7336 12.2436C11.5517 11.8057 11.2665 11.5699 10.887 11.5385C11.0779 11.4711 11.262 11.3925 11.4395 11.3049C11.5472 11.251 11.6505 11.1949 11.7516 11.1365C11.9694 11.3768 12.2075 11.4981 12.4612 11.4981C12.6566 11.4981 12.861 11.4262 13.0743 11.2847C13.0788 11.2825 13.0833 11.278 13.0833 11.2735C13.0833 11.269 13.081 11.2645 13.0766 11.26C13.0766 11.26 13.0766 11.26 13.0743 11.26C12.7936 10.9321 12.4837 10.8041 12.1446 10.8783C12.3939 10.6986 12.6207 10.4987 12.8295 10.2809C13.0137 10.3977 13.1911 10.4583 13.3618 10.4583C13.6065 10.4583 13.8378 10.337 14.0534 10.0945C14.0579 10.0923 14.0602 10.0878 14.0579 10.0833C14.0579 10.0788 14.0534 10.0743 14.0489 10.0743C14.0489 10.0743 14.0489 10.0743 14.0467 10.0743C13.7143 9.84299 13.3999 9.80482 13.1125 9.95303C13.2719 9.74867 13.4157 9.53309 13.5392 9.30403C13.6514 9.34221 13.757 9.36017 13.8536 9.36017C14.141 9.36017 14.3701 9.20073 14.534 8.88409C14.5362 8.88184 14.5385 8.87735 14.5362 8.87286C14.534 8.86837 14.5318 8.86612 14.5273 8.86612C14.5273 8.86612 14.5273 8.86612 14.525 8.86612C14.1927 8.74037 13.9187 8.77405 13.7053 8.96269C13.7503 8.86163 13.7907 8.76058 13.8266 8.65728C13.885 8.4911 13.9366 8.32042 13.9771 8.14526C14.3768 8.13852 14.6059 7.92968 14.6598 7.52321C14.662 7.52096 14.6598 7.51647 14.6575 7.51423C14.6553 7.51198 14.6508 7.50973 14.6485 7.51198C14.644 7.51198 14.6373 7.51198 14.6328 7.51198C14.3611 7.51198 14.168 7.60405 14.0489 7.78146C14.0871 7.54567 14.1051 7.30762 14.1073 7.07183C14.4891 7.0067 14.6777 6.76642 14.6665 6.36219Z" fill="white"/>
<path d="M2.825 2.31012C2.44549 2.31012 1.97614 1.67459 1.97614 1.15584C1.97614 1.09296 1.92449 1.03906 1.85936 1.03906C1.79648 1.03906 1.74259 1.09071 1.74259 1.15584C1.74259 1.67234 1.27549 2.31012 0.893722 2.31012C0.830843 2.31012 0.776947 2.36177 0.776947 2.42689C0.776947 2.48977 0.828598 2.54367 0.893722 2.54367C1.27324 2.54367 1.74259 3.17919 1.74259 3.69794C1.74259 3.76082 1.79424 3.81472 1.85936 3.81472C1.92224 3.81472 1.97614 3.76307 1.97614 3.69794C1.97614 3.18144 2.44324 2.54367 2.825 2.54367C2.88788 2.54367 2.94178 2.49202 2.94178 2.42689C2.94178 2.36177 2.89013 2.31012 2.825 2.31012Z" fill="#BB7E53"/>
<path d="M16.582 13.5829C16.207 13.5829 15.7466 12.9563 15.7466 12.4466C15.7466 12.3837 15.695 12.332 15.6321 12.332C15.5692 12.332 15.5175 12.3837 15.5175 12.4466C15.5175 12.9563 15.0572 13.5829 14.6822 13.5829C14.6193 13.5829 14.5676 13.6345 14.5676 13.6974C14.5676 13.7603 14.6193 13.8119 14.6822 13.8119C15.0572 13.8119 15.5175 14.4385 15.5175 14.9482C15.5175 15.0111 15.5692 15.0628 15.6321 15.0628C15.695 15.0628 15.7466 15.0111 15.7466 14.9482C15.7466 14.4385 16.207 13.8119 16.582 13.8119C16.6449 13.8119 16.6965 13.7603 16.6965 13.6974C16.6965 13.6345 16.6449 13.5829 16.582 13.5829Z" fill="#BB7E53"/>
<path d="M1.51578 5.55031C1.23283 5.55031 0.886994 5.07872 0.886994 4.69471C0.886994 4.64755 0.848818 4.60938 0.801658 4.60938C0.754499 4.60938 0.716323 4.64755 0.716323 4.69471C0.716323 5.07872 0.368243 5.55031 0.087533 5.55031C0.0403738 5.55031 0.00219727 5.58849 0.00219727 5.63565C0.00219727 5.68281 0.0403738 5.72099 0.087533 5.72099C0.370488 5.72099 0.716323 6.19258 0.716323 6.57659C0.716323 6.62375 0.754499 6.66192 0.801658 6.66192C0.848818 6.66192 0.886994 6.62375 0.886994 6.57659C0.886994 6.19258 1.23507 5.72099 1.51578 5.72099C1.56294 5.72099 1.60112 5.68281 1.60112 5.63565C1.60112 5.58849 1.56519 5.55031 1.51578 5.55031Z" fill="#BB7E53"/>
<path d="M17.9721 10.5447C17.6936 10.5447 17.3523 10.0798 17.3523 9.70252C17.3523 9.65536 17.3141 9.61719 17.2669 9.61719C17.2198 9.61719 17.1816 9.65536 17.1816 9.70252C17.1816 10.0798 16.8402 10.5447 16.5618 10.5447C16.5146 10.5447 16.4764 10.5828 16.4764 10.63C16.4764 10.6771 16.5146 10.7153 16.5618 10.7153C16.8402 10.7153 17.1816 11.1802 17.1816 11.5575C17.1816 11.6046 17.2198 11.6428 17.2669 11.6428C17.3141 11.6428 17.3523 11.6046 17.3523 11.5575C17.3523 11.1802 17.6936 10.7153 17.9721 10.7153C18.0192 10.7153 18.0574 10.6771 18.0574 10.63C18.0552 10.5828 18.0192 10.5447 17.9721 10.5447Z" fill="#BB7E53"/>
<path opacity="0.1" d="M12.8251 0.911745L6.14416 13.4786C6.01392 13.4494 5.88367 13.4022 5.7624 13.3326C5.38288 13.1125 5.17403 12.7263 4.98989 12.3849C4.87536 12.1738 4.76756 11.9717 4.63732 11.8437C4.50707 11.7135 4.3072 11.6057 4.09611 11.4911C3.75476 11.307 3.36851 11.0981 3.14843 10.7186C2.93285 10.3436 2.94183 9.90793 2.95306 9.52392C2.95979 9.27914 2.96429 9.05008 2.91713 8.86593C2.87221 8.69751 2.75544 8.50663 2.62968 8.30451C2.42308 7.97215 2.19177 7.59488 2.19177 7.14575C2.19177 6.69661 2.42308 6.31934 2.62968 5.98698C2.75319 5.78711 2.86997 5.59623 2.91713 5.42556C2.96653 5.24366 2.95979 5.01235 2.95306 4.76757C2.94407 4.38356 2.93285 3.94566 3.14843 3.57287C3.36851 3.19335 3.75476 2.9845 4.09611 2.80036C4.3072 2.68583 4.50931 2.57804 4.63732 2.44779C4.76756 2.31754 4.87536 2.11767 4.98989 1.90658C5.17403 1.56524 5.38288 1.17898 5.7624 0.958904C6.13743 0.741073 6.57309 0.752302 6.9571 0.76353C7.20188 0.770267 7.43094 0.774759 7.61508 0.727599C7.78575 0.682686 7.97439 0.565911 8.1765 0.442398C8.50886 0.23355 8.88614 0 9.33527 0C9.78441 0 10.1617 0.23355 10.494 0.437907C10.6939 0.561419 10.8848 0.678195 11.0555 0.723108C11.2374 0.772513 11.4687 0.765776 11.7134 0.759039C12.0683 0.752302 12.468 0.741073 12.8251 0.911745Z" fill="white"/>
<path d="M9.38007 6.48471C9.66078 6.47573 9.79328 6.29158 9.79328 6.01986C9.79328 5.7908 9.59566 5.60665 9.31495 5.60665C9.09487 5.60665 8.94666 5.72118 8.82764 5.84694C8.78272 5.89185 8.72209 5.91655 8.66595 5.91655C8.53795 5.91655 8.4077 5.79753 8.4077 5.6583C8.4077 5.40005 8.93768 5.13281 9.33741 5.13281C9.92128 5.13281 10.2941 5.5056 10.2941 6.01986C10.2941 6.332 10.1458 6.57678 9.92128 6.6958C10.4602 6.94507 10.4692 7.49526 10.4692 7.58285C10.4692 8.23185 9.97293 8.69221 9.27677 8.69221C8.59184 8.69221 8.17639 8.28799 8.17639 8.07016C8.17639 7.92194 8.30889 7.79394 8.44812 7.79394C8.50875 7.79394 8.57163 7.82089 8.62777 7.88152C8.83438 8.11058 8.98259 8.19816 9.29923 8.19816C9.63159 8.19816 9.9617 7.95338 9.9617 7.57162C9.9617 7.10227 9.681 6.96079 9.35537 6.96079C9.3419 6.96079 9.32842 6.96079 9.31495 6.96079C9.288 6.96079 9.2633 6.96528 9.24533 6.96528C9.10161 6.96528 9.00055 6.84177 9.00055 6.72051C9.00055 6.60149 9.09712 6.48022 9.24084 6.48022H9.38007V6.48471Z" fill="white" stroke="white" stroke-width="0.141556" stroke-miterlimit="10"/>
</g>
<defs>
<clipPath id="clip0_855_11097">
<rect width="18.0552" height="20" fill="white"/>
</clipPath>
</defs>
</svg>
