<svg width="19" height="20" viewBox="0 0 19 20" fill="none" xmlns="http://www.w3.org/2000/svg">
<g clip-path="url(#clip0_855_10883)">
<path d="M7.57235 19.9561L6.15982 18.6581L4.28692 19.0803C4.1679 19.1072 4.0646 18.9949 4.09604 18.8759L5.74212 12.707L9.48566 13.7064L7.83958 19.873C7.80814 19.9943 7.66217 20.0392 7.57235 19.9561Z" fill="#E57373"/>
<path d="M11.271 19.9561L12.6835 18.6581L14.5564 19.0803C14.6754 19.1072 14.7787 18.9949 14.7473 18.8759L13.1012 12.707L9.35767 13.7064L11.0037 19.873C11.0352 19.9943 11.1812 20.0392 11.271 19.9561Z" fill="#E57373"/>
<path d="M16.5664 7.1435C16.5664 7.59263 16.3329 7.96991 16.1285 8.30227C16.005 8.50213 15.8882 8.69302 15.8411 8.86369C15.7917 9.04559 15.7984 9.27689 15.8051 9.52167C15.8141 9.90568 15.8253 10.3436 15.6098 10.7164C15.3897 11.0959 15.0034 11.3047 14.6621 11.4889C14.4487 11.6034 14.2489 11.7112 14.1209 11.8415C13.9906 11.9717 13.8828 12.1716 13.7683 12.3827C13.5842 12.724 13.3753 13.1103 12.9958 13.3303C12.6208 13.5459 12.1851 13.5347 11.7988 13.5257C11.5541 13.519 11.325 13.5145 11.1409 13.5616C10.9702 13.6066 10.7816 13.7233 10.5794 13.8491C10.2471 14.0534 9.86981 14.287 9.42067 14.287C8.97154 14.287 8.59426 14.0534 8.2619 13.8491C8.05979 13.7256 7.87115 13.6088 7.70048 13.5616C7.51858 13.5122 7.28728 13.519 7.04475 13.5257C6.66074 13.5369 6.22283 13.5482 5.85005 13.3303C5.47053 13.1103 5.26168 12.724 5.07753 12.3827C4.963 12.1716 4.85521 11.9695 4.72496 11.8415C4.59471 11.7112 4.39485 11.6034 4.18375 11.4889C3.84241 11.3047 3.45615 11.0959 3.23608 10.7164C3.02049 10.3413 3.02947 9.90568 3.0407 9.52167C3.04744 9.27689 3.05193 9.04783 3.00477 8.86369C2.95986 8.69526 2.84308 8.50438 2.71733 8.30227C2.51072 7.96991 2.27942 7.59263 2.27942 7.1435C2.27942 6.69436 2.51297 6.31709 2.71733 5.98473C2.84084 5.78486 2.95761 5.59398 3.00477 5.42331C3.05418 5.24141 3.04744 5.01011 3.0407 4.76533C3.03172 4.38132 3.02049 3.94341 3.23608 3.57063C3.45615 3.19111 3.84241 2.98226 4.18375 2.79811C4.39485 2.68358 4.59696 2.57579 4.72496 2.44554C4.85521 2.31529 4.963 2.11543 5.07753 1.90433C5.26168 1.56299 5.47053 1.17673 5.85005 0.956658C6.22507 0.738828 6.66074 0.750056 7.04475 0.761285C7.28952 0.768022 7.51858 0.772513 7.70273 0.725354C7.8734 0.68044 8.06204 0.563665 8.26415 0.437907C8.59426 0.23355 8.97154 0 9.42067 0C9.86981 0 10.2471 0.23355 10.5794 0.437907C10.7793 0.561419 10.9702 0.678194 11.1409 0.725354C11.3228 0.774759 11.5541 0.768022 11.7988 0.761285C12.1829 0.752302 12.6208 0.738828 12.9958 0.956658C13.3753 1.17673 13.5842 1.56299 13.7683 1.90433C13.8828 2.11543 13.9906 2.31754 14.1209 2.44554C14.2511 2.57579 14.451 2.68358 14.6621 2.79811C15.0034 2.98226 15.3897 3.19111 15.6098 3.57063C15.8276 3.94565 15.8164 4.38132 15.8051 4.76533C15.7984 5.01011 15.7917 5.23916 15.8411 5.42331C15.886 5.59398 16.0028 5.78262 16.1285 5.98473C16.3329 6.31709 16.5664 6.69436 16.5664 7.1435Z" fill="#ADADAD"/>
<path d="M14.7519 6.36219C14.7519 6.35995 14.7519 6.35546 14.7497 6.35321C14.7474 6.35097 14.7429 6.35096 14.7407 6.35096C14.46 6.39139 14.2758 6.51715 14.1882 6.72375C14.1725 6.4902 14.1411 6.25889 14.0917 6.03208C14.3949 5.89509 14.5049 5.65705 14.4173 5.32245C14.4173 5.3202 14.4151 5.31571 14.4128 5.31571C14.4106 5.31346 14.4061 5.31571 14.4038 5.31571C14.1815 5.40104 14.0513 5.53578 14.0131 5.71768C13.9569 5.52231 13.8918 5.33143 13.811 5.14504C14.0782 4.94293 14.1321 4.68467 13.9704 4.37477C13.9704 4.37252 13.9682 4.37028 13.9637 4.36803C13.9614 4.36803 13.9569 4.36803 13.9569 4.37028C13.7661 4.50053 13.6695 4.65772 13.6695 4.83513C13.5797 4.65772 13.4764 4.48481 13.3641 4.31863C13.564 4.09855 13.5684 3.86276 13.3776 3.61798C13.3776 3.61573 13.3731 3.61348 13.3708 3.61348C13.3686 3.61348 13.3663 3.61573 13.3641 3.61798C13.2181 3.7617 13.1575 3.91216 13.1822 4.06711C13.0744 3.92788 12.9599 3.79538 12.8364 3.66963C13.0003 3.43608 12.9801 3.20702 12.769 2.98694C12.7667 2.9847 12.7645 2.98245 12.7622 2.98245C12.76 2.98245 12.7578 2.9847 12.7555 2.98694C12.623 3.14638 12.5781 3.30583 12.6208 3.46078C12.495 3.34625 12.3625 3.23621 12.2233 3.13516C12.2143 3.12842 12.2076 3.12617 12.1963 3.12393C12.1222 2.85445 11.9358 2.7242 11.6349 2.74216C11.6327 2.74216 11.6304 2.74216 11.6282 2.74441C11.6259 2.74665 11.6259 2.7489 11.6282 2.75114C11.6798 3.04533 11.8483 3.19803 12.1245 3.20926C12.129 3.22049 12.1357 3.22947 12.1469 3.23846C12.2727 3.33053 12.394 3.42934 12.5085 3.53264C12.3648 3.49446 12.2121 3.53264 12.0549 3.64942C12.0526 3.64942 12.0504 3.65391 12.0504 3.65615C12.0504 3.6584 12.0504 3.66064 12.0549 3.66289C12.1784 3.79314 12.3086 3.86051 12.4456 3.86051C12.5422 3.86051 12.641 3.82682 12.7443 3.7617C12.8611 3.88297 12.9711 4.00872 13.0744 4.14122C12.9307 4.08283 12.7735 4.10529 12.6006 4.20859C12.5983 4.20859 12.5961 4.21083 12.5961 4.21533C12.5961 4.21757 12.5961 4.21982 12.5983 4.22206C12.7196 4.37926 12.8566 4.45786 13.0093 4.45786C13.0879 4.45786 13.171 4.43765 13.2563 4.39498C13.3663 4.55667 13.4651 4.7251 13.5527 4.89801C13.4045 4.79471 13.2204 4.78348 13.0025 4.86657C13.0003 4.86657 12.9958 4.86882 12.9958 4.87106C12.9958 4.87331 12.9958 4.8778 12.998 4.88005C13.1193 5.11135 13.2855 5.22813 13.4943 5.22813C13.5572 5.22813 13.6223 5.2169 13.692 5.19893C13.7638 5.3696 13.8267 5.54252 13.8783 5.72218C13.7571 5.59642 13.5864 5.54926 13.3618 5.57845C13.3596 5.57845 13.3551 5.57845 13.3551 5.58294C13.3529 5.58519 13.3529 5.58968 13.3551 5.59193C13.4337 5.90408 13.6223 6.06127 13.9143 6.06127C13.93 6.06127 13.948 6.06127 13.9637 6.05903C14.0086 6.27012 14.04 6.48346 14.0558 6.69904C13.9547 6.51265 13.7683 6.40711 13.4966 6.38016C13.4943 6.37791 13.4898 6.38016 13.4876 6.38241C13.4854 6.38465 13.4831 6.38914 13.4854 6.39139C13.4943 6.79112 13.6897 7.02242 14.0692 7.08081C14.067 7.30987 14.049 7.53893 14.0131 7.76799C13.9457 7.56139 13.7773 7.41991 13.5056 7.35029C13.5033 7.34805 13.4988 7.34805 13.4966 7.35029C13.4943 7.35254 13.4921 7.35478 13.4921 7.35927C13.4382 7.74778 13.5909 8.00603 13.9412 8.12505C13.9008 8.29348 13.8514 8.45966 13.7953 8.6191C13.7683 8.69545 13.7391 8.76956 13.7077 8.84142C13.7099 8.58991 13.5797 8.37207 13.3124 8.19018C13.3102 8.18793 13.3057 8.18568 13.3012 8.18568C13.2967 8.18568 13.2945 8.19017 13.2945 8.19467C13.2945 8.19467 13.2945 8.19467 13.2945 8.19691C13.0744 8.6191 13.1485 8.97167 13.5123 9.24789C13.3978 9.45674 13.2698 9.6566 13.1238 9.84299C13.2204 9.55105 13.1395 9.25463 12.8813 8.96269C12.8768 8.9537 12.8633 8.9537 12.8588 8.96269C12.8588 8.96269 12.8588 8.96269 12.8588 8.96493C12.4928 9.37365 12.4793 9.79134 12.8184 10.2023C12.6208 10.4111 12.4007 10.602 12.1626 10.7749C12.3625 10.492 12.367 10.1551 12.1716 9.77113C12.1716 9.76664 12.1671 9.76215 12.1604 9.7599C12.1559 9.75766 12.1514 9.7599 12.1469 9.76439C11.6574 10.0878 11.5294 10.5145 11.7652 11.0332C11.6686 11.0893 11.5675 11.1432 11.4642 11.1949C11.2958 11.278 11.1207 11.3521 10.9388 11.4172C11.2464 11.1926 11.3654 10.8446 11.2936 10.3775C11.2936 10.373 11.2913 10.3662 11.2868 10.364C11.2823 10.3617 11.2756 10.3617 11.2711 10.364C11.2711 10.364 11.2711 10.364 11.2689 10.364C10.6491 10.5369 10.3751 10.9389 10.4559 11.5654C10.137 11.6463 9.79346 11.7069 9.42068 11.7428C9.04789 11.7069 8.70655 11.6485 8.38542 11.5654C8.46626 10.9389 8.19229 10.5369 7.57024 10.364C7.56575 10.3617 7.55901 10.3617 7.55452 10.364C7.55003 10.3662 7.54778 10.373 7.54778 10.3775C7.54778 10.3775 7.54778 10.3775 7.54778 10.3797C7.47592 10.8468 7.59494 11.1926 7.9026 11.4172C7.7207 11.3521 7.54554 11.278 7.37711 11.1949C7.27381 11.1432 7.175 11.0893 7.07619 11.0332C7.31199 10.5145 7.18398 10.0878 6.69218 9.76439C6.68993 9.7599 6.6832 9.7599 6.6787 9.7599C6.67421 9.76215 6.66972 9.76439 6.66972 9.77113C6.66972 9.77113 6.66972 9.77113 6.66972 9.77338C6.47659 10.1596 6.48108 10.4942 6.68095 10.7772C6.44291 10.6043 6.22283 10.4134 6.02521 10.2045C6.36431 9.79134 6.34859 9.37589 5.98254 8.96493C5.97805 8.95595 5.96458 8.95595 5.96009 8.96493C5.96009 8.96493 5.96009 8.96493 5.96009 8.96718C5.70183 9.25912 5.62324 9.5533 5.71755 9.84524C5.57159 9.6566 5.44358 9.45898 5.32905 9.25013C5.6951 8.97392 5.76921 8.6191 5.54688 8.19691C5.54688 8.19242 5.54239 8.19018 5.5379 8.18793C5.53341 8.18793 5.52892 8.18793 5.52667 8.19242C5.26168 8.37432 5.13143 8.59215 5.13368 8.84367C5.10224 8.76956 5.07305 8.69545 5.0461 8.62134C4.98996 8.4619 4.94055 8.29572 4.90013 8.1273C5.25045 8.00827 5.40316 7.75002 5.34926 7.35927C5.34926 7.35478 5.34702 7.35254 5.34477 7.35029C5.34253 7.34805 5.33804 7.34805 5.33579 7.35029C5.06631 7.41991 4.89788 7.56139 4.83051 7.76799C4.79458 7.53893 4.77662 7.30987 4.77437 7.08081C5.15164 7.02242 5.34926 6.79112 5.35825 6.39139C5.35825 6.38914 5.35825 6.38465 5.356 6.38241C5.35375 6.38016 5.34926 6.38016 5.34702 6.38016C5.07754 6.40711 4.89115 6.51265 4.79009 6.69904C4.80581 6.48346 4.83725 6.27012 4.88216 6.05903C4.90013 6.05903 4.91585 6.06127 4.93157 6.06127C5.22351 6.06127 5.41214 5.90408 5.49074 5.58968C5.49299 5.58743 5.49299 5.58294 5.49074 5.5807C5.4885 5.57845 5.48625 5.57621 5.484 5.57845C5.26168 5.54926 5.08877 5.59866 4.96974 5.72218C5.02139 5.54477 5.08427 5.3696 5.15614 5.20118C5.22575 5.22139 5.29088 5.23037 5.35375 5.23037C5.56485 5.23037 5.73103 5.1136 5.8523 4.88005C5.85454 4.8778 5.85454 4.87331 5.85454 4.87106C5.85454 4.86882 5.85005 4.86657 5.8478 4.86657C5.62997 4.78573 5.44807 4.79696 5.29986 4.89801C5.38744 4.7251 5.4885 4.55667 5.59629 4.39498C5.68162 4.43765 5.76471 4.45786 5.84331 4.45786C5.99602 4.45786 6.13525 4.37926 6.25652 4.21982C6.25876 4.21757 6.25876 4.21533 6.25876 4.21308C6.25876 4.21084 6.25652 4.20859 6.25427 4.20859C6.08135 4.10529 5.92416 4.08508 5.78043 4.14122C5.88373 4.00872 5.99377 3.88297 6.11055 3.7617C6.21385 3.82682 6.31266 3.86051 6.40922 3.86051C6.54621 3.86051 6.67646 3.79538 6.79997 3.66289C6.80222 3.66064 6.80446 3.6584 6.80222 3.65615C6.80222 3.65391 6.79997 3.65166 6.79773 3.64942C6.64053 3.53264 6.49007 3.49446 6.34634 3.53264C6.46087 3.42934 6.58214 3.33053 6.7079 3.23846C6.71913 3.23172 6.72586 3.22049 6.73036 3.20926C7.00882 3.19803 7.175 3.04533 7.22665 2.7489C7.2289 2.74665 7.22665 2.74441 7.22665 2.74216C7.2244 2.73992 7.22216 2.73992 7.21991 2.73992C6.91899 2.72195 6.7326 2.8522 6.65849 3.12168C6.64951 3.12393 6.64053 3.12617 6.63155 3.13291C6.49231 3.23397 6.35982 3.344 6.23406 3.45853C6.27673 3.30358 6.23181 3.14414 6.09932 2.9847C6.09932 2.98245 6.09483 2.9802 6.09258 2.9802C6.09034 2.9802 6.08809 2.98245 6.08585 2.9847C5.877 3.20477 5.85454 3.43383 6.02072 3.66738C5.89721 3.79314 5.78268 3.92788 5.67489 4.06487C5.69734 3.90991 5.63671 3.75721 5.49074 3.61348C5.4885 3.61124 5.48625 3.60899 5.484 3.60899C5.48176 3.60899 5.47951 3.61124 5.47727 3.61348C5.28638 3.85826 5.29312 4.09406 5.49074 4.31414C5.37846 4.48032 5.27516 4.65323 5.18533 4.83064C5.18308 4.65099 5.08652 4.49604 4.89564 4.36354C4.89339 4.3613 4.89115 4.3613 4.88665 4.3613C4.88441 4.3613 4.88216 4.36354 4.88216 4.36803C4.72047 4.67569 4.77437 4.93394 5.04161 5.13605C4.96301 5.32244 4.89564 5.51333 4.83949 5.7087C4.80132 5.5268 4.67107 5.39206 4.4465 5.30673C4.44426 5.30448 4.43976 5.30448 4.43752 5.30673C4.43527 5.30897 4.43303 5.31122 4.43303 5.31346C4.34769 5.64807 4.45773 5.88611 4.75865 6.0231C4.70925 6.24991 4.67781 6.48121 4.66209 6.71476C4.57451 6.50816 4.39036 6.38465 4.1074 6.34198C4.10516 6.33974 4.10067 6.34198 4.09842 6.34423C4.09618 6.34647 4.09393 6.35097 4.09618 6.35321C4.08495 6.75519 4.27358 6.99547 4.6531 7.07183C4.65535 7.30762 4.67331 7.54342 4.71149 7.78146C4.59472 7.60181 4.39934 7.51198 4.12762 7.51198C4.12312 7.51198 4.11639 7.51198 4.1119 7.51198C4.1074 7.51198 4.10516 7.51198 4.10291 7.51423C4.10067 7.51647 4.10067 7.52096 4.10067 7.52321C4.15456 7.92968 4.38362 8.13628 4.78335 8.14526C4.82378 8.32042 4.87543 8.4911 4.93381 8.65728C4.96974 8.76058 5.01241 8.86163 5.05508 8.96269C4.84174 8.77405 4.56777 8.74037 4.23541 8.86612C4.23092 8.86612 4.22867 8.87062 4.22642 8.87286C4.22418 8.87735 4.22643 8.88184 4.22867 8.88409C4.39261 9.20073 4.62166 9.36017 4.90911 9.36017C5.00792 9.36017 5.11122 9.34221 5.22351 9.30403C5.34702 9.53084 5.49074 9.74867 5.65018 9.95303C5.36049 9.80257 5.04834 9.84299 4.71374 10.0743C4.70925 10.0765 4.707 10.081 4.70475 10.0855C4.70475 10.09 4.707 10.0945 4.70925 10.0968C4.70925 10.0968 4.70925 10.0968 4.71149 10.0968C4.92483 10.3393 5.15614 10.4606 5.40091 10.4606C5.57159 10.4606 5.74899 10.4022 5.93314 10.2831C6.13974 10.501 6.3688 10.7008 6.61807 10.8805C6.27897 10.8064 5.96682 10.9344 5.68612 11.2645C5.68162 11.2668 5.67938 11.2735 5.68162 11.278C5.68162 11.2825 5.68612 11.287 5.69061 11.2892C5.69061 11.2892 5.69061 11.2892 5.69285 11.2892C5.90619 11.4307 6.11055 11.5003 6.30368 11.5003C6.55744 11.5003 6.79548 11.379 7.01331 11.1387C7.11437 11.1971 7.21991 11.2555 7.32546 11.3072C7.50287 11.3948 7.68701 11.4734 7.8779 11.5407C7.49613 11.5722 7.21093 11.808 7.02903 12.2481C7.02678 12.2526 7.02454 12.2593 7.02678 12.2638C7.02903 12.2683 7.03352 12.2706 7.03801 12.2706H7.04026C7.18398 12.311 7.31648 12.3312 7.43999 12.3312C7.84646 12.3312 8.15187 12.1156 8.34724 11.6867C8.49995 11.7249 8.65715 11.7586 8.82108 11.7878C8.80311 11.799 8.79189 11.8214 8.79413 11.8439C8.79638 11.8798 8.82333 11.9068 8.85926 11.9068H8.8615C9.05688 11.9 9.24327 11.8866 9.42292 11.8686C9.60258 11.8866 9.78897 11.8978 9.98434 11.9068H9.98659C10.0225 11.9068 10.0495 11.8798 10.0517 11.8439C10.0517 11.8214 10.0405 11.8012 10.0248 11.7878C10.1887 11.7586 10.3459 11.7249 10.4986 11.6867C10.6962 12.1156 10.9994 12.3312 11.4059 12.3312C11.5316 12.3312 11.6641 12.311 11.8078 12.2706C11.8123 12.2706 11.8191 12.2661 11.8213 12.2616C11.8236 12.2571 11.8236 12.2504 11.8191 12.2459C11.8191 12.2459 11.8191 12.2459 11.8168 12.2436C11.6349 11.8057 11.3497 11.5699 10.9702 11.5385C11.1611 11.4711 11.3452 11.3925 11.5226 11.3049C11.6304 11.251 11.7337 11.1949 11.8348 11.1365C12.0526 11.3768 12.2907 11.4981 12.5444 11.4981C12.7398 11.4981 12.9441 11.4262 13.1575 11.2847C13.162 11.2825 13.1665 11.278 13.1665 11.2735C13.1665 11.269 13.1642 11.2645 13.1597 11.26C13.1597 11.26 13.1597 11.26 13.1575 11.26C12.8768 10.9321 12.5669 10.8041 12.2278 10.8783C12.477 10.6986 12.7039 10.4987 12.9127 10.2809C13.0969 10.3977 13.2743 10.4583 13.4449 10.4583C13.6897 10.4583 13.921 10.337 14.1366 10.0945C14.1411 10.0923 14.1433 10.0878 14.1411 10.0833C14.1411 10.0788 14.1366 10.0743 14.1321 10.0743C14.1321 10.0743 14.1321 10.0743 14.1299 10.0743C13.7975 9.84299 13.4831 9.80482 13.1957 9.95303C13.3551 9.74867 13.4988 9.53309 13.6223 9.30403C13.7346 9.34221 13.8402 9.36017 13.9367 9.36017C14.2242 9.36017 14.4532 9.20073 14.6172 8.88409C14.6194 8.88184 14.6217 8.87735 14.6194 8.87286C14.6172 8.86837 14.6149 8.86612 14.6104 8.86612C14.6104 8.86612 14.6104 8.86612 14.6082 8.86612C14.2758 8.74037 14.0019 8.77405 13.7885 8.96269C13.8334 8.86163 13.8739 8.76058 13.9098 8.65728C13.9682 8.4911 14.0198 8.32042 14.0602 8.14526C14.46 8.13852 14.689 7.92968 14.7429 7.52321C14.7452 7.52096 14.7429 7.51647 14.7407 7.51423C14.7384 7.51198 14.7339 7.50973 14.7317 7.51198C14.7272 7.51198 14.7205 7.51198 14.716 7.51198C14.4443 7.51198 14.2511 7.60405 14.1321 7.78146C14.1703 7.54567 14.1882 7.30762 14.1905 7.07183C14.5768 7.0067 14.7631 6.76642 14.7519 6.36219Z" fill="white"/>
<path d="M2.82504 2.31012C2.44552 2.31012 1.97617 1.67459 1.97617 1.15584C1.97617 1.09296 1.92452 1.03906 1.85939 1.03906C1.79652 1.03906 1.74262 1.09071 1.74262 1.15584C1.74262 1.67234 1.27552 2.31012 0.893753 2.31012C0.830874 2.31012 0.776978 2.36177 0.776978 2.42689C0.776978 2.48977 0.828628 2.54367 0.893753 2.54367C1.27327 2.54367 1.74262 3.17919 1.74262 3.69794C1.74262 3.76082 1.79427 3.81472 1.85939 3.81472C1.92227 3.81472 1.97617 3.76307 1.97617 3.69794C1.97617 3.18144 2.44327 2.54367 2.82504 2.54367C2.88791 2.54367 2.94181 2.49202 2.94181 2.42689C2.94181 2.36177 2.89016 2.31012 2.82504 2.31012Z" fill="#ADADAD"/>
<path d="M16.582 13.5829C16.207 13.5829 15.7466 12.9563 15.7466 12.4466C15.7466 12.3837 15.695 12.332 15.6321 12.332C15.5692 12.332 15.5176 12.3837 15.5176 12.4466C15.5176 12.9563 15.0572 13.5829 14.6822 13.5829C14.6193 13.5829 14.5677 13.6345 14.5677 13.6974C14.5677 13.7603 14.6193 13.8119 14.6822 13.8119C15.0572 13.8119 15.5176 14.4385 15.5176 14.9482C15.5176 15.0111 15.5692 15.0628 15.6321 15.0628C15.695 15.0628 15.7466 15.0111 15.7466 14.9482C15.7466 14.4385 16.207 13.8119 16.582 13.8119C16.6449 13.8119 16.6966 13.7603 16.6966 13.6974C16.6966 13.6345 16.6449 13.5829 16.582 13.5829Z" fill="#ADADAD"/>
<path d="M1.51581 5.55031C1.23286 5.55031 0.887025 5.07872 0.887025 4.69471C0.887025 4.64755 0.848848 4.60938 0.801689 4.60938C0.75453 4.60938 0.716353 4.64755 0.716353 4.69471C0.716353 5.07872 0.368273 5.55031 0.0875635 5.55031C0.0404043 5.55031 0.00222778 5.58849 0.00222778 5.63565C0.00222778 5.68281 0.0404043 5.72099 0.0875635 5.72099C0.370519 5.72099 0.716353 6.19258 0.716353 6.57659C0.716353 6.62375 0.75453 6.66192 0.801689 6.66192C0.848848 6.66192 0.887025 6.62375 0.887025 6.57659C0.887025 6.19258 1.2351 5.72099 1.51581 5.72099C1.56297 5.72099 1.60115 5.68281 1.60115 5.63565C1.60115 5.58849 1.56522 5.55031 1.51581 5.55031Z" fill="#ADADAD"/>
<path d="M17.9721 10.5447C17.6936 10.5447 17.3523 10.0798 17.3523 9.70252C17.3523 9.65536 17.3141 9.61719 17.2669 9.61719C17.2198 9.61719 17.1816 9.65536 17.1816 9.70252C17.1816 10.0798 16.8403 10.5447 16.5618 10.5447C16.5146 10.5447 16.4765 10.5828 16.4765 10.63C16.4765 10.6771 16.5146 10.7153 16.5618 10.7153C16.8403 10.7153 17.1816 11.1802 17.1816 11.5575C17.1816 11.6046 17.2198 11.6428 17.2669 11.6428C17.3141 11.6428 17.3523 11.6046 17.3523 11.5575C17.3523 11.1802 17.6936 10.7153 17.9721 10.7153C18.0193 10.7153 18.0574 10.6771 18.0574 10.63C18.0552 10.5828 18.0193 10.5447 17.9721 10.5447Z" fill="#ADADAD"/>
<path opacity="0.1" d="M12.9104 0.911745L6.22949 13.4786C6.09924 13.4494 5.96899 13.4022 5.84773 13.3326C5.46821 13.1125 5.25936 12.7263 5.07521 12.3849C4.96068 12.1738 4.85289 11.9717 4.72264 11.8437C4.59239 11.7135 4.39253 11.6057 4.18143 11.4911C3.84009 11.307 3.45383 11.0981 3.23376 10.7186C3.01817 10.3436 3.02716 9.90793 3.03838 9.52392C3.04512 9.27914 3.04961 9.05008 3.00245 8.86593C2.95754 8.69751 2.84076 8.50663 2.71501 8.30451C2.5084 7.97215 2.2771 7.59488 2.2771 7.14575C2.2771 6.69661 2.51065 6.31934 2.71501 5.98698C2.83852 5.78711 2.95529 5.59623 3.00245 5.42556C3.05186 5.24366 3.04512 5.01235 3.03838 4.76757C3.0294 4.38356 3.01817 3.94566 3.23376 3.57287C3.45383 3.19335 3.84009 2.9845 4.18143 2.80036C4.39253 2.68583 4.59464 2.57804 4.72264 2.44779C4.85289 2.31754 4.96068 2.11767 5.07521 1.90658C5.25936 1.56524 5.46821 1.17898 5.84773 0.958904C6.22275 0.741073 6.65842 0.752302 7.04243 0.76353C7.28721 0.770267 7.51626 0.774759 7.70041 0.727599C7.87108 0.682686 8.05972 0.565911 8.26183 0.442398C8.59419 0.23355 8.97146 0 9.4206 0C9.86973 0 10.247 0.23355 10.5794 0.437907C10.7792 0.561419 10.9701 0.678195 11.1408 0.723108C11.3227 0.772513 11.554 0.765776 11.7988 0.759039C12.1558 0.752302 12.5556 0.741073 12.9104 0.911745Z" fill="white"/>
<path d="M8.55827 8.63831C8.39658 8.63831 8.30002 8.51929 8.30002 8.36659C8.30002 8.26553 8.34044 8.15549 8.43251 8.05444C8.74915 7.69513 9.28362 7.14719 9.68785 6.65089C9.87199 6.43081 9.9461 6.2287 9.9461 6.06252C9.9461 5.77283 9.72602 5.59318 9.46777 5.59318C9.27015 5.59318 9.05457 5.69872 8.90186 5.94799C8.84123 6.04456 8.74915 6.08498 8.66157 6.08498C8.52459 6.08498 8.38985 5.98392 8.38985 5.8402C8.38985 5.67851 8.74017 5.13281 9.46103 5.13281C9.9955 5.13281 10.5008 5.46517 10.5008 6.01087C10.5008 6.27362 10.3907 6.57678 10.119 6.92262C9.76869 7.36502 9.31956 7.75576 8.93779 8.16897C9.31956 8.16448 9.84055 8.12855 10.2178 8.12855C10.4065 8.12855 10.494 8.24757 10.494 8.36883C10.494 8.50133 10.393 8.64056 10.2044 8.64056H8.55827V8.63831Z" fill="white" stroke="white" stroke-width="0.141556" stroke-miterlimit="10"/>
</g>
<defs>
<clipPath id="clip0_855_10883">
<rect width="18.0552" height="20" fill="white"/>
</clipPath>
</defs>
</svg>
