<svg width="33" height="142" viewBox="0 0 33 142" fill="none" xmlns="http://www.w3.org/2000/svg">
<g clipPath="url(#clip0_39_136920)">
<path d="M16.9335 122H14.9132V140.42H16.9335V122Z" fill="#F3FF65"/>
<path d="M16 142L17.4286 140.571L7.42859 130.571L6.00002 132L16 142Z" fill="#F3FF65"/>
<path d="M14.5714 140.571L16 142L26 132L24.5714 130.571L14.5714 140.571Z" fill="#F3FF65"/>
</g>
<path d="M12.584 2.4C12.4133 2.72 12.2693 3.07733 12.152 3.472C12.0453 3.87733 11.992 4.28267 11.992 4.688C11.992 5.04 12.024 5.37067 12.088 5.68C12.1627 5.98933 12.2747 6.256 12.424 6.48C12.584 6.71467 12.7813 6.896 13.016 7.024C13.2507 7.16267 13.528 7.232 13.848 7.232C14.2853 7.232 14.6427 7.08267 14.92 6.784C15.1973 6.496 15.4427 6.13333 15.656 5.696C15.8693 5.25867 16.0773 4.784 16.28 4.272C16.4827 3.76 16.7227 3.28533 17 2.848C17.2773 2.41067 17.6133 2.04267 18.008 1.744C18.4133 1.456 18.9253 1.312 19.544 1.312C19.9813 1.312 20.376 1.39733 20.728 1.568C21.08 1.74933 21.3787 2 21.624 2.32C21.8693 2.64 22.056 3.024 22.184 3.472C22.3227 3.93067 22.392 4.43733 22.392 4.992C22.392 5.632 22.344 6.21333 22.248 6.736C22.1627 7.25867 22.0453 7.67467 21.896 7.984L21.912 8.016L21.88 8.016L21.88 8.032L21.832 8.016L19.272 8.016L19.272 6.832L20.984 6.832C21.048 6.56533 21.1013 6.272 21.144 5.952C21.1867 5.632 21.208 5.29067 21.208 4.928C21.208 4.576 21.1653 4.256 21.08 3.968C20.9947 3.69067 20.8773 3.45067 20.728 3.248C20.5893 3.056 20.424 2.90667 20.232 2.8C20.04 2.69333 19.8373 2.64 19.624 2.64C19.208 2.64 18.8613 2.784 18.584 3.072C18.3067 3.37067 18.056 3.73867 17.832 4.176C17.6187 4.61333 17.4053 5.088 17.192 5.6C16.9787 6.112 16.728 6.58667 16.44 7.024C16.1627 7.46133 15.8267 7.824 15.432 8.112C15.0373 8.41067 14.5467 8.56 13.96 8.56C13.48 8.56 13.048 8.46933 12.664 8.288C12.28 8.11733 11.9493 7.86667 11.672 7.536C11.3947 7.216 11.1813 6.816 11.032 6.336C10.8827 5.86667 10.808 5.33333 10.808 4.736C10.808 4.33067 10.84 3.94667 10.904 3.584C10.968 3.22133 11.048 2.88533 11.144 2.576C11.24 2.27733 11.3413 2.00533 11.448 1.76C11.5547 1.52533 11.6453 1.33867 11.72 1.2L11.768 1.216L14.36 1.216L14.36 2.4L12.584 2.4ZM20.984 16.9218C21.0587 16.7404 21.112 16.5377 21.144 16.3137C21.1867 16.1004 21.208 15.8391 21.208 15.5297C21.208 15.0924 21.128 14.6604 20.968 14.2337C20.808 13.8177 20.5467 13.4444 20.184 13.1137C19.8213 12.7937 19.3467 12.5324 18.76 12.3297C18.1733 12.1377 17.4533 12.0417 16.6 12.0417C15.832 12.0417 15.16 12.1271 14.584 12.2977C14.008 12.4791 13.528 12.7244 13.144 13.0337C12.76 13.3537 12.472 13.7324 12.28 14.1697C12.088 14.6177 11.992 15.1137 11.992 15.6577C11.992 15.9351 12.0133 16.1911 12.056 16.4257C12.1093 16.6711 12.1787 16.8951 12.264 17.0977L13.864 17.0977L13.864 18.2817L11.704 18.2817L11.672 18.2977C11.4267 17.9777 11.2187 17.5724 11.048 17.0817C10.888 16.5911 10.808 15.9937 10.808 15.2897C10.808 14.6177 10.92 13.9937 11.144 13.4177C11.3787 12.8524 11.7307 12.3617 12.2 11.9457C12.6693 11.5297 13.2667 11.2044 13.992 10.9697C14.728 10.7457 15.5973 10.6337 16.6 10.6337C17.6453 10.6337 18.5307 10.7617 19.256 11.0177C19.992 11.2737 20.5893 11.6204 21.048 12.0577C21.5173 12.4951 21.8587 13.0017 22.072 13.5777C22.2853 14.1644 22.392 14.7884 22.392 15.4497C22.392 15.8124 22.376 16.1271 22.344 16.3937C22.3227 16.6604 22.2853 16.8951 22.232 17.0977C22.1893 17.3004 22.1307 17.4764 22.056 17.6258C21.9813 17.7857 21.896 17.9404 21.8 18.0897L21.8 18.1057L19.272 18.1057L19.272 16.9217L20.984 16.9218ZM22.088 20.7875C22.1627 21.1928 22.2213 21.6568 22.264 22.1795C22.3067 22.7128 22.328 23.1982 22.328 23.6355C22.328 24.1262 22.2747 24.5902 22.168 25.0275C22.0613 25.4755 21.8853 25.8648 21.64 26.1955C21.3947 26.5368 21.0747 26.8088 20.68 27.0115C20.2853 27.2142 19.8053 27.3155 19.24 27.3155C18.8027 27.3155 18.4133 27.2408 18.072 27.0915C17.7413 26.9528 17.4533 26.7768 17.208 26.5635C16.9733 26.3608 16.7813 26.1475 16.632 25.9235C16.4827 25.6995 16.376 25.5075 16.312 25.3475L11 28.3075L11 26.7555L15.928 24.1155L15.928 22.1155L11 22.1155L11 20.7875L22.088 20.7875ZM21.176 23.6675C21.176 23.5288 21.176 23.3848 21.176 23.2355C21.176 23.0862 21.1707 22.9422 21.16 22.8035C21.1493 22.6648 21.1387 22.5315 21.128 22.4035C21.1173 22.2862 21.1013 22.1902 21.08 22.1155L16.952 22.1155L16.952 23.3635C16.952 24.0995 17.1333 24.7075 17.496 25.1875C17.8587 25.6675 18.424 25.9075 19.192 25.9075C19.768 25.9075 20.2427 25.7102 20.616 25.3155C20.9893 24.9208 21.176 24.3715 21.176 23.6675ZM16.6 29.5492C18.456 29.5492 19.8853 29.8746 20.888 30.5252C21.8907 31.1866 22.392 32.1999 22.392 33.5652C22.392 34.3119 22.2533 34.9412 21.976 35.4532C21.6987 35.9759 21.304 36.3972 20.792 36.7172C20.2907 37.0372 19.6827 37.2666 18.968 37.4052C18.264 37.5439 17.4747 37.6133 16.6 37.6133C14.744 37.6132 13.3147 37.2826 12.312 36.6212C11.3093 35.9706 10.808 34.9519 10.808 33.5652C10.808 32.8292 10.9467 32.2052 11.224 31.6932C11.5013 31.1812 11.8907 30.7652 12.392 30.4452C12.904 30.1252 13.512 29.8959 14.216 29.7572C14.9307 29.6186 15.7253 29.5492 16.6 29.5492ZM16.6 30.9572C15.9813 30.9572 15.3947 30.9946 14.84 31.0692C14.2853 31.1546 13.7947 31.2986 13.368 31.5012C12.952 31.7039 12.616 31.9706 12.36 32.3012C12.1147 32.6319 11.992 33.0532 11.992 33.5652C11.992 34.4826 12.3653 35.1492 13.112 35.5652C13.8587 35.9919 15.0213 36.2052 16.6 36.2052C17.208 36.2052 17.7893 36.1626 18.344 36.0772C18.9093 36.0026 19.4 35.8639 19.816 35.6612C20.2427 35.4586 20.5787 35.1866 20.824 34.8452C21.08 34.5039 21.208 34.0772 21.208 33.5652C21.208 32.6586 20.8293 31.9972 20.072 31.5812C19.3253 31.1652 18.168 30.9572 16.6 30.9572ZM22.2 39.815L22.2 41.143L12.184 41.143L12.184 45.671L14.968 45.671L14.968 46.855L11 46.855L11 39.815L22.2 39.815ZM22.2 49.4087L22.2 50.7367L12.184 50.7367L12.184 55.2647L14.968 55.2647L14.968 56.4487L11 56.4487L11 49.4087L22.2 49.4087ZM22.2 68.4362C22.2533 68.8416 22.2853 69.2629 22.296 69.7002C22.3173 70.1482 22.328 70.5269 22.328 70.8362C22.328 71.8069 22.1893 72.6176 21.912 73.2682C21.6347 73.9296 21.2453 74.4576 20.744 74.8523C20.2533 75.2576 19.6613 75.5456 18.968 75.7162C18.2747 75.8976 17.512 75.9883 16.68 75.9883C15.9227 75.9882 15.192 75.9082 14.488 75.7482C13.7947 75.5882 13.176 75.3109 12.632 74.9162C12.0987 74.5216 11.6667 73.9882 11.336 73.3162C11.016 72.6549 10.856 71.8229 10.856 70.8202C10.856 70.6816 10.8613 70.5002 10.872 70.2762C10.872 70.0522 10.8827 69.8229 10.904 69.5882C10.9147 69.3536 10.9253 69.1296 10.936 68.9162C10.9467 68.7029 10.9627 68.5429 10.984 68.4362L22.2 68.4362ZM21.144 70.9002C21.144 70.7509 21.1387 70.5589 21.128 70.3242C21.1173 70.1002 21.096 69.9136 21.064 69.7642L12.104 69.7642C12.0933 69.8176 12.0827 69.8922 12.072 69.9882C12.072 70.0949 12.0667 70.2016 12.056 70.3082C12.056 70.4149 12.0507 70.5162 12.04 70.6122C12.04 70.7189 12.04 70.8042 12.04 70.8682C12.04 71.6469 12.168 72.2762 12.424 72.7562C12.68 73.2469 13.0213 73.6256 13.448 73.8922C13.8853 74.1589 14.3813 74.3402 14.936 74.4362C15.5013 74.5322 16.0827 74.5802 16.68 74.5802C17.2027 74.5802 17.7253 74.5376 18.248 74.4522C18.7813 74.3669 19.2613 74.1909 19.688 73.9242C20.1147 73.6682 20.4613 73.2949 20.728 72.8042C21.0053 72.3242 21.144 71.6896 21.144 70.9002ZM16.6 77.518C18.456 77.518 19.8853 77.8433 20.888 78.494C21.8907 79.1553 22.392 80.1687 22.392 81.534C22.392 82.2807 22.2533 82.91 21.976 83.422C21.6987 83.9447 21.304 84.366 20.792 84.686C20.2907 85.006 19.6827 85.2353 18.968 85.374C18.264 85.5127 17.4747 85.582 16.6 85.582C14.744 85.582 13.3147 85.2513 12.312 84.59C11.3093 83.9393 10.808 82.9207 10.808 81.534C10.808 80.798 10.9467 80.174 11.224 79.662C11.5013 79.15 11.8907 78.734 12.392 78.414C12.904 78.094 13.512 77.8647 14.216 77.726C14.9307 77.5873 15.7253 77.518 16.6 77.518ZM16.6 78.926C15.9813 78.926 15.3947 78.9633 14.84 79.038C14.2853 79.1233 13.7947 79.2673 13.368 79.47C12.952 79.6727 12.616 79.9393 12.36 80.27C12.1147 80.6007 11.992 81.022 11.992 81.534C11.992 82.4513 12.3653 83.118 13.112 83.534C13.8587 83.9607 15.0213 84.174 16.6 84.174C17.208 84.174 17.7893 84.1313 18.344 84.046C18.9093 83.9713 19.4 83.8327 19.816 83.63C20.2427 83.4273 20.5787 83.1553 20.824 82.814C21.08 82.4727 21.208 82.046 21.208 81.534C21.208 80.6273 20.8293 79.966 20.072 79.55C19.3253 79.134 18.168 78.926 16.6 78.926ZM14.216 89.1117L13.176 89.1917L13.176 89.3037L14.312 89.5277L18.68 90.7117L18.68 91.7677L14.344 92.8717L13.16 93.1597L13.16 93.2397L14.248 93.3357L22.2 94.5198L22.2 95.7038L11 93.9757L11 92.6477L15.544 91.3517L16.632 91.1917L16.632 91.1437L15.528 90.9677L11 89.6717L11 88.3277L22.2 86.5837L22.2 87.8477L14.216 89.1117ZM18.008 99.0735L19.624 98.2095L19.624 98.1455L18.008 98.3055L11 98.3055L11 97.0575L22.2 97.0575L22.2 97.9215L15.224 102.433L13.688 103.265L13.688 103.345L15.224 103.169L22.2 103.169L22.2 104.418L11 104.417L11 103.553L18.008 99.0735Z" fill="#F3FF65"/>
<defs>
<clipPath id="clip0_39_136920">
<rect width="20" height="20" fill="white" transform="translate(6 122)"/>
</clipPath>
</defs>
</svg>
