<svg width="16" height="16" viewBox="0 0 16 16" fill="none" xmlns="http://www.w3.org/2000/svg">
<path d="M14 2.66699H2.00004C1.63185 2.66699 1.33337 2.96547 1.33337 3.33366V12.667C1.33337 13.0352 1.63185 13.3337 2.00004 13.3337H14C14.3682 13.3337 14.6667 13.0352 14.6667 12.667V3.33366C14.6667 2.96547 14.3682 2.66699 14 2.66699Z" stroke="#1A1A1A" stroke-linecap="round" stroke-linejoin="round"/>
<path d="M1.33337 3.33366C1.33337 2.96547 1.63185 2.66699 2.00004 2.66699H14C14.3682 2.66699 14.6667 2.96547 14.6667 3.33366V5.33366H1.33337V3.33366Z" stroke="#1A1A1A" stroke-linecap="round" stroke-linejoin="round"/>
<path d="M8.33329 7.66699L7.66663 11.3337" stroke="#1A1A1A" stroke-linecap="round"/>
<path d="M10.3334 7.66699L12.3334 9.33366L10.3334 11.3337" stroke="#1A1A1A" stroke-linecap="round" stroke-linejoin="round"/>
<path d="M5.66663 7.66699L3.66663 9.33366L5.66663 11.3337" stroke="#1A1A1A" stroke-linecap="round" stroke-linejoin="round"/>
</svg>
