<svg width="24" height="24" viewBox="0 0 24 24" fill="none" xmlns="http://www.w3.org/2000/svg">
<g clipPath="url(#clip0_505_269)">
<mask id="mask0_505_269" style="mask-type:luminance" maskUnits="userSpaceOnUse" x="0" y="0" width="24" height="24">
<path d="M23.9737 0H0V24H23.9737V0Z" fill="white"/>
</mask>
<g mask="url(#mask0_505_269)">
<path d="M11.9854 0C5.36911 0 0 5.36911 0 11.9854C0 18.6016 5.36911 23.9707 11.9854 23.9707C18.6016 23.9707 23.9707 18.6016 23.9707 11.9854C23.9707 5.36911 18.6133 0 11.9854 0ZM11.6136 6.00439L16.646 10.1996L15.8087 11.2066L10.7734 7.01147L11.6136 6.00439ZM9.68431 8.73579L15.6302 11.5052L15.0681 12.6909L9.13394 9.92437L9.68431 8.73579ZM8.5455 11.7102L14.9568 13.0539L14.6933 14.3362L8.28202 12.9924L8.5455 11.7102ZM8.15028 14.6699H14.7051V15.9756H8.15028V14.6699ZM17.3193 18.6016H5.52427V13.3525H6.82996V17.2842H15.999V13.3525H17.3047V18.6016H17.3193ZM16.8861 9.94779L12.9807 4.687L14.0346 3.90827L17.9429 9.16907L16.8861 9.94779Z" fill="#DF7335"/>
</g>
</g>
<defs>
<clipPath id="clip0_505_269">
<rect width="23.9737" height="24" fill="white"/>
</clipPath>
</defs>
</svg>
