<svg width="16" height="16" viewBox="0 0 16 16" fill="none" xmlns="http://www.w3.org/2000/svg">
<path d="M13.8047 2.43055L13.6247 1.96909L13.6152 1.97304C12.6649 2.36641 11.6827 2.76705 10.6883 3.17266C7.60191 4.4316 4.39834 5.73832 1.66918 7.0235C1.28136 7.16775 0.987948 7.33171 0.79087 7.52932C0.572834 7.74795 0.46536 8.01973 0.509722 8.30568C0.54855 8.55596 0.692081 8.73208 0.781876 8.82386C0.831205 8.87428 0.878109 8.91324 0.913186 8.94006C0.931005 8.95369 0.946527 8.96476 0.958775 8.97317L0.974799 8.98393L0.980897 8.98788L0.983439 8.9895L0.98458 8.99022L0.985118 8.99056C0.985377 8.99072 0.985633 8.99088 1.25114 8.5672L0.985633 8.99088L1.04114 9.02566L1.10374 9.04498L3.44213 9.76641L3.44213 9.76642L3.44551 9.76744C4.0606 9.95246 4.55365 9.94786 4.90923 9.88461C5.08565 9.85323 5.22493 9.808 5.32559 9.76715C5.37587 9.74675 5.41645 9.72746 5.44719 9.71156C5.46256 9.70361 5.47548 9.69651 5.48593 9.69053L5.49975 9.68244L5.50527 9.6791L5.50769 9.67761L5.50881 9.67691L5.50935 9.67658C5.50961 9.67641 5.50987 9.67625 5.24437 9.25256L5.50987 9.67625L5.51785 9.67125L5.52563 9.66595L9.60162 6.89268L7.10063 9.28093C6.72815 9.61124 6.55169 10.0031 6.61674 10.413C6.6749 10.7796 6.91028 11.039 7.07436 11.1806C7.55326 11.6026 8.443 12.2236 9.20538 12.7377C9.59241 12.9987 9.95528 13.2378 10.2295 13.418C10.2777 13.4496 10.323 13.4793 10.3652 13.507C10.4435 13.5584 10.5109 13.6027 10.5661 13.639C10.6085 13.667 10.6423 13.6894 10.6673 13.7062C10.6854 13.7184 10.695 13.725 10.6988 13.7276C10.8272 13.8284 11.141 14.0402 11.5121 14.2142C11.8704 14.3822 12.4092 14.5771 12.9079 14.466L12.9079 14.466C13.4519 14.3447 13.729 13.9352 13.8596 13.6378C13.9265 13.4853 13.9647 13.3424 13.9865 13.239C13.9976 13.1865 14.0048 13.1423 14.0094 13.1096C14.0102 13.1036 14.011 13.098 14.0117 13.0928C14.0129 13.0837 14.0138 13.0757 14.0146 13.069L14.0147 13.0677L14.8763 7.41612L14.8764 7.41614L14.8778 7.40606C15.0028 6.45707 15.1458 5.54287 15.2627 4.79869L15.2783 4.69975C15.3851 4.02045 15.4724 3.46495 15.492 3.19613C15.5251 2.81292 15.4569 2.46432 15.2348 2.20272C15.0129 1.94134 14.7143 1.85781 14.4839 1.83772C14.2543 1.8177 14.0377 1.85443 13.8926 1.88858C13.817 1.90638 13.7534 1.92527 13.7077 1.9401C13.6847 1.94755 13.6658 1.95409 13.6519 1.95912L13.6345 1.96548L13.6287 1.96769L13.6265 1.96853L13.6256 1.96888L13.6252 1.96904C13.625 1.96912 13.6248 1.96919 13.8047 2.43055Z" stroke="#1A1A1A"/>
</svg>
