<svg width="52" height="52" viewBox="0 0 52 52" fill="none" xmlns="http://www.w3.org/2000/svg">
<path d="M51 26C51 39.8075 39.8075 51 26 51C12.1925 51 1 39.8075 1 26C1 12.1925 12.1925 1 26 1C39.8075 1 51 12.1925 51 26Z" fill="white" stroke="#F2F5FA"/>
<path d="M15.9724 19.6773C21.5101 14.2716 30.4912 14.2716 36.029 19.6773L36.6959 20.3282C36.7616 20.3918 36.8138 20.4678 36.8495 20.5519C36.8852 20.6361 36.9036 20.7265 36.9036 20.8179C36.9036 20.9092 36.8852 20.9997 36.8495 21.0838C36.8138 21.1679 36.7616 21.244 36.6959 21.3075L34.4158 23.5339C34.3485 23.5991 34.2585 23.6356 34.1648 23.6356C34.0711 23.6356 33.9811 23.5991 33.9139 23.5339L32.9969 22.6377C29.1327 18.866 22.8686 18.866 19.0044 22.6377L18.0224 23.5971C17.9551 23.6623 17.8651 23.6988 17.7714 23.6988C17.6777 23.6988 17.5877 23.6623 17.5205 23.5971L15.2403 21.3707C15.1746 21.3072 15.1224 21.2311 15.0867 21.147C15.051 21.0629 15.0327 20.9724 15.0327 20.8811C15.0327 20.7897 15.051 20.6993 15.0867 20.6152C15.1224 20.531 15.1746 20.455 15.2403 20.3914L15.9724 19.6773ZM40.745 24.2811L42.7733 26.2622C42.8391 26.3256 42.8914 26.4017 42.9272 26.4858C42.9629 26.5699 42.9813 26.6604 42.9813 26.7518C42.9813 26.8432 42.9629 26.9337 42.9272 27.0178C42.8914 27.1019 42.8391 27.178 42.7733 27.2414L33.6233 36.1754C33.4888 36.3054 33.309 36.378 33.1219 36.378C32.9348 36.378 32.755 36.3054 32.6205 36.1754L26.1261 29.8348C26.0925 29.8022 26.0475 29.784 26.0007 29.784C25.9538 29.784 25.9088 29.8022 25.8752 29.8348L19.3809 36.1745C19.2463 36.3044 19.0665 36.3771 18.8794 36.3771C18.6924 36.3771 18.5126 36.3044 18.378 36.1745L9.22708 27.2405C9.16143 27.1771 9.10922 27.1011 9.07356 27.017C9.03791 26.933 9.01953 26.8426 9.01953 26.7513C9.01953 26.6601 9.03791 26.5697 9.07356 26.4857C9.10922 26.4016 9.16143 26.3256 9.22708 26.2622L11.2563 24.2811C11.3909 24.1511 11.5707 24.0784 11.7577 24.0784C11.9448 24.0784 12.1246 24.1511 12.2592 24.2811L18.7544 30.6207C18.788 30.653 18.8328 30.6711 18.8794 30.6711C18.9261 30.6711 18.9709 30.653 19.0044 30.6207L25.4988 24.2811C25.6333 24.1511 25.8131 24.0784 26.0002 24.0784C26.1873 24.0784 26.367 24.1511 26.5016 24.2811L32.9969 30.6207C33.0305 30.6533 33.0755 30.6716 33.1224 30.6716C33.1692 30.6716 33.2142 30.6533 33.2478 30.6207L39.7422 24.2811C39.8767 24.1511 40.0565 24.0784 40.2436 24.0784C40.4307 24.0784 40.6104 24.1511 40.745 24.2811Z" fill="#3B99FC"/>
</svg>
