<svg width="281" height="60" viewBox="0 0 281 60" fill="none" xmlns="http://www.w3.org/2000/svg">
<path d="M215.17 8.00072C215.17 6.90984 215.534 5.81896 216.443 4.9099C217.17 4.00083 218.261 3.63721 219.534 3.63721C220.806 3.63721 221.897 4.00083 222.625 4.9099C223.534 5.81896 223.897 6.72803 223.897 8.00072C223.897 9.27341 223.534 10.3643 222.625 11.0915C221.715 12.0006 220.806 12.3642 219.534 12.3642C218.261 12.3642 217.352 12.0006 216.443 11.0915C215.534 10.1825 215.17 9.0916 215.17 8.00072ZM216.079 18.3641L222.806 17.0914V43.9997H216.079V18.3641Z" fill="#1A1A1A"/>
<path d="M209.17 16.3652H202.443V31.6375C202.443 34.7283 199.898 37.4555 196.625 37.4555C193.534 37.4555 190.807 34.9102 190.807 31.6375V16.3652H184.08V31.6375C184.08 38.5464 189.716 44.1826 196.625 44.1826C203.534 44.1826 209.17 38.5464 209.17 31.6375V16.3652Z" fill="#1A1A1A"/>
<path d="M118.047 28.7285V44.0008H124.774V28.7285C124.774 25.6377 127.319 23.0923 130.41 23.0923C133.501 23.0923 136.228 25.6377 136.228 28.9103V44.1826H142.955V28.9103C142.955 22.0014 137.319 16.3652 130.41 16.3652C123.501 16.3652 118.047 21.8196 118.047 28.7285Z" fill="#1A1A1A"/>
<path d="M241.17 37.8171C240.806 37.8171 240.443 37.8171 240.079 37.8171C238.624 37.8171 237.533 37.4535 237.17 36.7262C236.806 35.999 236.443 34.9081 236.443 33.8172V0L229.897 1.27269V33.8172C229.897 35.0899 230.079 36.3626 230.261 37.4535C230.443 38.5444 230.988 39.6352 231.534 40.5443C232.261 41.4534 232.988 42.1806 234.261 42.5442C235.352 43.0897 236.806 43.2715 238.624 43.2715C239.352 43.2715 240.079 43.2715 240.988 43.0897V37.8171H241.17Z" fill="#1A1A1A"/>
<path d="M280.26 37.8171C278.805 37.8171 277.714 37.4535 277.351 36.7262C276.987 35.999 276.623 34.9081 276.623 33.8172V0L270.078 1.27269V17.0904C269.351 16.7268 268.624 16.3632 267.715 15.9995C265.896 15.2723 264.078 14.9087 261.897 14.9087C259.897 14.9087 257.897 15.2723 256.079 15.9995C254.26 16.7268 252.806 17.6359 251.351 18.9086C250.079 20.1812 248.988 21.6357 248.261 23.4539C247.533 25.272 247.17 27.0901 247.17 29.2719C247.17 31.4537 247.533 33.2718 248.261 35.0899C248.988 36.908 250.079 38.3625 251.351 39.6352C252.624 40.9079 254.26 41.817 256.079 42.5442C257.897 43.2715 259.715 43.6351 261.897 43.6351C263.896 43.6351 265.896 43.2715 267.715 42.5442C268.26 42.3624 268.805 41.9988 269.351 41.817L269.169 41.6352C268.442 40.7261 268.078 39.8171 267.896 38.5444C267.715 37.6353 267.533 36.7262 267.533 35.6354C266.987 36.1808 266.26 36.7262 265.533 37.0899C264.624 37.6353 263.351 37.8171 262.078 37.8171C260.806 37.8171 259.533 37.6353 258.624 37.0899C257.715 36.5444 256.806 35.8172 256.26 35.0899C255.533 34.1808 255.169 33.2718 254.806 32.3627C254.442 31.2718 254.26 30.181 254.26 29.2719C254.26 28.181 254.442 27.272 254.806 26.1811C255.169 25.0902 255.533 24.1811 256.26 23.4539C256.988 22.5448 257.715 21.9994 258.624 21.4539C259.533 20.9085 260.806 20.7267 262.078 20.7267C263.351 20.7267 264.624 20.9085 265.533 21.4539C266.442 21.9994 267.351 22.5448 267.896 23.4539C268.442 24.3629 268.987 25.272 269.351 26.1811C269.533 26.5447 269.533 27.272 269.533 27.8174V33.8172C269.533 35.0899 269.714 36.3626 269.896 37.4535C270.078 38.5444 270.624 39.6352 271.169 40.5443C271.896 41.4534 272.623 42.1806 273.896 42.5442C274.987 43.0897 276.442 43.2715 278.26 43.2715C278.805 43.2715 279.714 43.2715 280.441 43.0897V37.8171C280.623 37.8171 280.441 37.8171 280.26 37.8171Z" fill="#1A1A1A"/>
<path d="M45.4564 22.183C46.9109 22.183 48.0018 22.5466 48.3654 23.2739C48.729 24.0011 49.0927 25.092 49.0927 26.1829V60.0001L55.6379 58.7274V42.9097C56.3652 43.2733 57.0924 43.6369 58.0015 44.0006C59.8196 44.7278 61.6378 45.0914 63.8195 45.0914C65.8195 45.0914 67.8194 44.7278 69.6375 44.0006C71.4557 43.2733 72.9102 42.3643 74.3647 41.0916C75.6374 39.8189 76.7282 38.3644 77.4555 36.5462C78.1827 34.7281 78.5464 32.91 78.5464 30.7282C78.5464 28.5465 78.1827 26.7283 77.4555 24.9102C76.7282 23.0921 75.6374 21.6376 74.3647 20.3649C73.092 19.0922 71.4557 18.1831 69.6375 17.4559C67.8194 16.7286 66.0013 16.365 63.8195 16.365C61.8196 16.365 59.8196 16.7286 58.0015 17.4559C57.4561 17.6377 56.9106 18.0013 56.3652 18.1831L56.547 18.3649C57.2742 19.274 57.6379 20.1831 57.8197 21.4558C58.0015 22.3648 58.1833 23.2739 58.1833 24.3648C58.7288 23.8193 59.456 23.2739 60.1833 22.9103C61.0923 22.3648 62.365 22.183 63.6377 22.183C64.9104 22.183 66.1831 22.3648 67.0921 22.9103C68.0012 23.4557 68.9103 24.183 69.4557 24.9102C70.183 25.8193 70.5466 26.7283 70.9102 27.6374C71.2738 28.7283 71.4557 29.8192 71.4557 30.7282C71.4557 31.8191 71.2738 32.7282 70.9102 33.819C70.5466 34.9099 70.183 35.819 69.4557 36.5462C68.7285 37.4553 68.0012 38.0007 67.0921 38.5462C66.1831 39.0916 64.9104 39.2734 63.6377 39.2734C62.365 39.2734 61.0923 39.0916 60.1833 38.5462C59.2742 38.0007 58.3651 37.4553 57.8197 36.5462C57.2742 35.6372 56.7288 34.7281 56.3652 33.819C56.1834 33.4554 56.1834 32.7282 56.1834 32.1827V26.1829C56.1834 24.9102 56.0016 23.6375 55.8197 22.5466C55.6379 21.4558 55.0925 20.3649 54.5471 19.4558C53.8198 18.5467 53.0925 17.8195 51.8199 17.4559C50.729 16.9104 49.2745 16.7286 47.4563 16.7286C46.9109 16.7286 46.0018 16.7286 45.2746 16.9104V22.183C45.0928 22.183 45.2746 22.183 45.4564 22.183Z" fill="#1A1A1A"/>
<path d="M111.091 24.5468C110.364 22.7287 109.455 21.2742 108.364 20.0015C107.273 18.7288 105.819 17.8197 104.182 17.2743C102.546 16.7289 100.91 16.3652 98.9096 16.3652C96.9097 16.3652 95.0915 16.7289 93.2734 17.4561C91.4553 18.1834 90.0008 19.0924 88.7281 20.3651C87.4554 21.6378 86.3645 23.0923 85.6373 24.9104C84.91 26.7286 84.5464 28.7285 84.5464 30.9103C84.5464 33.092 84.91 35.092 85.6373 36.9101C86.3645 38.7282 87.4554 40.1827 88.7281 41.2736C90.0008 42.5463 91.4553 43.4554 93.2734 44.0008C95.0915 44.5462 96.9097 44.9099 99.0914 44.9099C102.546 44.9099 106.182 44.0008 109.455 41.0918L105.819 36.7283C105.273 37.2737 103.637 38.3646 103.273 38.5464C102.182 39.0919 100.728 39.4555 99.0914 39.4555C98.1824 39.4555 97.0915 39.2737 96.3642 38.91C95.4552 38.5464 94.7279 38.1828 94.0007 37.4555C93.2734 36.9101 92.728 36.1828 92.3643 35.4556C92.0007 34.7283 91.6371 33.8193 91.6371 32.7284C91.4553 30.183 91.6371 27.8195 91.6371 27.8195C91.8189 25.8195 92.5462 24.365 94.0007 23.0923C95.4552 21.8196 97.0915 21.2742 99.0914 21.2742C100.182 21.2742 101.091 21.456 102 21.8196C102.728 22.1832 103.455 22.7287 104 23.2741C104.546 23.8196 104.909 24.5468 105.091 25.2741C105.273 26.0013 105.455 26.9104 105.455 27.8195H93.8188V32.7284H112C112 32.3648 112 32.183 112 31.8193C112 31.4557 112 31.2739 112 30.9103C112.182 28.5467 111.818 26.3649 111.091 24.5468Z" fill="#1A1A1A"/>
<path d="M174.533 24.539C172.106 21.7385 164.451 21.9252 164.451 21.9252H161.837H159.037V28.273H165.571C167.251 28.273 170.799 28.273 170.799 32.7538C170.799 37.7946 166.878 37.7946 166.318 37.7946H156.236V28.273V21.9252V12.9637H162.584C163.144 12.9637 163.517 13.1504 164.077 13.3371C164.451 13.5238 165.011 13.8972 165.198 14.2706C165.384 14.644 165.758 15.2041 165.944 15.5775C166.131 16.1375 166.318 16.6976 166.318 17.2577C166.318 17.8178 166.131 18.3779 165.944 18.938C165.944 18.938 165.944 19.1247 165.758 19.1247C170.052 19.3114 171.919 20.0582 173.226 20.6183C173.412 19.8715 173.599 18.7513 173.599 16.8843C173.599 14.8307 173.039 6.4292 162.397 6.4292H148.955V44.1424H166.318C167.998 44.1424 169.492 43.9557 170.799 43.5823C172.292 43.2089 173.412 42.6488 174.533 41.7153C175.653 40.7818 176.4 39.6616 177.146 38.3547C177.706 36.8611 178.08 35.1809 178.08 33.1272C178.08 30.5134 177.146 26.9661 174.533 24.539Z" fill="#1A1A1A"/>
<path fillRule="evenodd" clipRule="evenodd" d="M7.85437 11.1094C15.0866 4.79404 26.0639 4.9231 33.1649 11.6835C40.6752 18.8334 40.9667 30.7543 33.8013 38.2825C26.8895 45.5436 15.5272 46.0665 7.96563 39.611L13.3909 33.912C17.7948 37.3924 24.1813 37.0096 28.1201 32.8728C32.2948 28.4867 32.1412 21.5394 27.7552 17.3647C23.7964 13.5951 17.7925 13.3614 13.5711 16.5525L7.85437 11.1094Z" fill="#1A1A1A"/>
<path d="M12.0749 19.6013L5.97096 13.5002L0.0229299 19.3981L6.12688 25.5014L0 31.5796L5.9251 37.5002L12.052 31.422L18 25.5242L12.0749 19.6013Z" fill="#01DB83"/>
</svg>
