<svg width="138" height="120" viewBox="0 0 138 120" fill="none" xmlns="http://www.w3.org/2000/svg">
<g clipPath="url(#clip0_312_1768)">
<path d="M121.851 110.496C124.933 106.233 127.142 101.301 128.272 95.8559C132.33 75.5648 119.128 55.7874 98.8372 51.7292C78.5462 47.6709 58.7688 60.873 54.7105 81.1641C53.6318 86.6607 53.7859 92.0545 54.9674 97.1401L121.851 110.496Z" fill="#F3F3F3"/>
<path d="M126.269 74.5387C122.93 74.7955 118.204 74.4873 111.782 72.7921C99.2482 69.4017 85.4811 59.025 73.7174 55.4805C65.0872 60.1038 58.3064 68.1175 55.4297 78.1346C59.642 75.8229 65.6009 73.6654 73.255 73.2031C90.3612 72.2784 107.57 80.7031 117.33 81.9873C121.491 82.5524 125.293 82.0901 128.272 81.3195C127.81 79.0079 127.142 76.6962 126.269 74.5387Z" fill="#D9D9D9"/>
<path d="M118.255 97.3968C112.296 95.9071 93.2374 80.8557 75.1552 81.6262C65.0353 82.0372 58.1518 83.9893 54.0422 85.5817C53.734 89.5372 54.0422 93.4413 54.9155 97.1399L121.799 110.496C124.778 106.387 126.987 101.558 128.118 96.2667C124.984 97.294 121.131 98.116 118.255 97.3968Z" fill="#D9D9D9"/>
<path d="M46.2317 21.5742C45.9749 22.3961 45.4612 23.0126 44.5879 23.3722C45.4098 23.7318 45.9749 24.3482 46.1804 25.1701C46.4372 24.3482 46.9509 23.7318 47.7728 23.3722C47.0536 23.0639 46.4886 22.4475 46.2317 21.5742Z" fill="#D9D9D9"/>
<path d="M112.036 7.29297C111.78 8.11489 111.266 8.73133 110.393 9.09091C111.214 9.4505 111.78 10.0669 111.985 10.8889C112.242 10.0669 112.756 9.4505 113.578 9.09091C112.807 8.7827 112.242 8.16626 112.036 7.29297Z" fill="#D9D9D9"/>
<path d="M121.13 39.0898C120.873 39.9118 120.36 40.5282 119.486 40.8878C120.308 41.2474 120.873 41.8638 121.079 42.6857C121.336 41.8638 121.849 41.2474 122.671 40.8878C121.901 40.5282 121.387 39.9118 121.13 39.0898Z" fill="#D9D9D9"/>
<path d="M8.63016 73.2025C8.37331 74.0244 7.85962 74.6409 6.98633 75.0005C7.80825 75.3601 8.37331 75.9765 8.57879 76.7984C8.83564 75.9765 9.34934 75.3601 10.1713 75.0005C9.40071 74.6409 8.88701 74.0244 8.63016 73.2025Z" fill="#D9D9D9"/>
<path d="M125.496 13.3555C125.034 15.0507 123.955 16.2322 122.26 17.0027C123.955 17.7219 125.034 18.9548 125.496 20.65C125.958 18.9548 127.037 17.7733 128.732 17.0027C127.037 16.2835 125.958 15.0507 125.496 13.3555Z" fill="#D9D9D9"/>
<path d="M42.0722 60.3086C41.6099 62.0038 40.5311 63.1853 38.8359 63.9559C40.5311 64.675 41.6099 65.9079 42.0722 67.6031C42.5346 65.9079 43.6133 64.7264 45.3085 63.9559C43.6133 63.2367 42.5346 62.0038 42.0722 60.3086Z" fill="#D9D9D9"/>
<path d="M33.4414 5.49609C32.9791 7.1913 31.9003 8.37281 30.2051 9.14335C31.9003 9.86253 32.9791 11.0954 33.4414 12.7906C33.9037 11.0954 34.9825 9.9139 36.6777 9.14335C34.9825 8.42418 33.9037 7.1913 33.4414 5.49609Z" fill="#D9D9D9"/>
<path d="M92.0302 26.4905C99.055 23.5807 102.391 15.5272 99.481 8.5024C96.5712 1.47765 88.5176 -1.85817 81.4929 1.05164C74.4681 3.96145 71.1323 12.015 74.0421 19.0398C76.9519 26.0645 85.0055 29.4003 92.0302 26.4905Z" fill="#F3F3F3"/>
<path d="M89.4834 0.257812C89.5862 2.31261 89.432 4.47014 88.7129 5.95987C86.9663 9.60713 84.2951 10.7373 78.1307 13.7681C75.6136 15.001 74.5862 17.3126 74.2266 19.6243C75.2026 21.7304 76.6923 23.5284 78.5416 24.864C78.9526 23.1174 79.7231 21.2167 81.2129 19.5729C84.8601 15.566 90.4081 19.3674 96.8807 16.1311C98.5759 15.2578 99.706 13.8195 100.425 12.1756C99.7574 6.21672 95.2882 1.43932 89.4834 0.257812Z" fill="#D9D9D9"/>
<path d="M22.1385 59.2809C28.4368 59.2809 33.5426 54.1751 33.5426 47.8768C33.5426 41.5784 28.4368 36.4727 22.1385 36.4727C15.8402 36.4727 10.7344 41.5784 10.7344 47.8768C10.7344 54.1751 15.8402 59.2809 22.1385 59.2809Z" fill="#F3F3F3"/>
<path d="M4.82812 58.0463C3.80073 58.0463 3.23566 57.8408 3.03018 57.3785C2.72196 56.7107 3.3384 55.786 4.87949 54.5018C6.26648 53.3717 8.32128 51.9847 10.9411 50.5463C11.0439 50.4949 11.198 50.5463 11.3007 50.6491C11.3521 50.7518 11.3007 50.9059 11.198 51.0086C8.62949 52.447 6.5747 53.7826 5.23908 54.9128C3.38977 56.4539 3.44114 57.0189 3.49251 57.173C3.59525 57.3271 4.26306 58.1491 9.811 56.7107C13.6637 55.6833 18.6466 53.8854 23.7836 51.6251C28.9206 49.3648 33.5952 46.8991 36.9857 44.7415C41.8144 41.6593 41.6603 40.5806 41.6089 40.4265C41.5576 40.2723 41.1466 39.81 38.7836 40.1696C37.0884 40.4265 34.7254 40.9915 31.9514 41.9162C31.7973 41.9675 31.6946 41.8648 31.6432 41.7621C31.5918 41.608 31.6946 41.5052 31.7973 41.4538C34.5713 40.5806 36.9857 39.9641 38.6809 39.7073C40.6329 39.4504 41.7117 39.6045 42.0199 40.2723C42.2254 40.786 41.9172 41.5052 40.9925 42.3785C40.1706 43.2004 38.8863 44.1251 37.2425 45.2039C33.8521 47.3614 29.1261 49.8271 23.9891 52.0874C18.8521 54.3477 13.8692 56.1456 9.96511 57.173C8.06443 57.6867 6.52333 57.9436 5.34182 58.0463C5.13634 58.0463 4.98223 58.0463 4.82812 58.0463Z" fill="#ADB9C8"/>
<path d="M137.056 119.742C118.922 103.407 94.9838 93.4922 68.6825 93.4922C42.3811 93.4922 18.34 103.458 0.257812 119.742H137.056Z" fill="white"/>
<path d="M137.055 119.997C137.003 119.997 136.952 119.997 136.9 119.946C132.38 115.888 127.448 112.189 122.311 109.004C117.072 105.768 111.575 102.994 105.873 100.785C94.0579 96.1619 81.5237 93.7989 68.6812 93.7989C55.8387 93.7989 43.3559 96.1619 31.4894 100.785C25.7874 102.994 20.2394 105.768 15.0511 109.004C9.91409 112.189 4.98258 115.888 0.462034 119.946C0.359295 120.049 0.205185 120.049 0.102445 119.946C-0.000294305 119.843 -0.000294305 119.689 0.102445 119.587C4.62299 115.477 9.5545 111.778 14.7429 108.593C19.9826 105.357 25.5305 102.532 31.284 100.323C43.2018 95.6482 55.736 93.2852 68.6298 93.2852C81.5237 93.2852 94.1093 95.6482 105.976 100.323C111.729 102.583 117.277 105.357 122.517 108.593C127.705 111.83 132.637 115.528 137.157 119.587C137.26 119.689 137.26 119.843 137.157 119.946C137.157 119.997 137.106 119.997 137.055 119.997Z" fill="#707070"/>
<path d="M10.2754 111.831V107.67C10.2754 107.67 15.8233 101.609 22.45 97.91C33.8542 91.4888 39.7103 92.2593 39.7103 92.2593L47.8268 95.6497C47.8268 95.6497 42.4329 103.201 31.5939 108.698C23.6829 112.705 16.9535 114.246 16.9535 114.246L10.2754 111.831Z" fill="white"/>
<path d="M17.0039 114.45C16.9011 114.45 16.7984 114.348 16.747 114.245C16.6957 114.091 16.7984 113.988 16.9525 113.937C17.0039 113.937 23.7333 112.344 31.5416 108.44C37.1409 105.615 41.1991 102.224 43.6648 99.9126C45.771 97.9092 47.0552 96.3167 47.5176 95.7003L39.658 92.464C39.4525 92.464 37.9628 92.3098 35.3943 92.8749C30.6683 93.9023 25.7881 96.2653 22.6032 98.0633C16.4388 101.505 11.1477 107.053 10.5313 107.721V111.779C10.5313 111.933 10.4285 112.036 10.2744 112.036C10.1203 112.036 10.0176 111.933 10.0176 111.779V107.618C10.0176 107.567 10.0176 107.515 10.0689 107.464C10.1203 107.413 15.7196 101.351 22.3463 97.6523C25.634 95.803 30.5142 93.44 35.3429 92.4126C38.2196 91.7961 39.7094 92.0016 39.7607 92.0016H39.8121L47.9285 95.392C47.9799 95.4434 48.0313 95.4948 48.0826 95.5461C48.0826 95.5975 48.0826 95.7003 48.0313 95.7516C48.0313 95.7516 46.6443 97.7037 43.9731 100.272C41.5073 102.635 37.3463 106.077 31.747 108.902C23.8874 112.858 17.158 114.45 17.0552 114.45H17.0039Z" fill="#707070"/>
<path d="M13.6115 107.979C13.5087 107.979 13.406 107.928 13.406 107.825C13.3546 107.723 13.406 107.568 13.5601 107.517C13.5601 107.517 15.3067 106.849 23.5772 102.997C31.7964 99.1952 34.9813 95.7534 34.9813 95.7021C35.0841 95.5993 35.2382 95.5993 35.3409 95.7021C35.4437 95.8048 35.4437 95.9589 35.3409 96.0616C35.2895 96.113 34.519 96.9863 32.7211 98.3219C31.0258 99.5548 28.1491 101.455 23.7827 103.459C15.4608 107.312 13.8169 107.979 13.7142 107.979C13.7142 107.979 13.6628 107.979 13.6115 107.979Z" fill="#707070"/>
<path d="M87.1758 95.1874C87.1758 95.1874 93.2888 93.4922 94.1621 93.4922C96.7306 93.4922 100.789 93.9545 110.087 98.2696C119.385 102.585 124.933 107.311 124.933 107.311L128.272 112.653C128.272 112.653 119.385 113.783 107.21 109.057C95.0354 104.331 88.9737 99.2456 88.9737 99.2456L87.1758 95.1874Z" fill="white"/>
<path d="M125.599 113.012C124.675 113.012 123.545 112.961 122.26 112.858C118.819 112.601 113.425 111.728 107.106 109.262C103.613 107.927 98.4248 105.666 93.3906 102.533C90.3597 100.684 88.8186 99.3993 88.8186 99.348C88.7159 99.2452 88.7159 99.0911 88.7673 98.9884C88.87 98.8857 89.0241 98.8857 89.1269 98.937C89.1269 98.937 90.668 100.221 93.6474 102.071C96.4214 103.766 100.993 106.283 107.26 108.749C113.528 111.163 118.87 112.036 122.26 112.293C125.034 112.499 126.986 112.396 127.757 112.345L124.675 107.413C124.212 107.053 118.716 102.533 109.932 98.4233C105.771 96.4713 102.329 95.187 99.5036 94.4165C96.9351 93.7487 95.2912 93.6459 94.1097 93.6459C93.4419 93.6459 88.9214 94.8274 87.2262 95.3411C87.0721 95.3925 86.9693 95.2898 86.918 95.187C86.8666 95.0329 86.9693 94.9302 87.0721 94.8788C87.6885 94.7247 93.2365 93.1836 94.1097 93.1836C96.9351 93.1836 101.045 93.7487 110.137 97.961C114.966 100.17 118.767 102.533 121.079 104.125C123.596 105.821 125.034 107.053 125.034 107.053L125.086 107.105L128.425 112.499C128.476 112.55 128.476 112.653 128.425 112.756C128.373 112.858 128.322 112.91 128.219 112.91C128.168 112.91 127.243 113.012 125.599 113.012Z" fill="#707070"/>
<path d="M121.13 107.514C121.028 107.514 114.144 106.744 106.541 103.353C104.332 102.377 101.147 100.836 98.3221 98.8842C96.6269 97.7027 95.9077 96.9835 95.8564 96.9835C95.7536 96.8808 95.7536 96.7267 95.8564 96.6239C95.9591 96.5212 96.1132 96.5212 96.2159 96.6239C96.2673 96.6753 99.1954 99.552 106.695 102.891C114.247 106.23 121.079 107.001 121.13 107.001C121.284 107.001 121.387 107.155 121.336 107.257C121.387 107.412 121.284 107.514 121.13 107.514Z" fill="#707070"/>
</g>
<defs>
<clipPath id="clip0_312_1768">
<rect width="137.26" height="120" fill="white"/>
</clipPath>
</defs>
</svg>
