<?xml version="1.0" encoding="UTF-8"?>
<svg width="24px" height="24px" viewBox="0 0 24 24" version="1.1" xmlns="http://www.w3.org/2000/svg" xmlns:xlink="http://www.w3.org/1999/xlink">
    <title>编组</title>
    <defs>
        <polygon id="path-1" points="23.9736469 0 4.13731549e-16 0 4.13731549e-16 24 23.9736469 24"></polygon>
    </defs>
    <g id="页面-1" stroke="none" stroke-width="1" fill="none" fillRule="evenodd">
        <g id="编组">
            <g id="Clipped">
                <mask id="mask-2" fill="white">
                    <use xlink:href="#path-1"></use>
                </mask>
                <g id="路径"></g>
                <path d="M-0.00195312,11.9937 C-0.00195312,18.6085 5.36127688,23.9718 11.9761469,23.9718 C18.5909469,23.9718 23.9541469,18.6085 23.9541469,11.9937 C23.9541469,5.37885 18.5909469,0.015625 11.9761469,0.015625 C5.36127688,0.015625 -0.00195312,5.37885 -0.00195312,11.9937 Z" id="路径" fill="#738BD8" fillRule="nonzero" mask="url(#mask-2)"></path>
            </g>
            <polygon id="路径" fill="#FFFFFF" fillRule="nonzero" points="19.4851469 5.49805 4.46288688 5.49805 4.46288688 16.6631 19.4851469 16.6631"></polygon>
            <path d="M16.3296469,21.8239 L3.67606688,20.2009 C2.31039688,20.0255 2.38058688,15.7296 2.50048688,14.3552 L3.10874688,7.40112 C3.22863688,6.02961 4.84871688,4.58791 6.21438688,4.39783 L17.1279469,2.87425 C18.4936469,2.68417 21.2747469,7.84854 21.2485335,9.2259 L21.0466469,19.6395 M11.9753469,7.04143 C9.29955688,7.04143 7.42505688,8.19069 7.42505688,8.19069 C8.45442688,7.27245 10.2499469,6.74315 10.2499469,6.74315 L10.0803469,6.57353 C8.39301688,6.60278 6.86650688,7.77251 6.86650688,7.77251 C5.14992688,11.3548 5.25812688,14.4517 5.25812688,14.4517 C6.65595688,16.2589 8.73223688,16.1273 8.73223688,16.1273 L9.43992688,15.2296 C8.19123688,14.9605 7.40458688,13.8522 7.40458688,13.8522 C7.40458688,13.8522 9.28200688,15.1301 11.9753469,15.1301 C14.6715469,15.1301 16.5460469,13.8522 16.5460469,13.8522 C16.5460469,13.8522 15.7564469,14.9605 14.5107469,15.2296 L15.2184469,16.1273 C15.2184469,16.1273 17.2946469,16.256 18.6925469,14.4517 C18.6925469,14.4517 18.8036469,11.3577 17.0841469,7.77251 C17.0841469,7.77251 15.5576469,6.6057 13.8702469,6.57353 L13.7006469,6.74315 C13.7006469,6.74315 15.4962469,7.27245 16.5255469,8.19069 C16.5255469,8.19069 14.6510469,7.04143 11.9753469,7.04143 Z M9.90781688,10.8255 C10.5570469,10.8255 11.0863469,11.3958 11.0746469,12.0918 C11.0746469,12.7819 10.5540469,13.3609 9.90781688,13.3609 C9.27031688,13.3609 8.74977688,12.7819 8.74977688,12.0918 C8.74977688,11.3928 9.26153688,10.8255 9.90781688,10.8255 Z M14.0720469,10.8255 C14.7212469,10.8255 15.2388469,11.3958 15.2388469,12.0918 C15.2388469,12.7819 14.7183469,13.3609 14.0720469,13.3609 C13.4345469,13.3609 12.9140469,12.7819 12.9140469,12.0918 C12.9140469,11.3928 13.4228469,10.8255 14.0720469,10.8255 Z" id="形状" fill="#738BD8" fillRule="nonzero"></path>
        </g>
    </g>
</svg>