<svg width="24" height="24" viewBox="0 0 24 24" fill="none" xmlns="http://www.w3.org/2000/svg">
<g clipPath="url(#clip0_505_247)">
<mask id="mask0_505_247" style="mask-type:luminance" maskUnits="userSpaceOnUse" x="0" y="0" width="24" height="24">
<path d="M23.974 0.00390625H0.00390625V24.0009H23.974V0.00390625Z" fill="white"/>
</mask>
<g mask="url(#mask0_505_247)">
<path d="M5.01311 11.9871C5.01311 11.209 5.1448 10.4607 5.38124 9.76341L1.25703 6.67773C0.427999 8.32382 -0.00297741 10.1435 1.54819e-05 11.9871C1.54819e-05 13.8966 0.451942 15.6953 1.25404 17.2935L5.37824 14.2049C5.13582 13.4896 5.01311 12.7413 5.01311 11.9871Z" fill="#FBBC05"/>
</g>
<mask id="mask1_505_247" style="mask-type:luminance" maskUnits="userSpaceOnUse" x="0" y="0" width="24" height="24">
<path d="M23.974 0.00390625H0.00390625V24.0009H23.974V0.00390625Z" fill="white"/>
</mask>
<g mask="url(#mask1_505_247)">
<path d="M12.2597 4.90236C13.9866 4.90236 15.5459 5.50094 16.773 6.4826L20.3405 2.99588C18.1647 1.14328 15.3783 0 12.2597 0C7.41419 0 3.25108 2.71156 1.25781 6.67714L5.38501 9.76281C6.33376 6.93453 9.04232 4.90236 12.2597 4.90236Z" fill="#EA4335"/>
</g>
<path d="M12.2597 19.0684C9.04232 19.0684 6.33376 17.0362 5.38202 14.2109L1.25781 17.2966C3.25108 21.2592 7.41419 23.9738 12.2597 23.9738C15.2496 23.9738 18.1018 22.9352 20.2477 20.9868L16.33 18.0209C15.2256 18.7033 13.8339 19.0684 12.2597 19.0684Z" fill="#34A853"/>
<path d="M23.962 11.9874C23.962 11.2781 23.8482 10.5149 23.6836 9.80859H12.2598V14.4386H18.8351C18.5059 16.0188 17.6111 17.231 16.3331 18.0211L20.2478 20.987C22.4984 18.9399 23.962 15.8931 23.962 11.9874Z" fill="#4285F4"/>
</g>
<defs>
<clipPath id="clip0_505_247">
<rect width="23.9731" height="24" fill="white"/>
</clipPath>
</defs>
</svg>
