<?xml version="1.0" encoding="UTF-8"?>
<svg width="24px" height="24px" viewBox="0 0 24 24" version="1.1" xmlns="http://www.w3.org/2000/svg" xmlns:xlink="http://www.w3.org/1999/xlink">
    <title>编组</title>
    <g id="页面-1" stroke="none" stroke-width="1" fill="none" fillRule="evenodd">
        <g id="编组">
            <rect id="矩形" fill="#F3BA2F" fillRule="nonzero" x="0" y="0" width="24" height="24" rx="12"></rect>
            <g transform="translate(6.500000, 7.000000)">
                <polygon id="路径" stroke="#FFFFFF" stroke-linecap="round" stroke-linejoin="round" points="3.9951 1.99223 7.4458 0 8.5989 1.99723"></polygon>
                <path d="M1,2 C0.72386,2 0.5,2.22385 0.5,2.5 L0.5,9.5 C0.5,9.7761 0.72386,10 1,10 L10,10 C10.2761,10 10.5,9.7761 10.5,9.5 L10.5,7.25 L8.3125,7.25 C7.5876,7.25 7,6.6904 7,6 C7,5.3096 7.5876,4.75 8.3125,4.75 L10.5,4.75 L10.5,2.5 C10.5,2.22385 10.2761,2 10,2 L1,2 Z" id="路径" fill="#FFFFFF"></path>
                <path d="M10.5,7.25 L11,7.25 C11,6.9739 10.7761,6.75 10.5,6.75 L10.5,7.25 Z M10.5,4.75 L10.5,5.25 C10.7761,5.25 11,5.0261 11,4.75 L10.5,4.75 Z M1,2.5 L1,1.5 C0.44772,1.5 0,1.9477 0,2.5 L1,2.5 Z M1,9.5 L1,2.5 L0,2.5 L0,9.5 L1,9.5 Z M1,9.5 L0,9.5 C0,10.0523 0.44772,10.5 1,10.5 L1,9.5 Z M10,9.5 L1,9.5 L1,10.5 L10,10.5 L10,9.5 Z M10,9.5 L10,10.5 C10.5523,10.5 11,10.0523 11,9.5 L10,9.5 Z M10,7.25 L10,9.5 L11,9.5 L11,7.25 L10,7.25 Z M8.3125,7.75 L10.5,7.75 L10.5,6.75 L8.3125,6.75 L8.3125,7.75 Z M6.5,6 C6.5,6.9892 7.3347,7.75 8.3125,7.75 L8.3125,6.75 C7.8405,6.75 7.5,6.3915 7.5,6 L6.5,6 Z M8.3125,4.25 C7.3347,4.25 6.5,5.0108 6.5,6 L7.5,6 C7.5,5.6085 7.8405,5.25 8.3125,5.25 L8.3125,4.25 Z M10.5,4.25 L8.3125,4.25 L8.3125,5.25 L10.5,5.25 L10.5,4.25 Z M10,2.5 L10,4.75 L11,4.75 L11,2.5 L10,2.5 Z M10,2.5 L11,2.5 C11,1.94771 10.5523,1.5 10,1.5 L10,2.5 Z M1,2.5 L10,2.5 L10,1.5 L1,1.5 L1,2.5 Z" id="形状" fill="#FFFFFF" fillRule="nonzero"></path>
                <line x1="10.5" y1="3.125" x2="10.5" y2="9.125" id="路径" stroke="#FFFFFF" stroke-linecap="round"></line>
            </g>
        </g>
    </g>
</svg>