<svg width="59" height="91" viewBox="0 0 59 91" fill="none" xmlns="http://www.w3.org/2000/svg">
<g clip-path="url(#clip0_855_10490)">
<path d="M10.5982 48.9492C9.00147 44.3837 10.6434 39.0451 14.4529 36.1422L17.3039 39.9737C15.1723 41.6141 14.1847 44.7737 15.109 47.3756L10.5982 48.9492Z" fill="#F1B554"/>
<path d="M37.1508 73.257L35.835 68.6954C37.1494 68.2629 38.1093 66.5225 38.6332 65.0934C39.3121 63.3492 39.7457 61.4678 39.9463 59.6668L44.6634 60.2173C44.4216 62.4354 43.8331 64.6319 43.0472 66.7755C41.7552 70.2817 39.7619 72.4585 37.1508 73.257Z" fill="#80AB81"/>
<path d="M24.9303 87.8179C21.6769 86.8035 18.9297 84.4265 17.4367 81.3156L21.7256 79.2545C22.631 81.1379 24.3547 82.5985 26.2924 83.2604L24.9303 87.8179Z" fill="#78415C"/>
<path d="M28.6272 8.76704C27.5747 8.48503 26.6237 8.08752 25.7262 7.49033L28.3504 3.48507C30.1455 4.67945 32.6919 4.64837 34.4177 3.46998L37.0179 7.44832C34.6231 9.01819 31.4557 9.52494 28.6272 8.76704Z" fill="#ED7666"/>
</g>
<defs>
<clipPath id="clip0_855_10490">
<rect width="38" height="84" fill="white" transform="translate(21.7402) rotate(15)"/>
</clipPath>
</defs>
</svg>
