<svg width="67" height="101" viewBox="0 0 67 101" fill="none" xmlns="http://www.w3.org/2000/svg">
<path d="M58.0398 91.3229L53.7245 89.2755C55.5433 85.4463 56.0336 81.0957 55.1583 76.9381L59.8568 75.9303C60.9094 81.1022 60.2632 86.5486 58.0398 91.3229Z" fill="#80AB81"/>
<path d="M53.5436 47.5051C48.8776 48.646 43.5594 47.4079 40.0163 44.1846L43.2479 40.6446C46.0625 43.1998 50.4686 43.8853 53.972 42.3236L55.9448 46.636C55.1937 47.0311 54.3434 47.3095 53.5436 47.5051Z" fill="#ED7666"/>
<path d="M14.3737 61.5257C10.7639 58.3187 9.64618 52.8806 11.6176 48.5205L15.9832 50.485C14.8878 52.9387 15.5354 56.1649 17.6053 57.9856L14.3737 61.5257Z" fill="#F1B554"/>
<path d="M18.8398 13.0515C17.7733 13.3123 16.7409 13.4237 15.6598 13.3355L16.0525 8.58577C18.2149 8.76216 20.4518 7.5101 21.4108 5.65388L25.6252 7.8669C24.2631 10.3858 21.706 12.3507 18.8398 13.0515Z" fill="#ED7666"/>
</svg>
